# ProBuilder 5.0.6
# https://unity3d.com/unity/features/worldbuilding/probuilder
# 5/13/2023 9:39:10 PM

mtllib ./Apple.mtl
o Apple

g Apple
v 0.07885945 0.2485026 3.039837E-07
v 0.1213526 0.2250001 0.04635256
v 0.04635227 0.2535667 0.07500017
v 0.1275977 0.1500001 0.07885969
v 0.07500004 0.1963527 0.1213526
v 3.576279E-08 0.2288598 0.1275976
v -1.430512E-07 0.2303368 2.682209E-07
v -0.0463527 0.2535669 0.07500017
v -0.07885979 0.2485028 3.218651E-07
v 0.04635228 0.2535664 -0.07499964
v -0.04635281 0.2535668 -0.07499962
v 3.576279E-08 0.2288598 -0.1275976
v 0.1213526 0.2250001 -0.04635252
v 0.07500004 0.1963527 -0.1213525
v 0.1275977 0.1500001 -0.07885965
v 0.15 0.1500001 1.788139E-08
v -0.1213525 0.2250001 0.04635256
v -0.07499997 0.1963527 0.1213526
v -0.1275976 0.1500001 0.07885969
v 3.576279E-08 0.1500001 0.15
v 0.07500004 0.1036476 0.1213526
v 3.576279E-08 0.07114047 0.1275976
v 0.1213526 0.07500013 0.04635256
v 0.1213526 0.07500013 -0.04635252
v 0.07885944 0.004280961 1.609325E-07
v 0.07500004 0.1036476 -0.1213525
v 3.576279E-08 0.1500001 -0.15
v 3.576279E-08 0.07114047 -0.1275976
v -0.07499997 0.1963527 -0.1213525
v -0.1213525 0.2250001 -0.04635252
v -0.1275976 0.1500001 -0.07885965
v -0.07886013 0.03175873 -2.682209E-08
v -0.1213525 0.07500013 0.04635256
v -0.04635283 -0.007155897 0.07500014
v -0.07499997 0.1036476 0.1213526
v -3.218651E-07 0.04530731 3.755093E-07
v 0.04635213 0.0203218 0.07499995
v -0.04635279 -0.007155912 -0.07499993
v 0.04635216 0.02032179 -0.07500013
v -0.1213525 0.07500013 -0.04635252
v -0.07499997 0.1036476 -0.1213525
v -0.15 0.1500001 1.788139E-08

vt 0.2371355 0.5000012
vt 0.09549163 0.6545087
vt 0.3454927 0.7500007
vt -0.6545085 0.7529558
vt -0.7628656 0.5023678
vt -0.9045086 0.6630973
vt -0.09364109 0.7050595
vt -0.2474424 0.593216
vt -0.3433712 0.7937117
vt -0.4973826 0.6999126
vt 0.5000007 0.5000011
vt 0.5000001 0.9253256
vt 0.6545093 0.7500007
vt 0.7628663 0.5000013
vt 0.3454927 0.2500014
vt 0.6545097 0.2500015
vt 0.5000001 0.07467482
vt 0.09549163 0.3454917
vt 0.3461976 0.8598391
vt 0.500209 0.7660408
vt 0.2502688 0.6593443
vt 0.09646753 0.771188
vt -0.3454916 0.7529558
vt -0.09549156 0.6630973
vt -0.2371345 0.5023678
vt -0.500001 0.8363534
vt -0.5000001 0.4996753
vt 0.9045086 0.6545087
vt -0.6523866 0.7936543
vt -0.7474404 0.5931225
vt -0.9026548 0.7049083
vt 0.6545085 0.7338673
vt 0.9045086 0.6411265
vt 0.7628656 0.4835379
vt -0.4971715 0.4326843
vt -0.07251802 0.4484451
vt -0.2474424 0.2848755
vt -0.4973826 0.1753323
vt -0.6545085 0.2532809
vt -0.3454916 0.2532809
vt -0.5000005 0.02281075
vt 0.07534445 0.5145736
vt 0.2502688 0.3510037
vt 0.4999979 0.4988125
vt 0.500209 0.2414605
vt 0.6552134 0.8597827
vt 0.7502668 0.6592508
vt 0.9045086 0.3454917
vt 0.9054813 0.7710368
vt 0.09549156 0.6411265
vt 0.3454916 0.7338673
vt 0.2371345 0.4835379
vt -0.7622559 0.4999999
vt -0.9030793 0.6545085
vt -0.6546339 0.7500005
vt 0.6545085 0.2339457
vt 0.9045086 0.332158
vt -0.9026548 0.2060027
vt -0.7474404 0.284782
vt -0.652387 -0.07351929
vt -0.4991386 0.5000013
vt -0.4986501 0.9253254
vt -0.3451041 0.7499998
vt -0.2370507 0.5000005
vt -0.6546338 0.2500002
vt -0.345104 0.2499996
vt -0.4986501 0.07467463
vt -0.9030793 0.3454916
vt 0.6552133 -0.007390775
vt 0.7502668 0.3509103
vt 0.9054813 0.2721313
vt 0.3454916 0.2339457
vt 0.09549156 0.332158
vt 0.4999999 0.09233823
vt 0.5000001 0.4822157
vt -0.9231654 0.4482861
vt -0.09407533 0.6545085
vt -0.3433717 0.01793035
vt -0.09364109 0.2061539
vt -0.9045086 0.3542813
vt 0.3461981 0.08405878
vt -0.09407533 0.3454916
vt 0.09646753 0.2722825
vt -0.09549156 0.3542813
vt 0.9259918 0.5144145
vt 0.5000011 0.8147053

vn 0.3893203 0.9148701 0.1069689
vn 0.7487835 0.3150939 0.5831287
vn 0.4726408 0.6854134 0.5539126
vn 0.3514987 0.6892624 0.6335345
vn -0.22155 0.9617718 -0.1609674
vn 1.163887E-06 0.9051152 0.4251665
vn 1.228329E-06 0.9552292 -0.2958669
vn 0.2215525 0.9617714 -0.1609668
vn -0.2215503 0.9617724 0.1609635
vn 0.2215527 0.9617714 0.1609661
vn 4.063401E-06 0.9552298 0.295865
vn 3.680131E-06 0.9051178 -0.4251609
vn 0.3893172 0.9148712 -0.106971
vn 0.3515002 0.6892672 -0.6335285
vn 0.4726357 0.685418 -0.5539112
vn 0.7487835 0.3150939 -0.5831287
vn 0.4839921 0.8750724 0
vn 0.9435222 0.1947387 -0.2680348
vn 0.9341724 0.356822 0
vn 0.9435222 0.1947387 0.2680348
vn -0.3893247 0.9148679 0.1069718
vn -0.3514979 0.68926 0.6335376
vn -0.4726443 0.6854103 0.5539135
vn -0.7487835 0.3150939 0.5831286
vn 0.1947385 0.2680347 0.9435223
vn 0.6284285 0 0.7778674
vn 0.3568218 0 0.9341725
vn 0.1947386 -0.2680347 0.9435223
vn 0.9435222 -0.1947387 0.2680349
vn 0.9435222 -0.1947387 -0.2680349
vn 0.9341724 -0.3568221 0
vn 0.8571631 -0.5150451 0
vn 0.6284283 0 -0.7778675
vn 0.1947387 0.268035 -0.9435222
vn 0.3568221 0 -0.9341723
vn 0.1947387 -0.2680351 -0.9435222
vn -0.3514988 0.6892629 -0.633534
vn -0.389324 0.9148683 -0.1069712
vn -0.4726415 0.6854128 -0.5539128
vn -0.7487835 0.315094 -0.5831287
vn -0.7317904 -0.680581 -0.03594687
vn -0.7487835 -0.315094 0.5831287
vn -0.6889961 -0.424021 0.5877845
vn -0.2579714 -0.4288657 0.8657511
vn 0.1461711 -0.8507771 -0.5047895
vn 0.1840217 -0.6208518 0.762023
vn 0.2546801 -0.8592494 -0.4436536
vn -0.4614989 -0.887081 -0.01030088
vn 0.1461661 -0.8507777 0.5047897
vn -0.4614989 -0.887081 0.0103008
vn 0.2546824 -0.8592505 0.4436502
vn 0.1840185 -0.6208519 -0.7620237
vn -0.7317904 -0.6805812 0.03594686
vn -0.2579719 -0.4288669 -0.8657503
vn -0.6889955 -0.424022 -0.5877845
vn -0.7487835 -0.315094 -0.5831287
vn -0.7132574 -0.7009023 0
vn -0.9435222 -0.1947389 -0.268035
vn -0.9341723 -0.3568223 0
vn -0.9435222 -0.1947389 0.268035
vn -0.1947386 -0.2680347 0.9435223
vn -0.6284285 0 0.7778674
vn -0.3568218 0 0.9341725
vn -0.1947385 0.2680347 0.9435223
vn 0.6341704 -0.652718 0.4144721
vn 0.2996917 -0.5403997 0.7862271
vn 0.6122441 -0.534569 0.5825747
vn 0.7487835 -0.3150939 0.5831287
vn 0.2996911 -0.540398 -0.7862285
vn 0.6341715 -0.6527187 -0.4144695
vn 0.6122451 -0.5345676 -0.5825748
vn 0.7487835 -0.315094 -0.5831287
vn -0.6284283 0 -0.7778675
vn -0.1947387 -0.2680351 -0.9435222
vn -0.3568221 0 -0.9341723
vn -0.1947387 0.268035 -0.9435222
vn -0.9435222 0.1947389 0.268035
vn -0.9435222 0.1947389 -0.268035
vn -0.9341723 0.3568223 0
vn -0.4839994 0.8750683 0

usemtl Apple
f 3/3/1 2/2/1 1/1/1
f 5/6/2 4/5/2 2/4/2
f 3/9/3 5/8/3 2/7/3
f 6/10/4 5/8/4 3/9/4
f 7/11/5 3/3/5 1/1/5
f 8/13/6 6/12/6 3/3/6
f 7/11/7 8/13/7 3/3/7
f 9/14/8 8/13/8 7/11/8
f 10/15/9 7/11/9 1/1/9
f 11/16/10 9/14/10 7/11/10
f 10/15/11 11/16/11 7/11/11
f 12/17/12 11/16/12 10/15/12
f 13/18/13 10/15/13 1/1/13
f 14/21/14 12/20/14 10/19/14
f 13/22/15 14/21/15 10/19/15
f 15/25/16 14/24/16 13/23/16
f 2/4/17 13/23/17 1/26/17
f 16/27/18 15/25/18 13/23/18
f 2/4/19 16/27/19 13/23/19
f 4/5/20 16/27/20 2/4/20
f 17/28/21 8/13/21 9/14/21
f 18/30/22 6/10/22 8/29/22
f 17/31/23 18/30/23 8/29/23
f 19/34/24 18/33/24 17/32/24
f 20/35/25 5/8/25 6/10/25
f 21/37/26 4/36/26 5/8/26
f 20/35/27 21/37/27 5/8/27
f 22/38/28 21/37/28 20/35/28
f 23/39/29 16/27/29 4/5/29
f 24/40/30 15/25/30 16/27/30
f 23/39/31 24/40/31 16/27/31
f 25/41/32 24/40/32 23/39/32
f 26/43/33 14/21/33 15/42/33
f 27/44/34 12/20/34 14/21/34
f 26/43/35 27/44/35 14/21/35
f 28/45/36 27/44/36 26/43/36
f 29/47/37 11/46/37 12/20/37
f 30/48/38 9/14/38 11/16/38
f 29/47/39 30/49/39 11/46/39
f 31/52/40 30/51/40 29/50/40
f 34/55/41 33/54/41 32/53/41
f 35/57/42 19/34/42 33/56/42
f 34/60/43 35/59/43 33/58/43
f 22/38/44 35/59/44 34/60/44
f 36/61/45 34/55/45 32/53/45
f 37/63/46 22/62/46 34/55/46
f 36/61/47 37/63/47 34/55/47
f 25/64/48 37/63/48 36/61/48
f 38/65/49 36/61/49 32/53/49
f 39/66/50 25/64/50 36/61/50
f 38/65/51 39/66/51 36/61/51
f 28/67/52 39/66/52 38/65/52
f 40/68/53 38/65/53 32/53/53
f 41/70/54 28/45/54 38/69/54
f 40/71/55 41/70/55 38/69/55
f 31/52/56 41/73/56 40/72/56
f 33/56/57 40/72/57 32/74/57
f 42/75/58 31/52/58 40/72/58
f 33/56/59 42/75/59 40/72/59
f 19/34/60 42/75/60 33/56/60
f 20/35/61 35/59/61 22/38/61
f 18/30/62 19/76/62 35/59/62
f 20/35/63 18/30/63 35/59/63
f 6/10/64 18/30/64 20/35/64
f 23/77/65 37/63/65 25/64/65
f 21/37/66 22/38/66 37/78/66
f 23/79/67 21/37/67 37/78/67
f 4/5/68 21/80/68 23/39/68
f 26/43/69 39/81/69 28/45/69
f 24/82/70 25/64/70 39/66/70
f 26/43/71 24/83/71 39/81/71
f 15/25/72 24/40/72 26/84/72
f 29/47/73 41/70/73 31/85/73
f 27/44/74 28/45/74 41/70/74
f 29/47/75 27/44/75 41/70/75
f 12/20/76 27/44/76 29/47/76
f 17/32/77 42/75/77 19/34/77
f 30/51/78 31/52/78 42/75/78
f 17/32/79 30/51/79 42/75/79
f 9/86/80 30/51/80 17/32/80

