# ProBuilder 5.0.6
# https://unity3d.com/unity/features/worldbuilding/probuilder
# 3/17/2023 1:18:25 PM

mtllib ./LogRamp.mtl
o LogRamp

g LogRamp
v 1 -0.2227516 0.1234977
v 1 1.814847 4.122508
v 1.125 -0.4156602 0.2217895
v 1.125 1.621938 4.2208
v 1.375 -0.4156602 0.2217895
v 1.375 1.621938 4.2208
v 1.5 -0.2227516 0.1234976
v 1.5 1.814847 4.122508
v 1.375 -0.02984305 0.02520579
v 1.375 2.007755 4.024216
v 1.125 -0.02984305 0.02520579
v 1.125 2.007755 4.024216
v 1.25 -0.2227516 0.1234977
v 1.25 1.814847 4.122508
v 1.625 -0.4156602 0.2217895
v 1.625 1.621938 4.220799
v 1.875 -0.4156602 0.2217895
v 1.875 1.621938 4.220799
v 2 -0.2227516 0.1234977
v 2 1.814847 4.122508
v 1.875 -0.02984305 0.02520579
v 1.875 2.007755 4.024216
v 1.625 -0.02984305 0.02520579
v 1.625 2.007755 4.024216
v 1.75 -0.2227516 0.1234977
v 1.75 1.814847 4.122508
v -2 -0.2227516 0.1234977
v -2 1.814847 4.122508
v -1.875 -0.4156602 0.2217895
v -1.875 1.621938 4.220799
v -1.625 -0.4156602 0.2217895
v -1.625 1.621938 4.220799
v -1.5 -0.2227516 0.1234977
v -1.5 1.814847 4.122508
v -1.625 -0.02984305 0.02520579
v -1.625 2.007755 4.024216
v -1.875 -0.02984305 0.02520579
v -1.875 2.007755 4.024216
v -1.75 -0.2227516 0.1234977
v -1.75 1.814847 4.122508
v -1.375 -0.4156602 0.2217895
v -1.375 1.621938 4.220799
v -1.125 -0.4156602 0.2217895
v -1.125 1.621938 4.220799
v -1 -0.2227516 0.1234977
v -1 1.814847 4.122508
v -1.125 -0.02984305 0.02520579
v -1.125 2.007755 4.024216
v -1.375 -0.02984305 0.02520579
v -1.375 2.007755 4.024216
v -1.25 -0.2227516 0.1234977
v -1.25 1.814847 4.122508
v -0.875 -0.4156602 0.2217895
v -0.875 1.621938 4.220799
v -0.625 -0.4156602 0.2217895
v -0.625 1.621938 4.220799
v -0.5 -0.2227516 0.1234977
v -0.5 1.814847 4.122508
v -0.625 -0.02984305 0.02520579
v -0.625 2.007755 4.024216
v -0.875 -0.02984305 0.02520579
v -0.875 2.007755 4.024216
v -0.75 -0.2227516 0.1234977
v -0.75 1.814847 4.122508
v -0.375 -0.4156602 0.2217895
v -0.375 1.621938 4.220799
v -0.125 -0.4156602 0.2217895
v -0.125 1.621938 4.220799
v 0 -0.2227516 0.1234977
v 0 1.814847 4.122508
v -0.125 -0.02984305 0.02520579
v -0.125 2.007755 4.024216
v -0.375 -0.02984305 0.02520579
v -0.375 2.007755 4.024216
v -0.25 -0.2227516 0.1234977
v -0.25 1.814847 4.122508
v 0.125 -0.4156602 0.2217895
v 0.125 1.621938 4.220799
v 0.375 -0.4156602 0.2217895
v 0.375 1.621938 4.220799
v 0.5 -0.2227516 0.1234977
v 0.5 1.814847 4.122508
v 0.375 -0.02984305 0.02520579
v 0.375 2.007755 4.024216
v 0.125 -0.02984305 0.02520579
v 0.125 2.007755 4.024216
v 0.25 -0.2227516 0.1234977
v 0.25 1.814847 4.122508
v 0.625 -0.4156602 0.2217895
v 0.625 1.621938 4.220799
v 0.875 -0.4156602 0.2217895
v 0.875 1.621938 4.220799
v 0.875 -0.02984305 0.02520579
v 0.875 2.007755 4.024216
v 0.625 -0.02984305 0.02520579
v 0.625 2.007755 4.024216
v 0.75 -0.2227516 0.1234977
v 0.75 1.814847 4.122508

vt -0.03349364 3.705293E-09
vt -0.03349359 4.488194
vt 0.2165064 3.705293E-09
vt 0.2165064 4.488194
vt -0.375 6.195353E-09
vt -0.375 4.488194
vt -0.125 6.195353E-09
vt -0.125 4.488194
vt -0.4665064 8.300194E-10
vt -0.4665064 4.488194
vt -0.2165063 8.300194E-10
vt -0.2165063 4.488194
vt 0.03349369 -4.1501E-10
vt 0.03349375 4.488194
vt 0.125 -5.004069E-10
vt 0.125 4.488194
vt 0.375 -5.004069E-10
vt 0.375 4.488194
vt 0.4665064 2.30091E-09
vt 0.4665064 4.488194
vt -0.375 0.4665064
vt -0.25 0.25
vt -0.5 0.25
vt -0.125 0.4665064
vt 0 0.25
vt -0.125 0.03349364
vt -0.375 0.03349364
vt 0.5 0.2500001
vt 0.25 0.2500001
vt 0.375 0.4665064
vt 0.125 0.4665064
vt 0.125 0.03349357
vt 0.375 0.03349357
vt -0.125 -3.717211E-08
vt -0.125 4.488194
vt -0.125 0.4665064
vt -0.25 0.25
vt -0.375 0.03349365
vt -0.25 0.25
vt 0.3749626 0.4665711
vt 0.2500374 0.2499785
vt 0.1249626 0.4664849
vt 0.125 0.4665064
vt 0.125 0.03349355
vt 0.375 0.03349357
vt 0.375 0
vt 0.375 4.488194

vn -0.8660254 0.4455032 -0.2269953
vn -0.5000001 -0.7716343 0.3931674
vn 0.5000001 -0.7716342 0.3931674
vn 1 1.520046E-07 -8.067723E-08
vn 0.5 0.7716343 -0.3931675
vn -0.5 0.7716343 -0.3931675
vn 0 -0.4539906 -0.8910065
vn 0 0.4539906 0.8910065
vn -1 -6.306444E-08 2.783029E-08
vn -0.4999999 -0.7716343 0.3931675
vn 0.4999999 -0.7716343 0.3931675
vn 0 0 0
vn 0.8660255 0.445503 -0.2269952
vn -0.8660254 -0.4455032 0.2269953
vn 0.8660252 -0.4455035 0.2269955

usemtl ProBuilderDefault
f 8/25/8 14/29/8 6/31/8
f 2/28/8 14/29/8 12/33/8
f 18/42/8 26/41/8 16/40/8
f 24/33/8 26/29/8 22/32/8
f 32/42/8 40/41/8 30/40/8
f 38/45/8 40/29/8 36/32/8
f 44/42/8 52/41/8 42/40/8
f 50/45/8 52/29/8 48/32/8
f 56/42/8 64/41/8 54/40/8
f 62/45/8 64/29/8 60/32/8
f 68/42/8 76/41/8 66/40/8
f 74/45/8 76/29/8 72/32/8
f 80/42/8 88/41/8 78/40/8
f 86/45/8 88/29/8 84/32/8
f 92/42/8 98/41/8 90/40/8
f 96/33/8 98/29/8 94/32/8
f 4/4/2 2/2/1 1/1/1
f 1/1/1 3/3/2 4/4/2
f 6/8/3 4/6/2 3/5/2
f 3/5/2 5/7/3 6/8/3
f 8/12/4 6/10/3 5/9/3
f 5/9/3 7/11/4 8/12/4
f 10/14/5 8/12/4 7/11/4
f 7/11/4 9/13/5 10/14/5
f 12/18/6 10/16/5 9/15/5
f 9/15/5 11/17/6 12/18/6
f 2/20/1 12/4/6 11/3/6
f 11/3/6 1/19/1 2/20/1
f 3/21/7 1/23/7 13/22/7
f 13/22/7 5/24/7 3/21/7
f 7/25/7 5/24/7 13/22/7
f 13/22/7 9/26/7 7/25/7
f 11/27/7 9/26/7 13/22/7
f 13/22/7 1/23/7 11/27/7
f 6/31/8 14/29/8 2/28/8
f 2/28/8 4/30/8 6/31/8
f 12/33/8 14/29/8 8/25/8
f 8/25/8 10/32/8 12/33/8
f 16/4/10 8/2/9 7/1/9
f 7/1/9 15/3/10 16/4/10
f 18/35/11 16/6/10 15/5/10
f 15/5/10 17/34/3 18/35/11
f 20/12/4 18/10/11 17/9/3
f 17/9/3 19/11/4 20/12/4
f 22/14/5 20/12/4 19/11/4
f 19/11/4 21/13/5 22/14/5
f 24/18/6 22/16/5 21/15/5
f 21/15/5 23/17/6 24/18/6
f 8/20/9 24/4/6 23/3/6
f 23/3/6 7/19/9 8/20/9
f 15/21/7 7/23/7 25/22/7
f 25/22/7 17/36/7 15/21/7
f 19/25/7 17/36/7 25/37/7
f 25/37/7 21/26/7 19/25/7
f 23/38/7 21/26/7 25/39/7
f 25/39/7 7/23/7 23/38/7
f 8/28/8 16/30/8 26/29/8
f 26/29/8 24/45/8 8/28/8
f 22/44/8 26/41/8 18/43/8
f 18/43/8 20/25/8 22/44/8
f 30/4/10 28/2/9 27/1/9
f 27/1/9 29/3/10 30/4/10
f 32/35/11 30/6/10 29/5/10
f 29/5/10 31/34/3 32/35/11
f 34/12/12 32/10/11 31/9/3
f 31/9/3 33/11/12 34/12/12
f 36/14/5 34/12/12 33/11/12
f 33/11/12 35/13/5 36/14/5
f 38/47/6 36/16/5 35/15/5
f 35/15/5 37/46/6 38/47/6
f 28/20/9 38/4/6 37/3/6
f 37/3/6 27/19/9 28/20/9
f 29/21/7 27/23/7 39/22/7
f 39/22/7 31/36/7 29/21/7
f 33/25/7 31/36/7 39/37/7
f 39/37/7 35/26/7 33/25/7
f 37/38/7 35/26/7 39/37/7
f 39/37/7 27/23/7 37/38/7
f 28/28/8 30/30/8 40/29/8
f 40/29/8 38/45/8 28/28/8
f 36/32/8 40/41/8 32/43/8
f 32/43/8 34/25/8 36/32/8
f 42/4/10 34/2/12 33/1/12
f 33/1/12 41/3/10 42/4/10
f 44/35/11 42/6/10 41/5/10
f 41/5/10 43/34/3 44/35/11
f 46/12/12 44/10/11 43/9/3
f 43/9/3 45/11/12 46/12/12
f 48/14/5 46/12/12 45/11/12
f 45/11/12 47/13/5 48/14/5
f 50/47/6 48/16/5 47/15/5
f 47/15/5 49/46/6 50/47/6
f 34/20/12 50/4/6 49/3/6
f 49/3/6 33/19/12 34/20/12
f 41/21/7 33/23/7 51/22/7
f 51/22/7 43/36/7 41/21/7
f 45/25/7 43/36/7 51/37/7
f 51/37/7 47/26/7 45/25/7
f 49/38/7 47/26/7 51/37/7
f 51/37/7 33/23/7 49/38/7
f 34/28/8 42/30/8 52/29/8
f 52/29/8 50/45/8 34/28/8
f 48/32/8 52/41/8 44/43/8
f 44/43/8 46/25/8 48/32/8
f 54/4/10 46/2/12 45/1/12
f 45/1/12 53/3/10 54/4/10
f 56/35/11 54/6/10 53/5/10
f 53/5/10 55/34/3 56/35/11
f 58/12/12 56/10/11 55/9/3
f 55/9/3 57/11/12 58/12/12
f 60/14/5 58/12/12 57/11/12
f 57/11/12 59/13/5 60/14/5
f 62/47/6 60/16/5 59/15/5
f 59/15/5 61/46/6 62/47/6
f 46/20/12 62/4/6 61/3/6
f 61/3/6 45/19/12 46/20/12
f 53/21/7 45/23/7 63/22/7
f 63/22/7 55/36/7 53/21/7
f 57/25/7 55/36/7 63/37/7
f 63/37/7 59/26/7 57/25/7
f 61/38/7 59/26/7 63/37/7
f 63/37/7 45/23/7 61/38/7
f 46/28/8 54/30/8 64/29/8
f 64/29/8 62/45/8 46/28/8
f 60/32/8 64/41/8 56/43/8
f 56/43/8 58/25/8 60/32/8
f 66/4/10 58/2/12 57/1/12
f 57/1/12 65/3/10 66/4/10
f 68/35/11 66/6/10 65/5/10
f 65/5/10 67/34/3 68/35/11
f 70/12/12 68/10/11 67/9/3
f 67/9/3 69/11/12 70/12/12
f 72/14/5 70/12/12 69/11/12
f 69/11/12 71/13/5 72/14/5
f 74/47/6 72/16/5 71/15/5
f 71/15/5 73/46/6 74/47/6
f 58/20/12 74/4/6 73/3/6
f 73/3/6 57/19/12 58/20/12
f 65/21/7 57/23/7 75/22/7
f 75/22/7 67/36/7 65/21/7
f 69/25/7 67/36/7 75/37/7
f 75/37/7 71/26/7 69/25/7
f 73/38/7 71/26/7 75/37/7
f 75/37/7 57/23/7 73/38/7
f 58/28/8 66/30/8 76/29/8
f 76/29/8 74/45/8 58/28/8
f 72/32/8 76/41/8 68/43/8
f 68/43/8 70/25/8 72/32/8
f 78/4/10 70/2/12 69/1/12
f 69/1/12 77/3/10 78/4/10
f 80/35/11 78/6/10 77/5/10
f 77/5/10 79/34/3 80/35/11
f 82/12/13 80/10/11 79/9/3
f 79/9/3 81/11/13 82/12/13
f 84/14/5 82/12/13 81/11/13
f 81/11/13 83/13/5 84/14/5
f 86/47/6 84/16/5 83/15/5
f 83/15/5 85/46/6 86/47/6
f 70/20/12 86/4/6 85/3/6
f 85/3/6 69/19/12 70/20/12
f 77/21/7 69/23/7 87/22/7
f 87/22/7 79/36/7 77/21/7
f 81/25/7 79/36/7 87/37/7
f 87/37/7 83/26/7 81/25/7
f 85/38/7 83/26/7 87/37/7
f 87/37/7 69/23/7 85/38/7
f 70/28/8 78/30/8 88/29/8
f 88/29/8 86/45/8 70/28/8
f 84/32/8 88/41/8 80/43/8
f 80/43/8 82/25/8 84/32/8
f 90/4/10 82/2/14 81/1/14
f 81/1/14 89/3/10 90/4/10
f 92/35/11 90/6/10 89/5/10
f 89/5/10 91/34/3 92/35/11
f 2/12/15 92/10/11 91/9/3
f 91/9/3 1/11/15 2/12/15
f 94/14/5 2/12/1 1/11/1
f 1/11/1 93/13/5 94/14/5
f 96/18/6 94/16/5 93/15/5
f 93/15/5 95/17/6 96/18/6
f 82/20/13 96/4/6 95/3/6
f 95/3/6 81/19/13 82/20/13
f 89/21/7 81/23/7 97/22/7
f 97/22/7 91/36/7 89/21/7
f 1/25/7 91/36/7 97/37/7
f 97/37/7 93/26/7 1/25/7
f 95/27/7 93/26/7 97/37/7
f 97/37/7 81/23/7 95/27/7
f 82/28/8 90/30/8 98/29/8
f 98/29/8 96/45/8 82/28/8
f 94/32/8 98/41/8 92/43/8
f 92/43/8 2/25/8 94/32/8

