# ProBuilder 5.0.6
# https://unity3d.com/unity/features/worldbuilding/probuilder
# 12/26/2022 1:55:22 AM

mtllib ./LogWallWindow.mtl
o LogWallWindow

g LogWallWindow
v 1.5 0 0
v 1.5 4 0
v 1.625 0 0.2165064
v 1.625 4 0.2165064
v 1.875 0 0.2165063
v 1.875 4 0.2165063
v 2 0 -2.185569E-08
v 2 4 -2.185569E-08
v 1.875 0 -0.2165064
v 1.875 4 -0.2165064
v 1.625 0 -0.2165064
v 1.625 4 -0.2165064
v 1.75 0 0
v 1.75 4 0
v -1 3 0
v -1 4 0
v -0.875 3 0.2165064
v -0.875 4 0.2165064
v -0.625 3 0.2165063
v -0.625 4 0.2165064
v -0.5 3 -2.185569E-08
v -0.5 4 -2.235174E-08
v -0.625 3 -0.2165064
v -0.625 4 -0.2165064
v -0.875 3 -0.2165064
v -0.875 4 -0.2165064
v -0.75 3 0
v -0.75 4 0
v -0.375 3 0.2165064
v -0.375 4 0.2165064
v -0.125 3 0.2165063
v -0.125 4 0.2165064
v 0 3 -2.185569E-08
v 0 4 -2.235174E-08
v -0.125 3 -0.2165064
v -0.125 4 -0.2165064
v -0.375 3 -0.2165064
v -0.375 4 -0.2165064
v -0.25 3 0
v -0.25 4 0
v 0.125 3 0.2165064
v 0.125 4 0.2165064
v 0.375 3 0.2165063
v 0.375 4 0.2165064
v 0.5 3 -2.185569E-08
v 0.5 4 -2.235174E-08
v 0.375 3 -0.2165064
v 0.375 4 -0.2165064
v 0.125 3 -0.2165064
v 0.125 4 -0.2165064
v 0.25 3 0
v 0.25 4 0
v 0.625 3 0.2165064
v 0.625 4 0.2165064
v 0.875 3 0.2165063
v 0.875 4 0.2165064
v 1 3 -2.185569E-08
v 1 4 -2.235174E-08
v 0.875 3 -0.2165064
v 0.875 4 -0.2165064
v 0.625 3 -0.2165064
v 0.625 4 -0.2165064
v 0.75 3 0
v 0.75 4 0
v -2 0 0
v -2 4 0
v -1.875 0 0.2165064
v -1.875 4 0.2165064
v -1.625 0 0.2165063
v -1.625 4 0.2165063
v -1.5 0 -2.185569E-08
v -1.5 4 -2.185569E-08
v -1.625 0 -0.2165064
v -1.625 4 -0.2165064
v -1.875 0 -0.2165064
v -1.875 4 -0.2165064
v -1.75 0 0
v -1.75 4 0
v -1.375 0 0.2165064
v -1.375 4 0.2165064
v -1.125 0 0.2165063
v -1.125 4 0.2165063
v -1 0 -2.185569E-08
v -1.125 0 -0.2165064
v -1.125 4 -0.2165064
v -1.375 0 -0.2165064
v -1.375 4 -0.2165064
v -1.25 0 0
v -1.25 4 0
v -1 1 0
v -0.875 0 0.2165064
v -0.875 1 0.2165064
v -0.625 0 0.2165063
v -0.625 1 0.2165064
v -0.5 0 -2.185569E-08
v -0.5 1 -2.235174E-08
v -0.625 0 -0.2165064
v -0.625 1 -0.2165064
v -0.875 0 -0.2165064
v -0.875 1 -0.2165064
v -0.75 0 0
v -0.75 1 0
v -0.375 0 0.2165064
v -0.375 1 0.2165064
v -0.125 0 0.2165063
v -0.125 1 0.2165064
v 0 0 -2.185569E-08
v 0 1 -2.235174E-08
v -0.125 0 -0.2165064
v -0.125 1 -0.2165064
v -0.375 0 -0.2165064
v -0.375 1 -0.2165064
v -0.25 0 0
v -0.25 1 0
v 0.125 0 0.2165064
v 0.125 1 0.2165064
v 0.375 0 0.2165063
v 0.375 1 0.2165064
v 0.5 0 -2.185569E-08
v 0.5 1 -2.235174E-08
v 0.375 0 -0.2165064
v 0.375 1 -0.2165064
v 0.125 0 -0.2165064
v 0.125 1 -0.2165064
v 0.25 0 0
v 0.25 1 0
v 0.625 0 0.2165064
v 0.625 1 0.2165064
v 0.875 0 0.2165063
v 0.875 1 0.2165064
v 1 0 -2.185569E-08
v 1 1 -2.235174E-08
v 0.875 0 -0.2165064
v 0.875 1 -0.2165064
v 0.625 0 -0.2165064
v 0.625 1 -0.2165064
v 0.75 0 0
v 0.75 1 0
v 1.125 0 0.2165064
v 1.125 4 0.2165064
v 1.375 0 0.2165063
v 1.375 4 0.2165063
v 1.375 0 -0.2165064
v 1.375 4 -0.2165064
v 1.125 0 -0.2165064
v 1.125 4 -0.2165064
v 1.25 0 0
v 1.25 4 0

vt -0.125 -2
vt -0.125 2
vt 0.125 -2
vt 0.125 2
vt -0.125 -2
vt -0.125 2
vt 0.125 -2
vt 0.125 2
vt -0.25 0
vt 0 0
vt -0.125 0.2165064
vt 0.25 0
vt 0.125 0.2165064
vt 0.125 0.2165063
vt -0.125 0.2165063
vt 0.125 -0.2165064
vt -0.125 -0.2165064
vt -0.125 -1
vt 0.125 -1
vt 0.125 -0.2165064
vt -0.125 -0.2165064
vt 0.1249999 -1

vn -0.8660254 0 0.5
vn 5.960464E-08 0 1
vn 0.8660254 0 0.5
vn 0.8660254 0 -0.5
vn 0 0 -1
vn -0.8660254 0 -0.5
vn 0 -1 0
vn 0 1 0
vn 0.8660254 -4.440892E-16 0.5

usemtl ProBuilderDefault
f 1/9/7 13/10/7 3/11/7
f 3/11/7 13/10/7 5/14/7
f 5/14/7 13/10/7 7/12/7
f 7/12/7 13/10/7 9/16/7
f 9/16/7 13/10/7 11/17/7
f 11/17/7 13/10/7 1/9/7
f 4/13/8 14/10/8 2/12/8
f 6/15/8 14/10/8 4/13/8
f 8/9/8 14/10/8 6/15/8
f 10/17/8 14/10/8 8/9/8
f 12/16/8 14/10/8 10/17/8
f 2/12/8 14/10/8 12/16/8
f 15/9/7 27/10/7 17/15/7
f 17/15/7 27/10/7 19/14/7
f 19/14/7 27/10/7 21/12/7
f 21/12/7 27/10/7 23/20/7
f 23/20/7 27/10/7 25/21/7
f 25/21/7 27/10/7 15/9/7
f 18/14/8 28/10/8 16/12/8
f 20/15/8 28/10/8 18/14/8
f 22/9/8 28/10/8 20/15/8
f 24/21/8 28/10/8 22/9/8
f 26/20/8 28/10/8 24/21/8
f 16/12/8 28/10/8 26/20/8
f 21/9/7 39/10/7 29/15/7
f 29/15/7 39/10/7 31/14/7
f 31/14/7 39/10/7 33/12/7
f 33/12/7 39/10/7 35/20/7
f 35/20/7 39/10/7 37/17/7
f 37/21/7 39/10/7 21/9/7
f 30/14/8 40/10/8 22/12/8
f 32/15/8 40/10/8 30/14/8
f 34/9/8 40/10/8 32/15/8
f 36/21/8 40/10/8 34/9/8
f 38/20/8 40/10/8 36/21/8
f 22/12/8 40/10/8 38/20/8
f 33/9/7 51/10/7 41/15/7
f 41/15/7 51/10/7 43/14/7
f 43/14/7 51/10/7 45/12/7
f 45/12/7 51/10/7 47/20/7
f 47/20/7 51/10/7 49/21/7
f 49/21/7 51/10/7 33/9/7
f 42/14/8 52/10/8 34/12/8
f 44/15/8 52/10/8 42/14/8
f 46/9/8 52/10/8 44/15/8
f 48/21/8 52/10/8 46/9/8
f 50/20/8 52/10/8 48/21/8
f 34/12/8 52/10/8 50/20/8
f 45/9/7 63/10/7 53/15/7
f 53/15/7 63/10/7 55/14/7
f 55/14/7 63/10/7 57/12/7
f 57/12/7 63/10/7 59/20/7
f 59/20/7 63/10/7 61/17/7
f 61/21/7 63/10/7 45/9/7
f 54/14/8 64/10/8 46/12/8
f 56/15/8 64/10/8 54/14/8
f 58/9/8 64/10/8 56/15/8
f 60/21/8 64/10/8 58/9/8
f 62/20/8 64/10/8 60/21/8
f 46/12/8 64/10/8 62/20/8
f 65/9/7 77/10/7 67/15/7
f 67/15/7 77/10/7 69/14/7
f 69/14/7 77/10/7 71/12/7
f 71/12/7 77/10/7 73/20/7
f 73/20/7 77/10/7 75/21/7
f 75/21/7 77/10/7 65/9/7
f 68/14/8 78/10/8 66/12/8
f 70/15/8 78/10/8 68/14/8
f 72/9/8 78/10/8 70/15/8
f 74/21/8 78/10/8 72/9/8
f 76/20/8 78/10/8 74/21/8
f 66/12/8 78/10/8 76/20/8
f 71/9/7 88/10/7 79/15/7
f 79/15/7 88/10/7 81/14/7
f 81/14/7 88/10/7 83/12/7
f 83/12/7 88/10/7 84/20/7
f 84/20/7 88/10/7 86/21/7
f 86/21/7 88/10/7 71/9/7
f 80/14/8 89/10/8 72/12/8
f 82/15/8 89/10/8 80/14/8
f 16/9/8 89/10/8 82/15/8
f 85/21/8 89/10/8 16/9/8
f 87/20/8 89/10/8 85/21/8
f 72/12/8 89/10/8 87/20/8
f 83/9/7 101/10/7 91/15/7
f 91/15/7 101/10/7 93/14/7
f 93/14/7 101/10/7 95/12/7
f 95/12/7 101/10/7 97/20/7
f 97/20/7 101/10/7 99/21/7
f 99/21/7 101/10/7 83/9/7
f 92/14/8 102/10/8 90/12/8
f 94/15/8 102/10/8 92/14/8
f 96/9/8 102/10/8 94/15/8
f 98/21/8 102/10/8 96/9/8
f 100/20/8 102/10/8 98/21/8
f 90/12/8 102/10/8 100/20/8
f 95/9/7 113/10/7 103/15/7
f 103/15/7 113/10/7 105/14/7
f 105/14/7 113/10/7 107/12/7
f 107/12/7 113/10/7 109/20/7
f 109/20/7 113/10/7 111/17/7
f 111/21/7 113/10/7 95/9/7
f 104/14/8 114/10/8 96/12/8
f 106/15/8 114/10/8 104/14/8
f 108/9/8 114/10/8 106/15/8
f 110/21/8 114/10/8 108/9/8
f 112/20/8 114/10/8 110/21/8
f 96/12/8 114/10/8 112/20/8
f 107/9/7 125/10/7 115/15/7
f 115/15/7 125/10/7 117/14/7
f 117/14/7 125/10/7 119/12/7
f 119/12/7 125/10/7 121/20/7
f 121/20/7 125/10/7 123/21/7
f 123/21/7 125/10/7 107/9/7
f 116/14/8 126/10/8 108/12/8
f 118/15/8 126/10/8 116/14/8
f 120/9/8 126/10/8 118/15/8
f 122/21/8 126/10/8 120/9/8
f 124/20/8 126/10/8 122/21/8
f 108/12/8 126/10/8 124/20/8
f 119/9/7 137/10/7 127/15/7
f 127/15/7 137/10/7 129/14/7
f 129/14/7 137/10/7 131/12/7
f 131/12/7 137/10/7 133/20/7
f 133/20/7 137/10/7 135/17/7
f 135/21/7 137/10/7 119/9/7
f 128/14/8 138/10/8 120/12/8
f 130/15/8 138/10/8 128/14/8
f 132/9/8 138/10/8 130/15/8
f 134/21/8 138/10/8 132/9/8
f 136/20/8 138/10/8 134/21/8
f 120/12/8 138/10/8 136/20/8
f 131/9/7 147/10/7 139/15/7
f 139/15/7 147/10/7 141/14/7
f 141/14/7 147/10/7 1/12/7
f 1/12/7 147/10/7 143/20/7
f 143/16/7 147/10/7 145/17/7
f 145/21/7 147/10/7 131/9/7
f 140/14/8 148/10/8 58/12/8
f 142/11/8 148/10/8 140/14/8
f 2/9/8 148/10/8 142/11/8
f 144/21/8 148/10/8 2/9/8
f 146/16/8 148/10/8 144/21/8
f 58/12/8 148/10/8 146/20/8
f 4/4/1 2/2/1 1/1/1
f 1/1/1 3/3/1 4/4/1
f 6/4/2 4/2/2 3/1/2
f 3/1/2 5/3/2 6/4/2
f 8/4/3 6/2/3 5/1/3
f 5/1/3 7/3/3 8/4/3
f 10/4/4 8/2/4 7/1/4
f 7/1/4 9/3/4 10/4/4
f 12/8/5 10/6/5 9/5/5
f 9/5/5 11/7/5 12/8/5
f 2/4/6 12/2/6 11/1/6
f 11/1/6 1/3/6 2/4/6
f 18/19/1 16/18/1 15/1/1
f 15/1/1 17/3/1 18/19/1
f 20/19/2 18/18/2 17/1/2
f 17/1/2 19/3/2 20/19/2
f 22/19/9 20/18/9 19/1/3
f 19/1/3 21/3/9 22/19/9
f 24/19/4 22/18/4 21/1/4
f 21/1/4 23/3/4 24/19/4
f 26/19/5 24/18/5 23/1/5
f 23/1/5 25/3/5 26/19/5
f 16/19/6 26/18/6 25/1/6
f 25/1/6 15/3/6 16/19/6
f 30/19/1 22/18/1 21/1/1
f 21/1/1 29/3/1 30/19/1
f 32/19/2 30/18/2 29/1/2
f 29/1/2 31/3/2 32/19/2
f 34/19/9 32/18/9 31/1/3
f 31/1/3 33/3/9 34/19/9
f 36/19/4 34/18/4 33/1/4
f 33/1/4 35/3/4 36/19/4
f 38/22/5 36/18/5 35/1/5
f 35/1/5 37/7/5 38/22/5
f 22/19/6 38/18/6 37/1/6
f 37/1/6 21/3/6 22/19/6
f 42/19/1 34/18/1 33/1/1
f 33/1/1 41/3/1 42/19/1
f 44/19/2 42/18/2 41/1/2
f 41/1/2 43/3/2 44/19/2
f 46/19/9 44/18/9 43/1/3
f 43/1/3 45/3/9 46/19/9
f 48/19/4 46/18/4 45/1/4
f 45/1/4 47/3/4 48/19/4
f 50/19/5 48/18/5 47/1/5
f 47/1/5 49/3/5 50/19/5
f 34/19/6 50/18/6 49/1/6
f 49/1/6 33/3/6 34/19/6
f 54/19/1 46/18/1 45/1/1
f 45/1/1 53/3/1 54/19/1
f 56/19/2 54/18/2 53/1/2
f 53/1/2 55/3/2 56/19/2
f 58/19/9 56/18/9 55/1/3
f 55/1/3 57/3/9 58/19/9
f 60/19/4 58/18/4 57/1/4
f 57/1/4 59/3/4 60/19/4
f 62/19/5 60/18/5 59/1/5
f 59/1/5 61/3/5 62/19/5
f 46/19/6 62/18/6 61/1/6
f 61/1/6 45/3/6 46/19/6
f 68/4/1 66/2/1 65/1/1
f 65/1/1 67/3/1 68/4/1
f 70/4/2 68/2/2 67/1/2
f 67/1/2 69/3/2 70/4/2
f 72/4/3 70/2/3 69/1/3
f 69/1/3 71/3/3 72/4/3
f 74/4/4 72/2/4 71/1/4
f 71/1/4 73/3/4 74/4/4
f 76/4/5 74/2/5 73/1/5
f 73/1/5 75/3/5 76/4/5
f 66/4/6 76/2/6 75/1/6
f 75/1/6 65/3/6 66/4/6
f 80/4/1 72/2/1 71/1/1
f 71/1/1 79/3/1 80/4/1
f 82/4/2 80/2/2 79/1/2
f 79/1/2 81/3/2 82/4/2
f 16/4/3 82/2/3 81/1/3
f 81/1/3 83/3/3 16/4/3
f 85/4/4 16/2/4 83/1/4
f 83/1/4 84/3/4 85/4/4
f 87/4/5 85/2/5 84/1/5
f 84/1/5 86/3/5 87/4/5
f 72/4/6 87/2/6 86/1/6
f 86/1/6 71/3/6 72/4/6
f 92/19/1 90/18/1 83/1/1
f 83/1/1 91/3/1 92/19/1
f 94/19/2 92/18/2 91/1/2
f 91/1/2 93/3/2 94/19/2
f 96/19/9 94/18/9 93/1/3
f 93/1/3 95/3/9 96/19/9
f 98/19/4 96/18/4 95/1/4
f 95/1/4 97/3/4 98/19/4
f 100/19/5 98/18/5 97/1/5
f 97/1/5 99/3/5 100/19/5
f 90/19/6 100/18/6 99/1/6
f 99/1/6 83/3/6 90/19/6
f 104/19/1 96/18/1 95/1/1
f 95/1/1 103/3/1 104/19/1
f 106/19/2 104/18/2 103/1/2
f 103/1/2 105/3/2 106/19/2
f 108/19/9 106/18/9 105/1/3
f 105/1/3 107/3/9 108/19/9
f 110/19/4 108/18/4 107/1/4
f 107/1/4 109/3/4 110/19/4
f 112/22/5 110/18/5 109/1/5
f 109/1/5 111/7/5 112/22/5
f 96/19/6 112/18/6 111/1/6
f 111/1/6 95/3/6 96/19/6
f 116/19/1 108/18/1 107/1/1
f 107/1/1 115/3/1 116/19/1
f 118/19/2 116/18/2 115/1/2
f 115/1/2 117/3/2 118/19/2
f 120/19/9 118/18/9 117/1/3
f 117/1/3 119/3/9 120/19/9
f 122/19/4 120/18/4 119/1/4
f 119/1/4 121/3/4 122/19/4
f 124/19/5 122/18/5 121/1/5
f 121/1/5 123/3/5 124/19/5
f 108/19/6 124/18/6 123/1/6
f 123/1/6 107/3/6 108/19/6
f 128/19/1 120/18/1 119/1/1
f 119/1/1 127/3/1 128/19/1
f 130/19/2 128/18/2 127/1/2
f 127/1/2 129/3/2 130/19/2
f 132/19/9 130/18/9 129/1/3
f 129/1/3 131/3/9 132/19/9
f 134/19/4 132/18/4 131/1/4
f 131/1/4 133/3/4 134/19/4
f 136/19/5 134/18/5 133/1/5
f 133/1/5 135/3/5 136/19/5
f 120/19/6 136/18/6 135/1/6
f 135/1/6 119/3/6 120/19/6
f 140/4/1 58/2/1 131/1/1
f 131/1/1 139/3/1 140/4/1
f 142/4/2 140/2/2 139/1/2
f 139/1/2 141/3/2 142/4/2
f 2/8/3 142/6/3 141/5/3
f 141/5/3 1/7/3 2/8/3
f 144/4/4 2/2/4 1/1/4
f 1/1/4 143/3/4 144/4/4
f 146/8/5 144/6/5 143/5/5
f 143/5/5 145/7/5 146/8/5
f 58/4/6 146/6/6 145/5/6
f 145/5/6 131/3/6 58/4/6

