# ProBuilder 5.0.6
# https://unity3d.com/unity/features/worldbuilding/probuilder
# 12/27/2022 2:14:56 AM

mtllib ./AxeHead.mtl
o AxeHead

g Cube
v 0.009662894 -0.3151147 0.4952752
v -0.009662894 -0.3151147 0.4952752
v 0.009662894 0.3151148 0.4952752
v -0.009662894 0.3151148 0.4952752
v -0.05934137 -0.09121456 -0.230387
v 0.05934137 -0.09121456 -0.230387
v -0.05934137 0.0828188 -0.230387
v 0.05934137 0.0828188 -0.230387
v -0.1 -0.1466375 0.1216201
v -0.1 0.1466375 0.1216201
v 0.1 -0.1466375 0.1216201
v 0.1 0.1466375 0.1216201
v -0.09601078 -0.1449857 -0.1731367
v -0.09601078 0.1365899 -0.1731367
v 0.09601078 0.1365899 -0.1731367
v 0.09601078 -0.1449857 -0.1731367

vt 0.009662894 -0.5372341
vt -0.009662894 -0.5372341
vt 0.009662894 0.5372343
vt -0.009662894 0.5372343
vt 0.05934137 -0.1555103
vt -0.05934137 -0.1555103
vt 0.05934137 0.1411965
vt -0.05934137 0.1411965
vt 0.4932294 -0.5372341
vt 0.132077 -0.25
vt 0.132077 0.25
vt 0.4932294 0.5372343
vt -0.132077 -0.25
vt -0.4932294 -0.5372341
vt -0.4932294 0.5372343
vt -0.132077 0.25
vt -0.009662894 0.7084338
vt 0.009662894 0.7084338
vt 0.1 0.2385268
vt -0.1 0.2385268
vt -0.1 0.2363435
vt -0.009662894 0.7056506
vt 0.009662894 0.7056506
vt 0.1 0.2363435
vt -0.1612646 -0.2471838
vt -0.1612646 0.23287
vt -0.2222694 -0.1555103
vt -0.2222694 0.1411965
vt 0.1612646 0.23287
vt 0.1612646 -0.2471838
vt 0.2222694 0.1411965
vt 0.2222694 -0.1555103
vt 0.05934137 -0.1156906
vt -0.05934137 -0.1156906
vt -0.09601078 -0.0176303
vt 0.09601078 -0.0176303
vt -0.05934137 -0.1117192
vt -0.09601078 -0.01435631
vt 0.09601078 -0.01435631
vt 0.05934137 -0.1117192

vn 0 0 1
vn 0 0 -1
vn -0.9719964 0 0.2349957
vn 0.9719964 0 0.2349957
vn 0 0.4650295 -0.6094539
vn 0 -0.4650295 -0.6094537
vn -0.9999084 0 -0.0135327
vn -0.8420764 0 -0.5393583
vn 0.9999084 0 -0.0135327
vn 0.8420764 0 -0.5393583
vn 0 0.3106928 -0.8481879
vn 0 0.585562 -0.05801772
vn 0 -0.3106929 -0.8481879
vn 0 -0.5865232 -0.009553831

usemtl StoneMaterial
f 3/3/1 4/4/1 2/2/1 1/1/1
f 7/7/2 8/8/2 6/6/2 5/5/2
f 4/12/3 10/11/3 9/10/3 2/9/3
f 11/13/4 12/16/4 3/15/4 1/14/4
f 4/18/5 3/17/5 12/20/5 10/19/5
f 11/24/6 1/23/6 2/22/6 9/21/6
f 14/26/7 13/25/7 9/10/7 10/11/7
f 14/26/8 7/28/8 5/27/8 13/25/8
f 12/16/9 11/13/9 16/30/9 15/29/9
f 16/30/10 6/32/10 8/31/10 15/29/10
f 14/36/11 15/35/11 8/34/11 7/33/11
f 10/19/12 12/20/12 15/35/12 14/36/12
f 6/40/13 16/39/13 13/38/13 5/37/13
f 16/39/14 11/24/14 9/21/14 13/38/14

