# ProBuilder 5.2.3
# https://unity3d.com/unity/features/worldbuilding/probuilder
# 1/10/2025 4:32:35 PM

mtllib ./BackSalleRear.mtl
o BackSalleRear

g BackSalleRear
v 1.17077 -0.3909664 0.3388245
v -1.185311 -0.3803242 0.3017325
v 0.7765984 0.389663 0.7289958
v -0.7941241 0.3967575 0.7042697
v -1.126978 -0.8476939 -0.6713312
v 1.132422 -0.8570232 -0.6388492
v -0.7377065 0.6491132 -0.7781909
v 0.7685609 0.6347759 -0.7608139
v -1.249565 -0.7613129 -0.6103688
v -0.5883946 0.2997049 -0.284305
v 1.252992 -0.7689379 -0.583921
v 0.6084066 0.2898006 -0.2723196
v -1.142369 -0.2893092 0.02273328
v -0.6277633 0.3946524 0.2218254
v 1.138491 -0.2982959 0.05400496
v 0.6246123 0.3895327 0.2396449
v -0.06695326 0.5836812 0.4797999
v -0.04890211 0.5978354 0.3920244
v 0.0342335 0.5974214 0.3933006
v 0.04961149 0.5831015 0.4815897
v -0.1001296 0.3809885 0.4841168
v -0.07177784 0.4032195 0.3462487
v 0.08295865 0.3800771 0.4869283
v 0.05880305 0.4025695 0.3482541
v -0.07750468 0.4173981 0.4708352
v -0.05616907 0.4341275 0.3670874
v 0.06027169 0.4167125 0.4729513
v 0.04209562 0.4336382 0.3685966
v -0.0775314 0.5181651 0.4810877
v -0.05619579 0.5348949 0.37734
v 0.06024401 0.5174796 0.4832034
v 0.04206795 0.5344052 0.3788491
v -0.09092291 0.550477 0.4944156
v -0.06543881 0.5704595 0.3704944
v 0.07364313 0.5496582 0.4969429
v 0.05193275 0.5698746 0.3722967

vt 1.091973 -0.1978133
vt -1.092667 -0.1990423
vt 0.7285921 0.6758891
vt -0.7278363 0.6750704
vt 1.049726 -0.8018919
vt -1.045221 -0.8000505
vt 0.6971341 0.7010267
vt -0.6994787 0.6944792
vt 0.3390697 -1.326674
vt 0.219849 -1.377241
vt -0.1386128 -0.02506017
vt 0.1454467 -0.07364713
vt 0.7455247 -1.218398
vt 0.7097011 -1.191551
vt 0.3576759 0.013054
vt 0.8743294 0.2681961
vt 0.551664 -0.3319802
vt 0.69964 -0.8865464
vt -0.6969823 -0.8914
vt -0.5579821 -0.3379332
vt 1.041992 -0.9699907
vt -1.052951 -0.9658625
vt -1.165856 -0.8710504
vt 1.154403 -0.8829228
vt 1.006805 0.3097137
vt 0.9689918 -0.6364652
vt 0.7322951 -0.6512755
vt 0.5444224 0.1845867
vt 0.08062899 -0.74194
vt -0.1435498 0.08074288
vt -0.2006541 -0.8462141
vt -0.608725 0.003623183
vt 0.05792513 0.38148
vt 0.04250684 0.292294
vt -0.03457908 0.2922934
vt -0.05015735 0.3814795
vt 0.5817078 0.1427842
vt -0.5795012 0.1405899
vt 1.090805 0.1122744
vt 1.056644 -0.1002173
vt -1.058174 -0.09488612
vt -1.093829 0.1141122
vt 0.7364076 0.7144805
vt 0.5886845 0.2296482
vt 0.09584866 0.484185
vt 0.07199048 0.3458362
vt -0.7286792 0.7375194
vt 0.7277493 0.7369424
vt -0.08226994 0.505793
vt 0.08749523 0.5058009
vt 0.5801618 0.2668225
vt -0.5810552 0.2653545
vt 0.06302061 0.3831733
vt -0.05805802 0.3831562
vt -0.5733421 0.2333576
vt -0.7208322 0.7204286
vt -0.05015132 0.3502965
vt -0.07492569 0.4884355
vt 0.4778004 0.3360077
vt 0.3369706 0.3554184
vt 0.460676 0.3766431
vt 0.3546994 0.3912505
vt 0.0820795 0.1867551
vt -0.0876857 0.1867555
vt 0.06068098 0.2257356
vt -0.06706959 0.2257358
vt 0.06346783 0.5277823
vt -0.05761087 0.5277821
vt 0.04884455 0.5649899
vt -0.04226955 0.5649896
vt -0.3363169 0.354302
vt -0.4771655 0.3347125
vt -0.3539836 0.3904634
vt -0.4599744 0.3757228
vt 0.4608494 0.434425
vt 0.3546559 0.4473617
vt 0.4673009 0.5355065
vt 0.3611075 0.5484437
vt 0.06068248 0.4626702
vt -0.06706809 0.4626702
vt 0.06033795 0.5639568
vt -0.06741172 0.5639567
vt 0.04884447 0.4688803
vt -0.04226963 0.4688799
vt 0.04918811 0.5701673
vt -0.04192511 0.5701665
vt -0.3535163 0.4475062
vt -0.4597423 0.434569
vt -0.3598491 0.5485952
vt -0.4660746 0.535658
vt 0.4665314 0.5056445
vt 0.3604052 0.519122
vt 0.4811419 0.5397405
vt 0.3543798 0.5558384
vt 0.06033627 0.6640716
vt -0.0674134 0.6640716
vt 0.07280424 0.699042
vt -0.07978654 0.6990417
vt 0.04918888 0.4552362
vt -0.04192434 0.4552354
vt 0.05801857 0.4913808
vt -0.05081201 0.49138
vt -0.358839 0.5165932
vt -0.4649966 0.5031094
vt -0.3528458 0.5533288
vt -0.479646 0.5372235
vt 0.4804081 0.4662063
vt 0.3539237 0.4843575
vt 0.4621474 0.5046659
vt 0.3725563 0.5175231
vt 0.07280561 0.2983807
vt -0.07978517 0.2983806
vt 0.05015568 0.3349161
vt -0.0579268 0.3349156
vt 0.05801687 0.6782122
vt -0.05081372 0.6782111
vt 0.04250721 0.712948
vt -0.03457871 0.7129474
vt -0.3532026 0.4821246
vt -0.4796969 0.4637711
vt -0.3717868 0.5156628
vt -0.461385 0.5026623

vn -0.01609918 -0.4535078 0.8911069
vn 0.01387602 -0.07483138 -0.9970997
vn 0.01197203 -0.07685171 -0.9969676
vn 0.01006803 -0.07887205 -0.9968355
vn -0.2072731 0.386962 -0.9023776
vn -0.5763309 0.3144433 -0.2439113
vn -0.9453887 0.2419247 0.4145549
vn 0.5583018 0.2972736 -0.2430035
vn 0.1751223 0.3629267 -0.9171569
vn 0.9414813 0.2316205 0.43115
vn 0.001919253 0.8164892 0.577363
vn 0.002000723 0.8165771 0.5772384
vn -0.0142403 -0.5147633 0.8572143
vn -0.0118842 -0.5505502 0.8336142
vn -0.009528104 -0.586337 0.8100141
vn -0.8793825 0.5166908 -0.2644949
vn -0.885816 0.5377564 -0.101167
vn -0.8922495 0.5588222 0.06216089
vn -0.7814547 0.6027073 -0.3370944
vn -0.8399674 0.5665696 -0.2492241
vn -0.8984799 0.5304318 -0.1613538
vn 0.9141752 0.5150501 -0.1233884
vn 0.8544464 0.5556919 -0.2196225
vn 0.7947176 0.5963337 -0.3158566
vn 0.8951825 0.54961 0.09372935
vn 0.8941051 0.5281973 -0.07158727
vn 0.8930277 0.5067846 -0.2369039
vn 0.002457455 0.9871642 0.1596895
vn 0.00645788 0.9829278 -0.1838789
vn 0.008429776 0.9821829 -0.1876892
vn 0.01040167 0.981438 -0.1914995
vn 0.0006257138 -0.9508175 -0.3097507
vn 0.0005737445 -0.9509155 -0.3094502
vn 0.0006776832 -0.9507196 -0.3100513
vn -0.009534499 -0.8030784 0.595784
vn -0.007999581 -0.805418 0.5926563
vn -0.01106942 -0.8007389 0.5989118
vn 0.02706103 0.9996604 0.003944744
vn -0.01495838 0.9935468 0.07651749
vn -0.0569778 0.9874333 0.1490902
vn 0.005303194 0.9984755 -0.05494198
vn 0.005546286 0.9985192 -0.05410868
vn 0.005789377 0.9985631 -0.0532754
vn 0.005226802 0.9956863 -0.0926374
vn 0.005759372 0.995946 -0.08971904
vn 0.006291942 0.9962058 -0.08680069
vn 0.02440352 0.9997042 -0.006961131
vn -0.03080556 0.990808 0.08246219
vn -0.08601464 0.9819118 0.1718855
vn -0.9459612 0.4723993 -0.09308652
vn -0.01264533 0.3495815 0.9368206
vn 0.01554297 0.5535515 -0.8326699
vn 0.9445044 0.4779981 -0.06183446
vn 0.9444971 0.4780115 -0.06182627
vn -1.059936 0.01925228 -0.1865869
vn -0.01578143 -0.1012094 0.99474
vn 0.01578138 0.1012138 -0.9947395
vn 1.065099 0.01547203 -0.1546009
vn -1.011035 -0.2677938 -0.2241419
vn -0.01608187 -0.3869576 0.9219573
vn 0.01416545 -0.1854434 -0.9825528
vn 1.013787 -0.2795318 -0.194861
vn -0.9101605 0.5319584 -0.07707222
vn -0.01196526 0.4100734 0.911974
vn 0.01518903 0.6124282 -0.7903802
vn 0.907357 0.5378473 -0.04664376

usemtl Lit
f 3/3/1 4/4/1 2/2/1 1/1/1
f 7/7/3 8/8/4 6/6/3 5/5/2
f 7/11/7 5/10/6 9/9/5 10/12/6
f 12/15/8 11/14/9 6/13/8 8/16/10
f 12/20/12 8/19/12 7/18/12 10/17/11
f 9/23/15 5/22/14 6/21/13 11/24/14
f 14/28/17 13/27/18 2/26/17 4/25/16
f 14/28/20 10/12/21 9/9/20 13/27/19
f 15/29/24 11/14/23 12/15/22 16/30/23
f 3/32/27 1/31/26 15/29/25 16/30/26
f 20/36/28 19/35/28 18/34/28 17/33/28
f 16/38/30 12/20/31 10/17/30 14/37/29
f 2/42/34 13/41/32 15/40/33 1/39/32
f 13/41/37 9/23/35 11/24/36 15/40/35
f 21/45/39 22/46/40 14/44/39 4/43/38
f 23/49/42 21/50/43 4/48/42 3/47/41
f 22/53/45 24/54/46 16/52/45 14/51/44
f 24/57/48 23/58/49 3/56/48 16/55/47
f 25/61/50 26/62/50 22/60/50 21/59/50
f 27/65/51 25/66/51 21/64/51 23/63/51
f 26/69/52 28/70/52 24/68/52 22/67/52
f 28/73/54 27/74/54 23/72/54 24/71/53
f 29/77/55 30/78/55 26/76/55 25/75/55
f 31/81/56 29/82/56 25/80/56 27/79/56
f 30/85/57 32/86/57 28/84/57 26/83/57
f 32/89/58 31/90/58 27/88/58 28/87/58
f 33/93/59 34/94/59 30/92/59 29/91/59
f 35/97/60 33/98/60 29/96/60 31/95/60
f 34/101/61 36/102/61 32/100/61 30/99/61
f 36/105/62 35/106/62 31/104/62 32/103/62
f 17/109/63 18/110/63 34/108/63 33/107/63
f 20/113/64 17/114/64 33/112/64 35/111/64
f 18/117/65 19/118/65 36/116/65 34/115/65
f 19/121/66 20/122/66 35/120/66 36/119/66

