# ProBuilder 5.0.6
# https://unity3d.com/unity/features/worldbuilding/probuilder
# 8/15/2023 10:12:56 PM

mtllib ./PlatformRIght.mtl
o PlatformRIght

g PlatformRIght
v -2.25 2 2.2
v -6.45 2 2.2
v -2.25 2.5 2.2
v -6.45 2.5 2.2
v -6.45 2 -2
v -6.45 2.5 -2
v -2.25 2 -2
v -2.25 2.5 -2
v -2.342807 2.312493 2.107193
v -6.357193 2.312493 2.107193
v -2.342807 2.312493 -1.907193
v -6.357193 2.312493 -1.907193
v -2.342807 2.5 2.107193
v -6.357193 2.5 2.107193
v -2.342807 2.5 -1.907193
v -6.357193 2.5 -1.907193

vt 2.1 -0.25
vt -2.1 -0.25
vt 2.1 0.25
vt -2.1 0.25
vt -2.007193 2.007193
vt 2.007193 2.007193
vt -2.007193 -2.007193
vt 2.007193 -2.007193
vt 2.1 -2.1
vt -2.1 -2.1
vt 2.1 2.1
vt -2.1 2.1
vt -2.007193 0.25
vt 2.007193 0.25
vt -2.007193 0.06249332
vt 2.007193 0.06249332

vn 0 0 1
vn -1 0 0
vn 0 0 -1
vn 1 0 0
vn 0 1 0
vn 0 -1 0

usemtl ProBuilderDefault
f 3/3/1 4/4/1 2/2/1 1/1/1
f 4/3/2 6/4/2 5/2/2 2/1/2
f 6/3/3 8/4/3 7/2/3 5/1/3
f 8/3/4 3/4/4 1/2/4 7/1/4
f 11/7/5 12/8/5 10/6/5 9/5/5
f 1/11/6 2/12/6 5/10/6 7/9/6
f 13/5/5 14/6/5 4/11/5 3/12/5
f 15/7/5 13/5/5 3/12/5 8/10/5
f 14/6/5 16/8/5 6/9/5 4/11/5
f 16/8/5 15/7/5 8/10/5 6/9/5
f 9/15/3 10/16/3 14/14/3 13/13/3
f 11/15/2 9/16/2 13/14/2 15/13/2
f 10/15/4 12/16/4 16/14/4 14/13/4
f 12/15/1 11/16/1 15/14/1 16/13/1

