# ProBuilder 5.0.6
# https://unity3d.com/unity/features/worldbuilding/probuilder
# 12/26/2022 1:51:21 AM

mtllib ./LogDoorFrame.mtl
o LogDoorFrame

g LogDoorFrame
v 1.75 0 -0.2499998
v 1.75 4 -0.2499998
v 1.533494 0 -0.1249998
v 1.533494 4 -0.1249998
v 1.533494 0 0.1250002
v 1.533494 4 0.1250002
v 1.75 0 0.2500002
v 1.75 4 0.2500002
v 1.966507 0 0.1250002
v 1.966507 4 0.1250002
v 1.966507 0 -0.1249996
v 1.966507 4 -0.1249996
v 1.75 0 2.384186E-07
v 1.75 4 2.384186E-07
v -1.25 0 -0.2500001
v -1.25 4 -0.2500001
v -1.466507 0 -0.1250001
v -1.466507 4 -0.1250001
v -1.466507 0 0.1249999
v -1.466507 4 0.1249999
v -1.25 0 0.2499999
v -1.25 4 0.2499999
v -1.033494 0 0.1249999
v -1.033494 4 0.1249999
v -1.033494 0 -0.1250001
v -1.033494 4 -0.1250001
v -1.25 0 -1.192093E-07
v -1.25 4 -1.192093E-07
v -1.75 0 -0.2500002
v -1.75 4 -0.2500002
v -1.966507 0 -0.1250002
v -1.966507 4 -0.1250002
v -1.966507 0 0.1249998
v -1.966507 4 0.1249998
v -1.75 0 0.2499998
v -1.75 4 0.2499998
v -1.533494 0 0.1249998
v -1.533494 4 0.1249998
v -1.533494 0 -0.1250002
v -1.533494 4 -0.1250002
v -1.75 0 -2.384186E-07
v -1.75 4 -2.384186E-07
v 1.25 0 -0.2499999
v 1.25 4 -0.2499999
v 1.033494 0 -0.1249999
v 1.033494 4 -0.1249999
v 1.033494 0 0.1250001
v 1.033494 4 0.1250001
v 1.25 0 0.2500001
v 1.25 4 0.2500001
v 1.466506 0 0.1250001
v 1.466506 4 0.1250001
v 1.466506 0 -0.1249999
v 1.466506 4 -0.1249999
v 1.25 0 1.192093E-07
v 1.25 4 1.192093E-07

vt -0.125 -2
vt -0.125 2
vt 0.125 -2
vt 0.125 2
vt -0.125 -2
vt -0.125 2
vt 0.125 -2
vt 0.125 2
vt -0.25 0
vt 0 0
vt -0.125 0.2165064
vt 0.25 0
vt 0.125 0.2165064
vt 0.125 0.2165063
vt -0.125 0.2165063
vt 0.125 -0.2165064
vt -0.125 -0.2165064
vt -0.25 0
vt -0.125 -0.2165065

vn -0.5 0 -0.8660254
vn -1 0 0
vn -0.5 0 0.8660254
vn 0.5 0 0.8660254
vn 1 0 0
vn 0.5000003 0 -0.8660251
vn 0 -1 0
vn 0 1 0
vn -0.4999998 0 -0.8660255
vn -0.4999998 0 0.8660255
vn 0.4999998 0 0.8660255
vn 0.4999998 0 -0.8660255

usemtl ProBuilderDefault
f 1/9/7 13/10/7 3/11/7
f 3/11/7 13/10/7 5/14/7
f 5/14/7 13/10/7 7/12/7
f 7/12/7 13/10/7 9/16/7
f 9/16/7 13/10/7 11/17/7
f 11/17/7 13/10/7 1/9/7
f 4/13/8 14/10/8 2/12/8
f 6/15/8 14/10/8 4/13/8
f 8/9/8 14/10/8 6/15/8
f 10/17/8 14/10/8 8/9/8
f 12/16/8 14/10/8 10/17/8
f 2/12/8 14/10/8 12/16/8
f 15/9/7 27/10/7 17/11/7
f 17/11/7 27/10/7 19/14/7
f 19/14/7 27/10/7 21/12/7
f 21/12/7 27/10/7 23/16/7
f 23/16/7 27/10/7 25/17/7
f 25/17/7 27/10/7 15/9/7
f 18/13/8 28/10/8 16/12/8
f 20/15/8 28/10/8 18/13/8
f 22/9/8 28/10/8 20/11/8
f 24/19/8 28/10/8 22/18/8
f 26/16/8 28/10/8 24/17/8
f 16/12/8 28/10/8 26/16/8
f 29/9/7 41/10/7 31/11/7
f 31/11/7 41/10/7 33/14/7
f 33/14/7 41/10/7 35/12/7
f 35/12/7 41/10/7 37/16/7
f 37/16/7 41/10/7 39/17/7
f 39/17/7 41/10/7 29/9/7
f 32/13/8 42/10/8 30/12/8
f 34/15/8 42/10/8 32/13/8
f 36/9/8 42/10/8 34/11/8
f 38/19/8 42/10/8 36/18/8
f 40/16/8 42/10/8 38/17/8
f 30/12/8 42/10/8 40/16/8
f 43/9/7 55/10/7 45/11/7
f 45/11/7 55/10/7 47/14/7
f 47/14/7 55/10/7 49/12/7
f 49/12/7 55/10/7 51/16/7
f 51/16/7 55/10/7 53/17/7
f 53/17/7 55/10/7 43/9/7
f 46/13/8 56/10/8 44/12/8
f 48/15/8 56/10/8 46/13/8
f 50/9/8 56/10/8 48/11/8
f 52/19/8 56/10/8 50/18/8
f 54/16/8 56/10/8 52/17/8
f 44/12/8 56/10/8 54/16/8
f 4/4/1 2/2/1 1/1/1
f 1/1/1 3/3/1 4/4/1
f 6/4/2 4/2/2 3/1/2
f 3/1/2 5/3/2 6/4/2
f 8/4/3 6/2/3 5/1/3
f 5/1/3 7/3/3 8/4/3
f 10/4/4 8/2/4 7/1/4
f 7/1/4 9/3/4 10/4/4
f 12/8/5 10/6/5 9/5/5
f 9/5/5 11/7/5 12/8/5
f 2/4/6 12/2/6 11/1/6
f 11/1/6 1/3/6 2/4/6
f 18/4/9 16/2/9 15/1/9
f 15/1/9 17/3/9 18/4/9
f 20/4/2 18/2/2 17/1/2
f 17/1/2 19/3/2 20/4/2
f 22/4/10 20/2/10 19/1/10
f 19/1/10 21/3/10 22/4/10
f 24/4/11 22/2/11 21/1/11
f 21/1/11 23/3/11 24/4/11
f 26/8/5 24/6/5 23/5/5
f 23/5/5 25/7/5 26/8/5
f 16/4/12 26/2/12 25/1/12
f 25/1/12 15/3/12 16/4/12
f 32/4/9 30/2/9 29/1/9
f 29/1/9 31/3/9 32/4/9
f 34/4/2 32/2/2 31/1/2
f 31/1/2 33/3/2 34/4/2
f 36/4/10 34/2/10 33/1/10
f 33/1/10 35/3/10 36/4/10
f 38/4/11 36/2/11 35/1/11
f 35/1/11 37/3/11 38/4/11
f 40/8/5 38/6/5 37/5/5
f 37/5/5 39/7/5 40/8/5
f 30/4/12 40/2/12 39/1/12
f 39/1/12 29/3/12 30/4/12
f 46/4/1 44/2/1 43/1/1
f 43/1/1 45/3/1 46/4/1
f 48/4/2 46/2/2 45/1/2
f 45/1/2 47/3/2 48/4/2
f 50/4/3 48/2/3 47/1/3
f 47/1/3 49/3/3 50/4/3
f 52/4/4 50/2/4 49/1/4
f 49/1/4 51/3/4 52/4/4
f 54/8/5 52/6/5 51/5/5
f 51/5/5 53/7/5 54/8/5
f 44/4/6 54/2/6 53/1/6
f 53/1/6 43/3/6 44/4/6

