# ProBuilder 5.0.6
# https://unity3d.com/unity/features/worldbuilding/probuilder
# 4/30/2024 12:41:11 PM

mtllib ./TentBag.mtl
o TentBag

g TentBag
v -0.4381282 0.05164701 0
v -0.5 0.458 0
v -0.2190641 0.05164701 0.3794301
v -0.25 0.458 0.4330127
v 0.2190641 0.05164701 0.3794301
v 0.25 0.458 0.4330127
v 0.4381282 0.05164701 -3.830238E-08
v 0.5 0.458 -4.371139E-08
v 0.219064 0.05164701 -0.3794301
v 0.25 0.458 -0.4330127
v -0.219064 0.05164701 -0.3794301
v -0.25 0.458 -0.4330127
v -0.5 0.958 0
v -0.25 0.958 0.4330127
v 0.25 0.958 0.4330127
v 0.5 0.958 -4.371139E-08
v 0.25 0.958 -0.4330127
v -0.25 0.958 -0.4330127
v -0.438128 1.661529 0
v -0.219064 1.661529 0.37943
v 0.219064 1.661529 0.37943
v 0.438128 1.661529 -3.830237E-08
v 0.219064 1.661529 -0.37943
v -0.219064 1.661529 -0.37943
v -0.1199299 1.958 0
v -0.05996497 1.958 0.1038624
v 0.05996498 1.958 0.1038624
v 0.1199299 1.958 -1.048461E-08
v 0.05996496 1.958 -0.1038624
v -0.05996496 1.958 -0.1038624
v 0 -0.042 0
v -0.172932 2.108889 3.292723E-09
v 0 2.05649 3.292723E-09
v -0.08646598 2.108889 0.1497635
v 0.08646601 2.108889 0.1497635
v 0.172932 2.108889 -1.182547E-08
v 0.08646598 2.108889 -0.1497635
v -0.08646598 2.108889 -0.1497635
v -0.05996497 2.021191 0.1038624
v -0.1199299 2.021191 0
v 0.05996498 2.021191 0.1038624
v -0.05996496 2.021191 -0.1038624
v 0.05996496 2.021191 -0.1038624
v 0.1328996 0.06595534 -0.3105038
v 0.2011363 0.0708732 -0.2120012
v 0.1848609 0.06498808 -0.3464512
v 0.2530976 0.06990594 -0.2479485
v 0.1199299 2.021191 -1.048461E-08
v 0.3509882 1.628778 -0.3179869
v 0.4249546 1.614341 -0.2246932
v 0.3812619 1.681956 -0.3337593
v 0.4552283 1.667518 -0.2404656
v 0.4823657 1.228948 -0.3169162
v 0.5393714 1.236455 -0.211668
v 0.5351894 1.246574 -0.3467844
v 0.5921952 1.254081 -0.2415361
v 0.4771814 0.2879874 -0.3105038
v 0.5454181 0.2929053 -0.2120012
v 0.5291427 0.2870201 -0.3464512
v 0.5973794 0.291938 -0.2479485

vt -0.2190641 -0.8489715
vt -0.25 -0.439101
vt 0.2190641 -0.8489715
vt 0.25 -0.439101
vt -0.25 -0.439101
vt 0.25 -0.439101
vt -0.25 -0.5
vt -0.25 0
vt 0.2500001 -0.5
vt 0.2500001 0
vt -0.25 -0.5
vt -0.25 0
vt 0.25 -0.5
vt 0.25 0
vt -0.25 -0.03288423
vt -0.219064 0.6726821
vt 0.25 -0.03288423
vt 0.219064 0.6726821
vt -0.25 -0.03288423
vt 0.25 -0.03288423
vt -0.1590325 -0.2978899
vt -0.5939408 -0.2978899
vt -0.3193094 0.1098692
vt -0.6378138 -0.1862729
vt -0.219064 0.2569838
vt -0.05996497 0.6617463
vt 0.219064 0.2569838
vt 0.05996497 0.6617463
vt 0.3193094 0.1098692
vt 0.6378139 -0.1862729
vt 0.1590326 -0.2978899
vt 0.5939409 -0.2978899
vt 0.1590325 0.2978899
vt 0.5939408 0.2978899
vt 0.3193094 -0.1098692
vt 0.6378138 0.186273
vt -0.3193094 -0.1098692
vt -0.6378138 0.186273
vt -0.1590325 0.2978899
vt -0.5939408 0.2978899
vt -0.2390026 -0.1171632
vt 0.209022 -0.1171632
vt -0.02477743 0.2650199
vt 0.4992417 0.1735937
vt 0.3185454 0.1735937
vt 0.416491 0.3254416
vt -0.2190641 0.1511965
vt -1.678847E-08 -0.2396193
vt 0.2190641 0.1511965
vt 0.08646598 0.5214409
vt 0 0.3627753
vt -0.08646601 0.5214409
vt 0.02477745 0.2650199
vt -0.209022 -0.1171632
vt 0.2390026 -0.1171632
vt -0.416491 0.3254416
vt -0.3185454 0.1735936
vt -0.4992417 0.1735936
vt 0.2390026 0.1171631
vt -0.209022 0.1171632
vt 0.02477739 -0.2650199
vt -0.4992416 -0.1735937
vt -0.3185454 -0.1735937
vt -0.416491 -0.3254417
vt 0.219064 -0.1511965
vt 0 0.2396193
vt -0.219064 -0.1511965
vt -0.08646598 -0.5214409
vt 0 -0.3627753
vt 0.08646598 -0.5214409
vt -0.0247774 -0.2650199
vt 0.209022 0.1171632
vt -0.2390026 0.1171632
vt 0.416491 -0.3254416
vt 0.3185454 -0.1735937
vt 0.4992417 -0.1735937
vt 0.05996498 1
vt -0.05996497 1
vt 0.05996498 1.063191
vt -0.05996497 1.063191
vt 0.1232893 -0.3481303
vt 0.191575 -0.249539
vt 0.1752372 -0.3841102
vt 0.2435229 -0.2855187
vt 0.05996498 0.9901305
vt -0.05996497 0.9901305
vt 0.08646601 1.089115
vt -0.08646599 1.089115
vt -0.5748528 0.1794689
vt -0.5278904 0.2898216
vt -0.1422189 -0.04803627
vt -0.07531339 0.05149059
vt -0.1092051 1.063191
vt -0.1092051 1
vt -0.5042801 0.7239561
vt -0.4704819 0.6707784
vt 0.09655966 1
vt 0.09655966 1.063191
vt 0.4754093 0.6563406
vt 0.5091382 0.7095183
vt 0.5395665 0.3014846
vt 0.587632 0.1916078
vt 0.05933866 0.04709437
vt 0.1272597 -0.05174768
vt -0.04613132 0.5292705
vt 0.07286622 0.5143445
vt 0.03303347 0.1159203
vt 0.1515209 0.1274831
vt -0.4707539 0.7378131
vt -0.4369531 0.6844217
vt -0.6202109 0.300682
vt -0.5604496 0.2821848
vt 0.4716474 0.662731
vt 0.5051799 0.7162913
vt 0.5774719 0.2821265
vt 0.6366575 0.3012251
vt -0.0779097 0.5537944
vt 0.04108533 0.5687405
vt -0.1586135 0.1258007
vt -0.04011494 0.1141846
vt -0.04922653 0.2755903
vt 0.07046825 0.2830973
vt -0.04605323 -0.6654011
vt 0.0730523 -0.660377
vt -0.6365911 0.2884665
vt -0.5759079 0.2708405
vt -0.6311657 -0.6710911
vt -0.5682365 -0.670108
vt 0.5737632 0.2782241
vt 0.6344464 0.2958502
vt 0.579193 -0.6653292
vt 0.6421129 -0.66628
vt -0.06996976 0.2910407
vt 0.04972503 0.2835338
vt -0.06680414 -0.6711321
vt 0.05231457 -0.6759468
vt -0.03788584 -0.03460013
vt -0.09789676 0.06923573
vt 0.3717826 -0.03460013
vt 0.3117717 0.06923573
vt -0.08102947 -0.8035802
vt -0.03788588 -0.7574092
vt 0.328639 -0.8035802
vt 0.3717826 -0.7574092
vt 0.09789684 -0.7013334
vt 0.1410404 -0.7475044
vt -0.3117716 -0.7013335
vt -0.268628 -0.7475044
vt 0.1410404 0.04430122
vt 0.08102944 -0.05953467
vt -0.2686281 0.04430122
vt -0.328639 -0.05953467

vn -0.988606 -0.1505264 -5.147273E-08
vn -0.9971393 -0.07558572 -6.030884E-08
vn -0.494303 -0.1505264 0.8561579
vn -0.4985696 -0.07558572 0.863548
vn 0.4943031 -0.1505264 0.8561579
vn 0.4985697 -0.0755857 0.8635479
vn 0.988606 -0.1505264 -8.578788E-08
vn 0.9971393 -0.0755857 -9.477102E-08
vn 0.494303 -0.1505264 -0.8561579
vn 0.4985696 -0.07558569 -0.863548
vn -0.494303 -0.1505264 -0.8561579
vn -0.4985696 -0.07558571 -0.863548
vn -0.9990374 0.04386677 -4.303668E-08
vn -0.4995187 0.04386676 0.8651918
vn 0.4995188 0.04386676 0.8651918
vn 0.9990374 0.04386676 -1.03288E-07
vn 0.4995186 0.04386676 -0.8651918
vn -0.4995187 0.04386676 -0.8651918
vn -0.8925529 0.4509426 -1.775888E-08
vn -0.4462765 0.4509426 0.7729735
vn 0.4462765 0.4509426 0.7729735
vn 0.892553 0.4509426 -7.991495E-08
vn 0.4462764 0.4509426 -0.7729735
vn -0.4462764 0.4509426 -0.7729735
vn -0.6816867 0.7316442 -1.601371E-08
vn -0.3408433 0.7316442 0.590358
vn 0.3408434 0.7316442 0.590358
vn 0.6816867 0.7316442 -4.804114E-08
vn 0.3408433 0.7316442 -0.590358
vn -0.3408433 0.7316442 -0.590358
vn -0.2075164 -0.9708669 0.1198096
vn 0.286004 0.9438938 -0.1651245
vn 1.629937E-08 -0.9708669 0.2396193
vn 0 0.9438938 -0.330249
vn 0.2075164 -0.9708669 0.1198096
vn -0.286004 0.9438938 -0.1651245
vn 0.2075164 -0.9708669 -0.1198097
vn -0.286004 0.9438938 0.1651245
vn 0 -0.970867 -0.2396193
vn 0 0.9438938 0.330249
vn -0.2075164 -0.9708669 -0.1198097
vn 0.286004 0.9438938 0.1651245
vn -0.8660254 0 0.5
vn 6.212444E-08 0 1
vn -0.8660254 0 -0.5000001
vn 0 0 -1
vn 0.01075491 -0.9990416 0.04242799
vn 0.8660254 0 0.4999999
vn -0.7672822 -0.4637212 0.4429906
vn 5.504108E-08 -0.4637212 0.8859811
vn -0.7672822 -0.4637212 -0.4429907
vn 0 -0.4637212 -0.8859812
vn 0.7672822 -0.4637212 -0.4429907
vn 0.7672822 -0.4637212 0.4429905
vn -0.5852433 -0.7371027 0.3378904
vn -0.5820482 -0.7380809 0.3412248
vn -0.5788531 -0.739059 0.3445592
vn -0.581907 0 -0.8132554
vn -0.5633997 0.03109438 -0.824726
vn -0.5448924 0.06218875 -0.8361967
vn 0.5930932 0 0.8051338
vn 0.5666716 -0.02928849 0.8222986
vn 0.54025 -0.05857699 0.8394634
vn 0.5651862 0.7576846 -0.3263105
vn 0.5644381 0.7575055 -0.3280114
vn 0.56369 0.7573265 -0.3297123
vn -0.7766982 -0.2536659 0.5765358
vn -0.811532 -0.2467695 0.5260314
vn -0.8463657 -0.2398731 0.475527
vn -0.3322186 -0.08936425 -0.9389594
vn -0.3902788 -0.1195204 -0.9101012
vn -0.448339 -0.1496765 -0.8812429
vn 0.2858023 0.1193095 0.9508324
vn 0.3675844 0.1329486 0.9160356
vn 0.4493665 0.1465878 0.8812388
vn 0.7760324 0.2585797 -0.5752481
vn 0.8018203 0.2826209 -0.5226895
vn 0.8276082 0.3066621 -0.4701309
vn -0.8795176 0.008088156 0.4757977
vn -0.8507016 0.001309987 0.522712
vn -0.8218857 -0.005468182 0.5696263
vn -0.4929048 0.002803962 -0.8700787
vn -0.530934 0.0001672474 -0.8462189
vn -0.5689633 -0.002469467 -0.8223592
vn 0.4914773 0.002842089 0.8708858
vn 0.5301893 0.0002132081 0.846644
vn 0.5689014 -0.002415672 0.8224022
vn 0.8790411 0.007913454 -0.4766803
vn 0.8505905 0.001267501 -0.5229704
vn 0.8221397 -0.005378452 -0.5692604
vn -0.5141425 0.797227 0.3163646
vn -0.4219702 0.654305 -0.6275558
vn 0.4219699 -0.6543046 0.6275562
vn 0.5141426 -0.797227 -0.3163646

usemtl GymFloor
f 1/41/31 31/42/31 3/43/31
f 3/47/33 31/48/33 5/49/33
f 5/53/35 31/54/35 7/55/35
f 7/59/37 31/60/37 9/61/37
f 9/65/39 31/66/39 11/67/39
f 11/71/41 31/72/41 1/73/41
f 34/46/32 33/45/32 32/44/32
f 35/52/34 33/51/34 34/50/34
f 36/58/36 33/57/36 35/56/36
f 37/64/38 33/63/38 36/62/38
f 38/70/40 33/69/40 37/68/40
f 32/76/42 33/75/42 38/74/42
f 4/4/4 2/2/2 1/1/1
f 1/1/1 3/3/3 4/4/4
f 6/4/6 4/5/4 3/1/3
f 3/1/3 5/3/5 6/4/6
f 8/4/8 6/5/6 5/1/5
f 5/1/5 7/3/7 8/4/8
f 10/4/10 8/5/8 7/1/7
f 7/1/7 9/3/9 10/4/10
f 12/6/12 10/2/10 9/1/9
f 9/1/9 11/3/11 12/6/12
f 2/4/2 12/5/12 11/1/11
f 11/1/11 1/3/1 2/4/2
f 14/10/14 13/8/13 2/7/2
f 2/7/2 4/9/4 14/10/14
f 15/10/15 14/8/14 4/7/4
f 4/7/4 6/9/6 15/10/15
f 16/10/16 15/8/15 6/7/6
f 6/7/6 8/9/8 16/10/16
f 17/10/17 16/8/16 8/7/8
f 8/7/8 10/9/10 17/10/17
f 18/14/18 17/12/17 10/11/10
f 10/11/10 12/13/12 18/14/18
f 13/10/13 18/8/18 12/7/12
f 12/7/12 2/9/2 13/10/13
f 20/18/20 19/16/19 13/15/13
f 13/15/13 14/17/14 20/18/20
f 21/18/21 20/16/20 14/15/14
f 14/15/14 15/17/15 21/18/21
f 22/18/22 21/16/21 15/19/15
f 15/19/15 16/17/16 22/18/22
f 23/18/23 22/16/22 16/15/16
f 16/15/16 17/20/17 23/18/23
f 24/18/24 23/16/23 17/19/17
f 17/19/17 18/20/18 24/18/24
f 19/18/19 24/16/24 18/19/18
f 18/19/18 13/17/13 19/18/19
f 26/24/26 25/22/25 19/21/19
f 19/21/19 20/23/20 26/24/26
f 27/28/27 26/26/26 20/25/20
f 20/25/20 21/27/21 27/28/27
f 28/32/28 27/30/27 21/29/21
f 21/29/21 22/31/22 28/32/28
f 29/36/29 28/34/28 22/33/22
f 22/33/22 23/35/23 29/36/29
f 30/28/30 29/26/29 23/25/23
f 23/25/23 24/27/24 30/28/30
f 25/40/25 30/38/30 24/37/24
f 24/37/24 19/39/19 25/40/25
f 47/84/47 45/82/47 44/81/47
f 44/81/47 46/83/47 47/84/47
f 32/88/49 40/86/49 39/85/49
f 39/85/49 34/87/49 32/88/49
f 34/88/50 39/86/50 41/85/50
f 41/85/50 35/87/50 34/88/50
f 38/88/51 42/86/51 40/85/51
f 40/85/51 32/87/51 38/88/51
f 37/88/52 43/86/52 42/85/52
f 42/85/52 38/87/52 37/88/52
f 36/88/53 48/86/53 43/85/53
f 43/85/53 37/87/53 36/88/53
f 35/88/54 41/86/54 48/85/54
f 48/85/54 36/87/54 35/88/54

usemtl GymWalls
f 39/79/43 40/80/43 25/78/43 26/77/43
f 41/79/44 39/80/44 26/78/44 27/77/44
f 40/79/45 42/80/45 30/78/45 25/77/45
f 42/79/46 43/80/46 29/78/46 30/77/46
f 48/79/48 41/80/48 27/78/48 28/77/48
f 49/91/56 50/92/57 28/90/56 29/89/55
f 51/95/59 49/96/60 29/94/59 43/93/58
f 50/99/62 52/100/63 48/98/62 28/97/61
f 52/103/65 51/104/66 43/102/65 48/101/64
f 53/107/68 54/108/69 50/106/68 49/105/67
f 55/111/71 53/112/72 49/110/71 51/109/70
f 54/115/74 56/116/75 52/114/74 50/113/73
f 56/119/77 55/120/78 51/118/77 52/117/76
f 57/123/80 58/124/81 54/122/80 53/121/79
f 59/127/83 57/128/84 53/126/83 55/125/82
f 58/131/86 60/132/87 56/130/86 54/129/85
f 60/135/89 59/136/90 55/134/89 56/133/88
f 44/139/91 45/140/91 58/138/91 57/137/91
f 46/143/92 44/144/92 57/142/92 59/141/92
f 45/147/93 47/148/93 60/146/93 58/145/93
f 47/151/94 46/152/94 59/150/94 60/149/94

