# ProBuilder 5.0.6
# https://unity3d.com/unity/features/worldbuilding/probuilder
# 7/29/2024 8:43:17 PM

mtllib ./Lanturn.mtl
o Lanturn

g Lanturn
v 0.07259733 0.06656291 -0.01630302
v 0.07259733 0.06656291 0.01630302
v -0.07259733 0.06656291 0.01630302
v -0.07259733 0.06656291 -0.01630302
v 0.09658838 -0.7090706 0.09658781
v 0.09658838 -0.7090706 -0.09658781
v -0.09658838 -0.7090706 -0.09658781
v -0.09658838 -0.7090706 0.09658781
v -0.05543214 -0.649705 0.05543185
v -0.2088505 -0.1870492 0.2088505
v 0.2088505 -0.1870492 0.2088505
v 0.05543214 -0.649705 0.05543185
v -0.1209959 -0.0562949 0.1209959
v 0.1209959 -0.0562949 0.1209959
v -0.05543214 -0.649705 -0.05543185
v -0.2088505 -0.1870492 -0.2088505
v -0.1209959 -0.0562949 -0.1209959
v 0.2088505 -0.1870492 -0.2088505
v 0.05543214 -0.649705 -0.05543185
v 0.1209959 -0.0562949 -0.1209959
v 0.09658838 -0.6727744 -0.09658781
v -0.09658838 -0.6727744 -0.09658781
v 0.09658838 -0.6727744 0.09658781
v -0.09658838 -0.6727744 0.09658781
v 0.07259733 -0.0562949 -0.01630302
v 0.07259733 -0.0562949 0.01630302
v -0.07259733 -0.0562949 0.01630302
v -0.07259733 -0.0562949 -0.01630302
v 0.05488461 -0.04130699 0.008347319
v -0.05488461 -0.04130699 0.008347319
v 0.05488461 0.0515749 0.008347319
v -0.05488461 0.0515749 0.008347319
v -0.05488461 -0.04130699 -0.01630302
v 0.05488461 -0.04130699 -0.01630302
v -0.05488461 0.0515749 -0.01630302
v 0.05488461 0.0515749 -0.01630302

vt -0.1223392 -0.02747345
vt -0.1223392 0.02747345
vt 0.1223392 0.02747345
vt 0.1223392 -0.02747345
vt 0.1627684 0.1627674
vt 0.1627684 -0.1627674
vt -0.1627684 -0.1627674
vt -0.1627684 0.1627674
vt -0.09341288 -0.508041
vt -0.3519497 0.2294669
vt 0.3519497 0.2294669
vt 0.09341288 -0.508041
vt -0.2038994 0.4678155
vt 0.2038994 0.4678155
vt -0.1627684 -0.4054713
vt -0.09341288 -0.3259637
vt 0.09341288 -0.3259637
vt 0.1627684 -0.4054713
vt -0.405471 0.1627674
vt -0.325963 0.0934124
vt -0.325963 -0.0934124
vt -0.405471 -0.1627674
vt 0.405471 -0.1627674
vt 0.325963 -0.0934124
vt 0.325963 0.0934124
vt 0.405471 0.1627674
vt 0.1627684 0.4054713
vt 0.09341288 0.3259637
vt -0.09341288 0.3259637
vt -0.1627684 0.4054713
vt -0.1627684 -0.6000414
vt -0.1627684 -0.5388759
vt 0.1627684 -0.5388759
vt 0.1627684 -0.6000414
vt 0.02747345 0.7070371
vt 0.02747345 0.5000001
vt -0.02747345 0.5000001
vt -0.02747345 0.7070371
vt 0.0924902 0.4573533
vt 0.1223392 0.4287583
vt -0.1223392 0.4287583
vt -0.0924902 0.4573533
vt 0.09013399 0.6817797
vt 0.1228556 0.7070371
vt 0.1228556 0.5000001
vt 0.09013399 0.5252575
vt -0.09013399 0.5252575
vt -0.1228556 0.5000001
vt -0.1228556 0.7070371
vt -0.09013399 0.6817797
vt -0.0924902 0.6087963
vt -0.1223392 0.6373913
vt 0.1223392 0.6373913
vt 0.0924902 0.6087963
vt 0.0924902 0.0140667
vt 0.0924902 -0.02747345
vt -0.0924902 -0.02747345
vt -0.0924902 0.0140667
vt -0.0140667 0.6817797
vt 0.02747345 0.6817797
vt 0.02747345 0.5252575
vt -0.0140667 0.5252575
vt 0.0140667 0.5252575
vt -0.02747345 0.5252575
vt -0.02747345 0.6817797
vt 0.0140667 0.6817797
vt -0.0924902 0.5252575
vt -0.1223392 0.5000001
vt -0.1223392 0.7070371
vt 0.0924902 0.5252575
vt -0.0924902 0.6817797
vt 0.1223392 0.5000001
vt 0.1223392 0.7070371
vt 0.0924902 0.6817797
vt 0.2038994 0.2038994
vt 0.2038994 -0.2038994
vt -0.2038994 0.2038994
vt -0.2038994 -0.2038994

vn 0 1 0
vn 0 -1 0
vn 0 -0.3147504 0.9491745
vn 0 0.5577073 0.8300377
vn -0.9491747 -0.3147498 0
vn -0.8300377 0.5577073 0
vn 0 -0.3147504 -0.9491745
vn 0 0.5577074 -0.8300377
vn 0.9491746 -0.3147498 0
vn 0.8300377 0.5577074 0
vn 0 0.8723068 -0.488959
vn 0.4889565 0.8723082 0
vn -0.4889565 0.8723082 0
vn 0 0.8723068 0.488959
vn 0 0 -1
vn 1 0 0
vn -1 0 0
vn 0 0 1
vn 0 0.4688505 0.8832776
vn -0.4097211 0 0.9122109
vn 0.4097211 0 0.9122109
vn 0 -0.4688483 0.8832787

usemtl 02.1-BlueprintGrid-Mug-08
f 4/4/1 3/3/1 2/2/1 1/1/1
f 8/8/2 7/7/2 6/6/2 5/5/2
f 12/12/3 11/11/3 10/10/3 9/9/3
f 10/10/4 11/11/4 14/14/4 13/13/4
f 9/12/5 10/11/5 16/10/5 15/9/5
f 16/10/6 10/11/6 13/14/6 17/13/6
f 19/9/7 15/12/7 16/11/7 18/10/7
f 16/11/8 17/14/8 20/13/8 18/10/8
f 12/9/9 19/12/9 18/11/9 11/10/9
f 18/11/10 20/14/10 14/13/10 11/10/10
f 22/18/11 15/17/11 19/16/11 21/15/11
f 21/22/12 19/21/12 12/20/12 23/19/12
f 24/26/13 9/25/13 15/24/13 22/23/13
f 23/30/14 12/29/14 9/28/14 24/27/14
f 7/34/15 22/33/15 21/32/15 6/31/15
f 6/34/16 21/33/16 23/32/16 5/31/16
f 8/34/17 24/33/17 22/32/17 7/31/17
f 5/34/18 23/33/18 24/32/18 8/31/18
f 2/38/16 26/37/16 25/36/16 1/35/16
f 4/38/17 28/37/17 27/36/17 3/35/17
f 30/42/19 27/41/19 26/40/19 29/39/19
f 29/46/20 26/45/20 2/44/20 31/43/20
f 32/50/21 3/49/21 27/48/21 30/47/21
f 31/54/22 2/53/22 3/52/22 32/51/22
f 29/58/1 34/57/1 33/56/1 30/55/1
f 30/62/16 33/61/16 35/60/16 32/59/16
f 31/66/17 36/65/17 34/64/17 29/63/17
f 32/58/2 35/57/2 36/56/2 31/55/2
f 36/71/15 1/69/15 25/68/15 34/67/15
f 28/72/15 33/70/15 34/67/15 25/68/15
f 35/74/15 4/73/15 1/69/15 36/71/15
f 4/73/15 35/74/15 33/70/15 28/72/15
f 28/4/1 17/76/1 13/75/1 27/3/1
f 14/77/1 26/2/1 27/3/1 13/75/1
f 25/1/1 20/78/1 17/76/1 28/4/1
f 20/78/1 25/1/1 26/2/1 14/77/1

