# ProBuilder 5.0.6
# https://unity3d.com/unity/features/worldbuilding/probuilder
# 5/7/2024 12:08:06 PM

mtllib ./CookingWagonCover.mtl
o CookingWagonCover

g CookingWagonCover
v -1.120076 1.181889 -1.294766
v -0.7527051 1.181889 -1.294766
v -1.120076 1.181889 0.6250318
v -0.7527051 1.181889 0.6250318
v -0.8618131 1.594339 1.158264
v -0.7850766 1.946678 1.158264
v -0.8618131 1.594339 -1.828
v -0.7850766 1.946678 -1.828
v -0.6813052 1.969794 1.404208
v -0.752704 1.181889 1.404208
v -0.6813052 1.969794 -2.073941
v -0.752704 1.181889 -2.073941
v -0.7850766 2.157482 1.158264
v -0.5623708 2.855669 1.158264
v -0.7850766 2.157482 -1.828
v -0.5623708 2.855669 -1.828
v -0.474098 2.680573 1.404208
v -0.474098 2.680573 -2.073941
v -0.2155004 3.142801 1.929811
v -0.2155004 3.142801 -2.599549
v -0.1513639 2.933725 2.302841
v -0.1513639 2.933725 -2.972579
v -0.09228948 3.498546 1.929811
v -0.09228948 3.498546 -2.599549
v -0.03672841 3.295886 2.302841
v -0.03672841 3.295886 -2.972579
v 0.7060961 3.621127 1.929811
v 0.7060961 3.621127 -2.599549
v 0.7060961 3.420677 2.302841
v 0.7060961 3.420677 -2.972579
v 1.504482 3.498546 1.929811
v 1.504482 3.498546 -2.599549
v 1.448921 3.295886 2.302841
v 1.448921 3.295886 -2.972579
v 1.627693 3.142801 1.929811
v 1.627693 3.142801 -2.599549
v 1.563556 2.933725 2.302841
v 1.563556 2.933725 -2.972579
v 1.974563 2.855669 1.158264
v 1.974563 2.855669 -1.828
v 1.886291 2.680572 1.404208
v 1.886291 2.680572 -2.073941
v 2.197269 2.157482 1.158264
v 2.197269 2.157482 -1.828
v 2.093498 1.969794 1.404208
v 2.093498 1.969794 -2.073941
v 2.197269 1.946678 1.158264
v 2.274005 1.594339 1.158264
v 2.197269 1.946678 -1.828
v 2.274005 1.594339 -1.828
v 2.164896 1.181889 1.404208
v 2.164896 1.181889 -2.073941
v 2.164897 1.181889 -1.294766
v 2.532268 1.181889 -1.294766
v 2.164897 1.181889 0.6250318
v 2.532268 1.181889 0.6250318
v -1.120076 1.181889 -2.073941
v -1.030697 2.083318 -2.073941
v -1.030697 2.083318 1.404208
v -1.120076 1.181889 1.404208
v -0.7713084 2.896508 -2.073941
v -0.7713084 2.896508 1.404208
v -0.3673024 3.230936 -2.972579
v -0.3673024 3.230936 2.302841
v -0.2237974 3.645278 -2.972579
v -0.2237974 3.645278 2.302841
v 0.1417765 4.163839 -3.431748
v 0.7060961 4.306612 -3.431748
v 0.2553019 3.814447 -3.431748
v 0.7060961 3.93924 -3.431748
v 0.7060961 4.306612 2.76201
v 0.1417765 4.163839 2.76201
v 0.7060961 3.93924 2.76201
v 0.2553019 3.814447 2.76201
v 1.270416 4.163839 -3.431748
v 1.15689 3.814447 -3.431748
v 1.270416 4.163839 2.76201
v 1.15689 3.814447 2.76201
v 1.63599 3.645278 -2.972579
v 1.779495 3.230936 -2.972579
v 1.779495 3.230936 2.302841
v 1.63599 3.645278 2.302841
v 2.183501 2.896508 -2.073941
v 2.183501 2.896508 1.404208
v 2.442889 2.083318 -2.073941
v 2.442889 2.083318 1.404208
v 2.532269 1.181889 -2.073941
v 2.532269 1.181889 1.404208
v -1.120076 -0.08666325 1.404207
v -0.7527051 -0.08666325 1.404207
v -1.120076 -0.08666301 0.6250318
v -0.7527051 -0.08666301 0.6250318
v -0.7527051 -0.08666325 -2.073943
v -1.120076 -0.08666325 -2.073943
v -0.7527051 -0.08666301 -1.294766
v -1.120076 -0.08666301 -1.294766
v 2.164897 -0.08666325 1.404207
v 2.532268 -0.08666325 1.404207
v 2.164897 -0.08666325 0.6250318
v 2.532268 -0.08666325 0.6250318
v 2.532268 -0.08666325 -2.073943
v 2.164897 -0.08666325 -2.073943
v 2.532268 -0.08666325 -1.294766
v 2.164897 -0.08666325 -1.294766
v 0.7060961 3.78805 -2.972579
v 0.7060961 3.78805 2.302841
v 2.442889 1.837791 -2.073943
v 2.532268 1.427416 -2.073943
v 2.710155 1.181889 -2.073943
v 2.710155 1.181889 1.404207
v 2.710155 1.427416 -2.073943
v 2.710155 1.427416 1.404207
v 2.532268 1.427416 1.404207
v 2.442889 1.837791 1.404207
v -1.120076 1.427416 -2.073943
v -1.030697 1.837791 -2.073943
v -1.030697 1.837791 1.404207
v -1.120076 1.427416 1.404207
v -1.297963 1.181889 1.404207
v -1.297963 1.181889 -2.073943
v -1.297963 1.427417 1.404207
v -1.297963 1.427417 -2.073943
v -1.120076 1.546064 1.794458
v -1.120076 1.300537 1.794458
v -1.297963 1.546065 1.794458
v -1.297963 1.300537 1.794458
v -1.120076 1.311793 -2.554303
v -1.120076 1.55732 -2.554303
v -1.297963 1.311793 -2.554303
v -1.297963 1.557321 -2.554303
v 2.532268 1.55732 -2.554303
v 2.532268 1.311793 -2.554303
v 2.710155 1.55732 -2.554303
v 2.710155 1.311793 -2.554303
v 2.532268 1.300537 1.794458
v 2.532268 1.546064 1.794458
v 2.710155 1.300537 1.794458
v 2.710155 1.546064 1.794458

vt -2.274929 -2.564598
vt -1.664932 -2.564598
vt -2.274929 -0.6298386
vt -1.664932 -0.6298386
vt -0.09245133 -2.673411
vt -0.09245133 -2.07466
vt -3.101987 -2.673411
vt -3.101987 -2.07466
vt -0.1554093 -1.843174
vt -0.1554093 -3.156803
vt 3.349845 -1.843174
vt 3.349845 -3.156803
vt -0.09245133 -1.855083
vt -0.09245133 -0.6382353
vt -3.101987 -1.855083
vt -3.101987 -0.6382353
vt -0.1554093 -0.84569
vt -0.1554093 -2.075023
vt 3.349845 -0.84569
vt 3.349845 -2.075023
vt 1.191897 -0.09245133
vt 0.4442126 0.6851088
vt 1.191897 -3.101987
vt 0.4442126 -3.879549
vt -0.5922867 1.061046
vt -1.273358 0.1554093
vt -0.5922867 -4.255486
vt -1.273358 -3.349845
vt 0.6851088 -0.02890624
vt 0.6851088 0.5962113
vt -3.879549 -0.02890624
vt -3.879549 0.5962113
vt -1.061046 0.3247215
vt -1.061046 -0.30603
vt 4.255486 0.3247215
vt 4.255486 -0.30603
vt 0.436142 0.6851088
vt -0.9050637 0.6851088
vt 0.436142 -3.879549
vt -0.9050637 -3.879549
vt 0.8625795 1.061046
vt -0.3881201 1.061046
vt 0.8625795 -4.255486
vt -0.3881201 -4.255486
vt -0.5920336 0.6851088
vt -1.933239 0.6851088
vt -0.5920336 -3.879549
vt -1.933239 -3.879549
vt 1.881829 1.061046
vt 0.6311293 1.061046
vt 1.881829 -4.255486
vt 0.6311293 -4.255486
vt -0.6851088 0.1005098
vt -0.6851088 -0.5246077
vt 3.879549 0.1005098
vt 3.879549 -0.5246077
vt 1.061046 -0.7631111
vt 1.061046 -0.1323596
vt -4.255486 -0.7631111
vt -4.255486 -0.1323596
vt -1.610972 0.6851088
vt -2.358657 -0.09245133
vt -1.610972 -3.879549
vt -2.358657 -3.101987
vt 2.465109 0.1554093
vt 1.784037 1.061046
vt 2.465109 -3.349845
vt 1.784037 -4.255486
vt 0.09245133 -1.098523
vt 0.09245133 -2.31537
vt 3.101987 -1.098523
vt 3.101987 -2.31537
vt 0.1554093 -2.498927
vt 0.1554093 -1.269595
vt -3.349845 -2.498927
vt -3.349845 -1.269595
vt 0.09245133 -2.396981
vt 0.09245133 -2.995732
vt 3.101987 -2.396981
vt 3.101987 -2.995732
vt 0.1554093 -3.293498
vt 0.1554093 -1.979868
vt -3.349845 -3.293498
vt -3.349845 -1.979868
vt 3.179572 -2.564598
vt 3.789569 -2.564598
vt 3.179572 -0.6298386
vt 3.789569 -0.6298386
vt 2.27493 -3.018864
vt 2.126521 -1.522096
vt 1.66493 -3.018864
vt 1.546376 -1.710596
vt -2.126521 -1.522096
vt -2.27493 -3.018864
vt -1.546376 -1.710596
vt -1.66493 -3.018864
vt 1.695822 -0.1718414
vt 1.202321 -0.5303903
vt -1.695822 -0.1718414
vt -1.202321 -0.5303903
vt -1.300131 1.50342
vt -2.42022 2.052277
vt -1.636005 1.017023
vt -2.664249 1.493213
vt -1.054627 0.6884464
vt -1.270943 -0.5397319
vt -0.474479 0.5779741
vt -0.6609428 -0.5397318
vt 1.024994 0.3834555
vt 0.7867121 1.071445
vt 0.6664407 -0.110045
vt 0.4760953 0.4913003
vt -0.7867121 1.071445
vt -1.024994 0.3834555
vt -0.4760953 0.4913003
vt -0.6664407 -0.110045
vt 0.1796986 1.932485
vt -0.7573202 2.169551
vt -0.008803485 1.352341
vt -0.7573202 1.559551
vt 0.7573202 2.169551
vt -0.1796986 1.932485
vt 0.7573202 1.559551
vt 0.008803485 1.352341
vt -1.694339 1.932485
vt -1.505837 1.352341
vt 1.694339 1.932485
vt 1.505837 1.352341
vt -2.301353 1.071445
vt -2.539634 0.3834555
vt -1.990736 0.4913003
vt -2.181081 -0.110045
vt 2.539634 0.3834555
vt 2.301353 1.071445
vt 2.181081 -0.110045
vt 1.990736 0.4913003
vt 2.279997 -2.755027
vt 2.496313 -1.526845
vt 1.699849 -2.644555
vt 1.886313 -1.526845
vt 2.071169 1.003266
vt 0.9510835 1.552124
vt 1.735294 0.51687
vt 0.7070533 0.99306
vt -3.210463 -0.1718416
vt -3.641162 -1.522096
vt -2.716962 -0.5303905
vt -3.061017 -1.710596
vt 3.641162 -1.522096
vt 3.210463 -0.1718416
vt 3.061017 -1.710596
vt 2.716962 -0.5303905
vt -3.789571 -3.018865
vt -3.179571 -3.018865
vt 3.789571 -3.018865
vt 3.179571 -3.018865
vt -2.274929 0.1554115
vt -1.664932 0.1554115
vt 1.66493 0.1554093
vt 1.66493 -3.349845
vt 1.664932 -0.6298386
vt 1.664932 -2.564598
vt -1.664932 -3.34985
vt -2.274929 -3.34985
vt 2.27493 -3.349845
vt 2.27493 0.1554093
vt 2.274929 -2.564598
vt 2.274929 -0.6298386
vt 3.179572 0.1554084
vt 3.789569 0.1554084
vt -3.789571 0.1554093
vt -3.789571 -3.349845
vt -3.789569 -0.6298386
vt -3.789569 -2.564598
vt 3.789569 -3.349847
vt 3.179572 -3.349847
vt -3.179571 -3.349845
vt -3.179571 0.1554093
vt -3.179572 -2.564598
vt -3.179572 -0.6298386
vt -2.274929 -5.125219
vt -1.664932 -5.125219
vt -0.6298352 -3.018864
vt 0.1554128 -3.018864
vt -0.6298352 -5.125219
vt 0.1554119 -5.125219
vt -0.1554056 -3.018866
vt 0.6298425 -3.018866
vt -0.1554046 -5.125221
vt 0.6298425 -5.12522
vt 1.664932 -5.125219
vt 2.274929 -5.125219
vt 2.564594 -3.018864
vt 3.349842 -3.018864
vt 2.564594 -5.125219
vt 3.349843 -5.125219
vt -3.349849 -3.018863
vt -2.564601 -3.018863
vt -3.34985 -5.125218
vt -2.564601 -5.125217
vt -3.789569 -5.125222
vt -3.179572 -5.125222
vt 3.179572 -5.125219
vt 3.789569 -5.125219
vt -1.136906 2.583749
vt -2.365324 2.348725
vt -1.178516 3.560374
vt -1.924 3.345926
vt 0.08181743 1.55408
vt -0.1972006 2.150066
vt 0.7207386 2.438632
vt 0.5514126 3.022328
vt 2.683649 2.989985
vt 1.146184 3.266459
vt 2.121853 3.994165
vt 1.18882 4.241862
vt 0.4048049 3.185295
vt -1.133998 2.916368
vt 0.3667508 4.162066
vt -0.5670943 3.916706
vt 0.8960089 2.552518
vt -0.3313194 2.793173
vt 0.4594207 3.55254
vt -0.2854019 3.768725
vt -0.9699492 1.926029
vt -1.254964 1.332887
vt -1.710901 2.80636
vt -1.883866 2.223326
vt 0.6588431 1.14666
vt -0.5695759 0.9116356
vt 0.6172328 2.123285
vt -0.1282517 1.908836
vt 0.03860509 0.7444469
vt -0.240413 1.340433
vt 0.6775264 1.628999
vt 0.5082003 2.212695
vt 0.8811268 1.425065
vt -0.6563379 1.70154
vt 0.3193312 2.429245
vt -0.613702 2.676942
vt -0.8420104 1.623345
vt -2.380813 1.354418
vt -0.8800645 2.600116
vt -1.81391 2.354756
vt 2.086196 0.8595102
vt 0.8588681 1.100165
vt 1.649608 1.859532
vt 0.9047856 2.075718
vt 1.689834 1.441147
vt 1.404819 0.8480053
vt 0.9488825 2.321478
vt 0.7759176 1.738444
vt 3.789452 -3.018877
vt 3.641043 -1.92979
vt 3.78945 -2.611193
vt 3.349847 -2.611181
vt -0.1554084 -2.611181
vt 3.789565 -2.611181
vt 0.09245133 -1.398951
vt 3.101987 -1.398951
vt 0.09245133 -1.748979
vt 3.101987 -1.748979
vt 2.275048 -3.018853
vt 2.275047 -2.611169
vt 2.12664 -1.929767
vt -3.101987 -1.398951
vt -0.09245133 -1.398951
vt -3.101987 -1.748979
vt -0.09245133 -1.748979
vt 2.274932 -2.611181
vt 0.1554084 -2.611181
vt -3.349847 -2.611181
vt -2.570297 0.1554084
vt -2.570297 -3.349847
vt -2.274929 -2.414173
vt -2.274929 -2.821856
vt -2.570299 -2.414173
vt -2.570299 -2.821856
vt 2.274929 -2.803167
vt 2.274929 -2.395483
vt 2.570299 -2.803166
vt 2.570299 -2.395483
vt 2.570297 -3.349847
vt 2.570297 0.1554084
vt 4.084937 -3.349847
vt 4.084937 0.1554084
vt -3.789569 -2.395483
vt -3.789569 -2.803167
vt -4.084939 -2.395483
vt -4.084939 -2.803167
vt 3.789569 -2.821857
vt 3.789569 -2.414173
vt 4.084939 -2.821857
vt 4.084939 -2.414173
vt -4.084938 0.1554084
vt -4.084938 -3.349847
vt -3.833957 -2.395499
vt -3.833957 -2.803183
vt -4.084938 -1.997133
vt -3.789567 -1.997133
vt -4.084938 -2.527116
vt -3.789567 -2.527116
vt 3.789575 -1.831217
vt 4.084944 -1.831218
vt 3.789573 -2.361201
vt 4.084943 -2.361201
vt 3.833951 -2.803167
vt 3.833951 -2.395483
vt -2.570303 -1.831212
vt -2.274934 -1.83121
vt -2.570303 -2.361195
vt -2.274932 -2.361194
vt 2.274926 -1.997134
vt 2.570297 -1.997134
vt 2.274927 -2.527117
vt 2.570297 -2.527117
vt -0.5487042 -2.41418
vt -0.5487042 -2.821863
vt 2.570297 -1.030523
vt 2.274926 -1.030523
vt 2.570297 -0.5906471
vt 2.274927 -0.5906471
vt -2.274923 -1.213116
vt -2.570292 -1.213117
vt -2.274922 -0.7732409
vt -2.570292 -0.7732409
vt 0.5487009 -2.821856
vt 0.5487009 -2.414173
vt 4.084932 -1.213117
vt 3.789563 -1.213116
vt 4.084933 -0.7732405
vt 3.789562 -0.7732403
vt -3.789567 -1.030524
vt -4.084938 -1.030524
vt -3.789567 -0.5906478
vt -4.084938 -0.5906478
vt 4.533447 0.003987016
vt 4.890844 -1.367492
vt 4.107245 -0.06489035
vt 4.414099 -1.242412
vt -3.192306 -1.929782
vt -3.192306 -1.522099
vt -2.715056 -1.748982
vt -2.715056 -1.398955
vt -3.108178 -1.832044
vt -2.750782 -0.4605647
vt -2.631432 -1.706964
vt -2.324579 -0.529442
vt -3.197733 0.2861321
vt -2.448183 1.294456
vt -2.865715 0.01016719
vt -2.222168 0.8758926
vt 4.851337 -1.522098
vt 4.851337 -1.929782
vt 4.374088 -1.398954
vt 4.374088 -1.748981
vt -2.448185 -4.163573
vt -3.197734 -3.155245
vt -2.222169 -3.74501
vt -2.865715 -2.879282
vt 4.890939 -1.825512
vt 5.014078 -2.51193
vt 4.414196 -1.643381
vt 4.519918 -2.232724
vt -4.600067 -3.349847
vt -4.600067 0.1554084
vt -4.089464 -3.101987
vt -4.089464 -0.09245133
vt -3.231093 -2.831785
vt -3.107954 -2.145366
vt -2.736933 -2.552579
vt -2.631211 -1.963235
vt -2.419281 0.02839418
vt -2.269828 0.7409747
vt -1.968389 -0.1231794
vt -1.840071 0.4886266
vt 4.757815 1.262794
vt 4.907269 0.5502136
vt 4.328059 1.010446
vt 4.456377 0.3986399
vt -2.112098 1.686907
vt -0.5499722 1.686907
vt -1.93324 1.22174
vt -0.5920342 1.221741
vt -0.5499722 -4.268579
vt -2.112098 -4.268579
vt -0.5920342 -3.803413
vt -1.93324 -3.803413
vt -0.9471252 1.551534
vt 0.6150001 1.551534
vt -0.9050632 1.086367
vt 0.4361425 1.086367
vt 0.6150001 -4.133204
vt -0.9471252 -4.133204
vt 0.4361424 -3.668038
vt -0.9050632 -3.668038
vt 1.319829 1.048212
vt 1.469282 0.335632
vt 0.8900727 0.7958642
vt 1.01839 0.1840582
vt -3.957271 0.8574484
vt -3.807818 1.570029
vt -3.506379 0.7058749
vt -3.378062 1.317681
vt 0.9522511 1.190112
vt 1.701801 0.1817877
vt 0.7262362 0.7715483
vt 1.369782 -0.09417685
vt 1.701801 -3.050902
vt 0.952252 -4.059231
vt 1.369782 -2.77494
vt 0.7262368 -3.640667
vt 1.493927 -0.3124328
vt 1.851323 -1.683913
vt 1.067724 -0.3813096
vt 1.374577 -1.558832
vt -3.633987 -1.219363
vt -3.27659 0.1521165
vt -3.157242 -1.094283
vt -2.850389 0.08323974
vt -3.556986 -1.929783
vt -3.556985 -1.5221
vt -3.079737 -1.748983
vt -3.079737 -1.398956
vt 1.897951 -1.522098
vt 1.897951 -1.929781
vt 1.420702 -1.398953
vt 1.420702 -1.748981
vt 1.851194 -2.043349
vt 1.974333 -2.729767
vt 1.374452 -1.861218
vt 1.480173 -2.450561
vt -3.75732 -2.409909
vt -3.634181 -1.723491
vt -3.26316 -2.130703
vt -3.157438 -1.54136
vt 3.327998 0.1554084
vt 3.327998 -3.349847
vt 2.817394 -0.09245133
vt 2.817394 -3.101987

vn 0 -1 0
vn -0.977095 0.2128035 0
vn 0.9825634 -0.1859277 0
vn 0.9959192 -0.09024885 0
vn -0.9527067 0.3038914 0
vn -0.828675 0.5597301 0
vn 0.8283447 -0.5602188 0
vn -0.8217158 0.5698974 0
vn 0.8218776 -0.5696641 0
vn -0.6402805 0.7681412 0
vn 0.6558755 -0.754869 0
vn -1.507578E-08 1 0
vn 0.6402805 0.7681412 0
vn -0.6558755 -0.754869 0
vn 0.8217161 0.5698971 0
vn -0.8218776 -0.5696641 0
vn 0.8286752 0.5597298 0
vn -0.8283446 -0.5602189 0
vn 0.9527066 0.3038915 0
vn -0.9600375 -0.2798715 0
vn 0.977095 0.2128035 0
vn -0.9959193 -0.09024869 0
vn 0 0 -1
vn 0 0 1
vn -0.5116793 -0.7042664 -0.4921314
vn -0.6238691 -0.6195251 -0.453565
vn -0.7360588 -0.5347837 -0.4149986
vn -0.6990742 -0.5079126 0.5033091
vn -0.6186401 -0.6243449 0.4526416
vn -0.538206 -0.7407773 0.4019742
vn 0.6990749 -0.5079132 -0.5033075
vn 0.6186408 -0.6243453 -0.4526403
vn 0.5382068 -0.7407774 -0.401973
vn 0.5116789 -0.7042652 0.4921333
vn 0.6238685 -0.6195242 0.453567
vn 0.736058 -0.5347833 0.4150006
vn 0 0 0
vn -1 0 -9.179645E-07
vn 1 -8.457533E-07 -1.376947E-06
vn -0.1106855 -0.6588578 -0.7440801
vn -0.1535755 -0.6842809 -0.7103156
vn -0.1964654 -0.709704 -0.6765512
vn 0.5948678 -0.3184999 -0.7380312
vn 0.6163254 -0.262865 -0.7399228
vn 0.6377829 -0.2072302 -0.7418144
vn 0.1075537 0.7005111 0.7054902
vn 0.1364823 0.6771551 0.7219286
vn 0.165411 0.6537991 0.7383671
vn -0.1012607 0.6595236 0.7448321
vn -0.1418041 0.6901329 0.7068111
vn -0.1823476 0.7207422 0.66879
vn 0.1166602 -0.6944219 -0.7100483
vn 0.1485816 -0.6732321 -0.7232156
vn 0.180503 -0.6520422 -0.7363828
vn -0.5547861 -0.2970396 -0.7771614
vn -0.6214867 -0.2603237 -0.7336886
vn -0.6881873 -0.2236077 -0.6902158
vn 0.1106855 -0.6588578 0.7440801
vn 0.1535755 -0.6842809 0.7103156
vn 0.1964654 -0.709704 0.6765512
vn -0.5948679 -0.3184999 0.7380312
vn -0.6163254 -0.262865 0.7399228
vn -0.637783 -0.2072302 0.7418144
vn -0.1075537 0.7005111 -0.7054902
vn -0.1364824 0.6771551 -0.7219287
vn -0.165411 0.6537991 -0.7383671
vn 0.1012607 0.6595236 -0.7448321
vn 0.1418041 0.6901329 -0.7068111
vn 0.1823475 0.7207422 -0.66879
vn -0.1166602 -0.694422 0.7100483
vn -0.1485816 -0.6732321 0.7232156
vn -0.180503 -0.6520422 0.7363829
vn 0.5547861 -0.2970396 0.7771614
vn 0.6214867 -0.2603237 0.7336886
vn 0.6881873 -0.2236077 0.6902158
vn -6.469032E-07 0.9653245 0.2610529
vn -1.452404E-06 -0.9653247 -0.2610522
vn 6.411628E-07 0.9567586 -0.2908833
vn -2.841802E-06 -0.9567583 0.2908839
vn 0.7223898 0.2304252 0.6519641
vn 0.7075709 2.744734E-06 -0.7066423
vn 0.7223935 0.2304264 -0.6519595
vn 0.1501977 0.9467449 -0.2848068
vn 0.7075676 -4.11712E-06 0.7066457
vn 0.1501958 0.9467452 0.2848065
vn 0.7329371 0.1596316 0.6613026
vn 0.5428203 0.8398488 0
vn 0.7329345 0.159631 -0.6613054
vn 0.8578543 0.2971136 -0.4192965
vn 0.8578537 0.2971134 0.419298
vn 0.1387884 0.9039468 -0.4044973
vn 0.1387885 0.9039471 0.4044966
vn -0.1387885 0.9039472 -0.4044963
vn -0.1387884 0.9039466 0.4044976
vn -0.8578538 0.2971134 -0.4192977
vn -0.8578542 0.2971135 0.4192968
vn -0.1501976 0.9467448 -0.2848068
vn -0.1501962 0.9467452 0.2848063
vn -0.7223935 0.2304266 -0.6519595
vn -0.7223909 0.2304258 0.6519627
vn -0.7075695 -3.430025E-06 0.7066437
vn -0.7075725 3.431814E-06 -0.7066407
vn -0.7329371 0.1596316 -0.6613025
vn -0.7329345 0.159631 0.6613055
vn -0.5428201 0.839849 0

usemtl GymWalls
f 1/1/1 2/2/1 4/4/1 3/3/1
f 53/85/1 54/86/1 56/88/1 55/87/1
f 57/89/23 58/90/23 11/92/23 12/91/23
f 59/93/24 60/94/24 10/96/24 9/95/24
f 58/90/23 61/97/23 18/98/23 11/92/23
f 62/99/24 59/93/24 9/95/24 17/100/24
f 61/101/25 63/102/26 22/104/27 18/103/26
f 64/105/28 62/106/29 17/108/30 21/107/29
f 63/109/23 65/110/23 26/112/23 22/111/23
f 66/113/24 64/114/24 21/116/24 25/115/24
f 67/117/23 68/118/23 70/120/23 69/119/23
f 71/121/24 72/122/24 74/124/24 73/123/24
f 68/118/23 75/125/23 76/126/23 70/120/23
f 77/127/24 71/121/24 73/123/24 78/128/24
f 79/129/23 80/130/23 38/132/23 34/131/23
f 81/133/24 82/134/24 33/136/24 37/135/24
f 80/137/31 83/138/32 42/140/33 38/139/32
f 84/141/34 81/142/35 37/144/36 41/143/35
f 83/145/23 85/146/23 46/148/23 42/147/23
f 86/149/24 84/150/24 41/152/24 45/151/24
f 85/146/23 87/153/23 52/154/23 46/148/23
f 88/155/24 86/149/24 45/151/24 51/156/24
f 91/3/1 92/4/1 90/158/1 89/157/1
f 4/161/37 2/162/37 12/160/37 10/159/37
f 95/2/1 96/1/1 94/164/1 93/163/1
f 1/167/37 3/168/37 60/166/37 57/165/37
f 99/87/1 100/88/1 98/170/1 97/169/1
f 56/173/37 54/174/37 87/172/37 88/171/37
f 103/86/1 104/85/1 102/176/1 101/175/1
f 53/179/37 55/180/37 51/178/37 52/177/37
f 89/181/24 90/182/24 10/96/24 60/94/24
f 91/185/38 89/186/38 60/184/38 3/183/38
f 90/189/39 92/190/39 4/188/39 10/187/39
f 92/191/23 91/192/23 3/89/23 4/91/23
f 93/191/23 94/192/23 57/89/23 12/91/23
f 95/195/39 93/196/39 12/194/39 2/193/39
f 94/199/38 96/200/38 1/198/38 57/197/38
f 96/181/24 95/182/24 2/96/24 1/94/24
f 101/201/23 102/202/23 52/154/23 87/153/23
f 103/195/39 101/196/39 87/194/39 54/193/39
f 102/199/38 104/200/38 53/198/38 52/197/38
f 104/203/24 103/204/24 54/155/24 53/156/24
f 97/203/24 98/204/24 88/155/24 51/156/24
f 99/185/38 97/186/38 51/184/38 55/183/38
f 98/189/39 100/190/39 56/188/39 88/187/39
f 100/201/23 99/202/23 55/154/23 56/153/23
f 70/207/41 76/208/42 34/206/41 30/205/40
f 76/211/44 75/212/45 79/210/44 34/209/43
f 75/215/47 68/216/48 105/214/47 79/213/46
f 68/219/50 67/220/51 65/218/50 105/217/49
f 69/223/53 70/224/54 30/222/53 26/221/52
f 67/227/56 69/228/57 26/226/56 65/225/55
f 73/231/59 74/232/60 25/230/59 29/229/58
f 74/235/62 72/236/63 66/234/62 25/233/61
f 72/239/65 71/240/66 106/238/65 66/237/64
f 71/243/68 77/244/69 82/242/68 106/241/67
f 78/247/71 73/248/72 29/246/71 33/245/70
f 77/251/74 78/252/75 33/250/74 82/249/73
f 107/254/37 108/255/23 87/253/37 85/149/24
f 111/256/39 112/257/39 110/187/39 109/194/39
f 113/258/37 114/254/23 86/149/37 88/155/24
f 115/264/37 116/265/24 58/90/37 57/263/23
f 117/265/37 118/270/24 60/89/37 59/90/23
f 121/271/38 122/272/38 120/197/38 119/184/38
f 119/273/1 120/274/1 57/164/1 60/157/1
f 125/277/24 126/278/24 124/276/24 123/275/24
f 129/281/23 130/282/23 128/280/23 127/279/23
f 122/283/12 121/284/12 118/166/12 115/165/12
f 109/285/1 110/286/1 88/170/1 87/175/1
f 133/289/23 134/290/23 132/288/23 131/287/23
f 137/293/24 138/294/24 136/292/24 135/291/24
f 112/295/12 111/296/12 108/172/12 113/171/12
f 131/297/38 132/298/38 87/197/38 108/272/38
f 133/301/76 131/302/76 108/300/76 111/299/76
f 132/305/77 134/306/77 109/304/77 87/303/77
f 134/307/39 133/308/39 111/256/39 109/194/39
f 127/307/39 128/308/39 115/256/39 57/194/39
f 129/311/77 127/312/77 57/310/77 120/309/77
f 128/315/76 130/316/76 122/314/76 115/313/76
f 130/297/38 129/298/38 120/197/38 122/272/38
f 123/317/39 124/318/39 60/187/39 118/257/39
f 125/321/78 123/322/78 118/320/78 121/319/78
f 124/325/79 126/326/79 119/324/79 60/323/79
f 126/327/38 125/328/38 121/271/38 119/184/38
f 135/327/38 136/328/38 113/271/38 88/184/38
f 137/331/79 135/332/79 88/330/79 110/329/79
f 136/335/78 138/336/78 112/334/78 113/333/78
f 138/317/39 137/318/39 110/187/39 112/257/39
f 40/339/80 44/340/80 85/338/80 83/337/80
f 47/343/81 43/344/81 86/342/81 114/341/81
f 43/347/82 39/348/82 84/346/82 86/345/82
f 39/351/83 35/352/83 81/350/83 84/349/83
f 44/355/84 49/356/84 107/354/84 85/353/84
f 36/359/85 40/360/85 83/358/85 80/357/85
f 49/363/86 50/364/86 108/362/86 107/361/86
f 50/367/87 48/368/87 113/366/87 108/365/87
f 48/371/88 47/372/88 114/370/88 113/369/88
f 35/375/89 31/376/89 82/374/89 81/373/89
f 32/379/90 36/380/90 80/378/90 79/377/90
f 31/383/91 27/384/91 106/382/91 82/381/91
f 28/387/92 32/388/92 79/386/92 105/385/92
f 27/391/93 23/392/93 66/390/93 106/389/93
f 24/395/94 28/396/94 105/394/94 65/393/94
f 23/399/95 19/400/95 64/398/95 66/397/95
f 20/403/96 24/404/96 65/402/96 63/401/96
f 19/407/97 14/408/97 62/406/97 64/405/97
f 16/411/98 20/412/98 63/410/98 61/409/98
f 14/415/99 13/416/99 59/414/99 62/413/99
f 15/419/100 16/420/100 61/418/100 58/417/100
f 8/423/101 15/424/101 58/422/101 116/421/101
f 13/427/102 6/428/102 117/426/102 59/425/102
f 6/431/103 5/432/103 118/430/103 117/429/103
f 7/435/104 8/436/104 116/434/104 115/433/104
f 5/439/105 7/440/105 115/438/105 118/437/105

usemtl GymFloor
f 5/5/2 6/6/2 8/8/2 7/7/2
f 9/9/3 10/10/4 12/12/4 11/11/3
f 13/13/5 14/14/6 16/16/6 15/15/5
f 17/17/7 9/18/3 11/20/3 18/19/7
f 14/21/6 19/22/8 20/24/8 16/23/6
f 21/25/9 17/26/7 18/28/7 22/27/9
f 19/29/8 23/30/10 24/32/10 20/31/8
f 25/33/11 21/34/9 22/36/9 26/35/11
f 23/37/10 27/38/12 28/40/12 24/39/10
f 29/41/1 25/42/11 26/44/11 30/43/1
f 27/45/12 31/46/13 32/48/13 28/47/12
f 33/49/14 29/50/1 30/52/1 34/51/14
f 31/53/13 35/54/15 36/56/15 32/55/13
f 37/57/16 33/58/14 34/60/14 38/59/16
f 35/61/15 39/62/17 40/64/17 36/63/15
f 41/65/18 37/66/16 38/68/16 42/67/18
f 39/69/17 43/70/19 44/72/19 40/71/17
f 45/73/20 41/74/18 42/76/18 46/75/20
f 47/77/21 48/78/21 50/80/21 49/79/21
f 51/81/22 45/82/22 46/84/22 52/83/22
f 47/261/39 49/262/39 44/260/39 43/259/39
f 8/268/38 6/269/38 13/267/38 15/266/38

