# ProBuilder 5.0.6
# https://unity3d.com/unity/features/worldbuilding/probuilder
# 4/20/2024 8:36:48 PM

mtllib ./Cloth_mesh.mtl
o Cloth mesh

g Cloth
v -0.7853881 0.08122424 -0.644145
v -0.7853881 -0.01384004 -0.644145
v -0.7853881 0.08122424 0.6441448
v -0.7853881 -0.01384004 0.6441448
v -0.6358138 0.1246825 0.644145
v -0.2428617 0.1399672 0.644145
v -0.6358138 0.1246825 -0.644145
v -0.2428617 0.1399672 -0.644145
v -0.3962049 -0.006434523 0.644145
v -0.6358137 -0.005019031 0.644145
v -0.3962049 -0.006434523 -0.644145
v -0.6358137 -0.005019031 -0.644145
v 0.1116306 0.1284968 0.644145
v 0.1116306 0.1284968 -0.644145
v -0.1800489 -0.01054234 0.644145
v -0.1800489 -0.01054234 -0.644145
v 0.3929493 0.1013887 0.644145
v 0.3929493 0.1013887 -0.644145
v -0.008503541 0.01699893 0.644145
v -0.008503541 0.01699893 -0.644145
v 0.5735766 0.06204502 0.644145
v 0.5735766 0.06204502 -0.644145
v 0.1016338 0.00893686 0.644145
v 0.1016338 0.00893686 -0.644145
v 0.6358145 -8.195639E-08 0.644145
v 0.6358145 -8.195639E-08 -0.644145
v 0.1395845 -2.235174E-08 0.644145
v 0.1395845 -2.235174E-08 -0.644145
v 0.5735766 -0.06204512 0.644145
v 0.5735766 -0.06204512 -0.644145
v 0.1016338 -0.00893686 0.644145
v 0.1016338 -0.00893686 -0.644145
v 0.392955 -0.1180168 0.644145
v 0.392955 -0.1180168 -0.644145
v -0.008503549 -0.01699891 0.644145
v -0.008503549 -0.01699891 -0.644145
v 0.1116302 -0.1624361 0.644145
v 0.1116302 -0.1624361 -0.644145
v -0.1800464 -0.02339698 0.644145
v -0.1800464 -0.02339698 -0.644145
v -0.2428594 -0.190955 0.644145
v -0.2428594 -0.190955 -0.644145
v -0.3962029 -0.02750476 0.644145
v -0.3962029 -0.02750476 -0.644145
v -0.6358145 -0.200782 0.644145
v -0.6358145 -0.200782 -0.644145
v -0.6358144 -0.0289202 0.644145
v -0.6358144 -0.0289202 -0.644145
v -0.7853881 -0.03135832 -0.644145
v -0.785388 -0.1573239 -0.644145
v -0.7853881 -0.03135832 0.6441447
v -0.785388 -0.1573239 0.6441447
v -0.7240934 0.1246826 0.644145
v -0.7240934 -0.005018972 0.644145
v -0.7240934 -0.005018972 -0.644145
v -0.7240934 0.1246826 -0.644145
v -0.7240934 -0.0289202 0.6441449
v -0.7240934 -0.200782 0.6441449
v -0.7240934 -0.200782 -0.644145
v -0.7240934 -0.0289202 -0.644145

vt -0.1948629 -0.06922174
vt -0.02891983 -0.06922174
vt -0.1948629 0.06922171
vt -0.02891983 0.06922171
vt 0.06922174 -0.3068391
vt 0.06922174 -0.06778309
vt -0.06922174 -0.3068391
vt -0.06922174 -0.06778309
vt -0.06922174 -0.1950014
vt -0.06922174 -0.33988
vt 0.06922174 -0.1950014
vt 0.06922174 -0.33988
vt 0.06922174 -0.1288358
vt 0.06922174 0.08640872
vt -0.06922174 -0.1288358
vt -0.06922174 0.08640872
vt -0.06922174 -0.06544136
vt -0.06922174 -0.1963169
vt 0.06922174 -0.06544136
vt 0.06922174 -0.1963169
vt 0.06922174 0.03422438
vt 0.06922174 0.2107581
vt -0.06922174 0.03422438
vt -0.06922174 0.2107581
vt -0.06922174 0.07115897
vt -0.06922174 -0.04315142
vt 0.06922174 0.07115897
vt 0.06922174 -0.04315142
vt 0.06922174 0.1168881
vt 0.06922174 0.245889
vt -0.06922174 0.1168881
vt -0.06922174 0.245889
vt -0.06922174 0.09014923
vt -0.06922174 0.02209383
vt 0.06922174 0.09014923
vt 0.06922174 0.02209383
vt 0.02381201 0.06922174
vt -0.09084296 0.06922174
vt 0.02381201 -0.06922174
vt -0.09084296 -0.06922174
vt -0.06922174 0.07732777
vt -0.06922174 0.04958317
vt 0.06922174 0.07732777
vt 0.06922174 0.04958317
vt 0.1911216 0.06922174
vt 0.0764667 0.06922174
vt 0.1911216 -0.06922174
vt 0.0764667 -0.06922174
vt 0.06922174 0.1092731
vt 0.06922174 0.1370177
vt -0.06922174 0.1092731
vt -0.06922174 0.1370177
vt -0.06922174 0.2552879
vt -0.06922174 0.1087621
vt 0.06922174 0.2552879
vt 0.06922174 0.1087621
vt 0.06922174 0.044046
vt 0.06922174 0.1121014
vt -0.06922174 0.044046
vt -0.06922174 0.1121014
vt -0.06922174 0.1938607
vt -0.06922174 0.006942534
vt 0.06922174 0.1938607
vt 0.06922174 0.006942534
vt 0.06922174 -0.06195948
vt 0.06922174 0.04234783
vt -0.06922174 -0.06195948
vt -0.06922174 0.04234783
vt -0.06922174 0.05762977
vt -0.06922174 -0.1623859
vt 0.06922174 0.05762977
vt 0.06922174 -0.1623859
vt 0.06922174 -0.1937453
vt 0.06922174 -0.06286953
vt -0.06922174 -0.1937453
vt -0.06922174 -0.06286953
vt -0.06922174 -0.1215294
vt -0.06922174 -0.3597122
vt 0.06922174 -0.1215294
vt 0.06922174 -0.3597122
vt 0.06922174 -0.3390803
vt 0.06922174 -0.1942001
vt -0.06922174 -0.3390803
vt -0.06922174 -0.1942001
vt 0.001659853 -0.06922174
vt 0.2215439 -0.06922174
vt 0.001659853 0.06922171
vt 0.2215439 0.06922171
vt 0.2707232 -0.3391735
vt 0.2974041 -0.1016111
vt 0.04431767 -0.3391735
vt 0.04184685 -0.194316
vt -0.2974041 -0.1016111
vt -0.2707232 -0.3391735
vt -0.04184685 -0.194316
vt -0.04431767 -0.3391735
vt 0.2773815 0.1127002
vt 0.03467629 -0.06363706
vt -0.2773815 0.1127002
vt -0.03467629 -0.06363706
vt 0.2300619 0.2827737
vt 0.08275206 0.04007208
vt -0.2300619 0.2827737
vt -0.08275206 0.04007207
vt 0.1613841 0.3919735
vt 0.06867902 0.1066565
vt -0.1613841 0.3919735
vt -0.06867902 0.1066565
vt 0.05307892 0.4295999
vt 0.05307893 0.1295999
vt -0.05307892 0.4295999
vt -0.05307893 0.1295999
vt -0.05522623 0.3919735
vt 0.03747885 0.1066565
vt 0.05522623 0.3919735
vt -0.03747885 0.1066565
vt -0.1529297 0.2827772
vt 0.02340582 0.04007208
vt 0.1529297 0.2827772
vt -0.02340582 0.04007208
vt -0.2304678 0.1127
vt 0.01223738 -0.06363559
vt 0.2304678 0.1127
vt -0.01223738 -0.06363559
vt -0.2802501 -0.1016097
vt 0.005066819 -0.1943148
vt 0.2802501 -0.1016097
vt -0.005066819 -0.1943148
vt -0.297404 -0.339174
vt 0.002596006 -0.3391739
vt 0.297404 -0.339174
vt -0.002596006 -0.3391739
vt -0.2707233 -0.3925438
vt -0.04431774 -0.3925438
vt -0.06922174 -0.3925438
vt 0.06922174 -0.3925438
vt 0.04431774 -0.3925438
vt 0.2707233 -0.3925438
vt -0.002596032 -0.3925438
vt 0.2974041 -0.3925437
vt -0.2974041 -0.3925437
vt 0.002596032 -0.3925438
vt -0.1948629 -0.4295999
vt -0.02891983 -0.4295999
vt -0.06922174 -0.3454887
vt 0.06922174 -0.3454887
vt -0.06922171 -0.3856167
vt 0.06922174 -0.3856167
vt 0.02891983 -0.4295999
vt 0.1948629 -0.4295999
vt -0.07096068 -0.06922174
vt -0.07096068 0.06922174
vt 0.01346655 -0.06922174
vt 0.01346655 0.06922171
vt 0.001659911 -0.4295999
vt 0.2215439 -0.4295999
vt 0.09493352 0.06922173
vt 0.09493352 -0.06922174
vt 0.01050653 0.06922171
vt 0.01050653 -0.06922174
vt -0.2215439 -0.4295999
vt -0.001659911 -0.4295999
vt -0.06922174 -0.3896839
vt 0.06922173 -0.3896839
vt -0.06922174 -0.4269837
vt 0.06922171 -0.4269837

vn -1 0 0
vn -0.03886789 0.9992443 0
vn -0.003265794 0.9999947 0
vn -0.01245423 -0.9999225 0
vn -0.005907405 -0.9999825 0
vn 0.06416109 0.9979395 0
vn 0.07003661 -0.9975445 0
vn 0.1546425 0.9879705 0
vn 0.04304658 -0.999073 0
vn 0.4786856 0.8779864 0
vn -0.1515848 -0.9884443 0
vn 1 -2.532743E-07 0
vn 0.5159986 -0.8565894 0
vn -0.1515842 0.9884444 0
vn 0.2265655 -0.9739959 0
vn -0.05514679 0.9984782 0
vn 0.1181625 -0.9929942 0
vn -0.02813698 0.9996041 0
vn 0.05261584 -0.9986148 0
vn -0.01900034 0.9998195 0
vn 0.02499995 -0.9996875 0
vn -0.00590709 0.9999825 0
vn 0 0 -1
vn 0 0 1
vn -6.751793E-07 -1 0
vn 1.01277E-06 1 0
vn 0.1424451 -0.9898027 0
vn -0.5783833 0.8157651 0
vn -0.5783823 -0.8157659 0
vn -0.03974577 0.9992099 0

usemtl Brown_Stony_Light_1
f 1/1/1 2/2/1 4/4/1 3/3/1
f 5/5/2 6/6/3 8/8/3 7/7/2
f 9/9/4 10/10/5 12/12/5 11/11/4
f 6/13/3 13/14/6 14/16/6 8/15/3
f 15/17/7 9/18/4 11/20/4 16/19/7
f 13/21/6 17/22/8 18/24/8 14/23/6
f 19/25/9 15/26/7 16/28/7 20/27/9
f 17/29/8 21/30/10 22/32/10 18/31/8
f 23/33/11 19/34/9 20/36/9 24/35/11
f 21/37/10 25/38/12 26/40/12 22/39/10
f 27/41/1 23/42/11 24/44/11 28/43/1
f 25/45/12 29/46/13 30/48/13 26/47/12
f 31/49/14 27/50/1 28/52/1 32/51/14
f 29/53/13 33/54/15 34/56/15 30/55/13
f 35/57/16 31/58/14 32/60/14 36/59/16
f 33/61/15 37/62/17 38/64/17 34/63/15
f 39/65/18 35/66/16 36/68/16 40/67/18
f 37/69/17 41/70/19 42/72/19 38/71/17
f 43/73/20 39/74/18 40/76/18 44/75/20
f 41/77/19 45/78/21 46/80/21 42/79/19
f 47/81/22 43/82/22 44/84/22 48/83/22
f 49/85/1 50/86/1 52/88/1 51/87/1
f 7/89/23 8/90/23 11/92/23 12/91/23
f 6/93/24 5/94/24 10/96/24 9/95/24
f 8/90/23 14/97/23 16/98/23 11/92/23
f 13/99/24 6/93/24 9/95/24 15/100/24
f 14/97/23 18/101/23 20/102/23 16/98/23
f 17/103/24 13/99/24 15/100/24 19/104/24
f 18/101/23 22/105/23 24/106/23 20/102/23
f 21/107/24 17/103/24 19/104/24 23/108/24
f 22/105/23 26/109/23 28/110/23 24/106/23
f 25/111/24 21/107/24 23/108/24 27/112/24
f 26/109/23 30/113/23 32/114/23 28/110/23
f 29/115/24 25/111/24 27/112/24 31/116/24
f 30/113/23 34/117/23 36/118/23 32/114/23
f 33/119/24 29/115/24 31/116/24 35/120/24
f 34/117/23 38/121/23 40/122/23 36/118/23
f 37/123/24 33/119/24 35/120/24 39/124/24
f 38/121/23 42/125/23 44/126/23 40/122/23
f 41/127/24 37/123/24 39/124/24 43/128/24
f 42/125/23 46/129/23 48/130/23 44/126/23
f 45/131/24 41/127/24 43/128/24 47/132/24
f 53/133/24 54/134/24 10/96/24 5/94/24
f 54/135/25 55/136/25 12/81/25 10/83/25
f 55/137/23 56/138/23 7/89/23 12/91/23
f 56/135/26 53/136/26 5/81/26 7/83/26
f 57/139/24 58/140/24 45/131/24 47/132/24
f 58/135/25 59/136/25 46/81/25 45/83/25
f 59/141/23 60/142/23 48/130/23 46/129/23
f 60/135/26 57/136/26 47/81/26 48/83/26
f 3/143/24 4/144/24 54/134/24 53/133/24
f 4/147/27 2/148/27 55/146/27 54/145/27
f 2/149/23 1/150/23 56/138/23 55/137/23
f 1/153/28 3/154/28 53/152/28 56/151/28
f 51/155/24 52/156/24 58/140/24 57/139/24
f 52/159/29 50/160/29 59/158/29 58/157/29
f 50/161/23 49/162/23 60/142/23 59/141/23
f 49/165/30 51/166/30 57/164/30 60/163/30

