# ProBuilder 5.0.6
# https://unity3d.com/unity/features/worldbuilding/probuilder
# 5/30/2024 1:40:39 PM

mtllib ./EarthMine.mtl
o EarthMine

g EarthMine
v -0.7252371 -0.0249975 0.02761793
v -0.7252371 0.2750025 0.02761793
v -0.5851547 -0.0249975 0.4587474
v -0.5851547 0.2750025 0.4587474
v -0.2184141 -0.0249975 0.7252001
v -0.2184141 0.2750025 0.7252001
v 0.2349021 -0.0249975 0.7252001
v 0.2349021 0.2750025 0.7252001
v 0.6016428 -0.0249975 0.4587474
v 0.6016428 0.2750025 0.4587474
v 0.7417252 -0.0249975 0.02761793
v 0.7417252 0.2750025 0.02761793
v 0.6016428 -0.0249975 -0.4035113
v 0.6016428 0.2750025 -0.4035113
v 0.2349023 -0.0249975 -0.6699641
v 0.2349023 0.2750025 -0.6699641
v -0.2184142 -0.0249975 -0.6699641
v -0.2184142 0.2750025 -0.6699641
v -0.5851546 -0.0249975 -0.4035115
v -0.5851546 0.2750025 -0.4035115
v 0.008244038 -0.0249975 0.02761793
v -0.558131 0.2989317 0.002963781
v 0.01326931 0.2989316 0.002962947
v -0.4490036 0.2989318 0.3388318
v -0.1633033 0.2989317 0.5463989
v 0.1898416 0.2989317 0.5464011
v 0.4755421 0.2989317 0.3388257
v 0.5846696 0.2989317 0.002961993
v 0.4755418 0.2989318 -0.3328912
v 0.1898417 0.2989317 -0.5404657
v -0.1633034 0.2989317 -0.540468
v -0.4490035 0.2989317 -0.3328925

vt 3.637801 -0.249975
vt 3.637801 2.750025
vt 4.873869 -0.249975
vt 4.873869 2.750025
vt 3.866356 -0.249975
vt 3.866356 2.750025
vt 5.102424 -0.249975
vt 5.102424 2.750025
vt 2.382027 -0.249975
vt 2.382027 2.750025
vt 3.618095 -0.249975
vt 3.618095 2.750025
vt -0.2482221 -0.249975
vt -0.2482221 2.750025
vt 0.9878463 -0.249975
vt 0.9878463 2.750025
vt -3.019731 -0.249975
vt -3.019731 2.750025
vt -1.783663 -0.249975
vt -1.783663 2.750025
vt -4.873868 -0.249975
vt -4.873868 2.750025
vt -3.637801 -0.249975
vt -3.637801 2.750025
vt -5.102425 -0.249975
vt -5.102425 2.750025
vt -3.866356 -0.249975
vt -3.866356 2.750025
vt -3.618095 -0.249975
vt -3.618095 2.750025
vt -2.382027 -0.249975
vt -2.382027 2.750025
vt -0.9878436 -0.249975
vt -0.9878436 2.750025
vt 0.248224 -0.249975
vt 0.248224 2.750025
vt 1.783661 -0.249975
vt 1.783661 2.750025
vt 3.019729 -0.249975
vt 3.019729 2.750025
vt 1.000061 3.500071
vt 3.000061 3.500071
vt 1.382027 4.675641
vt -1.455713 3.432849
vt -3.013763 3.432847
vt -1.753273 4.348668
vt 2.382027 5.402184
vt -2.532295 4.914642
vt 3.618095 5.402184
vt -3.495228 4.91465
vt 4.618095 4.675641
vt -4.274253 4.348649
vt 5.000061 3.50007
vt -4.571815 3.432842
vt 4.618095 2.3245
vt -4.274253 2.517058
vt 3.618095 1.597958
vt -3.49523 1.951063
vt 2.382027 1.597958
vt -2.532299 1.951056
vt 1.382027 2.3245
vt -1.753272 2.517057
vt -3.123951 2.740006
vt -2.786687 3.929173
vt -2.633492 2.671999
vt -2.370754 3.598397
vt -2.584211 3.060149
vt -2.91336 4.251587
vt -2.166502 3.25531
vt -2.422918 4.18345
vt -3.627998 2.881451
vt -2.670543 3.663209
vt -3.229729 2.529607
vt -2.483847 3.138622
vt -3.618095 3.637851
vt -2.382027 3.637851
vt -3.495227 3.094757
vt -2.532299 3.094752
vt -3.05618 4.332221
vt -2.096099 3.553691
vt -3.267389 3.809794
vt -2.519461 3.203315
vt -2.467663 4.361897
vt -2.126179 3.173935
vt -2.906775 4.031474
vt -2.640751 3.106002
vt -2.20393 3.756191
vt -2.538388 2.566232
vt -2.718486 3.688143
vt -2.979037 2.761147
vt -2.261607 3.002106
vt -3.197603 2.194781
vt -2.693326 3.216075
vt -3.422491 2.587142
vt -2.382027 2.86558
vt -3.618095 2.86558
vt -2.532299 3.292125
vt -3.495228 3.29213
vt -2.361494 3.173298
vt -3.292198 3.986719
vt -2.159614 3.568628
vt -2.884656 4.202306

vn -1 0 -7.834004E-08
vn -0.809017 0 0.5877852
vn -0.309017 0 0.9510565
vn 0.3090169 0 0.9510565
vn 0.809017 0 0.5877852
vn 1 0 -6.267203E-08
vn 0.8090171 0 -0.5877852
vn 0.3090171 0 -0.9510565
vn -0.3090172 0 -0.9510565
vn -0.8090171 0 -0.5877852
vn 0 -1 0
vn 5.21561E-08 1 -3.718751E-07
vn 0.1433112 0.9885817 0.04656459
vn 0.1583088 0.9860489 -0.05143763
vn 0.0813942 0.9903658 0.1120295
vn 0 0.9911629 0.1326502
vn -0.07872782 0.9909895 0.1083595
vn -0.1352606 0.9898349 0.04394882
vn -0.1485611 0.9877244 -0.04827046
vn -0.1010207 0.9851202 -0.139043
vn 0 0.9833521 -0.1817106
vn 0.1054241 0.9837838 -0.1451037

usemtl SpellTeal
f 1/41/11 21/42/11 3/43/11
f 3/43/11 21/42/11 5/47/11
f 5/47/11 21/42/11 7/49/11
f 7/49/11 21/42/11 9/51/11
f 9/51/11 21/42/11 11/53/11
f 11/53/11 21/42/11 13/55/11
f 13/55/11 21/42/11 15/57/11
f 15/57/11 21/42/11 17/59/11
f 17/59/11 21/42/11 19/61/11
f 19/61/11 21/42/11 1/41/11
f 24/46/12 23/45/12 22/44/12
f 25/48/12 23/45/12 24/46/12
f 26/50/12 23/45/12 25/48/12
f 27/52/12 23/45/12 26/50/12
f 28/54/12 23/45/12 27/52/12
f 29/56/12 23/45/12 28/54/12
f 30/58/12 23/45/12 29/56/12
f 31/60/12 23/45/12 30/58/12
f 32/62/12 23/45/12 31/60/12
f 22/44/12 23/45/12 32/62/12
f 4/4/2 2/2/1 1/1/1
f 1/1/1 3/3/2 4/4/2
f 6/8/3 4/6/2 3/5/2
f 3/5/2 5/7/3 6/8/3
f 8/12/4 6/10/3 5/9/3
f 5/9/3 7/11/4 8/12/4
f 10/16/5 8/14/4 7/13/4
f 7/13/4 9/15/5 10/16/5
f 12/20/6 10/18/5 9/17/5
f 9/17/5 11/19/6 12/20/6
f 14/24/7 12/22/6 11/21/6
f 11/21/6 13/23/7 14/24/7
f 16/28/8 14/26/7 13/25/7
f 13/25/7 15/27/8 16/28/8
f 18/32/9 16/30/8 15/29/8
f 15/29/8 17/31/9 18/32/9
f 20/36/10 18/34/9 17/33/9
f 17/33/9 19/35/10 20/36/10
f 2/40/1 20/38/10 19/37/10
f 19/37/10 1/39/1 2/40/1
f 27/66/13 10/64/13 12/63/13
f 12/63/13 28/65/13 27/66/13
f 28/70/14 12/68/14 14/67/14
f 14/67/14 29/69/14 28/70/14
f 26/74/15 8/72/15 10/71/15
f 10/71/15 27/73/15 26/74/15
f 25/78/16 6/76/16 8/75/16
f 8/75/16 26/77/16 25/78/16
f 24/82/17 4/80/17 6/79/17
f 6/79/17 25/81/17 24/82/17
f 22/86/18 2/84/18 4/83/18
f 4/83/18 24/85/18 22/86/18
f 32/90/19 20/88/19 2/87/19
f 2/87/19 22/89/19 32/90/19
f 31/94/20 18/92/20 20/91/20
f 20/91/20 32/93/20 31/94/20
f 30/98/21 16/96/21 18/95/21
f 18/95/21 31/97/21 30/98/21
f 29/102/22 14/100/22 16/99/22
f 16/99/22 30/101/22 29/102/22

