# ProBuilder 5.0.6
# https://unity3d.com/unity/features/worldbuilding/probuilder
# 4/25/2024 5:59:17 PM

mtllib ./EarthCrystal_Node_Base.mtl
o EarthCrystal_Node_Base

g EarthCrystal_Node_Base
v 1.164233 -0.05612871 2.896886
v 0.8277172 0.617484 2.896892
v 1.416104 -0.05612871 3.672065
v 1.143858 0.617484 3.869872
v 2.075513 -0.05612871 4.15115
v 1.971524 0.617484 4.471207
v 2.890587 -0.05612871 4.15115
v 2.994576 0.617484 4.471207
v 3.549996 -0.05612871 3.672065
v 3.822243 0.617484 3.869872
v 3.801868 -0.05612871 2.896886
v 4.138383 0.617484 2.896891
v 3.549996 -0.05612871 2.121708
v 3.822243 0.617484 1.923911
v 2.890587 -0.05612871 1.642623
v 2.994576 0.617484 1.322576
v 2.075513 -0.05612871 1.642623
v 1.971524 0.617484 1.322576
v 1.416104 -0.05612871 2.121708
v 1.143858 0.617484 1.923911
v 2.48305 -0.05612871 2.896886
v 2.48305 0.617484 2.896892

vt -0.4924 -1.293964
vt -0.6180357 1.730854
vt 0.492382 -1.293964
vt 0.6180323 1.730854
vt -1.593417 -5.960464E-06
vt 0 -5.960464E-06
vt -1.289101 0.9365771
vt 2 2.384186E-07
vt 1.618034 1.175571
vt -0.4923928 1.515415
vt 0.6180339 1.902113
vt 0.4923928 1.515415
vt -0.6180339 1.902113
vt 1.289101 0.9365771
vt -1.618034 1.175571
vt 1.593416 -5.960464E-06
vt -2 0
vt 1.289101 -0.9365892
vt -1.618034 -1.17557
vt 0.4923928 -1.515427
vt -0.6180341 -1.902113
vt -0.4923933 -1.515427
vt 0.6180344 -1.902113
vt -1.289101 -0.9365892
vt 1.618034 -1.17557

vn -0.8945815 -0.4469049 0
vn -0.723729 -0.4469094 0.5258216
vn -0.2764388 -0.4469151 0.8507929
vn 0.2764379 -0.4469159 0.8507928
vn 0.7237289 -0.4469107 0.5258206
vn 0.8945814 -0.446905 -5.276079E-07
vn 0.7237314 -0.4469028 -0.525824
vn 0.2764403 -0.4469048 -0.8507978
vn -0.2764393 -0.4469058 -0.8507976
vn -0.7237313 -0.4469041 -0.5258229
vn 0 -1 0
vn 0 1 0

usemtl SpellOrange
f 1/5/11 21/6/11 3/7/11
f 3/7/11 21/6/11 5/10/11
f 5/10/11 21/6/11 7/12/11
f 7/12/11 21/6/11 9/14/11
f 9/14/11 21/6/11 11/16/11
f 11/16/11 21/6/11 13/18/11
f 13/18/11 21/6/11 15/20/11
f 15/20/11 21/6/11 17/22/11
f 17/22/11 21/6/11 19/24/11
f 19/24/11 21/6/11 1/5/11
f 4/9/12 22/6/12 2/8/12
f 6/11/12 22/6/12 4/9/12
f 8/13/12 22/6/12 6/11/12
f 10/15/12 22/6/12 8/13/12
f 12/17/12 22/6/12 10/15/12
f 14/19/12 22/6/12 12/17/12
f 16/21/12 22/6/12 14/19/12
f 18/23/12 22/6/12 16/21/12
f 20/25/12 22/6/12 18/23/12
f 2/8/12 22/6/12 20/25/12
f 4/4/2 2/2/1 1/1/1
f 1/1/1 3/3/2 4/4/2
f 6/4/3 4/2/2 3/1/2
f 3/1/2 5/3/3 6/4/3
f 8/4/4 6/2/3 5/1/3
f 5/1/3 7/3/4 8/4/4
f 10/4/5 8/2/4 7/1/4
f 7/1/4 9/3/5 10/4/5
f 12/4/6 10/2/5 9/1/5
f 9/1/5 11/3/6 12/4/6
f 14/4/7 12/2/6 11/1/6
f 11/1/6 13/3/7 14/4/7
f 16/4/8 14/2/7 13/1/7
f 13/1/7 15/3/8 16/4/8
f 18/4/9 16/2/8 15/1/8
f 15/1/8 17/3/9 18/4/9
f 20/4/10 18/2/9 17/1/9
f 17/1/9 19/3/10 20/4/10
f 2/4/1 20/2/10 19/1/10
f 19/1/10 1/3/1 2/4/1

