# ProBuilder 5.0.6
# https://unity3d.com/unity/features/worldbuilding/probuilder
# 4/21/2024 8:04:59 AM

mtllib ./EarthCrystal_Node_Resource_mesh.mtl
o EarthCrystal_Node_Resource mesh

g EarthCrystal_Node_Resource
v 0.6914042 -0.492042 1.658755
v 0.1871774 3.655992 2.159374
v 0.7106938 -0.538544 2.230213
v 0.2064664 3.609489 2.730828
v 1.194533 -0.5229988 2.588739
v 0.6903058 3.625035 3.089353
v 1.792591 -0.4513437 2.597387
v 1.288364 3.69669 3.098001
v 2.276431 -0.3509482 2.252854
v 1.772204 3.797085 2.753468
v 2.76 2.970285 2.083438
v 2.651564 3.290349 2.15459
v 2.799746 2.97729 2.002979
v 2.691309 3.297354 2.07413
v 2.76 2.980878 1.921756
v 2.651564 3.300942 1.992908
v 1.425428 2.079669 0.641452
v 1.371832 2.52059 0.6946594
v 1.375603 2.078017 0.6158935
v 1.322006 2.518938 0.6691085
v 1.312031 2.0704 0.614978
v 1.258434 2.511321 0.668193
v 1.27659 2.059729 0.6390411
v 1.222994 2.500649 0.6922561
v 0.8762149 -0.4012541 1.092639
v 0.3719881 3.74678 1.593257
v 1.493562 -0.3761009 1.672746
v 0.7735499 5.160802 2.274455
v 0.989334 5.186656 2.277576
v 0.8147619 5.150433 2.401889
v 0.9226531 5.153899 2.481837
v 1.056015 5.169877 2.483768
v 1.163908 5.192265 2.406932
v 2.461241 -0.2601603 1.686739
v 1.205118 5.21251 2.280696
v 2.276431 -0.2136577 1.11528
v 1.163908 5.222879 2.153262
v 1.807688 -0.2292041 0.8748962
v 1.056015 5.219413 2.073322
v 1.209629 -0.3008593 0.8662521
v 0.9226531 5.203434 2.071391
v 0.8147619 5.181047 2.148219
v 1.303461 3.91883 1.375514
v 1.772204 3.934376 1.615894
v 0.7054022 3.847175 1.366863
v 1.957014 3.887873 2.187353
v 1.746185 0.8890281 0.9118987
v 1.522739 2.727225 1.133739
v 1.538464 0.8821387 0.8053695
v 1.315016 2.720337 1.027217
v 1.273434 0.8503848 0.8015395
v 1.049986 2.688583 1.023387
v 1.125683 0.8058949 0.9018661
v 0.9022349 2.644093 1.123714
v 2.403809 2.508692 2.168658
v 2.091219 3.431341 2.373767
v 2.518381 2.528886 1.936717
v 2.205791 3.451535 2.141826
v 2.403809 2.53923 1.702579
v 2.091219 3.461879 1.907687

vt 0.3287409 -2.008494
vt 0.3287483 0.9915068
vt 1.505161 -1.994357
vt 1.505161 1.005643
vt -1.105731 -1.994355
vt -1.105731 1.005645
vt 0.1303365 -1.994355
vt 0.1303365 1.005645
vt -1.531165 -1.994355
vt -1.531165 1.005645
vt -0.2950974 -1.994355
vt -0.2950974 1.005645
vt -1.607814 -1.994355
vt -1.607814 1.005645
vt -0.3717452 -1.994355
vt -0.3717452 1.005645
vt 0.6629829 -0.6709724
vt 0.5431558 -0.4111477
vt 0.8470405 -0.6767008
vt 0.7272134 -0.4168764
vt -1.398457 -0.9513944
vt -1.394791 -0.6652934
vt -1.212788 -0.9525523
vt -1.209122 -0.6664509
vt 1.455166 -0.3504511
vt 1.45517 -0.03156289
vt 1.570089 -0.3495238
vt 1.570086 -0.03063485
vt 0.585438 -0.3496132
vt 0.5854358 -0.03072428
vt 0.7168283 -0.349613
vt 0.7168261 -0.03072404
vt -0.7436869 -0.3496177
vt -0.7436869 -0.03072883
vt -0.6533719 -0.3520483
vt -0.6533719 -0.03315939
vt -0.03386506 -2.008496
vt -0.03385847 0.991505
vt 1.202207 -2.008496
vt 1.202213 0.9915052
vt -2.592927 0.403827
vt -0.9300537 0.4038237
vt -2.548029 1.579475
vt 1.010749 0.2915805
vt 0.5647656 0.2915809
vt 0.9255713 0.5537291
vt -2.531165 1.602667
vt -0.9131312 0.4270968
vt -1.531165 2.32921
vt 0.7025831 0.7157406
vt -0.2950974 2.32921
vt 0.4269466 0.7157457
vt 0.7049031 1.602667
vt 0.2039571 0.5537187
vt 1.086869 0.4270966
vt 0.1187805 0.2915775
vt 0.7049031 -0.7484734
vt 0.2039539 0.02943187
vt 0.7155423 -0.733824
vt -0.902469 0.441778
vt -0.2502579 -1.219708
vt 0.4269513 -0.1325718
vt -0.2608636 -1.223896
vt -0.9131306 0.4375679
vt -1.496932 -1.223889
vt 0.7025772 -0.1325732
vt -1.542991 -1.20795
vt -0.9595537 0.4536347
vt -2.240379 -0.7220427
vt 0.9255726 0.02944125
vt -2.210973 -0.7539679
vt -0.9300537 0.4216073
vt -2.592927 0.4216107
vt 0.640586 -0.4731399
vt -0.2499761 0.1398384
vt 1.186107 0.9168816
vt 0.981275 1.099028
vt 1.496937 -0.2369074
vt 0.2608682 -0.2368968
vt 0.7025918 1.247069
vt 0.4269592 1.247073
vt 0.1236025 -0.4783726
vt -0.1655228 0.7234048
vt 1.466899 0.3168733
vt 1.402428 0.5848656
vt -0.2182673 0.1266709
vt 0.07963675 1.326303
vt 1.349705 -0.01162052
vt 1.416134 0.2558816
vt -0.2541051 0.8396914
vt 0.6658056 1.6653
vt 0.9752083 -0.3522876
vt 1.180342 -0.1681701
vt 0.2950974 1.447359
vt 1.531165 1.447359
vt 0.4269483 -0.4523716
vt 0.7025807 -0.4523747
vt 1.140348 1.573437
vt 2.090295 0.7825732
vt 0.03993514 -0.1828744
vt 0.2517632 -0.3592307
vt 1.625923 1.581245
vt 1.671453 0.4056292
vt -0.2670994 0.5322546
vt -0.1946128 0.2696815
vt 1.590373 0.8212179
vt 1.272835 -0.373371
vt -0.2760392 0.6834964
vt -0.3468492 0.4171194
vt 1.606054 0.1888478
vt 0.9592381 -0.3626046
vt 0.03482911 1.071742
vt -0.1691356 0.8863695
vt -0.05899353 -1.994355
vt -0.05899353 1.005645
vt 1.007467 -1.191547
vt 1.007473 0.1378999
vt 0.7853203 -1.606271
vt -0.2957762 -1.615405
vt 1.220611 -0.7712064
vt 0.741523 -0.775256
vt -0.291101 0.7027732
vt 0.7899914 0.7118374
vt 0.7473646 -0.1982933
vt 1.226449 -0.1942746
vt 1.496925 -1.192348
vt 0.2608564 -1.192348
vt 1.08786 -0.2929956
vt 0.5400961 -0.2929952
vt 0.2608703 0.3861079
vt 1.496939 0.3861076
vt 0.5401167 -0.580099
vt 1.087881 -0.5800954
vt 1.378713 -1.739035
vt 0.5290523 -1.715959
vt 0.3331569 -0.9208914
vt -0.04337098 -0.9106644
vt 0.5161538 0.7846304
vt 1.365825 0.7616012
vt -0.05699817 -0.09421754
vt 0.3195303 -0.1044228
vt 1.175678 0.9915034
vt 1.175674 -2.008497
vt 0.1243221 0.1316314
vt 0.1243214 -1.197816
vt 1.357817 -1.191543
vt 1.357828 0.1379031
vt 2.279363 -0.3505146
vt 2.279373 -0.03162643
vt 1.216699 -0.2602282
vt 0.7376171 -0.2649551
vt 1.559596 0.7641166
vt 1.444675 0.7629773
vt 0.1303281 -1.357133
vt 0.5546346 -1.579623
vt 0.4737295 -2.228947
vt 0.575506 -2.282315
vt 1.087856 0.116818
vt 0.5400916 0.1168177
vt 0.7169424 1.19607
vt 0.5855521 1.196074
vt 0.540106 -1.563737
vt 1.08787 -1.563732
vt 0.5855711 -2.265267
vt 0.7169614 -2.26526
vt 0.3482959 -0.3373501
vt -0.02821023 -0.3263524
vt -0.6270617 0.580637
vt -0.7173709 0.5832738
vt 0.9851167 -1.338168
vt 1.280974 -1.105046
vt 0.6890094 -2.074399
vt 0.7599758 -2.018484
vt -0.3501837 0.1316343
vt -0.3501847 -1.197813
vt -1.388769 -0.03313348
vt -1.38877 -0.3520224
vt -0.5625698 -1.994355
vt -0.5625698 1.005645
vt 0.7323638 -0.003138542
vt 0.3042898 0.6892219
vt -0.0703325 -1.482226
vt -1.306401 -1.482226
vt 0.3460993 0.6176154
vt -0.1795279 0.6074035
vt 0.1921641 1.2961
vt -0.08245686 0.09092462
vt -0.4227807 0.5953051
vt -0.5998284 0.09654772
vt 0.4940136 -1.549553
vt -0.7420538 -1.549553
vt -0.2933111 0.5583949
vt -0.8228315 0.5884468
vt -0.1842344 0.7188762
vt 0.1080438 -0.4821384
vt -0.7030511 0.7337216
vt -0.5229129 0.2325853
vt 0.1665813 1.005645
vt 0.1665813 -1.994355
vt -0.727814 0.6711559
vt -0.8223519 -0.02120447
vt 1.3098 0.06990787
vt 0.8633541 0.7634478
vt 2.193338 0.357071
vt 2.038467 0.5976583
vt 1.733662 0.08305144
vt 1.526556 0.5718234
vt 2.479723 0.1083781
vt 2.407878 0.2779313
vt -1.121861 0.8742015
vt -1.352662 0.3961617
vt -2.234678 0.4618719
vt -2.314743 0.2960417
vt 1.504439 -0.09340264
vt 1.723123 0.3951195
vt 2.393327 0.2508566
vt 2.469189 0.4203247
vt -1.364966 0.5129995
vt -1.130433 0.03188526
vt -2.327024 0.4126672
vt -2.245665 0.2457688
vt -1.200998 0.4911333
vt -1.547614 -0.257311
vt -2.324331 0.3249736
vt -2.444572 0.06533988

vn -0.4792368 -0.04938241 -0.0735083
vn -0.4268447 -0.07863689 0.2216525
vn -0.1495146 -0.073449 0.4579963
vn 0.1495145 -0.0376214 0.4623203
vn 0.2843935 -0.01316701 0.3955464
vn 0.3406183 0.5529575 0.2598431
vn 0.3334275 0.745556 0.09476236
vn 0.2719531 0.8167723 -0.08574597
vn 0.2174987 0.07816868 -0.4290618
vn 0.1117423 0.07019856 -0.4691437
vn -0.1450126 0.03835031 -0.4636923
vn -0.2766683 0.01477286 -0.4009319
vn -0.4601588 -0.03708686 -0.1561681
vn 0.1721714 -1.382724 -0.1611332
vn -0.1680755 1.382678 0.1668709
vn 0.1680758 -1.382678 -0.1668714
vn 0.1654854 -1.382501 -0.1704578
vn 0.1680733 -1.382352 -0.1694109
vn 0.1793364 -1.38003 -0.1731661
vn 0.1721825 -1.382291 -0.1654687
vn 0.02922264 1.060458 -0.1713127
vn 0.04378415 1.080445 -0.1488943
vn 0.05834568 1.100432 -0.1264758
vn -0.1247854 1.065683 -0.200233
vn 0.1848371 1.072966 0.02753647
vn 0.1682919 1.080671 0.2282469
vn 0.0308996 1.111587 0.3673047
vn -0.142749 1.143501 0.3971397
vn -0.2855414 1.16694 0.3347482
vn -0.3971047 1.145601 0.1430548
vn -0.3958827 1.128357 0.1805524
vn -0.3946606 1.111113 0.21805
vn -0.4021334 1.109827 0.04670534
vn -0.3077554 1.121297 -0.09683936
vn -0.3056762 1.122416 -0.09789831
vn -0.3035969 1.123534 -0.09895726
vn 0.3109641 0.08199355 -0.3661808
vn 0.2563062 -0.332962 -0.4597353
vn 0.1650596 0.4479167 -0.3677639
vn 0.07752951 -0.586011 -0.5062618
vn -0.07216547 0.6464294 -0.3653157
vn -0.2500576 -0.1714166 -0.4207399
vn -0.2959813 0.1789079 -0.3773525
vn -0.3154334 0.006487954 -0.3714427
vn 0.4429478 0.07655622 -0.1882722
vn 0.2725459 -0.7311305 -0.4480362
vn -0.09549677 1.347421 0.03887231
vn 0.1058946 -0.8258266 -0.4808624
vn -0.1629182 1.354597 0.04279878
vn -0.1854166 -0.523042 -0.4370708
vn -0.2902211 1.214989 -0.04152891
vn -0.2902144 1.215005 -0.0415214
vn -0.393035 -0.01303447 -0.2878604
vn 0.3267766 -0.003910983 0.3615409
vn 0.3296973 0.2389786 0.3303376
vn 0.3326182 0.4818681 0.2991344
vn 0.4898872 -0.4330049 0.0904842
vn 0.4754016 -0.3624505 0.1333059
vn 0.460916 -0.291896 0.1761276
vn 0.2101559 0.99612 0.2283541
vn 0.1899044 1.022756 0.2441757
vn 0.1696529 1.049392 0.2599974
vn 0.4898718 -0.4180099 -0.1924403
vn 0.4775811 -0.4322604 -0.2238074
vn 0.4652903 -0.4465109 -0.2551746
vn 0.1790096 1.08409 0.03032628
vn 0.2449584 0.8880491 -0.04096112
vn 0.3109073 0.6920083 -0.1122485
vn 0.3844051 0.08151766 -0.2882667
vn 0.1676311 0.2481845 -0.3561032
vn -0.04914291 0.4148513 -0.4239398
vn 0.175344 -0.1155363 0.4464268
vn 0.3358895 -1.233542 -0.04387152
vn -0.08495335 1.368448 0.1893313
vn 0.3425874 -1.207658 -0.2395836
vn -0.09162446 1.375409 0.1259857
vn 0.04548393 0.5906293 -0.3690677

usemtl SpellTeal
f 1/41/14 27/42/14 3/43/14
f 3/47/16 27/48/16 5/49/16
f 5/49/16 27/48/16 7/51/16
f 7/51/16 27/48/16 9/53/16
f 9/53/16 27/48/16 34/55/16
f 34/55/16 27/48/16 36/57/16
f 36/59/17 27/60/17 38/61/17
f 38/63/18 27/64/18 40/65/18
f 40/67/19 27/68/19 25/69/19
f 25/71/20 27/72/20 1/73/20
f 30/46/15 29/45/15 28/44/15
f 31/50/15 29/45/15 30/46/15
f 32/52/15 29/45/15 31/50/15
f 33/54/15 29/45/15 32/52/15
f 35/56/15 29/45/15 33/54/15
f 37/58/15 29/45/15 35/56/15
f 39/62/15 29/45/15 37/58/15
f 41/66/15 29/45/15 39/62/15
f 42/70/15 29/45/15 41/66/15
f 28/44/15 29/45/15 42/70/15
f 4/4/2 2/2/1 1/1/1
f 1/1/1 3/3/2 4/4/2
f 6/8/3 4/6/2 3/5/2
f 3/5/2 5/7/3 6/8/3
f 8/12/4 6/10/3 5/9/3
f 5/9/3 7/11/4 8/12/4
f 10/16/5 8/14/4 7/13/4
f 7/13/4 9/15/5 10/16/5
f 14/20/7 12/18/6 11/17/6
f 11/17/6 13/19/7 14/20/7
f 16/24/8 14/22/7 13/21/7
f 13/21/7 15/23/8 16/24/8
f 20/28/10 18/26/9 17/25/9
f 17/25/9 19/27/10 20/28/10
f 22/32/11 20/30/10 19/29/10
f 19/29/10 21/31/11 22/32/11
f 24/36/12 22/34/11 21/33/11
f 21/33/11 23/35/12 24/36/12
f 2/40/1 26/38/13 25/37/13
f 25/37/13 1/39/1 2/40/1
f 37/77/23 44/75/22 43/74/21
f 43/74/21 39/76/22 37/77/23
f 39/81/24 43/79/24 45/78/24
f 45/78/24 41/80/24 39/81/24
f 35/85/25 46/83/25 44/82/25
f 44/82/25 37/84/25 35/85/25
f 33/89/26 10/87/26 46/86/26
f 46/86/26 35/88/26 33/89/26
f 32/93/27 8/91/27 10/90/27
f 10/90/27 33/92/27 32/93/27
f 31/97/28 6/95/28 8/94/28
f 8/94/28 32/96/28 31/97/28
f 30/101/29 4/99/29 6/98/29
f 6/98/29 31/100/29 30/101/29
f 28/105/32 2/103/31 4/102/30
f 4/102/30 30/104/31 28/105/32
f 42/109/33 26/107/33 2/106/33
f 2/106/33 28/108/33 42/109/33
f 41/113/36 45/111/35 26/110/34
f 26/110/34 42/112/35 41/113/36
f 48/117/37 44/115/37 36/114/37
f 36/114/37 47/116/37 48/117/37
f 47/121/38 36/119/38 38/118/38
f 38/118/38 49/120/38 47/121/38
f 50/125/39 43/123/39 44/122/39
f 44/122/39 48/124/39 50/125/39
f 49/129/40 38/127/40 40/126/40
f 40/126/40 51/128/40 49/129/40
f 52/133/41 45/131/41 43/130/41
f 43/130/41 50/132/41 52/133/41
f 51/137/42 40/135/42 25/134/42
f 25/134/42 53/136/42 51/137/42
f 54/141/43 26/139/43 45/138/43
f 45/138/43 52/140/43 54/141/43
f 53/145/44 25/143/44 26/142/44
f 26/142/44 54/144/44 53/145/44
f 18/149/45 48/147/45 47/146/45
f 47/146/45 17/148/45 18/149/45
f 17/153/46 47/151/46 49/150/46
f 49/150/46 19/152/46 17/153/46
f 20/157/47 50/155/47 48/154/47
f 48/154/47 18/156/47 20/157/47
f 19/161/48 49/159/48 51/158/48
f 51/158/48 21/160/48 19/161/48
f 22/165/49 52/163/49 50/162/49
f 50/162/49 20/164/49 22/165/49
f 21/169/50 51/167/50 53/166/50
f 53/166/50 23/168/50 21/169/50
f 24/173/52 54/171/52 52/170/51
f 52/170/51 22/172/52 24/173/52
f 23/177/53 53/175/53 54/174/53
f 54/174/53 24/176/53 23/177/53
f 56/181/56 10/179/55 9/178/54
f 9/178/54 55/180/55 56/181/56
f 55/185/59 9/183/58 34/182/57
f 34/182/57 57/184/58 55/185/59
f 58/189/62 46/187/61 10/186/60
f 10/186/60 56/188/61 58/189/62
f 57/193/65 34/191/64 36/190/63
f 36/190/63 59/192/64 57/193/65
f 60/197/68 44/195/67 46/194/66
f 46/194/66 58/196/67 60/197/68
f 59/201/71 36/199/70 44/198/69
f 44/198/69 60/200/70 59/201/71
f 12/205/72 56/203/72 55/202/72
f 55/202/72 11/204/72 12/205/72
f 11/209/73 55/207/73 57/206/73
f 57/206/73 13/208/73 11/209/73
f 14/213/74 58/211/74 56/210/74
f 56/210/74 12/212/74 14/213/74
f 13/217/75 57/215/75 59/214/75
f 59/214/75 15/216/75 13/217/75
f 16/221/76 60/219/76 58/218/76
f 58/218/76 14/220/76 16/221/76
f 15/225/77 59/223/77 60/222/77
f 60/222/77 16/224/77 15/225/77

