# ProBuilder 5.0.6
# https://unity3d.com/unity/features/worldbuilding/probuilder
# 4/21/2024 7:40:49 AM

mtllib ./Elder_Wood_mesh.mtl
o Elder Wood mesh

g Elder Wood
v -1.169161 0.93286 0.1327801
v -0.2811873 0.7653719 0.1903634
v -1.169161 0.8449045 0.3907938
v -0.2811873 0.7375932 0.4372873
v -1.170771 0.493754 0.5896749
v -0.1485608 0.4937539 0.5651093
v -1.170771 0.2405 0.541996
v -0.1485608 0.2404999 0.469367
v -1.039762 0.05734116 0.2700663
v -0.2811874 0.1495652 0.2700663
v -1.133116 0.05734116 -0.004506111
v -0.2811874 0.1495652 -0.004506111
v -1.124595 0.2907472 -0.2148404
v -0.2811874 0.2907472 -0.1601143
v -1.031241 0.5440012 -0.3176389
v -0.2811874 0.5440011 -0.2629128
v -0.7114116 0.5445963 -0.1613021
v -0.4208038 0.5445962 -0.1400986
v -0.7368063 0.6308847 -0.1081109
v -0.4208038 0.6075692 -0.0851922
v -1.096784 0.7667109 -0.1803527
v -0.2811873 0.706534 -0.1211996
v 0.5344099 0.9184517 0.1314445
v 0.5344099 0.7667107 0.4388571
v 0.5344098 0.544001 0.5761423
v 0.5956957 0.290747 0.4591618
v 0.5956957 0.1254448 0.2488279
v -0.3145302 0.3653245 0.03646898
v -0.1659821 0.3612389 0.03287125
v -0.3145302 0.3653245 -0.01004457
v -0.1763641 0.3612389 -0.01004457
v 0.5344098 0.1254459 -0.004505947
v 0.5956957 0.290747 -0.2360787
v 0.5956958 0.544001 -0.2837577
v 0.5344099 0.8304963 -0.1265688
v 0.6980954 0.9426788 0.1417665
v 0.6980954 0.8547233 0.3997803
v 0.6980954 0.544001 0.528079
v 0.7593813 0.290747 0.4591618
v 0.7593813 0.1254448 0.2488279
v 0.6980953 0.1254448 -0.004506111
v 0.7593813 0.290747 -0.2360787
v 0.7593814 0.544001 -0.2837577
v 0.6980954 0.7667106 -0.1252332
v -0.9169135 0.7773196 0.1327801
v -0.9169135 0.4811235 0.1327801
v -0.9169135 0.7080218 0.3360605
v 0.5065039 0.7805428 0.1327801
v 0.5065038 0.4810241 0.1327801
v 0.5065039 0.7104706 0.3383408
v -0.9169135 0.4823099 0.5058184
v 0.5065039 0.5330337 0.4477177
v -0.9169135 0.2827821 0.4682541
v 0.5677898 0.3312668 0.3884926
v -0.9169135 0.134688 0.240943
v 0.5677898 0.1995682 0.2209187
v -0.9169135 0.134688 0.02461672
v 0.5065038 0.1995682 0.02340317
v -0.9169135 0.3330293 -0.1410985
v 0.5677898 0.3312668 -0.1654096
v -0.9169135 0.5325571 -0.1786633
v 0.5677899 0.5330337 -0.2033958
v -0.9169135 0.7080218 -0.0704999
v 0.5065039 0.7104706 -0.07278061
v 0.7593813 0.1995682 0.2209187
v 0.7593813 0.3312668 0.3884926
v 0.6980953 0.1995682 0.02340317
v 0.6980954 0.5330337 0.4477177
v 0.6980954 0.7984833 0.3473272
v 0.6980954 0.8685554 0.1417665
v 0.6980954 0.7104706 -0.07278061
v 0.7593814 0.5330337 -0.2033958
v 0.7593813 0.3312668 -0.1654096
v -1.133116 0.134688 0.02461672
v -1.124595 0.3330293 -0.1410985
v -1.039762 0.134688 0.240943
v -1.031241 0.5325571 -0.1786633
v -1.096784 0.7080218 -0.0704999
v -1.169161 0.7773196 0.1327801
v -1.169161 0.7080218 0.3360605
v -1.170771 0.4823099 0.5058184
v -1.170771 0.2827821 0.4682541
v -0.1067981 0.1267457 0.2154608
v 0.4213064 0.1122192 0.2026701
v -0.1067981 0.1267457 0.05009937
v 0.3843968 0.1122192 0.05009937
v -0.006896809 0.08130878 0.1928058
v 0.3765037 0.0707649 0.1835198
v -0.006896809 0.08130878 0.07275438
v 0.3497076 0.0707649 0.07275438
v -0.166891 0.2290215 0.1093388
v 0.09112328 0.2219262 0.1030898
v -0.166891 0.2290215 0.02854872
v 0.07309049 0.2219262 0.02854872
v -0.8562369 0.5403963 -0.2341719
v -0.3514784 0.5403962 -0.1973433
v -0.9003451 0.690272 -0.1417832
v -0.3514784 0.649775 -0.1019754

vt -0.07991663 -1.380537
vt 0.02862882 -0.481602
vt 0.1926769 -1.380537
vt 0.271309 -0.4899124
vt -0.2853461 -1.304188
vt -0.1690575 -0.4161277
vt 0.1182136 -1.305799
vt 0.1061084 -0.2833892
vt -0.3037572 -1.309838
vt -0.2992122 -0.2873422
vt -0.04605424 -1.309838
vt -0.03261678 -0.286227
vt -0.4129944 -1.310741
vt -0.3534225 -0.2876868
vt -0.08517651 -1.179624
vt -0.1379328 -0.418603
vt -0.2796791 -1.185232
vt -0.2758703 -0.4210816
vt -0.005341027 -1.279273
vt -0.001532143 -0.422449
vt -0.1737136 -1.268243
vt -0.1053249 -0.4140699
vt 0.1404815 -1.259699
vt 0.1037658 -0.4155673
vt 0.08031144 -1.26085
vt 0.05870035 -0.4159453
vt 0.3535771 -1.16733
vt 0.331966 -0.4156141
vt 0.1231092 -0.8530102
vt 0.1345125 -0.5618532
vt 0.2244628 -0.8784529
vt 0.217132 -0.5610905
vt 0.05137708 -1.26671
vt 0.07704738 -0.4471615
vt 0.4057876 -1.339437
vt 0.3816766 -0.4385357
vt 0.1366611 -0.3157277
vt 0.06099818 0.5127519
vt 0.3851427 -0.3157277
vt 0.3834474 0.4923006
vt -0.1935099 -0.3970919
vt -0.2186986 0.4186374
vt 0.08179055 -0.2644439
vt 0.04212397 0.4190058
vt -0.3851151 -0.2801562
vt -0.4360173 0.4028549
vt -0.1143677 -0.2801562
vt -0.1577596 0.4643539
vt -0.4138176 -0.2899607
vt -0.4233339 0.4559992
vt -0.1949356 -0.4228908
vt -0.1661638 0.4510229
vt -0.03646898 -0.4428895
vt -0.03287125 -0.2942852
vt 0.01004457 -0.4428895
vt 0.01004457 -0.3046633
vt -0.09484068 -0.4052651
vt -0.1110475 0.4105276
vt 0.1152694 -0.4052651
vt 0.1715289 0.4725254
vt 0.05565341 -0.3944724
vt 0.08422418 0.4852311
vt 0.3289757 -0.3944724
vt 0.3368157 0.4811447
vt 0.01438908 -0.4012595
vt 0.0006901563 0.4757643
vt 0.2300266 -0.4012595
vt 0.3199324 0.4157386
vt -0.04285264 -0.3397927
vt -0.02512519 0.484998
vt 0.2742174 -0.3397927
vt 0.2447284 0.4907377
vt -0.1577868 0.5004348
vt -0.1592543 0.6662187
vt 0.1850366 0.5004348
vt 0.1110398 0.6718224
vt -0.1706859 0.4553779
vt -0.266113 0.6195725
vt 0.09093753 0.4553779
vt 0.06571662 0.6153367
vt -0.4410224 0.2756443
vt -0.4235257 0.4453408
vt -0.1625604 0.3391809
vt -0.1625604 0.4970684
vt -0.3579685 0.4690845
vt -0.3579685 0.6327701
vt -0.09045188 0.4690845
vt -0.09045188 0.6327701
vt -0.2488287 0.4690845
vt -0.2488287 0.6327701
vt 0.004505186 0.4077985
vt 0.00450535 0.5714841
vt -0.09523398 0.4077994
vt -0.0952345 0.571485
vt 0.1892839 0.4690854
vt 0.1892839 0.632771
vt 0.03883463 0.4690845
vt 0.03883463 0.6327701
vt 0.2965376 0.4690845
vt 0.2965376 0.6327701
vt 0.08121713 0.4690845
vt 0.08121713 0.6327701
vt 0.4080012 0.4077985
vt 0.3527222 0.5714841
vt 0.05276718 0.1917777
vt 0.03345018 0.3663922
vt 0.3253603 0.1917777
vt 0.3429475 0.338393
vt -0.4816437 0.1327801
vt -0.1854477 0.1327801
vt -0.4123459 0.3360605
vt 0.4848671 0.1327801
vt 0.1853485 0.1327801
vt 0.4147949 0.3383408
vt -0.1866341 0.5058184
vt 0.2373581 0.4477177
vt 0.01289368 0.4682541
vt 0.1105906 0.4689263
vt 0.06104424 0.1535919
vt -0.1002577 0.4096266
vt 0.1609879 0.240943
vt -0.04088126 0.4440687
vt 0.1171901 0.1860269
vt -0.1706141 0.2749683
vt 0.1609879 0.02461672
vt -0.1482311 0.3366901
vt 0.1385376 0.2444642
vt -0.1408943 0.1300152
vt -0.03735352 -0.1410985
vt -0.05812212 -0.07276181
vt 0.2219581 0.04009142
vt 0.07898492 -0.2675756
vt -0.2368813 -0.1786633
vt 0.01998229 -0.2441222
vt 0.1718114 0.05927232
vt 0.2216233 -0.2827715
vt -0.4123459 -0.0704999
vt 0.1510177 -0.2963801
vt 0.1113353 0.04698635
vt 0.3367653 -0.1629711
vt 0.4147949 -0.07278061
vt -0.1702309 0.2488279
vt -0.004928589 0.4591618
vt -0.09610748 0.2209187
vt 0.03559113 0.3884926
vt -0.2213697 0.1253029
vt -0.2269291 0.3858853
vt -0.1475519 0.1540107
vt -0.1531113 0.3603272
vt -0.1344729 0.3838805
vt 0.1259651 0.4532717
vt -0.09481286 0.3127253
vt 0.1152305 0.3737214
vt 0.2483253 0.528079
vt 0.5590477 0.3997803
vt 0.5028076 0.3473272
vt 0.6470032 0.1417665
vt 0.5728798 0.1417665
vt 0.471035 -0.1252332
vt 0.3772759 -0.2275121
vt 0.1477795 -0.3881888
vt 0.3217085 -0.1743475
vt 0.1369435 -0.3086275
vt 0.2483253 -0.2837577
vt -0.004928589 -0.2360787
vt 0.2373581 -0.2033958
vt 0.03559113 -0.1654096
vt 0.1226061 -0.3057317
vt -0.05165172 -0.0726203
vt 0.1622956 -0.2345929
vt 0.02095295 -0.0431829
vt 0.114309 0.6327701
vt 0.3274417 0.6327701
vt 0.114309 0.4411786
vt 0.3274417 0.4411786
vt 0.02340317 0.5714841
vt 0.2209187 0.6327701
vt 0.02340317 0.3798926
vt 0.2209187 0.4411786
vt 0.1435689 0.6327701
vt 0.3538486 0.5714841
vt 0.1435689 0.4411786
vt 0.3538486 0.3798926
vt 0.06363674 0.5714841
vt 0.3474354 0.5714841
vt 0.06363674 0.3798926
vt 0.2682921 0.3798926
vt -0.1665195 0.7624212
vt 0.05065623 0.7624212
vt -0.1864111 0.5523292
vt 0.03076462 0.5523292
vt -0.4539589 0.6627671
vt -0.1874606 0.6627671
vt -0.3945157 0.4602805
vt -0.1874606 0.4814844
vt -0.2909018 0.5714841
vt -0.0705744 0.6327701
vt -0.2909018 0.3798926
vt -0.0705744 0.4411786
vt -0.270892 0.6327701
vt -0.06558035 0.6327701
vt -0.270892 0.4411786
vt -0.06558035 0.4411786
vt -0.1560287 0.6327701
vt 0.07417723 0.5714841
vt -0.1560287 0.4411786
vt 0.07417723 0.3798926
vt 0.2518727 0.03139787
vt 0.01838849 -0.1790223
vt 0.1745304 0.06053258
vt -0.02389117 -0.1052974
vt 0.384515 -0.1041358
vt 0.3963695 -0.3939021
vt 0.3077943 -0.1348707
vt 0.3196488 -0.369445
vt 0.3631804 -0.01791486
vt 0.09379692 -0.122091
vt 0.3226706 0.05681536
vt 0.1047613 0.0145152
vt -0.5514001 -0.2942919
vt -0.7835342 -0.1569718
vt -0.5403801 -0.155282
vt -0.7270199 -0.04679467
vt -0.7198232 -0.05583103
vt -0.897544 0.2593061
vt -0.6624696 0.05472492
vt -0.745543 0.2630213
vt -0.6371841 0.1327801
vt -0.5492287 0.3907938
vt -0.5467685 0.3969445
vt -0.1956156 0.5958279
vt -0.409886 0.3422106
vt -0.1841715 0.5119721
vt -0.1980782 0.5896749
vt 0.05517578 0.541996
vt -0.416115 0.7797158
vt -0.1980486 0.5020406
vt -0.4555555 0.7044159
vt -0.2701974 0.4678785
vt 0.1393257 -1.259727
vt -0.1191329 -1.251206
vt 0.1393257 -1.043525
vt -0.1191329 -1.043525
vt 0.240943 -1.166373
vt 0.02461672 -1.259727
vt 0.240943 -1.043525
vt 0.02461672 -1.043525
vt -0.06281436 -1.251206
vt -0.2658474 -1.157852
vt -0.06281436 -1.043525
vt -0.2658474 -1.043525
vt -0.1078936 -1.157852
vt -0.3140177 -1.223395
vt -0.1078936 -1.043525
vt -0.3140177 -1.043525
vt -0.06632039 -1.223395
vt -0.2810875 -1.295772
vt -0.06632039 -1.043525
vt -0.2810875 -1.043525
vt 0.02973098 -1.295772
vt -0.1850366 -1.295772
vt 0.02973098 -1.043525
vt -0.1850366 -1.043525
vt 0.1275472 -1.295772
vt -0.1548773 -1.297383
vt 0.1275472 -1.043525
vt -0.1548773 -1.043525
vt 0.2769963 -1.297383
vt 0.07396326 -1.297383
vt 0.2769963 -1.043525
vt 0.07396326 -1.043525
vt 0.3852964 -1.297383
vt 0.1139991 -1.166373
vt 0.3852964 -1.043525
vt 0.1139991 -1.043525
vt -0.2050733 -0.4036804
vt -0.1769517 0.4733407
vt -0.1459724 -0.2292637
vt -0.1290363 0.2989239
vt 0.004506111 -0.3853939
vt -0.2700663 -0.3853939
vt -0.05009937 -0.209518
vt -0.2154608 -0.209518
vt -0.2521172 0.4542033
vt 0.001168065 0.3927166
vt -0.2062275 0.2792426
vt -0.05368605 0.242212
vt -0.04810353 0.4122317
vt -0.04068032 -0.4036882
vt -0.1041291 0.2621593
vt -0.09965844 -0.2292299
vt 0.06035941 -0.2360954
vt 0.07896442 0.2920359
vt 0.111121 -0.136189
vt 0.1246261 0.247231
vt -0.05009937 -0.1425278
vt -0.2154608 -0.1425278
vt -0.07275438 -0.03277909
vt -0.1928058 -0.03277909
vt 0.07332817 0.2577564
vt 0.04764302 0.1029003
vt 0.01238007 0.2383193
vt -0.006267163 0.1258946
vt -0.1854503 0.2583468
vt -0.1726328 -0.2328957
vt -0.2326888 0.2236542
vt -0.2233854 -0.1329847
vt -0.28339 -0.1352826
vt -0.2875609 0.2483525
vt -0.1138186 -0.2953748
vt -0.1166253 -0.03720252
vt 0.07275438 0.04732023
vt 0.1928058 0.04732023
vt 0.02854872 -0.1704347
vt 0.1093388 -0.1704347
vt -0.1511685 0.3393399
vt -0.04143571 0.308587
vt -0.09208152 0.0118198
vt -0.01823539 -0.008875737
vt 0.2363653 0.223061
vt 0.226292 -0.1335569
vt 0.07889152 -0.05356659
vt 0.07211275 -0.2935573
vt -0.3298724 -1.156983
vt -0.2752173 -0.406924
vt -0.2463301 -0.9819775
vt -0.2095494 -0.4772155
vt 0.2655074 -1.295523
vt 0.005147733 -1.225125
vt 0.2280564 -1.084534
vt 0.05284368 -1.037159
vt 0.01438906 -0.1139545
vt 0.2300266 -0.1139545
vt 0.054763 -0.201265
vt 0.1998794 -0.201265
vt 0.4267308 -0.4059509
vt 0.5043637 -1.222218
vt 0.3668725 -0.4762997
vt 0.4191166 -1.025617
vt -0.1124267 -0.2954532
vt -0.1154421 -0.03728327
vt 0.04204731 -0.4431813
vt 0.04031077 -0.2945436
vt -0.01004457 -0.3713748
vt 0.03646898 -0.3713748
vt -0.09183838 0.01275159
vt -0.01802084 -0.0080457
vt -0.04166507 -0.283769
vt 0.0008341711 -0.2957427
vt 0.07198847 -0.2935642
vt -0.06574634 -0.3030376
vt -0.06966757 -0.4412085
vt -0.2171818 -0.9841117
vt -0.1804367 -0.4793472
vt -0.1441945 -0.8392847
vt -0.123039 -0.5486735
vt 0.2288081 -1.084678
vt 0.05355881 -1.037438
vt 0.2018229 -0.9095277
vt 0.1009261 -0.8823301
vt 0.05476302 -0.2572693
vt 0.1998794 -0.2572693
vt 0.09554894 -0.337501
vt 0.1790972 -0.337501
vt 0.3642697 -0.475853
vt 0.4177112 -1.025056
vt 0.3189141 -0.5452209
vt 0.3496823 -0.8614165

vn 0.1599359 0.9871258 0.001785945
vn -0.005288993 0.9996006 -0.02776244
vn 0.08163105 0.7987577 0.5960894
vn 0.002459804 0.7994337 0.6007493
vn 0.02188431 0.158332 0.9871433
vn 0.01144412 0.09315678 0.9955857
vn 0.0455373 -0.5792152 0.8139018
vn 0.06376311 -0.683825 0.7268547
vn 0.1026484 -0.9705279 0.2180342
vn 0.0885376 -0.9547776 0.2838323
vn 0.1015352 -0.9047217 -0.4137259
vn 0.0512431 -0.869634 -0.4910304
vn 0.0598578 -0.5596912 -0.8265367
vn -0.002432263 -0.5856112 -0.8105885
vn 0.06348345 -0.3847459 -0.9208368
vn -0.0008156989 0.0007195514 -0.9999994
vn 0.0613968 0.536787 -0.8414809
vn 0.08224829 0.5970275 -0.7979934
vn 0.10261 0.6537127 -0.7497539
vn 0.09808172 0.8883016 -0.448665
vn -0.01805305 0.8815796 -0.47169
vn -0.09103797 0.9958166 -0.007833858
vn -0.1120523 0.7360649 0.6675722
vn 0.09220458 0.06629261 0.9935309
vn 0.053468 -0.622684 0.7806445
vn -0.002334015 -0.9013808 0.433021
vn -0.02749294 -0.999622 0
vn -0.02852483 -0.9995867 0.003575109
vn -0.02955632 -0.9995376 0.007150169
vn -0.01276681 -0.9055681 -0.4240087
vn -0.02744873 -0.5572026 -0.8299228
vn -0.01899785 0.1808636 -0.9833247
vn 0.06041087 0.7831165 -0.6189339
vn -0.2083568 0.9725814 -0.1033097
vn -0.1709124 0.7369791 0.6539502
vn 0.2109713 0.03292737 0.9769375
vn 0 -0.5523673 0.8336008
vn -1.830238E-06 -0.945052 0.32692
vn -5.263433E-06 -0.9523425 -0.3050307
vn 0 -0.538343 -0.8427258
vn 0.06587565 0.1949077 -0.9786069
vn 0.1938624 0.7633573 -0.6162005
vn -1 0 0
vn 1 -3.980029E-07 -1.356725E-07
vn 0.9514406 0.303719 -0.0501571
vn 0.9761818 0.1705787 -0.1340601
vn 0.9488093 0.1144074 -0.2944007
vn 0.9644586 -0.09571116 0.2462904
vn 0.982231 0.03472314 0.1844361
vn 0.9619209 0.1823848 0.2035782
vn 0.9681758 0.08818914 -0.2342188
vn 0.9586828 -0.01135221 -0.2643688
vn 0.9491898 -0.1108936 -0.2945188
vn 0.9720998 0.2034912 0.1166762
vn 0.9623511 0.2524576 0.03776979
vn 0.9526025 0.3014238 -0.04113658
vn 0.9748048 0.1521385 0.163124
vn 0.9640588 0.2256748 0.1019792
vn 0.9533127 0.2992112 0.04083437
vn 0.9730455 -0.2000609 0.1147093
vn 0.9686636 -0.1466987 0.1812993
vn 0.9642817 -0.09333643 0.2478893
vn 0 0.7862422 -0.6179184
vn 0 1 0
vn 0 0.2816492 -0.9595175
vn 0 -0.3537382 -0.9353445
vn 0.1352531 -0.429458 -0.877435
vn 0.2705061 -0.5051778 -0.8195254
vn 0.4103206 -0.8631687 -0.2942397
vn 0.3236007 -0.7617432 0.5612753
vn 0.1618003 -0.8541304 0.4419636
vn 0 -0.9465177 0.3226519
vn 0 -0.5928232 0.8053326
vn 0 0.1850177 0.9827352
vn 0 0.8201906 0.5720904
vn -0.9995342 0.01075338 -0.02855971
vn -0.9994871 0.01989165 -0.02260244
vn -0.99944 0.02902991 -0.01664516
vn -0.9398943 0.1203248 0.3195632
vn -0.923999 -0.01361478 0.355725
vn -0.9081037 -0.1475543 0.3918869
vn -0.9454126 0.2827014 -0.1620952
vn -0.9240205 0.3558352 -0.06338565
vn -0.9026283 0.4289689 0.03532389
vn -0.962706 -0.2696371 -0.02220355
vn -0.95776 -0.2686886 -0.08262215
vn -0.952814 -0.26774 -0.1430407
vn -0.9710281 -0.2107714 -0.1126051
vn -0.9565486 -0.1053857 -0.2240119
vn -0.9420692 0 -0.3354186
vn -0.9999869 0.001897836 -0.004746308
vn -0.9999828 0.004184151 -0.002814673
vn -0.9999787 0.006470467 -0.0008830388
vn -0.9134952 -0.3529474 -0.2023728
vn -0.9049371 -0.2545761 -0.308614
vn -0.896379 -0.1562049 -0.4148551
vn 0 0.6411675 0.767401
vn 0 -0.5247486 0.8512573
vn 0 -0.9465135 -0.3226641
vn 0 -0.6010734 -0.7991938
vn 0 0.1850156 -0.9827356
vn 0 0.8378673 -0.5458741
vn -0.01773913 -0.9414212 0.3367664
vn -0.129748 -0.991547 0
vn 0.08074869 -0.996543 -0.019539
vn -0.02812601 -0.9510859 -0.3076437
vn 0.01010306 -0.4283123 0.9035743
vn -0.4140083 -0.9102731 0
vn 0.7075464 -0.6856235 -0.1711681
vn -0.01391517 -0.4705249 -0.882277
vn -0.03497225 -0.520099 -0.8533896
vn 0.678344 0.7347445 0
vn -0.490685 -0.8632134 0.1187053
vn 0.008733124 0.2953628 0.9553453
vn -0.003715422 0.9986957 0.05092312
vn 0.3649152 0.5640216 -0.7407541
vn -0.5931798 0.5290777 -0.6068068
vn 0.04051071 -0.3651776 -0.930056
vn -0.03470993 -0.5001649 -0.8652343
vn -0.4981793 -0.8586575 0.1205183
vn 0.008300394 0.2807383 0.9597485
vn 0.004907517 0.9977235 -0.06725906
vn 0.3580333 0.5640483 -0.7440844
vn -0.5033802 0.5678482 -0.6512733
vn 0.03496061 -0.4183408 -0.9076171

usemtl SpellGyser
f 3/3/3 4/4/4 2/2/2 1/1/1
f 5/7/5 6/8/6 4/6/4 3/5/3
f 7/11/7 8/12/8 6/10/6 5/9/5
f 9/15/9 10/16/10 8/14/8 7/13/7
f 11/19/11 12/20/12 10/18/10 9/17/9
f 13/23/13 14/24/14 12/22/12 11/21/11
f 15/27/15 16/28/16 14/26/14 13/25/13
f 1/35/1 2/36/2 22/34/21 21/33/20
f 4/39/4 24/40/23 23/38/22 2/37/2
f 6/43/6 25/44/24 24/42/23 4/41/4
f 8/47/8 26/48/25 25/46/24 6/45/6
f 10/51/10 27/52/26 26/50/25 8/49/8
f 14/59/14 33/60/31 32/58/30 12/57/12
f 16/63/16 34/64/32 33/62/31 14/61/14
f 22/67/21 35/68/33 34/66/32 16/65/16
f 2/71/2 23/72/22 35/70/33 22/69/21
f 24/75/23 37/76/35 36/74/34 23/73/22
f 25/79/24 38/80/36 37/78/35 24/77/23
f 26/83/25 39/84/37 38/82/36 25/81/24
f 27/87/26 40/88/38 39/86/37 26/85/25
f 32/91/30 41/92/39 40/90/38 27/89/26
f 33/95/31 42/96/40 41/94/39 32/93/30
f 34/99/32 43/100/41 42/98/40 33/97/31
f 35/103/33 44/104/42 43/102/41 34/101/32
f 23/107/22 36/108/34 44/106/42 35/105/33
f 65/144/44 66/145/44 39/143/44 40/142/44
f 67/148/52 65/149/53 40/147/52 41/146/51
f 66/152/55 68/153/56 38/151/55 39/150/54
f 68/116/44 69/156/44 37/155/44 38/154/44
f 69/156/44 70/158/44 36/157/44 37/155/44
f 70/158/44 71/141/44 44/159/44 36/157/44
f 71/162/58 72/163/59 43/161/58 44/160/57
f 72/166/44 73/167/44 42/165/44 43/164/44
f 73/170/61 67/171/62 41/169/61 42/168/60
f 56/174/63 54/175/63 66/173/63 65/172/63
f 58/178/64 56/179/64 65/177/64 67/176/64
f 54/182/65 52/183/65 68/181/65 66/180/65
f 52/186/67 50/187/68 69/185/67 68/184/66
f 50/190/69 48/191/69 70/189/69 69/188/69
f 48/194/71 64/195/72 71/193/71 70/192/70
f 64/198/73 62/199/73 72/197/73 71/196/73
f 62/202/74 60/203/74 73/201/74 72/200/74
f 60/206/75 58/207/75 67/205/75 73/204/75
f 74/210/77 75/211/78 13/209/77 11/208/76
f 76/214/80 74/215/81 11/213/80 9/212/79
f 75/218/83 77/219/84 15/217/83 13/216/82
f 77/222/86 78/223/87 21/221/86 15/220/85
f 78/226/89 79/227/90 1/225/89 21/224/88
f 79/109/43 80/111/43 3/229/43 1/228/43
f 80/232/92 81/233/93 5/231/92 3/230/91
f 81/115/43 82/117/43 7/235/43 5/234/43
f 82/238/95 76/239/96 9/237/95 7/236/94
f 57/242/97 59/243/97 75/241/97 74/240/97
f 55/246/64 57/247/64 74/245/64 76/244/64
f 59/250/74 61/251/74 77/249/74 75/248/74
f 61/254/98 63/255/98 78/253/98 77/252/98
f 63/258/72 45/259/72 79/257/72 78/256/72
f 45/262/99 47/263/99 80/261/99 79/260/99
f 47/266/100 51/267/100 81/265/100 80/264/100
f 51/270/101 53/271/101 82/269/101 81/268/101
f 53/274/102 55/275/102 76/273/102 82/272/102
f 83/278/103 84/279/103 27/277/103 10/276/103
f 85/282/104 83/283/104 10/281/104 12/280/104
f 84/286/105 86/287/105 32/285/105 27/284/105
f 86/290/106 85/291/106 12/289/106 32/288/106
f 87/294/107 88/295/107 84/293/107 83/292/107
f 89/298/108 87/299/108 83/297/108 85/296/108
f 88/302/109 90/303/109 86/301/109 84/300/109
f 90/306/110 89/307/110 85/305/110 86/304/110
f 97/330/116 95/331/116 15/329/116 21/328/116

usemtl SpellMana
f 45/109/43 46/110/43 47/111/43
f 47/111/43 46/110/43 51/115/43
f 51/115/43 46/110/43 53/117/43
f 53/117/43 46/110/43 55/121/43
f 55/121/43 46/110/43 57/125/43
f 57/125/43 46/110/43 59/129/43
f 59/129/43 46/110/43 61/133/43
f 61/133/43 46/110/43 63/137/43
f 63/137/43 46/110/43 45/109/43
f 50/114/44 49/113/44 48/112/44
f 52/116/44 49/113/44 50/114/44
f 54/120/45 49/119/45 52/118/45
f 56/124/46 49/123/46 54/122/46
f 58/128/47 49/127/47 56/126/47
f 60/132/48 49/131/48 58/130/48
f 62/136/49 49/135/49 60/134/49
f 64/140/50 49/139/50 62/138/50
f 48/112/44 49/113/44 64/141/44
f 20/32/19 18/30/18 17/29/17
f 17/29/17 19/31/18 20/32/19
f 31/56/29 29/54/28 28/53/27
f 28/53/27 30/55/28 31/56/29
f 92/311/111 88/309/111 87/308/111
f 87/308/111 91/310/111 92/311/111
f 91/315/112 87/313/112 89/312/112
f 89/312/112 93/314/112 91/315/112
f 94/319/113 90/317/113 88/316/113
f 88/316/113 92/318/113 94/319/113
f 93/323/114 89/321/114 90/320/114
f 90/320/114 94/322/114 93/323/114
f 96/327/115 16/325/115 15/324/115
f 15/324/115 95/326/115 96/327/115
f 98/335/117 22/333/117 16/332/117
f 16/332/117 96/334/117 98/335/117
f 97/339/118 21/337/118 22/336/118
f 22/336/118 98/338/118 97/339/118
f 29/343/119 92/341/119 91/340/119
f 91/340/119 28/342/119 29/343/119
f 28/345/112 91/315/112 93/314/112
f 93/314/112 30/344/112 28/345/112
f 31/349/120 94/347/120 92/346/120
f 92/346/120 29/348/120 31/349/120
f 30/352/121 93/350/121 94/322/121
f 94/322/121 31/351/121 30/352/121
f 18/356/122 96/354/122 95/353/122
f 95/353/122 17/355/122 18/356/122
f 17/360/123 95/358/123 97/357/123
f 97/357/123 19/359/123 17/360/123
f 20/364/124 98/362/124 96/361/124
f 96/361/124 18/363/124 20/364/124
f 19/368/125 97/366/125 98/365/125
f 98/365/125 20/367/125 19/368/125

