# ProBuilder 5.0.6
# https://unity3d.com/unity/features/worldbuilding/probuilder
# 4/27/2024 12:07:38 PM

mtllib ./FireFlower_Node_mesh.mtl
o FireFlower_Node mesh

g FireFlower_Node
v -1.168017 -0.01749822 0.004048079
v -1.472954 0.1925018 0.004052848
v -0.9397802 -0.01749822 0.7064855
v -1.18648 0.1925018 0.8857307
v -0.3422488 -0.01749822 1.140614
v -0.4364796 0.1925018 1.430638
v 0.3963405 -0.01749822 1.140614
v 0.4905711 0.1925018 1.430638
v 0.9938717 -0.01749822 0.7064855
v 1.240572 0.1925018 0.8857307
v 1.222108 -0.01749822 0.004048079
v 1.527046 0.1925018 0.004052609
v 0.9938717 -0.01749822 -0.6983893
v 1.240572 0.1925018 -0.8776248
v 0.3963405 -0.01749822 -1.132518
v 0.4905713 0.1925018 -1.422532
v -0.3422491 -0.01749822 -1.132518
v -0.43648 0.1925018 -1.422532
v -0.9397802 -0.01749822 -0.6983893
v -1.18648 0.1925018 -0.877625
v 0.02704582 -0.01749822 0.004048079
v 0.02704582 0.1925018 0.004052848

vt 3.763437 -0.2806775
vt 3.637801 2.74414
vt 4.748219 -0.2806775
vt 4.873869 2.744141
vt 3.991983 0.08237033
vt 3.866346 3.107189
vt 4.976766 0.08237033
vt 5.102414 3.107189
vt 2.507668 0.3932643
vt 2.382027 3.418084
vt 3.492454 0.3932643
vt 3.618095 3.418084
vt -0.1225534 0.5332388
vt -0.2482015 3.558058
vt 0.8622298 0.5332388
vt 0.9878668 3.558057
vt -2.894074 0.448825
vt -3.019724 3.473643
vt -1.909292 0.448825
vt -1.783656 3.473643
vt -4.748224 0.1722846
vt -4.873871 3.197102
vt -3.763442 0.1722846
vt -3.637804 3.197102
vt -4.976783 -0.1907567
vt -5.102427 2.834061
vt -3.992 -0.1907567
vt -3.866359 2.834061
vt -3.492454 -0.5016354
vt -3.618095 2.523182
vt -2.507668 -0.5016354
vt -2.382027 2.523182
vt -0.8622124 -0.6416092
vt -0.9878532 2.383209
vt 0.1225706 -0.6416092
vt 0.2482144 2.383208
vt 1.909297 -0.5572093
vt 1.783659 2.467608
vt 2.89408 -0.5572093
vt 3.019727 2.467608
vt 1.406644 3.500064
vt 3.000061 3.500064
vt 1.71096 4.436647
vt -1.000061 3.500071
vt -3.000061 3.500071
vt -1.382027 4.675641
vt 2.507668 5.015486
vt -2.382027 5.402184
vt 3.492454 5.015486
vt -3.618095 5.402184
vt 4.289162 4.436647
vt -4.618095 4.675641
vt 4.593477 3.500064
vt -5.000061 3.50007
vt 4.289162 2.563481
vt -4.618095 2.3245
vt 3.492454 1.984643
vt -3.618095 1.597958
vt 2.507668 1.984643
vt -2.382027 1.597958
vt 1.71096 2.563481
vt -1.382027 2.3245

vn -0.5671802 -0.8235937 -4.469865E-07
vn -0.4588544 -0.823597 0.3333776
vn -0.1752651 -0.8236014 0.5394098
vn 0.175264 -0.8236021 0.539409
vn 0.4588534 -0.8235981 0.3333762
vn 0.5671798 -0.823594 -8.333648E-07
vn 0.4588592 -0.8235924 -0.3333825
vn 0.1752682 -0.8235937 -0.5394205
vn -0.175267 -0.8235945 -0.5394198
vn -0.4588589 -0.823593 -0.3333812
vn 0 -1 0
vn 0 1 0

usemtl SpellOrange
f 1/41/11 21/42/11 3/43/11
f 3/43/11 21/42/11 5/47/11
f 5/47/11 21/42/11 7/49/11
f 7/49/11 21/42/11 9/51/11
f 9/51/11 21/42/11 11/53/11
f 11/53/11 21/42/11 13/55/11
f 13/55/11 21/42/11 15/57/11
f 15/57/11 21/42/11 17/59/11
f 17/59/11 21/42/11 19/61/11
f 19/61/11 21/42/11 1/41/11
f 4/46/12 22/45/12 2/44/12
f 6/48/12 22/45/12 4/46/12
f 8/50/12 22/45/12 6/48/12
f 10/52/12 22/45/12 8/50/12
f 12/54/12 22/45/12 10/52/12
f 14/56/12 22/45/12 12/54/12
f 16/58/12 22/45/12 14/56/12
f 18/60/12 22/45/12 16/58/12
f 20/62/12 22/45/12 18/60/12
f 2/44/12 22/45/12 20/62/12
f 4/4/2 2/2/1 1/1/1
f 1/1/1 3/3/2 4/4/2
f 6/8/3 4/6/2 3/5/2
f 3/5/2 5/7/3 6/8/3
f 8/12/4 6/10/3 5/9/3
f 5/9/3 7/11/4 8/12/4
f 10/16/5 8/14/4 7/13/4
f 7/13/4 9/15/5 10/16/5
f 12/20/6 10/18/5 9/17/5
f 9/17/5 11/19/6 12/20/6
f 14/24/7 12/22/6 11/21/6
f 11/21/6 13/23/7 14/24/7
f 16/28/8 14/26/7 13/25/7
f 13/25/7 15/27/8 16/28/8
f 18/32/9 16/30/8 15/29/8
f 15/29/8 17/31/9 18/32/9
f 20/36/10 18/34/9 17/33/9
f 17/33/9 19/35/10 20/36/10
f 2/40/1 20/38/10 19/37/10
f 19/37/10 1/39/1 2/40/1

