# ProBuilder 5.0.6
# https://unity3d.com/unity/features/worldbuilding/probuilder
# 4/21/2024 9:55:36 PM

mtllib ./Hide_mesh.mtl
o Hide mesh

g HideRaw
v 1.015957 0.1382152 -1.177285
v 1.448277 0.1382152 -1.00742
v 1.132744 0.1382152 -0.7605867
v 0.8020706 0.1382152 -0.2826686
v 0.8507385 0.1382152 0.3959463
v 1.027973 0.1382156 1.183424
v 1.333523 0.1382152 1.208685
v 1.284229 0.1382152 1.387791
v 0.8103943 0.1382152 1.360264
v 0.4472809 0.1382152 1.573717
v -0.0005493164 0.1382152 1.651606
v -0.002845764 0.1382152 -1.471791
v 0.4194832 0.1382152 -1.48835
v 0.5369682 0.1382152 -0.9992428
v 0.8284187 0.1382152 -0.9887271
v 1.168457 -0.1364537 1.105727
v 1.515759 -0.1364542 1.134439
v 1.459728 -0.1364542 1.566289
v 0.9211426 -0.1364542 1.535
v 0.9669991 -0.1364542 0.4389005
v 0.5084076 -0.1364542 1.777623
v -0.0006217957 -0.1364542 1.866156
v 0.9116783 -0.1364542 -0.3324528
v -0.003234863 -0.1364542 -1.684078
v 0.4768105 -0.1364542 -1.7029
v 0.6103477 -0.1364542 -1.146952
v 0.9416275 -0.1364542 -1.135
v 1.28754 -0.1364542 -0.8756824
v 1.154797 -0.1364542 -1.349326
v 1.646198 -0.1364542 -1.156248
v 1.168457 -0.008692816 1.105727
v 1.515759 -0.008693293 1.134439
v 1.459728 -0.008693293 1.566289
v 0.9211426 -0.008693293 1.535
v 0.9669991 -0.008693293 0.4389005
v 0.5084076 -0.008693293 1.777623
v 0.2432785 -0.1161187 2.08272
v -0.0002937317 -0.1161187 2.125084
v 0.2432785 -0.05498414 2.08272
v -0.0002937317 -0.05498414 2.125084
v 0.9116783 -0.008693293 -0.3324528
v -0.001525879 -0.1093699 -2.110641
v 0.2248383 -0.1093699 -2.125084
v -0.001525879 -0.01133163 -2.110641
v 0.2248383 -0.01133163 -2.125084
v 0.4768105 -0.008693293 -1.7029
v 0.6103477 -0.008693293 -1.146952
v 0.9416275 -0.008693293 -1.135
v 1.28754 -0.008693293 -0.8756824
v 1.154797 -0.008693293 -1.349326
v 1.646198 -0.008693293 -1.156248
v 0.2140312 -0.00386022 1.985149
v -0.0002593994 -0.00386022 2.02242
v -0.0006217957 -0.008693293 1.866156
v -0.003234863 -0.008693293 -1.684078
v -0.001338959 0.07065311 -1.947741
v 0.1978073 0.07065311 -1.960447
v -1.154797 -0.1382151 -1.349326
v -1.646198 -0.1382151 -1.156248
v -1.28754 -0.1382151 -0.8756824
v -0.9116783 -0.1382151 -0.3324528
v -0.9669991 -0.1382151 0.4389005
v -1.168457 -0.1382156 1.105727
v -1.515759 -0.1382151 1.134439
v -1.459728 -0.1382151 1.566289
v -0.9211426 -0.1382151 1.535
v -0.5084076 -0.1382151 1.777623
v 0.0006217957 -0.1382151 1.866156
v 0.003234863 -0.1382151 -1.684078
v -0.4768105 -0.1382151 -1.7029
v -0.6103477 -0.1382151 -1.146952
v -0.9416275 -0.1382151 -1.135
v -1.027973 0.1366656 1.183424
v -1.333523 0.136666 1.208685
v -1.284229 0.136666 1.387791
v -0.8103943 0.136666 1.360264
v -0.8507385 0.136666 0.3959463
v -0.4472809 0.136666 1.573717
v 0.0005493164 0.136666 1.651606
v -0.8020706 0.136666 -0.2826686
v 0.002845764 0.136666 -1.471791
v -0.4194832 0.136666 -1.48835
v -0.5369682 0.136666 -0.9992428
v -0.8284187 0.136666 -0.9887271
v -1.132744 0.136666 -0.7605867
v -1.015957 0.136666 -1.177285
v -1.448277 0.136666 -1.00742
v -1.168457 -0.01045467 1.105727
v -1.515759 -0.01045419 1.134439
v -1.459728 -0.01045419 1.566289
v -0.9211426 -0.01045419 1.535
v -0.9669991 -0.01045419 0.4389005
v -0.5084076 -0.01045419 1.777623
v -0.2432747 -0.05582674 2.08272
v 0.0003013611 -0.05582674 2.125084
v -0.2432747 -0.1169613 2.08272
v 0.0003013611 -0.1169613 2.125084
v -0.9116783 -0.01045419 -0.3324528
v 0.001525879 -0.01268287 -2.110641
v -0.2248344 -0.01268287 -2.125084
v 0.001525879 -0.1107212 -2.110641
v -0.2248344 -0.1107212 -2.125084
v -0.4768105 -0.01045419 -1.7029
v -0.6103477 -0.01045419 -1.146952
v -0.9416275 -0.01045419 -1.135
v -1.28754 -0.01045419 -0.8756824
v -1.154797 -0.01045419 -1.349326
v -1.646198 -0.01045419 -1.156248
v -0.1978035 0.06946433 -1.960447
v 0.001342773 0.06946433 -1.947741
v 0.003234863 -0.01045419 -1.684078
v 0.0006217957 -0.01045419 1.866156
v 0.0002632141 -0.004601523 2.02242
v -0.2140236 -0.004601523 1.985149

vt -1.015957 -1.177285
vt -1.448277 -1.00742
vt -1.132744 -0.7605867
vt -0.8020706 -0.2826686
vt -0.8507385 0.3959463
vt -1.027973 1.183424
vt -1.333523 1.208685
vt -1.284229 1.387791
vt -0.8103943 1.360264
vt -0.4472809 1.573717
vt 0.0005493122 1.651606
vt 0.00284576 -1.471791
vt -0.4194832 -1.48835
vt -0.5369682 -0.9992428
vt -0.8284187 -0.9887271
vt 1.168457 1.105727
vt 1.515759 1.134439
vt 1.459728 1.566289
vt 0.9211426 1.535
vt 0.9669991 0.4389005
vt 0.5084076 1.777623
vt -0.0006218001 1.866156
vt 0.9116783 -0.3324528
vt -0.003234868 -1.684078
vt 0.4768105 -1.7029
vt 0.6103477 -1.146952
vt 0.9416275 -1.135
vt 1.28754 -0.8756824
vt 1.154797 -1.349326
vt 1.646198 -1.156248
vt -1.255588 -0.1364537
vt -1.604074 -0.1364542
vt -1.255588 -0.008692816
vt -1.604074 -0.008693293
vt -0.9299827 -0.1364542
vt -1.365452 -0.1364542
vt -0.9299827 -0.008693293
vt -1.365452 -0.008693293
vt 1.54811 -0.1364542
vt 1.008616 -0.1364542
vt 1.54811 -0.008693293
vt 1.008616 -0.008693293
vt -0.6998056 -0.1364542
vt -1.396399 -0.1364537
vt -0.6998056 -0.008693293
vt -1.396399 -0.008692816
vt 0.01621176 -0.1364542
vt -0.4625534 -0.1364542
vt 0.01621176 -0.008693293
vt -0.4625534 -0.008693293
vt -0.1172021 -0.1161187
vt -0.3644309 -0.1161187
vt -0.1172021 -0.05498414
vt -0.3644309 -0.05498414
vt 0.2663839 -0.1364542
vt -0.5069506 -0.1364542
vt 0.2663839 -0.008693293
vt -0.5069506 -0.008693293
vt -0.1328711 -0.1093699
vt -0.3596956 -0.1093699
vt -0.1328711 -0.01133163
vt -0.3596956 -0.01133163
vt 1.544443 -0.1364542
vt 0.9726823 -0.1364542
vt 1.544443 -0.008693293
vt 0.9726823 -0.008693293
vt -0.5685951 -0.1364542
vt -0.9000904 -0.1364542
vt -0.5685951 -0.008693293
vt -0.9000904 -0.008693293
vt 1.452707 -0.1364542
vt 0.7921231 -0.1364542
vt 1.452707 -0.008693293
vt 0.7921231 -0.008693293
vt -1.468762 -0.1364542
vt -1.771047 -0.1364542
vt -1.468762 -0.008693293
vt -1.771047 -0.008693293
vt -0.581364 -0.1364542
vt -1.109336 -0.1364542
vt -0.581364 -0.008693293
vt -1.109336 -0.008693293
vt 2.009017 -0.1364542
vt 1.553657 -0.1364542
vt 2.009017 -0.008693293
vt 1.553657 -0.008693293
vt -1.255589 0.5137032
vt -1.604075 0.5137026
vt -1.121985 0.6854722
vt -1.428577 0.6854717
vt -1.159903 1.048677
vt -1.117235 1.482051
vt -0.9259094 1.123185
vt -0.8883718 1.304338
vt -1.457415 1.234928
vt -0.9195203 1.193419
vt -1.289581 0.9981259
vt -0.8163542 0.9616073
vt -0.6998059 -0.4531783
vt -1.396399 -0.4531777
vt -0.6250641 -0.2760983
vt -1.430148 -0.2436689
vt -0.8696172 1.178213
vt -0.4812887 1.458243
vt -0.7156485 0.9765354
vt -0.3740073 1.222899
vt -0.2471158 1.880725
vt -0.004452101 1.928016
vt -0.213566 1.771805
vt -7.467757E-05 1.813411
vt 0.2663839 -0.5754551
vt -0.5069506 -0.5754551
vt 0.224568 -0.3901828
vt -0.4557897 -0.3901817
vt 1.866155 -0.008696411
vt -1.68408 -0.008696411
vt 1.651605 0.1382122
vt -1.471793 0.1382122
vt 0.001888753 -1.890625
vt -0.2243588 -1.906792
vt -0.0009291628 -1.708279
vt -0.1999729 -1.722502
vt 1.544443 -0.5105813
vt 0.9726823 -0.5105813
vt 1.349215 -0.3295107
vt 0.8461961 -0.3295123
vt -0.6102751 -0.8116668
vt -0.9413492 -0.7949608
vt -0.5317654 -0.6052183
vt -0.823035 -0.5905209
vt 1.452707 -0.2253997
vt 0.7921231 -0.2253997
vt 1.269981 -0.06601827
vt 0.688818 -0.06601818
vt -1.468762 -0.02902246
vt -1.771047 -0.02902246
vt -1.285218 0.1196575
vt -1.551159 0.1196573
vt -1.121204 -0.9953699
vt -1.597398 -0.7673477
vt -0.9503959 -0.7921923
vt -1.369336 -0.591585
vt 2.009017 -0.01201918
vt 1.553657 -0.01201918
vt 1.761428 0.1349653
vt 1.360818 0.1349652
vt -1.947715 0.07055916
vt -2.110613 -0.01143049
vt -0.3803783 -1.494607
vt -0.2445606 -1.265579
vt -0.1838327 -1.945279
vt -0.1119395 -1.774329
vt -0.4202383 -1.454958
vt 0.002084213 -1.438237
vt -0.1981936 -1.931694
vt 0.000949669 -1.918958
vt -0.002895099 -1.672045
vt 0.4771487 -1.690904
vt -0.001253556 -2.099466
vt 0.2251099 -2.113916
vt -1.684052 -0.1364542
vt -2.110618 -0.1093699
vt 1.217903 -0.1364542
vt 1.217903 -0.008693293
vt 1.709563 -0.1093699
vt 1.709563 -0.01133163
vt -0.3555733 1.238374
vt -0.4700275 1.470315
vt -0.1979535 1.706374
vt -0.2451024 1.808974
vt 2.12508 -0.05499716
vt 2.022416 -0.003872789
vt 0.009736862 1.493514
vt -0.4371026 1.410129
vt 2.192005E-06 1.890495
vt -0.2138143 1.850594
vt 0.5064969 1.760947
vt -0.002485052 1.849751
vt 0.2416702 2.066983
vt -0.001879333 2.109477
vt -1.008298 -0.008693293
vt -1.008298 -0.1364542
vt -1.412498 -0.05498414
vt -1.412498 -0.1161187
vt 1.866153 -0.1364542
vt 2.125082 -0.1161187
vt 0.4066124 -0.5334603
vt -0.08478928 -0.3403823
vt 0.2738686 -0.05981708
vt 0.6497307 0.4834125
vt 0.5944099 1.254766
vt 0.392952 1.921592
vt 0.04565048 1.950305
vt 0.1016808 2.382154
vt 0.6402664 2.350866
vt 1.053001 2.593488
vt 1.562031 2.682021
vt 1.564644 -0.8682132
vt 1.084599 -0.8870349
vt 0.9510612 -0.331087
vt 0.6197815 -0.3191342
vt -0.5334358 1.99929
vt -0.2278862 2.024551
vt -0.2771797 2.203656
vt -0.7510147 2.176129
vt -0.7106705 1.211812
vt -1.114128 2.389582
vt -1.561958 2.467471
vt -0.7593384 0.5331967
vt -1.564255 -0.6559259
vt -1.141926 -0.6724846
vt -1.024441 -0.1833775
vt -0.7329903 -0.1728618
vt -0.4286652 0.05527854
vt -0.5454521 -0.3614196
vt -0.1131325 -0.191555
vt 0.2332906 4.768372E-07
vt -0.1151957 0
vt 0.2332906 0.1277614
vt -0.1151957 0.1277609
vt -1.939967 -5.947075E-09
vt -2.375437 -5.947075E-09
vt -1.939967 0.1277609
vt -2.375437 0.1277609
vt 0.03664646 8.063175E-09
vt -0.5028473 8.063175E-09
vt 0.03664645 0.1277609
vt -0.5028473 0.1277609
vt -1.02924 0
vt -1.725834 4.768372E-07
vt -1.02924 0.1277609
vt -1.725834 0.1277614
vt -1.743306 0
vt -2.222071 0
vt -1.743306 0.1277609
vt -2.222071 0.1277609
vt -1.795316 0.04537255
vt -2.042548 0.04537255
vt -1.795316 0.1065071
vt -2.042548 0.1065071
vt -0.4356954 0
vt -1.20903 0
vt -0.4356954 0.1277609
vt -1.20903 0.1277609
vt 1.477317 0.002228677
vt 1.250496 0.002228677
vt 1.477317 0.100267
vt 1.250496 0.100267
vt 1.115816 0
vt 0.544055 0
vt 1.115816 0.1277609
vt 0.544055 0.1277609
vt 0.9623808 0
vt 0.6308855 0
vt 0.9623808 0.1277609
vt 0.6308855 0.1277609
vt -0.1066366 4.301125E-09
vt -0.7672203 4.301126E-09
vt -0.1066366 0.1277609
vt -0.7672203 0.1277609
vt 0.2107922 0
vt -0.09149361 0
vt 0.2107922 0.1277609
vt -0.09149361 0.1277609
vt 0.5735328 0
vt 0.04556057 0
vt 0.5735328 0.1277609
vt 0.04556058 0.1277609
vt 0.2765063 7.755946E-09
vt -0.1788532 7.755946E-09
vt 0.2765063 0.1277609
vt -0.1788532 0.1277609
vt -0.1788532 -0.006925854
vt 0.2765063 -0.006925854
vt -0.3716917 -0.1541218
vt 0.02891747 -0.1541219
vt 0.08215802 -0.276948
vt -0.3939941 -0.5050573
vt -0.1459882 -0.1011179
vt -0.5648918 -0.3018019
vt -0.09149364 0.10212
vt 0.2107922 0.10212
vt 0.1283948 -0.04676887
vt 0.3943357 -0.04676906
vt -0.7672203 -0.100416
vt -0.1066366 -0.100416
vt -0.8705253 -0.2599927
vt -0.2893622 -0.2599926
vt -0.6193956 -0.2434617
vt -0.9504691 -0.2601794
vt -0.7377246 -0.03887812
vt -1.028994 -0.05358588
vt 0.544055 -0.4949175
vt 1.115816 -0.4949175
vt 0.4175687 -0.6761582
vt 0.9205881 -0.6761597
vt -1.335955 -1.150792
vt -1.562198 -1.134618
vt -1.36033 -0.9664282
vt -1.559374 -0.9521991
vt -0.8693646 0.002475376
vt 2.68087 0.002475376
vt -0.657077 -0.144645
vt 2.466321 -0.144645
vt -1.20903 -0.4155708
vt -0.4356954 -0.4155708
vt -1.157869 -0.6010121
vt -0.4775111 -0.6010111
vt -1.551939 2.713718
vt -1.309275 2.666408
vt -1.55633 2.599068
vt -1.342846 2.557446
vt -0.9905695 2.424849
vt -0.6023054 2.144729
vt -1.097977 2.189429
vt -0.7563921 1.942987
vt -0.2924698 1.831727
vt -0.4424133 1.151463
vt -0.4952858 1.910991
vt -0.6272 1.115657
vt -0.6394424 1.749592
vt -0.1015499 1.791126
vt -0.7425867 1.517636
vt -0.2693615 1.554177
vt -0.081713 2.379743
vt -0.03668578 1.946608
vt -0.3103049 2.200714
vt -0.2706915 2.019881
vt -0.1151941 -1.008071
vt 0.2332923 -1.00807
vt 0.06030475 -1.180021
vt 0.3668968 -1.18002
vt -0.8619377 0.1277609
vt -0.8619377 0
vt -1.288504 0.100267
vt -1.288504 0.002228677
vt -1.006344 -0.8305539
vt -0.8728847 -1.061099
vt -1.144865 -1.337847
vt -1.074352 -1.509385
vt -0.8618681 0.01331273
vt -0.6495841 -0.1338127
vt -1.288434 0.01554148
vt -1.125536 -0.0666099
vt -1.563416 -0.6277009
vt -1.141094 -0.644424
vt -1.562285 -1.108372
vt -1.363142 -1.121108
vt 1.317542 0
vt 1.317542 0.1277609
vt 1.809203 0.002228677
vt 1.809203 0.100267
vt 1.084276 -0.8769591
vt 1.56432 -0.8580993
vt 1.33632 -1.299997
vt 1.56268 -1.285547
vt -2.648304 0.1277609
vt -2.648304 0
vt -3.052506 0.1065071
vt -3.052506 0.04537255
vt 2.464094 -0.1414139
vt 2.678643 0.005707228
vt 2.834908 -0.0001454807
vt 2.937572 0.05108034
vt -0.9455572 2.51726
vt -1.06519 2.287811
vt -1.16367 2.860575
vt -1.212479 2.758676
vt -1.121417 2.207693
vt -1.568267 2.291018
vt -1.344825 2.647841
vt -1.558643 2.687713
vt 2.680086 0
vt 2.680086 0.1277609
vt 2.939014 0.04537255
vt 2.939014 0.1065071
vt 1.563695 2.664412
vt 1.054718 2.575582
vt 1.563071 2.924211
vt 1.31952 2.881705

vn 0 1 0
vn 2.610223E-07 -1 -3.880314E-07
vn 0.08239275 0 -0.9965999
vn 0.991688 0 0.1286665
vn -0.05799627 0 0.9983168
vn 0.9572673 0 -0.2892045
vn 0.506768 0 0.8620825
vn 0.171354 0 0.9852095
vn 0.9974381 0 -0.07153533
vn -0.06367445 0 -0.9979707
vn 0.9723437 0 -0.2335545
vn 0.0360571 0 -0.9993497
vn 0.8223479 0 0.5689849
vn -0.7090178 0 -0.7051905
vn 0.3656971 0 -0.9307339
vn 0.6161401 0 0.7876366
vn 0.07046851 0.5181874 -0.8523591
vn 0.645871 0.7588336 0.08379848
vn 0.5935566 0.7932005 0.1163796
vn 0.5412422 0.8275673 0.1489608
vn -0.03817488 0.752817 0.657122
vn 0.7941644 0.5583341 -0.2399291
vn 0.7336524 0.6410819 -0.1957153
vn 0.6731403 0.7238297 -0.1515014
vn 0.2935228 0.8151817 0.4993228
vn 0.07730147 0.8924625 0.4444493
vn 0.7909009 0.6093096 -0.05672268
vn -0.9999985 0.001568279 0.0007360258
vn -0.02867004 0.8928976 -0.4493461
vn 0.7888944 0.5845844 -0.1894905
vn 0.02520712 0.7150346 -0.6986345
vn 0.757992 0.3878055 0.5244569
vn -0.7005701 0.1539071 -0.6967884
vn 0.2090257 0.8205453 -0.5319902
vn 0.6158215 0.03215092 0.7872294
vn -0.9999488 0.009087002 -0.00445565
vn -0.9999434 0.009727144 -0.004262967
vn -0.999938 0.01036729 -0.004070284
vn 0.5785549 0.7367778 -0.3499036
vn 0.5195391 0.7796072 -0.3419221
vn 0.4605233 0.8224366 -0.3339405
vn -0.005455982 0.9902557 -0.139154
vn -0.007212374 0.9901432 -0.1398597
vn -0.008968767 0.9900308 -0.1405654
vn -0.002484873 -0.9979866 -0.06337635
vn -0.003210191 -0.9980373 -0.06252882
vn -0.003935508 -0.9980881 -0.06168129
vn -0.999992 0 -0.004006378
vn 0.8586913 0 -0.5124933
vn 0.3492213 0.8067926 0.4765818
vn 0.3150901 0.8444691 0.4272891
vn 0.2809589 0.8821456 0.3779965
vn -0.9999933 0.003171889 0.001834065
vn -0.9999679 0.006446167 0.003170096
vn -0.9999426 0.009720446 0.004506127
vn 0.06209948 0.9320191 0.3570492
vn 0.01361335 -0.9968391 0.07827178
vn 0.7548171 0 0.6559353
vn -0.9999992 0 0.001267006
vn -0.08239275 0 -0.9965999
vn -0.991688 0 0.1286665
vn 0.05799627 0 0.9983168
vn -0.9572673 0 -0.2892045
vn -0.506768 0 0.8620825
vn -0.1713514 0 0.98521
vn -0.9974381 0 -0.07153533
vn 0.06367552 0 -0.9979707
vn -0.9723437 0 -0.2335545
vn -0.0360571 0 -0.9993497
vn -0.8223479 0 0.5689849
vn 0.7090178 0 -0.7051905
vn -0.3656971 0 -0.9307339
vn -0.6161401 0 0.7876366
vn -0.6158229 0.0320856 0.787231
vn -0.2092279 0.8201598 -0.532505
vn 0.7005949 0.1536826 -0.696813
vn -0.7581556 0.3873324 0.52457
vn -0.02522567 0.7145311 -0.6991487
vn -0.7892892 0.5840206 -0.1895853
vn 0.02871581 0.8925387 -0.4500557
vn 0.9999985 0.001582717 0.0007360257
vn -0.7913191 0.6087637 -0.05675267
vn -0.07742244 0.8921018 0.4451518
vn -0.2938038 0.8147874 0.4998007
vn -0.6546638 0.729587 -0.197783
vn -0.7256657 0.6533984 -0.1885428
vn -0.7966677 0.5772098 -0.1793026
vn 0.03820598 0.7523476 0.6576574
vn -0.5933724 0.8012379 0.07698704
vn -0.6274357 0.764375 0.1295225
vn -0.6614991 0.7275121 0.1820579
vn -0.07049441 0.5176402 -0.8526894
vn 0.999992 0 -0.004006378
vn -0.5523667 0.7489637 -0.3659841
vn -0.5346471 0.772912 -0.3393568
vn -0.5169276 0.7968602 -0.3127294
vn 0.9999558 0.008489458 -0.004050588
vn 0.9999373 0.01014083 -0.004436604
vn 0.9999188 0.0117922 -0.00482262
vn 0.005482212 0.9901614 -0.139823
vn 0.007108469 0.9903539 -0.1383615
vn 0.008734725 0.9905464 -0.1368999
vn -0.8586879 0 -0.512499
vn 0.002489932 -0.9979784 -0.06350538
vn 0.003297477 -0.9979491 -0.06392118
vn 0.004105021 -0.9979198 -0.06433698
vn -0.7548124 0 0.6559407
vn 0.9999911 0.003640241 0.002158351
vn 0.9999882 0.004305371 0.002133433
vn 0.9999854 0.004970501 0.002108515
vn -0.3910806 0.7980022 0.4585285
vn -0.2889862 0.8448739 0.4353353
vn -0.1868918 0.8917457 0.4121421
vn -0.06179262 0.9327134 0.3552849
vn 0.9999992 0 0.001237541
vn -0.01422399 -0.9965487 0.08178274

usemtl GymBarrier
f 8/8/1 7/7/1 6/6/1
f 8/8/1 6/6/1 9/9/1
f 6/6/1 5/5/1 9/9/1
f 10/10/1 9/9/1 5/5/1
f 5/5/1 11/11/1 10/10/1
f 4/4/1 11/11/1 5/5/1
f 4/4/1 12/12/1 11/11/1
f 14/14/1 13/13/1 12/12/1
f 12/12/1 4/4/1 14/14/1
f 4/4/1 15/15/1 14/14/1
f 3/3/1 15/15/1 4/4/1
f 3/3/1 1/1/1 15/15/1
f 3/3/1 2/2/1 1/1/1
f 29/29/2 30/30/2 28/28/2
f 27/27/2 29/29/2 28/28/2
f 23/23/2 27/27/2 28/28/2
f 26/26/2 27/27/2 23/23/2
f 26/26/2 23/23/2 24/24/2
f 24/24/2 25/25/2 26/26/2
f 22/22/2 24/24/2 23/23/2
f 20/20/2 22/22/2 23/23/2
f 21/21/2 22/22/2 20/20/2
f 20/20/2 19/19/2 21/21/2
f 19/19/2 20/20/2 16/16/2
f 19/19/2 16/16/2 18/18/2
f 16/16/2 17/17/2 18/18/2
f 65/194/2 64/193/2 63/192/2
f 65/194/2 63/192/2 66/195/2
f 63/192/2 62/191/2 66/195/2
f 67/196/2 66/195/2 62/191/2
f 62/191/2 68/197/2 67/196/2
f 61/190/2 68/197/2 62/191/2
f 61/190/2 69/198/2 68/197/2
f 71/200/2 70/199/2 69/198/2
f 69/198/2 61/190/2 71/200/2
f 61/190/2 72/201/2 71/200/2
f 60/189/2 72/201/2 61/190/2
f 60/189/2 58/187/2 72/201/2
f 60/189/2 59/188/2 58/187/2
f 86/215/1 87/216/1 85/214/1
f 84/213/1 86/215/1 85/214/1
f 80/209/1 84/213/1 85/214/1
f 83/212/1 84/213/1 80/209/1
f 83/212/1 80/209/1 81/210/1
f 81/210/1 82/211/1 83/212/1
f 79/208/1 81/210/1 80/209/1
f 77/206/1 79/208/1 80/209/1
f 78/207/1 79/208/1 77/206/1
f 77/206/1 76/205/1 78/207/1
f 76/205/1 77/206/1 73/202/1
f 76/205/1 73/202/1 75/204/1
f 73/202/1 74/203/1 75/204/1
f 32/34/3 17/32/3 16/31/3
f 16/31/3 31/33/3 32/34/3
f 33/38/4 18/36/4 17/35/4
f 17/35/4 32/37/4 33/38/4
f 34/42/5 19/40/5 18/39/5
f 18/39/5 33/41/5 34/42/5
f 31/46/6 16/44/6 20/43/6
f 20/43/6 35/45/6 31/46/6
f 36/50/7 21/48/7 19/47/7
f 19/47/7 34/49/7 36/50/7
f 40/54/8 38/52/8 37/51/8
f 37/51/8 39/53/8 40/54/8
f 35/58/9 20/56/9 23/55/9
f 23/55/9 41/57/9 35/58/9
f 45/62/10 43/60/10 42/59/10
f 42/59/10 44/61/10 45/62/10
f 47/66/11 26/64/11 25/63/11
f 25/63/11 46/65/11 47/66/11
f 48/70/12 27/68/12 26/67/12
f 26/67/12 47/69/12 48/70/12
f 41/74/13 23/72/13 28/71/13
f 28/71/13 49/73/13 41/74/13
f 50/78/14 29/76/14 27/75/14
f 27/75/14 48/77/14 50/78/14
f 51/82/15 30/80/15 29/79/15
f 29/79/15 50/81/15 51/82/15
f 49/86/16 28/84/16 30/83/16
f 30/83/16 51/85/16 49/86/16
f 7/90/17 32/88/17 31/87/17
f 31/87/17 6/89/17 7/90/17
f 8/94/20 33/92/19 32/91/18
f 32/91/18 7/93/19 8/94/20
f 9/98/21 34/96/21 33/95/21
f 33/95/21 8/97/21 9/98/21
f 6/102/24 31/100/23 35/99/22
f 35/99/22 5/101/23 6/102/24
f 10/106/25 36/104/25 34/103/25
f 34/103/25 9/105/25 10/106/25
f 53/110/26 40/108/26 39/107/26
f 39/107/26 52/109/26 53/110/26
f 5/114/27 35/112/27 41/111/27
f 41/111/27 4/113/27 5/114/27
f 12/118/28 55/116/28 54/115/28
f 54/115/28 11/117/28 12/118/28
f 57/122/29 45/120/29 44/119/29
f 44/119/29 56/121/29 57/122/29
f 14/126/30 47/124/30 46/123/30
f 46/123/30 13/125/30 14/126/30
f 15/130/31 48/128/31 47/127/31
f 47/127/31 14/129/31 15/130/31
f 4/134/32 41/132/32 49/131/32
f 49/131/32 3/133/32 4/134/32
f 1/138/33 50/136/33 48/135/33
f 48/135/33 15/137/33 1/138/33
f 2/142/34 51/140/34 50/139/34
f 50/139/34 1/141/34 2/142/34
f 3/146/35 49/144/35 51/143/35
f 51/143/35 2/145/35 3/146/35
f 44/148/38 55/116/37 12/118/36
f 12/118/36 56/147/37 44/148/38
f 57/152/41 13/150/40 46/149/39
f 46/149/39 45/151/40 57/152/41
f 56/156/44 12/154/43 13/153/42
f 13/153/42 57/155/43 56/156/44
f 43/160/47 25/158/46 24/157/45
f 24/157/45 42/159/46 43/160/47
f 42/162/48 24/161/48 55/116/48
f 55/116/48 44/148/48 42/162/48
f 45/166/49 46/164/49 25/163/49
f 25/163/49 43/165/49 45/166/49
f 39/170/52 36/168/51 10/167/50
f 10/167/50 52/169/51 39/170/52
f 53/172/55 11/117/54 54/115/53
f 54/115/53 40/171/54 53/172/55
f 52/176/56 10/174/56 11/173/56
f 11/173/56 53/175/56 52/176/56
f 38/180/57 22/178/57 21/177/57
f 21/177/57 37/179/57 38/180/57
f 37/184/58 21/182/58 36/181/58
f 36/181/58 39/183/58 37/184/58
f 40/171/59 54/115/59 22/185/59
f 22/185/59 38/186/59 40/171/59
f 64/220/60 89/218/60 88/217/60
f 88/217/60 63/219/60 64/220/60
f 65/224/61 90/222/61 89/221/61
f 89/221/61 64/223/61 65/224/61
f 66/228/62 91/226/62 90/225/62
f 90/225/62 65/227/62 66/228/62
f 63/232/63 88/230/63 92/229/63
f 92/229/63 62/231/63 63/232/63
f 67/236/64 93/234/64 91/233/64
f 91/233/64 66/235/64 67/236/64
f 97/240/65 95/238/65 94/237/65
f 94/237/65 96/239/65 97/240/65
f 62/244/66 92/242/66 98/241/66
f 98/241/66 61/243/66 62/244/66
f 102/248/67 100/246/67 99/245/67
f 99/245/67 101/247/67 102/248/67
f 71/252/68 104/250/68 103/249/68
f 103/249/68 70/251/68 71/252/68
f 72/256/69 105/254/69 104/253/69
f 104/253/69 71/255/69 72/256/69
f 61/260/70 98/258/70 106/257/70
f 106/257/70 60/259/70 61/260/70
f 58/264/71 107/262/71 105/261/71
f 105/261/71 72/263/71 58/264/71
f 59/268/72 108/266/72 107/265/72
f 107/265/72 58/267/72 59/268/72
f 60/272/73 106/270/73 108/269/73
f 108/269/73 59/271/73 60/272/73
f 87/276/74 108/274/74 106/273/74
f 106/273/74 85/275/74 87/276/74
f 86/280/75 107/278/75 108/277/75
f 108/277/75 87/279/75 86/280/75
f 84/284/76 105/282/76 107/281/76
f 107/281/76 86/283/76 84/284/76
f 85/288/77 106/286/77 98/285/77
f 98/285/77 80/287/77 85/288/77
f 83/292/78 104/290/78 105/289/78
f 105/289/78 84/291/78 83/292/78
f 82/296/79 103/294/79 104/293/79
f 104/293/79 83/295/79 82/296/79
f 110/300/80 99/298/80 100/297/80
f 100/297/80 109/299/80 110/300/80
f 79/304/81 112/302/81 111/301/81
f 111/301/81 81/303/81 79/304/81
f 80/308/82 98/306/82 92/305/82
f 92/305/82 77/307/82 80/308/82
f 114/312/83 94/310/83 95/309/83
f 95/309/83 113/311/83 114/312/83
f 76/316/84 91/314/84 93/313/84
f 93/313/84 78/315/84 76/316/84
f 77/320/87 92/318/86 88/317/85
f 88/317/85 73/319/86 77/320/87
f 75/324/88 90/322/88 91/321/88
f 91/321/88 76/323/88 75/324/88
f 74/328/91 89/326/90 90/325/89
f 90/325/89 75/327/90 74/328/91
f 73/332/92 88/330/92 89/329/92
f 89/329/92 74/331/92 73/332/92
f 99/336/93 111/334/93 69/333/93
f 69/333/93 101/335/93 99/336/93
f 100/340/96 103/338/95 82/337/94
f 82/337/94 109/339/95 100/340/96
f 110/344/99 81/342/98 111/341/97
f 111/341/97 99/343/98 110/344/99
f 109/348/102 82/346/101 81/345/100
f 81/345/100 110/347/101 109/348/102
f 102/352/103 70/350/103 103/349/103
f 103/349/103 100/351/103 102/352/103
f 101/356/106 69/354/105 70/353/104
f 70/353/104 102/355/105 101/356/106
f 94/360/107 93/358/107 67/357/107
f 67/357/107 96/359/107 94/360/107
f 95/364/110 112/362/109 79/361/108
f 79/361/108 113/363/109 95/364/110
f 114/368/113 78/366/112 93/365/111
f 93/365/111 94/367/112 114/368/113
f 113/372/114 79/370/114 78/369/114
f 78/369/114 114/371/114 113/372/114
f 97/376/115 68/374/115 112/373/115
f 112/373/115 95/375/115 97/376/115
f 96/380/116 67/378/116 68/377/116
f 68/377/116 97/379/116 96/380/116

