# ProBuilder 5.0.6
# https://unity3d.com/unity/features/worldbuilding/probuilder
# 4/20/2024 8:25:23 PM

mtllib ./Hide_mesh.mtl
o Hide mesh

g HideRaw
v 0.4545679 0.2746693 -1.36144
v 0.8868876 0.2746693 -1.191575
v 0.5713549 0.2746693 -0.9447415
v 0.2406816 0.2746693 -0.4668233
v 0.2893496 0.2746693 0.2117915
v 0.4665842 0.2746698 0.9992697
v 0.7721338 0.2746693 1.024531
v 0.7228403 0.2746693 1.203636
v 0.2490053 0.2746693 1.176109
v -0.1141081 0.2746693 1.389562
v -0.5619383 0.2746693 1.467451
v -0.5642347 0.2746693 -1.655946
v -0.1419058 0.2746693 -1.672505
v -0.02442074 0.2746693 -1.183398
v 0.2670298 0.2746693 -1.172882
v 0.6070681 4.768372E-07 0.921572
v 0.9543695 0 0.9502847
v 0.8983393 0 1.382134
v 0.3597536 0 1.350846
v 0.4056101 0 0.2547457
v -0.05298138 0 1.593468
v -0.5620108 0 1.682001
v 0.3502893 0 -0.5166075
v -0.5646238 0 -1.868233
v -0.08457851 0 -1.887055
v 0.04895878 0 -1.331107
v 0.3802385 0 -1.319154
v 0.7261515 0 -1.059837
v 0.5934076 0 -1.53348
v 1.084809 0 -1.340402
v 0.6070681 0.1277614 0.921572
v 0.9543695 0.1277609 0.9502847
v 0.8983393 0.1277609 1.382134
v 0.3597536 0.1277609 1.350846
v 0.4056101 0.1277609 0.2547457
v -0.05298138 0.1277609 1.593468
v -0.3181105 0.02033548 1.898566
v -0.5616827 0.02033548 1.940929
v -0.3181105 0.08147006 1.898566
v -0.5616827 0.08147006 1.940929
v 0.3502893 0.1277609 -0.5166075
v -0.5629148 0.02708426 -2.294796
v -0.3365507 0.02708426 -2.309239
v -0.5629148 0.1251226 -2.294796
v -0.3365507 0.1251226 -2.309239
v -0.08457851 0.1277609 -1.887055
v 0.04895878 0.1277609 -1.331107
v 0.3802385 0.1277609 -1.319154
v 0.7261515 0.1277609 -1.059837
v 0.5934076 0.1277609 -1.53348
v 1.084809 0.1277609 -1.340402
v -0.3473577 0.132594 1.800995
v -0.5616484 0.132594 1.838265
v -0.5620108 0.1277609 1.682001
v -0.5646238 0.1277609 -1.868233
v -0.5627279 0.2071073 -2.131896
v -0.3635817 0.2071073 -2.144602

vt -0.1944752 -1.177285
vt -0.6267948 -1.00742
vt -0.3112621 -0.7605867
vt 0.01941108 -0.2826686
vt -0.02925682 0.3959463
vt -0.2064915 1.183424
vt -0.5120411 1.208685
vt -0.4627476 1.387791
vt 0.01108741 1.360264
vt 0.3742008 1.573717
vt 0.822031 1.651606
vt 0.8243275 -1.471791
vt 0.4019985 -1.48835
vt 0.2845135 -0.9992428
vt -0.006937031 -0.9887271
vt 0.3469753 1.105727
vt 0.6942768 1.134439
vt 0.6382465 1.566289
vt 0.09966087 1.535
vt 0.1455173 0.4389005
vt -0.3130741 1.777623
vt -0.8221035 1.866156
vt 0.0901966 -0.3324528
vt -0.8247166 -1.684078
vt -0.3446712 -1.7029
vt -0.211134 -1.146952
vt 0.1201458 -1.135
vt 0.4660587 -0.8756824
vt 0.3333149 -1.349326
vt 0.8247166 -1.156248
vt -0.4368995 -0.1373344
vt -0.7853858 -0.1373349
vt -0.4368995 -0.009573504
vt -0.7853858 -0.009573981
vt -1.03568 -0.1373349
vt -1.471149 -0.1373349
vt -1.03568 -0.009573981
vt -1.471149 -0.009573981
vt 0.7280112 -0.1373349
vt 0.1885174 -0.1373349
vt 0.7280112 -0.009573981
vt 0.1885174 -0.009573981
vt -0.4622294 -0.1373349
vt -1.158823 -0.1373344
vt -0.4622294 -0.009573981
vt -1.158823 -0.009573504
vt -0.6919732 -0.1373349
vt -1.170738 -0.1373349
vt -0.6919732 -0.009573981
vt -1.170738 -0.009573981
vt -0.9265337 -0.1169994
vt -1.173763 -0.1169994
vt -0.9265337 -0.05586483
vt -1.173763 -0.05586483
vt 0.3251488 -0.1373349
vt -0.4481857 -0.1373349
vt 0.3251488 -0.009573981
vt -0.4481857 -0.009573981
vt 0.6869435 -0.1102506
vt 0.4601191 -0.1102506
vt 0.6869435 -0.01221232
vt 0.4601191 -0.01221232
vt 1.736304 -0.1373349
vt 1.164543 -0.1373349
vt 1.736304 -0.009573981
vt 1.164543 -0.009573981
vt 0.2523524 -0.1373349
vt -0.07914288 -0.1373349
vt 0.2523524 -0.009573981
vt -0.07914288 -0.009573981
vt 0.985296 -0.1373349
vt 0.3247124 -0.1373349
vt 0.985296 -0.009573981
vt 0.3247124 -0.009573981
vt -0.8894606 -0.1373349
vt -1.191746 -0.1373349
vt -0.8894606 -0.009573981
vt -1.191746 -0.009573981
vt 0.1832169 -0.1373349
vt -0.3447553 -0.1373349
vt 0.1832169 -0.009573981
vt -0.3447553 -0.009573981
vt 1.361987 -0.1373349
vt 0.9066279 -0.1373349
vt 1.361987 -0.009573981
vt 0.9066279 -0.009573981
vt -0.4369003 0.5480233
vt -0.7853867 0.5480228
vt -0.3032959 0.7197924
vt -0.609888 0.7197918
vt -0.5349056 1.093351
vt -0.4922378 1.526725
vt -0.300912 1.167859
vt -0.2633744 1.349012
vt -0.6369426 1.208168
vt -0.09904812 1.166659
vt -0.469109 0.9713654
vt 0.004117982 0.9348468
vt -0.4622293 -0.01484754
vt -1.158823 -0.01484696
vt -0.3874876 0.1622325
vt -1.192572 0.1946618
vt -0.09701101 1.317588
vt 0.2913174 1.597619
vt 0.05695769 1.115911
vt 0.3985989 1.362274
vt 0.5712256 1.912621
vt 0.8138893 1.959913
vt 0.6047755 1.803701
vt 0.8182667 1.845307
vt 0.3251488 -0.07689906
vt -0.4481857 -0.07689906
vt 0.283333 0.1083733
vt -0.3970248 0.1083743
vt 1.86555 -0.01086541
vt -1.684685 -0.01086541
vt 1.651 0.1360432
vt -1.472397 0.1360432
vt 0.8229756 -1.879174
vt 0.596728 -1.895341
vt 0.8201576 -1.696828
vt 0.621114 -1.711051
vt 1.736304 -0.04435164
vt 1.164543 -0.04435164
vt 1.541076 0.1367189
vt 1.038057 0.1367173
vt 0.2106656 -0.8325014
vt -0.1204085 -0.8157954
vt 0.2891753 -0.6260529
vt -0.002094273 -0.6113555
vt 0.985296 0.03576809
vt 0.3247124 0.03576809
vt 0.8025704 0.1951495
vt 0.2214073 0.1951496
vt -0.8894606 -0.1195351
vt -1.191746 -0.1195351
vt -0.7059171 0.02914481
vt -0.971858 0.02914461
vt -0.3253629 -1.103705
vt -0.8015568 -0.8756829
vt -0.1545547 -0.9005275
vt -0.573495 -0.6999202
vt 1.361987 0.003373709
vt 0.9066279 0.003373708
vt 1.114398 0.1503581
vt 0.7137894 0.1503581
vt -1.468103 0.1297786
vt -1.680387 -0.0171359
vt -1.944055 0.06221378
vt -2.106953 -0.01977587
vt 0.2651696 -1.67237
vt 0.4009873 -1.443342
vt 0.4617152 -2.123043
vt 0.5336083 -1.952093
vt 0.4012358 -1.454451
vt 0.8235583 -1.437729
vt 0.6232805 -1.931186
vt 0.8224238 -1.918451
vt -0.8243721 -1.671859
vt -0.3443282 -1.690719
vt -0.8227305 -2.099281
vt -0.5963671 -2.11373
vt -1.680761 -0.009573981
vt -1.680761 -0.1373349
vt -2.107327 -0.01221232
vt -2.107327 -0.1102506
vt 1.638907 -0.1373349
vt 1.638907 -0.009573981
vt 2.130567 -0.1102506
vt 2.130567 -0.01221232
vt 0.3979645 1.394278
vt 0.2835103 1.626219
vt 0.5555843 1.862278
vt 0.5084354 1.964878
vt 1.864645 -0.01219241
vt 1.650095 0.1347168
vt 2.123573 -0.05848349
vt 2.020909 -0.007359118
vt 0.8293426 1.513327
vt 0.3825032 1.429942
vt 0.819608 1.910308
vt 0.6057914 1.870408
vt -0.3149203 1.761756
vt -0.8239022 1.850561
vt -0.579747 2.067792
vt -0.8232965 2.110286
vt -1.547137 -0.009573981
vt -1.547137 -0.1373349
vt -1.951337 -0.05586483
vt -1.951337 -0.1169994
vt 1.865113 -0.1373349
vt 1.865113 -0.009573981
vt 2.124041 -0.1169994
vt 2.124041 -0.05586483

vn 0 1 0
vn 2.610223E-07 -1 -3.880314E-07
vn 0.08239275 0 -0.9965999
vn 0.991688 0 0.1286665
vn -0.05799627 0 0.9983168
vn 0.9572673 0 -0.2892045
vn 0.506768 0 0.8620825
vn 0.171354 0 0.9852095
vn 0.9974381 0 -0.07153533
vn -0.06367445 0 -0.9979707
vn 0.9723437 0 -0.2335545
vn 0.0360571 0 -0.9993497
vn 0.8223479 0 0.5689849
vn -0.7090178 0 -0.7051905
vn 0.3656971 0 -0.9307339
vn 0.6161401 0 0.7876366
vn 0.07046851 0.5181874 -0.8523591
vn 0.645871 0.7588336 0.08379848
vn 0.5935566 0.7932005 0.1163796
vn 0.5412422 0.8275673 0.1489608
vn -0.03817488 0.752817 0.657122
vn 0.7941644 0.5583341 -0.2399291
vn 0.7336524 0.6410819 -0.1957153
vn 0.6731403 0.7238297 -0.1515014
vn 0.2935228 0.8151817 0.4993228
vn 0.07730147 0.8924625 0.4444493
vn 0.7909009 0.6093096 -0.05672268
vn -0.9999985 0.001568279 0.0007360258
vn -0.02867004 0.8928976 -0.4493461
vn 0.7888944 0.5845844 -0.1894905
vn 0.02520712 0.7150346 -0.6986345
vn 0.757992 0.3878055 0.5244569
vn -0.7005701 0.1539071 -0.6967884
vn 0.2090257 0.8205453 -0.5319902
vn 0.6158215 0.03215092 0.7872294
vn -0.9999488 0.009087002 -0.00445565
vn -0.9999434 0.009727144 -0.004262967
vn -0.999938 0.01036729 -0.004070284
vn 0.5785549 0.7367778 -0.3499036
vn 0.5195391 0.7796072 -0.3419221
vn 0.4605233 0.8224366 -0.3339405
vn -0.005455982 0.9902557 -0.139154
vn -0.007212374 0.9901432 -0.1398597
vn -0.008968767 0.9900308 -0.1405654
vn -0.002484873 -0.9979866 -0.06337635
vn -0.003210191 -0.9980373 -0.06252882
vn -0.003935508 -0.9980881 -0.06168129
vn -0.999992 0 -0.004006378
vn 0.8586913 0 -0.5124933
vn 0.3492213 0.8067926 0.4765818
vn 0.3150901 0.8444691 0.4272891
vn 0.2809589 0.8821456 0.3779965
vn -0.9999933 0.003171889 0.001834065
vn -0.9999679 0.006446167 0.003170096
vn -0.9999426 0.009720446 0.004506127
vn 0.06209948 0.9320191 0.3570492
vn 0.01361335 -0.9968391 0.07827178
vn 0.7548171 0 0.6559353
vn -0.9999992 0 0.001267006

usemtl GymBarrier
f 8/8/1 7/7/1 6/6/1
f 8/8/1 6/6/1 9/9/1
f 6/6/1 5/5/1 9/9/1
f 10/10/1 9/9/1 5/5/1
f 5/5/1 11/11/1 10/10/1
f 4/4/1 11/11/1 5/5/1
f 4/4/1 12/12/1 11/11/1
f 14/14/1 13/13/1 12/12/1
f 12/12/1 4/4/1 14/14/1
f 4/4/1 15/15/1 14/14/1
f 3/3/1 15/15/1 4/4/1
f 3/3/1 1/1/1 15/15/1
f 3/3/1 2/2/1 1/1/1
f 29/29/2 30/30/2 28/28/2
f 27/27/2 29/29/2 28/28/2
f 23/23/2 27/27/2 28/28/2
f 26/26/2 27/27/2 23/23/2
f 26/26/2 23/23/2 24/24/2
f 24/24/2 25/25/2 26/26/2
f 22/22/2 24/24/2 23/23/2
f 20/20/2 22/22/2 23/23/2
f 21/21/2 22/22/2 20/20/2
f 20/20/2 19/19/2 21/21/2
f 19/19/2 20/20/2 16/16/2
f 19/19/2 16/16/2 18/18/2
f 16/16/2 17/17/2 18/18/2
f 32/34/3 17/32/3 16/31/3
f 16/31/3 31/33/3 32/34/3
f 33/38/4 18/36/4 17/35/4
f 17/35/4 32/37/4 33/38/4
f 34/42/5 19/40/5 18/39/5
f 18/39/5 33/41/5 34/42/5
f 31/46/6 16/44/6 20/43/6
f 20/43/6 35/45/6 31/46/6
f 36/50/7 21/48/7 19/47/7
f 19/47/7 34/49/7 36/50/7
f 40/54/8 38/52/8 37/51/8
f 37/51/8 39/53/8 40/54/8
f 35/58/9 20/56/9 23/55/9
f 23/55/9 41/57/9 35/58/9
f 45/62/10 43/60/10 42/59/10
f 42/59/10 44/61/10 45/62/10
f 47/66/11 26/64/11 25/63/11
f 25/63/11 46/65/11 47/66/11
f 48/70/12 27/68/12 26/67/12
f 26/67/12 47/69/12 48/70/12
f 41/74/13 23/72/13 28/71/13
f 28/71/13 49/73/13 41/74/13
f 50/78/14 29/76/14 27/75/14
f 27/75/14 48/77/14 50/78/14
f 51/82/15 30/80/15 29/79/15
f 29/79/15 50/81/15 51/82/15
f 49/86/16 28/84/16 30/83/16
f 30/83/16 51/85/16 49/86/16
f 7/90/17 32/88/17 31/87/17
f 31/87/17 6/89/17 7/90/17
f 8/94/20 33/92/19 32/91/18
f 32/91/18 7/93/19 8/94/20
f 9/98/21 34/96/21 33/95/21
f 33/95/21 8/97/21 9/98/21
f 6/102/24 31/100/23 35/99/22
f 35/99/22 5/101/23 6/102/24
f 10/106/25 36/104/25 34/103/25
f 34/103/25 9/105/25 10/106/25
f 53/110/26 40/108/26 39/107/26
f 39/107/26 52/109/26 53/110/26
f 5/114/27 35/112/27 41/111/27
f 41/111/27 4/113/27 5/114/27
f 12/118/28 55/116/28 54/115/28
f 54/115/28 11/117/28 12/118/28
f 57/122/29 45/120/29 44/119/29
f 44/119/29 56/121/29 57/122/29
f 14/126/30 47/124/30 46/123/30
f 46/123/30 13/125/30 14/126/30
f 15/130/31 48/128/31 47/127/31
f 47/127/31 14/129/31 15/130/31
f 4/134/32 41/132/32 49/131/32
f 49/131/32 3/133/32 4/134/32
f 1/138/33 50/136/33 48/135/33
f 48/135/33 15/137/33 1/138/33
f 2/142/34 51/140/34 50/139/34
f 50/139/34 1/141/34 2/142/34
f 3/146/35 49/144/35 51/143/35
f 51/143/35 2/145/35 3/146/35
f 44/150/38 55/148/37 12/147/36
f 12/147/36 56/149/37 44/150/38
f 57/154/41 13/152/40 46/151/39
f 46/151/39 45/153/40 57/154/41
f 56/158/44 12/156/43 13/155/42
f 13/155/42 57/157/43 56/158/44
f 43/162/47 25/160/46 24/159/45
f 24/159/45 42/161/46 43/162/47
f 42/166/48 24/164/48 55/163/48
f 55/163/48 44/165/48 42/166/48
f 45/170/49 46/168/49 25/167/49
f 25/167/49 43/169/49 45/170/49
f 39/174/52 36/172/51 10/171/50
f 10/171/50 52/173/51 39/174/52
f 53/178/55 11/176/54 54/175/53
f 54/175/53 40/177/54 53/178/55
f 52/182/56 10/180/56 11/179/56
f 11/179/56 53/181/56 52/182/56
f 38/186/57 22/184/57 21/183/57
f 21/183/57 37/185/57 38/186/57
f 37/190/58 21/188/58 36/187/58
f 36/187/58 39/189/58 37/190/58
f 40/194/59 54/192/59 22/191/59
f 22/191/59 38/193/59 40/194/59

