# ProBuilder 5.0.6
# https://unity3d.com/unity/features/worldbuilding/probuilder
# 4/21/2024 7:33:46 AM

mtllib ./IronNodeBase_mesh.mtl
o IronNodeBase mesh

g IronNodeBase
v -2.151956 -0.1233098 0.0001306573
v -1.591209 0.3002611 -0.00512752
v -0.6236472 -0.05670314 1.951623
v -0.4989924 0.3478619 1.389516
v 1.852011 -0.0008123405 1.207322
v 1.270241 0.3878045 0.8575966
v 1.853728 -0.03287654 -1.204181
v 1.271471 0.3648897 -0.8657914
v -0.6208587 -0.1085842 -1.950267
v -0.4970034 0.3107849 -1.398984
v 0.06186149 -0.06445698 0.0009279288
v -0.009098706 0.3423204 -0.004558114

vt -0.2474129 -0.4039415
vt -0.1768001 0.09062207
vt 0.9191368 -0.4039413
vt 0.6568809 0.09062242
vt -0.632957 -0.6161566
vt -0.4522783 -0.08632028
vt 0.2293787 -0.6161571
vt 0.1639924 -0.08631945
vt -0.6599848 -0.4347315
vt -0.4716468 0.06480035
vt 0.6599818 -0.4347313
vt 0.4716713 0.06480008
vt -0.2293758 -0.6161314
vt -0.1639784 -0.08630541
vt 0.6329585 -0.6161315
vt 0.4522924 -0.08630527
vt -0.9191372 -0.4039317
vt -0.6569039 0.09062838
vt 0.2474161 -0.4039317
vt 0.176777 0.09062809
vt -0.6146641 1.688381E-06
vt 0.06489284 1.969484E-06
vt -0.1451048 1.067874
vt 0.4392045 -1.263606E-05
vt -0.04644269 -1.263606E-05
vt 0.1036305 0.7631479
vt 0.6146642 0.6599843
vt -0.4393395 0.4716464
vt 0.614663 -0.6599822
vt -0.4393395 -0.4716717
vt -0.1451032 -1.067874
vt 0.1036306 -0.7631731

vn -3.058352 0.2255436 -0.005184001
vn -1.003758 0.4631644 1.428782
vn 2.489101 0.4833606 0.8010589
vn 2.490272 0.4619214 -0.8100932
vn -1.001712 0.4249663 -1.442058
vn 0.02320564 -0.8730575 0.01162534
vn -0.02320543 0.8730575 -0.01162506

usemtl GymBarrier
f 1/21/6 11/22/6 3/23/6
f 3/23/6 11/22/6 5/27/6
f 5/27/6 11/22/6 7/29/6
f 7/29/6 11/22/6 9/31/6
f 9/31/6 11/22/6 1/21/6
f 4/26/7 12/25/7 2/24/7
f 6/28/7 12/25/7 4/26/7
f 8/30/7 12/25/7 6/28/7
f 10/32/7 12/25/7 8/30/7
f 2/24/7 12/25/7 10/32/7
f 4/4/2 2/2/1 1/1/1
f 1/1/1 3/3/2 4/4/2
f 6/8/3 4/6/2 3/5/2
f 3/5/2 5/7/3 6/8/3
f 8/12/4 6/10/3 5/9/3
f 5/9/3 7/11/4 8/12/4
f 10/16/5 8/14/4 7/13/4
f 7/13/4 9/15/5 10/16/5
f 2/20/1 10/18/5 9/17/5
f 9/17/5 1/19/1 2/20/1

