# ProBuilder 5.0.6
# https://unity3d.com/unity/features/worldbuilding/probuilder
# 4/21/2024 7:32:50 AM

mtllib ./IronOreRaw_mesh.mtl
o IronOreRaw mesh

g IronOreRaw
v -0.4358031 -0.350965 0.004355703
v -0.5242617 0.3254424 -0.004701204
v -0.1338518 -0.3378054 0.3899157
v -0.1685583 0.3409445 0.4494938
v 0.3552678 -0.3267629 0.2428627
v 0.4076296 0.3539527 0.276263
v 0.3556077 -0.3330979 -0.2335824
v 0.40803 0.34649 -0.2849944
v -0.1333019 -0.3480557 -0.3809882
v -0.1679105 0.3288696 -0.4586399
v 0.001584254 -0.3393374 0.00451312
v -0.3838606 0.4776871 -0.006629021
v -0.0281449 0.4871435 -0.006501125
v -0.1382889 0.4883894 0.306939
v 0.2594972 0.4973701 0.187343
v 0.2597762 0.492218 -0.2001381
v -0.137843 0.4800532 -0.3200193

vt -0.1500949 -0.4500826
vt -0.1768159 0.3364559
vt 0.5576053 -0.4500826
vt 0.6568649 0.3364558
vt -0.3839857 -0.4113681
vt -0.4523443 0.3784561
vt 0.1391591 -0.4113681
vt 0.1639265 0.3784559
vt -0.4003855 -0.4447309
vt -0.471659 0.3422605
vt 0.4003866 -0.4447309
vt 0.4716591 0.3422605
vt -0.1391575 -0.4113696
vt -0.1639252 0.3784544
vt 0.3839879 -0.4113696
vt 0.4523456 0.3784544
vt -0.5576079 -0.4500833
vt -0.6568655 0.336455
vt 0.1500945 -0.4500833
vt 0.1768153 0.3364551
vt -0.3728879 1.996874E-08
vt 0.0393721 1.996874E-08
vt -0.0880242 0.6478367
vt 0.3032188 -6.309453E-06
vt -0.03206145 -6.522221E-06
vt 0.07154411 0.526866
vt 0.3728971 0.4003855
vt -0.3033094 0.3256178
vt 0.3728971 -0.4003866
vt -0.3033117 -0.3256305
vt -0.0880242 -0.647839
vt 0.07154533 -0.5268771
vt 0.4716591 -0.032743
vt -0.471659 -0.032743
vt 0.3256305 0.1861747
vt -0.3256178 0.1861763
vt 0.2143371 -0.4769449
vt -0.2861688 -0.1173846
vt 0.2512177 -0.1854947
vt -0.09432264 0.06273864
vt -0.2861784 0.1174035
vt 0.2143319 0.4769575
vt -0.0943322 -0.06273186
vt 0.2512077 0.1854978
vt 0.6568647 0.0116651
vt -0.1768162 0.01166508
vt 0.4535009 0.2236833
vt -0.1220576 0.2236832
vt 0.1768161 0.01167565
vt -0.6568648 0.01167565
vt 0.1220462 0.2236908
vt -0.4535104 0.2236908

vn -0.9915581 -0.1296588 0.001016877
vn -0.2983211 -0.09858548 0.9493605
vn 0.7989721 -0.09062872 0.5944998
vn 0.7998179 -0.1063872 -0.5907395
vn -0.296969 -0.1237959 -0.9468284
vn 0.02656772 -0.9995584 0.01330949
vn -0.02656778 0.9995584 -0.01330914
vn 0.6983472 0.7157024 -0.009018082
vn 0.2039863 0.6392605 -0.7414416
vn 0.2029345 0.6587738 0.7244548
vn -0.6411523 0.5973775 0.4817301
vn -0.6404629 0.5843286 -0.4983647

usemtl IronColor
f 1/21/6 11/22/6 3/23/6
f 3/23/6 11/22/6 5/27/6
f 5/27/6 11/22/6 7/29/6
f 7/29/6 11/22/6 9/31/6
f 9/31/6 11/22/6 1/21/6
f 14/26/7 13/25/7 12/24/7
f 15/28/7 13/25/7 14/26/7
f 16/30/7 13/25/7 15/28/7
f 17/32/7 13/25/7 16/30/7
f 12/24/7 13/25/7 17/32/7
f 4/4/2 2/2/1 1/1/1
f 1/1/1 3/3/2 4/4/2
f 6/8/3 4/6/2 3/5/2
f 3/5/2 5/7/3 6/8/3
f 8/12/4 6/10/3 5/9/3
f 5/9/3 7/11/4 8/12/4
f 10/16/5 8/14/4 7/13/4
f 7/13/4 9/15/5 10/16/5
f 2/20/1 10/18/5 9/17/5
f 9/17/5 1/19/1 2/20/1
f 15/36/8 6/34/8 8/33/8
f 8/33/8 16/35/8 15/36/8
f 16/40/9 8/38/9 10/37/9
f 10/37/9 17/39/9 16/40/9
f 14/44/10 4/42/10 6/41/10
f 6/41/10 15/43/10 14/44/10
f 12/48/11 2/46/11 4/45/11
f 4/45/11 14/47/11 12/48/11
f 17/52/12 10/50/12 2/49/12
f 2/49/12 12/51/12 17/52/12

