# ProBuilder 5.0.6
# https://unity3d.com/unity/features/worldbuilding/probuilder
# 4/20/2024 8:37:40 PM

mtllib ./Leather_raw_mesh.mtl
o Leather raw mesh

g LeatherRaw
v 0.5934076 0.1277609 -1.53348
v 1.084809 0.1277609 -1.340402
v 0.7261515 0.1277609 -1.059837
v 0.3502893 0.1277609 -0.5166075
v 0.4056101 0.1277609 0.2547457
v 0.6070681 0.1277614 0.921572
v 0.9543695 0.1277609 0.9502847
v 0.8983393 0.1277609 1.382134
v 0.3597536 0.1277609 1.350846
v -0.05298138 0.1277609 1.593468
v -0.5620108 0.1277609 1.682001
v -0.5646238 0.1277609 -1.868233
v -0.08457851 0.1277609 -1.887055
v 0.04895878 0.1277609 -1.331107
v 0.3802385 0.1277609 -1.319154
v 0.6070681 4.768372E-07 0.921572
v 0.9543695 0 0.9502847
v 0.8983393 0 1.382134
v 0.3597536 0 1.350846
v 0.4056101 0 0.2547457
v -0.05298138 0 1.593468
v -0.5620108 0 1.682001
v 0.3502893 0 -0.5166075
v -0.5646238 0 -1.868233
v -0.08457851 0 -1.887055
v 0.04895878 0 -1.331107
v 0.3802385 0 -1.319154
v 0.7261515 0 -1.059837
v 0.5934076 0 -1.53348
v 1.084809 0 -1.340402

vt 0.4066124 -0.5334603
vt -0.08478928 -0.3403823
vt 0.2738686 -0.05981708
vt 0.6497307 0.4834125
vt 0.5944099 1.254766
vt 0.392952 1.921592
vt 0.04565048 1.950305
vt 0.1016808 2.382154
vt 0.6402664 2.350866
vt 1.053001 2.593488
vt 1.562031 2.682021
vt 1.564644 -0.8682132
vt 1.084599 -0.8870349
vt 0.9510612 -0.331087
vt 0.6197815 -0.3191342
vt -0.392952 1.921592
vt -0.04565048 1.950305
vt -0.1016808 2.382154
vt -0.6402664 2.350866
vt -0.5944099 1.254766
vt -1.053001 2.593488
vt -1.562031 2.682021
vt -0.6497307 0.4834125
vt -1.564644 -0.8682132
vt -1.084599 -0.8870349
vt -0.9510612 -0.331087
vt -0.6197815 -0.3191342
vt -0.2738686 -0.05981708
vt -0.4066124 -0.5334603
vt 0.08478928 -0.3403823
vt 0.2332906 4.768372E-07
vt -0.1151957 0
vt 0.2332906 0.1277614
vt -0.1151957 0.1277609
vt -1.939967 -5.947075E-09
vt -2.375437 -5.947075E-09
vt -1.939967 0.1277609
vt -2.375437 0.1277609
vt 0.03664646 8.063175E-09
vt -0.5028473 8.063175E-09
vt 0.03664645 0.1277609
vt -0.5028473 0.1277609
vt -1.02924 0
vt -1.725834 4.768372E-07
vt -1.02924 0.1277609
vt -1.725834 0.1277614
vt -1.743306 0
vt -2.222071 0
vt -1.743306 0.1277609
vt -2.222071 0.1277609
vt -1.481826 0
vt -1.998497 0
vt -1.481826 0.1277609
vt -1.998497 0.1277609
vt -0.4356954 0
vt -1.20903 0
vt -0.4356954 0.1277609
vt -1.20903 0.1277609
vt 1.529428 0
vt 1.049013 0
vt 1.529428 0.1277609
vt 1.049013 0.1277609
vt 1.115816 0
vt 0.544055 0
vt 1.115816 0.1277609
vt 0.544055 0.1277609
vt 0.9623808 0
vt 0.6308855 0
vt 0.9623808 0.1277609
vt 0.6308855 0.1277609
vt -0.1066366 4.301125E-09
vt -0.7672203 4.301126E-09
vt -0.1066366 0.1277609
vt -0.7672203 0.1277609
vt 0.2107922 0
vt -0.09149361 0
vt 0.2107922 0.1277609
vt -0.09149361 0.1277609
vt 0.5735328 0
vt 0.04556057 0
vt 0.5735328 0.1277609
vt 0.04556058 0.1277609
vt 0.2765063 7.755946E-09
vt -0.1788532 7.755946E-09
vt 0.2765063 0.1277609
vt -0.1788532 0.1277609

vn 0 1 0
vn 2.610223E-07 -1 -3.880314E-07
vn 0.08239275 0 -0.9965999
vn 0.991688 2.891593E-08 0.1286665
vn -0.05799627 -3.382145E-09 0.9983168
vn 0.9572673 0 -0.2892045
vn 0.506768 0 0.8620825
vn 0.1713517 0 0.9852099
vn 0.9974381 0 -0.07153533
vn -0.03917811 0 -0.9992322
vn 0.9723437 0 -0.2335545
vn 0.0360571 0 -0.9993497
vn 0.8223479 1.659063E-08 0.5689849
vn -0.7090178 0 -0.7051905
vn 0.3656971 0 -0.9307339
vn 0.6161401 3.593119E-08 0.7876366

usemtl SpellGyser
f 8/8/1 7/7/1 6/6/1
f 8/8/1 6/6/1 9/9/1
f 6/6/1 5/5/1 9/9/1
f 10/10/1 9/9/1 5/5/1
f 5/5/1 11/11/1 10/10/1
f 4/4/1 11/11/1 5/5/1
f 4/4/1 12/12/1 11/11/1
f 14/14/1 13/13/1 12/12/1
f 12/12/1 4/4/1 14/14/1
f 4/4/1 15/15/1 14/14/1
f 3/3/1 15/15/1 4/4/1
f 3/3/1 1/1/1 15/15/1
f 3/3/1 2/2/1 1/1/1
f 29/29/2 30/30/2 28/28/2
f 27/27/2 29/29/2 28/28/2
f 23/23/2 27/27/2 28/28/2
f 26/26/2 27/27/2 23/23/2
f 26/26/2 23/23/2 24/24/2
f 24/24/2 25/25/2 26/26/2
f 22/22/2 24/24/2 23/23/2
f 20/20/2 22/22/2 23/23/2
f 21/21/2 22/22/2 20/20/2
f 20/20/2 19/19/2 21/21/2
f 19/19/2 20/20/2 16/16/2
f 19/19/2 16/16/2 18/18/2
f 16/16/2 17/17/2 18/18/2
f 7/34/3 17/32/3 16/31/3
f 16/31/3 6/33/3 7/34/3
f 8/38/4 18/36/4 17/35/4
f 17/35/4 7/37/4 8/38/4
f 9/42/5 19/40/5 18/39/5
f 18/39/5 8/41/5 9/42/5
f 6/46/6 16/44/6 20/43/6
f 20/43/6 5/45/6 6/46/6
f 10/50/7 21/48/7 19/47/7
f 19/47/7 9/49/7 10/50/7
f 11/54/8 22/52/8 21/51/8
f 21/51/8 10/53/8 11/54/8
f 5/58/9 20/56/9 23/55/9
f 23/55/9 4/57/9 5/58/9
f 13/62/10 25/60/10 24/59/10
f 24/59/10 12/61/10 13/62/10
f 14/66/11 26/64/11 25/63/11
f 25/63/11 13/65/11 14/66/11
f 15/70/12 27/68/12 26/67/12
f 26/67/12 14/69/12 15/70/12
f 4/74/13 23/72/13 28/71/13
f 28/71/13 3/73/13 4/74/13
f 1/78/14 29/76/14 27/75/14
f 27/75/14 15/77/14 1/78/14
f 2/82/15 30/80/15 29/79/15
f 29/79/15 1/81/15 2/82/15
f 3/86/16 28/84/16 30/83/16
f 30/83/16 2/85/16 3/86/16

