# ProBuilder 5.0.6
# https://unity3d.com/unity/features/worldbuilding/probuilder
# 4/21/2024 9:54:38 PM

mtllib ./Leather_raw_mesh.mtl
o Leather raw mesh

g LeatherRaw
v 1.154797 0.0647609 -1.430953
v 1.646198 0.0647609 -1.237875
v 1.28754 0.0647609 -0.9573101
v 0.9116783 0.0647609 -0.4140805
v 0.9669991 0.0647609 0.3572727
v 1.168457 0.06476138 1.024099
v 1.515759 0.0647609 1.052812
v 1.459728 0.0647609 1.484661
v 0.9211426 0.0647609 1.453373
v 0.5084076 0.0647609 1.695995
v -0.0006217957 0.0647609 1.784528
v -0.003234863 0.0647609 -1.765706
v 0.4768105 0.0647609 -1.784528
v 0.6103477 0.0647609 -1.22858
v 0.9416275 0.0647609 -1.216627
v 1.168457 -0.06299952 1.024099
v 1.515759 -0.063 1.052812
v 1.459728 -0.063 1.484661
v 0.9211426 -0.063 1.453373
v 0.9669991 -0.063 0.3572727
v 0.5084076 -0.063 1.695995
v -0.0006217957 -0.063 1.784528
v 0.9116783 -0.063 -0.4140805
v -0.003234863 -0.063 -1.765706
v 0.4768105 -0.063 -1.784528
v 0.6103477 -0.063 -1.22858
v 0.9416275 -0.063 -1.216627
v 1.28754 -0.063 -0.9573101
v 1.154797 -0.063 -1.430953
v 1.646198 -0.063 -1.237875
v -1.154797 -0.0647609 -1.430953
v -1.646198 -0.0647609 -1.237875
v -1.28754 -0.0647609 -0.9573101
v -0.9116783 -0.0647609 -0.4140805
v -0.9669991 -0.0647609 0.3572727
v -1.168457 -0.06476138 1.024099
v -1.515759 -0.0647609 1.052812
v -1.459728 -0.0647609 1.484661
v -0.9211426 -0.0647609 1.453373
v -0.5084076 -0.0647609 1.695995
v 0.0006217957 -0.0647609 1.784528
v 0.003234863 -0.0647609 -1.765706
v -0.4768105 -0.0647609 -1.784528
v -0.6103477 -0.0647609 -1.22858
v -0.9416275 -0.0647609 -1.216627
v -1.168457 0.06299952 1.024099
v -1.515759 0.063 1.052812
v -1.459728 0.063 1.484661
v -0.9211426 0.063 1.453373
v -0.9669991 0.063 0.3572727
v -0.5084076 0.063 1.695995
v 0.0006217957 0.063 1.784528
v -0.9116783 0.063 -0.4140805
v 0.003234863 0.063 -1.765706
v -0.4768105 0.063 -1.784528
v -0.6103477 0.063 -1.22858
v -0.9416275 0.063 -1.216627
v -1.28754 0.063 -0.9573101
v -1.154797 0.063 -1.430953
v -1.646198 0.063 -1.237875

vt -1.154797 -1.430953
vt -1.646198 -1.237875
vt -1.28754 -0.9573101
vt -0.9116783 -0.4140805
vt -0.9669991 0.3572727
vt -1.168457 1.024099
vt -1.515759 1.052812
vt -1.459728 1.484661
vt -0.9211426 1.453373
vt -0.5084076 1.695995
vt 0.0006217936 1.784528
vt 0.003234861 -1.765706
vt -0.4768105 -1.784528
vt -0.6103477 -1.22858
vt -0.9416275 -1.216627
vt 1.168457 1.024099
vt 1.515759 1.052812
vt 1.459728 1.484661
vt 0.9211426 1.453373
vt 0.9669991 0.3572727
vt 0.5084076 1.695995
vt -0.0006217977 1.784528
vt 0.9116783 -0.4140805
vt -0.003234865 -1.765706
vt 0.4768105 -1.784528
vt 0.6103477 -1.22858
vt 0.9416275 -1.216627
vt 1.28754 -0.9573101
vt 1.154797 -1.430953
vt 1.646198 -1.237875
vt -1.248863 -0.06299952
vt -1.597349 -0.063
vt -1.248863 0.06476138
vt -1.597349 0.0647609
vt -0.8490334 -0.063
vt -1.284503 -0.063
vt -0.8490334 0.0647609
vt -1.284503 0.0647609
vt 1.543376 -0.063
vt 1.003882 -0.063
vt 1.543376 0.0647609
vt 1.003882 0.0647609
vt -0.621666 -0.063
vt -1.31826 -0.06299952
vt -0.621666 0.0647609
vt -1.31826 0.06476138
vt 0.05757809 -0.063
vt -0.421187 -0.063
vt 0.05757809 0.0647609
vt -0.421187 0.0647609
vt 0.2102765 -0.063
vt -0.3063945 -0.063
vt 0.2102765 0.0647609
vt -0.3063945 0.0647609
vt 0.3478024 -0.063
vt -0.425532 -0.063
vt 0.3478024 0.0647609
vt -0.425532 0.0647609
vt -0.06594465 -0.063
vt -0.5463588 -0.063
vt -0.06594465 0.0647609
vt -0.5463588 0.0647609
vt 1.623813 -0.063
vt 1.052052 -0.063
vt 1.623813 0.0647609
vt 1.052052 0.0647609
vt -0.5656518 -0.063
vt -0.8971471 -0.063
vt -0.5656518 0.0647609
vt -0.8971471 0.0647609
vt 1.519833 -0.063
vt 0.8592495 -0.063
vt 1.519833 0.0647609
vt 0.8592495 0.0647609
vt -1.526637 -0.063
vt -1.828923 -0.063
vt -1.526637 0.0647609
vt -1.828923 0.0647609
vt -0.551513 -0.063
vt -1.079485 -0.063
vt -0.551513 0.0647609
vt -1.079485 0.0647609
vt 2.059311 -0.063
vt 1.603951 -0.063
vt 2.059311 0.0647609
vt 1.603951 0.0647609
vt 1.968021 -1.430953
vt 1.47662 -1.237875
vt 1.835278 -0.9573101
vt 2.21114 -0.4140805
vt 2.155819 0.3572727
vt 1.954361 1.024099
vt 1.607059 1.052812
vt 1.66309 1.484661
vt 2.201675 1.453373
vt 2.61441 1.695995
vt 3.12344 1.784528
vt 3.126053 -1.765706
vt 2.646008 -1.784528
vt 2.51247 -1.22858
vt 2.18119 -1.216627
vt -1.954361 1.024099
vt -1.607059 1.052812
vt -1.66309 1.484661
vt -2.201675 1.453373
vt -2.155819 0.3572727
vt -2.61441 1.695995
vt -3.12344 1.784528
vt -2.21114 -0.4140805
vt -3.126053 -1.765706
vt -2.646008 -1.784528
vt -2.51247 -1.22858
vt -2.18119 -1.216627
vt -1.835278 -0.9573101
vt -1.968021 -1.430953
vt -1.47662 -1.237875
vt -1.396757 -0.06299957
vt -1.745243 -0.06300002
vt -1.396757 0.06476136
vt -1.745243 0.06476092
vt -2.629099 -0.06300007
vt -3.064569 -0.06300002
vt -2.629099 0.06476088
vt -3.064569 0.06476092
vt 1.647479 -0.06300005
vt 1.107985 -0.06300001
vt 1.647479 0.06476089
vt 1.107985 0.06476094
vt -2.339947 -0.06299997
vt -3.036541 -0.06299943
vt -2.339947 0.06476087
vt -3.036541 0.06476141
vt -0.8520638 -0.06300007
vt -1.330829 -0.06300002
vt -0.8520638 0.06476088
vt -1.330829 0.06476092
vt -0.09729752 -0.06300007
vt -0.6139685 -0.06300002
vt -0.09729752 0.06476088
vt -0.6139685 0.06476092
vt -1.442585 -0.06300011
vt -2.215919 -0.06300004
vt -1.442585 0.06476086
vt -2.215919 0.06476094
vt 0.004379153 -0.06300007
vt -0.4760351 -0.06300002
vt 0.004379153 0.06476088
vt -0.4760351 0.06476092
vt -0.1215301 -0.06300007
vt -0.6932908 -0.06300002
vt -0.1215301 0.06476088
vt -0.6932908 0.06476092
vt -0.6303738 -0.06300005
vt -0.9618691 -0.06300002
vt -0.6303738 0.06476089
vt -0.9618691 0.06476092
vt 0.04372984 -0.06300011
vt -0.6168538 -0.06300005
vt 0.04372984 0.06476083
vt -0.6168538 0.06476089
vt -0.2539598 -0.06300005
vt -0.5562456 -0.06300002
vt -0.2539598 0.06476089
vt -0.5562456 0.06476092
vt -1.207934 -0.06300007
vt -1.735906 -0.06300002
vt -1.207934 0.06476088
vt -1.735906 0.06476092
vt 0.9533477 -0.06300005
vt 0.497988 -0.06300001
vt 0.9533477 0.06476089
vt 0.497988 0.06476094

vn 0 1 0
vn 2.610223E-07 -1 -3.880314E-07
vn 0.08239275 0 -0.9965999
vn 0.991688 0 0.1286665
vn -0.05799627 0 0.9983168
vn 0.9572673 0 -0.2892045
vn 0.506768 0 0.8620825
vn 0.1713517 0 0.9852099
vn 0.9974381 0 -0.07153533
vn -0.03917811 0 -0.9992322
vn 0.9723437 0 -0.2335545
vn 0.0360571 0 -0.9993497
vn 0.8223479 0 0.5689849
vn -0.7090178 0 -0.7051905
vn 0.3656971 0 -0.9307339
vn 0.6161401 0 0.7876366
vn -0.08239275 0 -0.9965999
vn -0.991688 0 0.1286665
vn 0.05799627 0 0.9983168
vn -0.9572673 0 -0.2892045
vn -0.506768 0 0.8620825
vn -0.1713517 0 0.9852099
vn -0.9974381 0 -0.07153533
vn 0.03917811 0 -0.9992322
vn -0.9723437 0 -0.2335545
vn -0.0360571 0 -0.9993497
vn -0.8223479 0 0.5689849
vn 0.7090178 0 -0.7051905
vn -0.3656971 0 -0.9307339
vn -0.6161401 0 0.7876366

usemtl SpellGyser
f 8/8/1 7/7/1 6/6/1
f 8/8/1 6/6/1 9/9/1
f 6/6/1 5/5/1 9/9/1
f 10/10/1 9/9/1 5/5/1
f 5/5/1 11/11/1 10/10/1
f 4/4/1 11/11/1 5/5/1
f 4/4/1 12/12/1 11/11/1
f 14/14/1 13/13/1 12/12/1
f 12/12/1 4/4/1 14/14/1
f 4/4/1 15/15/1 14/14/1
f 3/3/1 15/15/1 4/4/1
f 3/3/1 1/1/1 15/15/1
f 3/3/1 2/2/1 1/1/1
f 29/29/2 30/30/2 28/28/2
f 27/27/2 29/29/2 28/28/2
f 23/23/2 27/27/2 28/28/2
f 26/26/2 27/27/2 23/23/2
f 26/26/2 23/23/2 24/24/2
f 24/24/2 25/25/2 26/26/2
f 22/22/2 24/24/2 23/23/2
f 20/20/2 22/22/2 23/23/2
f 21/21/2 22/22/2 20/20/2
f 20/20/2 19/19/2 21/21/2
f 19/19/2 20/20/2 16/16/2
f 19/19/2 16/16/2 18/18/2
f 16/16/2 17/17/2 18/18/2
f 38/94/2 37/93/2 36/92/2
f 38/94/2 36/92/2 39/95/2
f 36/92/2 35/91/2 39/95/2
f 40/96/2 39/95/2 35/91/2
f 35/91/2 41/97/2 40/96/2
f 34/90/2 41/97/2 35/91/2
f 34/90/2 42/98/2 41/97/2
f 44/100/2 43/99/2 42/98/2
f 42/98/2 34/90/2 44/100/2
f 34/90/2 45/101/2 44/100/2
f 33/89/2 45/101/2 34/90/2
f 33/89/2 31/87/2 45/101/2
f 33/89/2 32/88/2 31/87/2
f 59/115/1 60/116/1 58/114/1
f 57/113/1 59/115/1 58/114/1
f 53/109/1 57/113/1 58/114/1
f 56/112/1 57/113/1 53/109/1
f 56/112/1 53/109/1 54/110/1
f 54/110/1 55/111/1 56/112/1
f 52/108/1 54/110/1 53/109/1
f 50/106/1 52/108/1 53/109/1
f 51/107/1 52/108/1 50/106/1
f 50/106/1 49/105/1 51/107/1
f 49/105/1 50/106/1 46/102/1
f 49/105/1 46/102/1 48/104/1
f 46/102/1 47/103/1 48/104/1
f 7/34/3 17/32/3 16/31/3
f 16/31/3 6/33/3 7/34/3
f 8/38/4 18/36/4 17/35/4
f 17/35/4 7/37/4 8/38/4
f 9/42/5 19/40/5 18/39/5
f 18/39/5 8/41/5 9/42/5
f 6/46/6 16/44/6 20/43/6
f 20/43/6 5/45/6 6/46/6
f 10/50/7 21/48/7 19/47/7
f 19/47/7 9/49/7 10/50/7
f 11/54/8 22/52/8 21/51/8
f 21/51/8 10/53/8 11/54/8
f 5/58/9 20/56/9 23/55/9
f 23/55/9 4/57/9 5/58/9
f 13/62/10 25/60/10 24/59/10
f 24/59/10 12/61/10 13/62/10
f 14/66/11 26/64/11 25/63/11
f 25/63/11 13/65/11 14/66/11
f 15/70/12 27/68/12 26/67/12
f 26/67/12 14/69/12 15/70/12
f 4/74/13 23/72/13 28/71/13
f 28/71/13 3/73/13 4/74/13
f 1/78/14 29/76/14 27/75/14
f 27/75/14 15/77/14 1/78/14
f 2/82/15 30/80/15 29/79/15
f 29/79/15 1/81/15 2/82/15
f 3/86/16 28/84/16 30/83/16
f 30/83/16 2/85/16 3/86/16
f 37/120/17 47/118/17 46/117/17
f 46/117/17 36/119/17 37/120/17
f 38/124/18 48/122/18 47/121/18
f 47/121/18 37/123/18 38/124/18
f 39/128/19 49/126/19 48/125/19
f 48/125/19 38/127/19 39/128/19
f 36/132/20 46/130/20 50/129/20
f 50/129/20 35/131/20 36/132/20
f 40/136/21 51/134/21 49/133/21
f 49/133/21 39/135/21 40/136/21
f 41/140/22 52/138/22 51/137/22
f 51/137/22 40/139/22 41/140/22
f 35/144/23 50/142/23 53/141/23
f 53/141/23 34/143/23 35/144/23
f 43/148/24 55/146/24 54/145/24
f 54/145/24 42/147/24 43/148/24
f 44/152/25 56/150/25 55/149/25
f 55/149/25 43/151/25 44/152/25
f 45/156/26 57/154/26 56/153/26
f 56/153/26 44/155/26 45/156/26
f 34/160/27 53/158/27 58/157/27
f 58/157/27 33/159/27 34/160/27
f 31/164/28 59/162/28 57/161/28
f 57/161/28 45/163/28 31/164/28
f 32/168/29 60/166/29 59/165/29
f 59/165/29 31/167/29 32/168/29
f 33/172/30 58/170/30 60/169/30
f 60/169/30 32/171/30 33/172/30

