# ProBuilder 5.0.6
# https://unity3d.com/unity/features/worldbuilding/probuilder
# 4/21/2024 7:37:54 AM

mtllib ./Prismatic_Cotton_Bush_mesh.mtl
o Prismatic Cotton Bush mesh

g Prismatic Cotton Bush
v 0.928413 3.16754 -9.162677E-09
v 1.590853 2.722352 0.7878411
v 0.5457075 3.114681 0.7768367
v 1.664378 2.087549 1.124544
v 1.045149 2.479879 1.651384
v 2.384395E-06 3.051168 1.321634
v 2.384395E-06 3.653302 -2.019624E-08
v -0.5457053 3.410829 0.7768367
v -0.928411 3.463688 -2.019624E-08
v 0.5457101 3.134564 -0.9240151
v -0.5457015 3.430712 -0.9240151
v -0.2766891 2.633193 -1.463076
v 1.428681 2.722352 -0.4801115
v 0.4111733 2.41885 -1.412685
v 1.502207 2.269668 -0.9765447
v 1.765948 2.269668 -0.1597302
v -1.428678 3.0185 0.4801114
v -1.132581 2.479879 1.343655
v -1.751817 2.087549 0.8168142
v 2.384395E-06 2.087549 1.64038
v 1.067263 1.622282 1.476229
v 0.1621766 1.420078 1.71607
v 1.497206 1.574731 0.6700242
v 1.428683 1.634866 -0.6398416
v 0.975287 1.080496 0.1751556
v 0.882975 1.523842 -1.256948
v -3.18812E-09 2.087549 -1.553674
v -0.2766891 1.444238 -1.34842
v -0.9645515 2.41885 -1.412685
v -1.389673 2.822962 -0.6928498
v -1.446954 2.097725 -0.9551512
v -0.928413 1.007559 -9.162677E-09
v -1.678293 1.452747 0.4801114
v -0.5457075 1.060417 0.7768367
v -1.132585 1.69522 1.256948
v -0.6419651 0.0889862 -2.557916E-06
v -0.4304211 0.1182038 0.4294027
v -0.1287777 -0.01582526 -2.557916E-06
v 0.8015389 1.122142 1.029651
v 0.1728657 0.1182038 0.4294027
v 0.3844173 0.0889862 -2.557916E-06
v -0.4304211 0.1182038 -0.4294069
v 0.1728657 0.1182038 -0.4294069
v -0.5457053 0.8890396 -0.7768367
v 0.7078804 1.060417 -0.4691072
v -1.428681 1.452747 -0.4801115
v -0.9645552 1.792089 -1.298028
v -2.015558 2.087549 -2.019624E-08
v 0.1115978 0.9639741 0.1588663
v 0.189864 0.9531643 -1.746662E-07
v 0.1115978 0.9639741 -0.1588666
v -0.1116001 0.9639741 0.1588663
v -0.1898663 0.9531643 -1.746662E-07
v -0.1116001 0.9639741 -0.1588666
v -0.1844341 0.7261755 0.1588658
v -0.106168 0.7153658 -6.491094E-07
v -0.1844341 0.7261755 -0.1588671
v -0.4076321 0.7261755 0.1588658
v -0.4858982 0.7153658 -6.491094E-07
v -0.4076321 0.7261755 -0.1588671
v -0.01718256 0.2677108 0.1588651
v 0.0610836 0.2569012 -1.366291E-06
v -0.01718256 0.2677108 -0.1588678
v -0.2403805 0.2677108 0.1588651
v -0.3186466 0.2569012 -1.366291E-06
v -0.2403805 0.2677108 -0.1588678

vt -0.5493593 -0.02944287
vt -1.009147 0.4960047
vt -0.3111172 0.4933054
vt -0.5851539 0.5996997
vt -0.8160953 0.1494414
vt -1.1302 0.4435904
vt 1.120715 0.6269995
vt 0.8022105 0.437027
vt 0.4526297 0.9039571
vt 0.1230058 0.847244
vt 0.0828294 -0.02287022
vt 0.02964284 0.858909
vt 0.4077836 0.4962821
vt 0.6553637 -0.02796719
vt -0.3093626 -0.6545296
vt 0.4095374 -0.6515529
vt 0.1683448 -1.028704
vt -0.906213 -0.3602585
vt -0.454527 0.9968292
vt 0.05729933 0.6842345
vt -0.3811165 0.5278829
vt -1.007525 0.672529
vt 0.2771431 0.6003532
vt 0.9691598 0.4078627
vt 0.6059353 0.2768433
vt -0.01322259 0.9289013
vt 0.04019497 0.272546
vt 0.9335699 0.2874639
vt -0.2446294 1.112542
vt -0.5997875 0.4411571
vt -0.8190756 0.8399658
vt 0.3580028 0.8711218
vt 0.9172172 0.4829457
vt 0.6063898 0.216783
vt 0.1341249 0.1584169
vt 1.179432 0.1706917
vt 0.810228 -0.1665617
vt 0.2403718 -0.315569
vt -0.4999735 -0.2106674
vt 0.384456 -0.169836
vt -0.1339155 -0.5490934
vt -1.067319 0.3888773
vt -0.6787016 -0.1148838
vt -0.1219079 0.3056317
vt 0.06025374 -0.1614405
vt 0.2431552 1.208251
vt 0.4983121 0.5314326
vt 0.8915406 -0.5076584
vt 0.7886183 0.765844
vt -0.9447504 0.442276
vt -0.4321094 0.7343001
vt -0.6042304 0.2222513
vt -0.568048 -0.03379891
vt -1.014451 0.2756093
vt -0.3207318 0.4898148
vt 0.3752729 -0.2333234
vt 0.8590109 -0.07250735
vt -0.9785442 -0.2688964
vt -0.6028146 -0.1126288
vt -0.2446307 -0.5516366
vt -0.05240454 -0.2696774
vt 0.07502426 0.02457074
vt 0.284179 -0.2696774
vt 0.1549518 1.115116
vt 0.5412457 0.6620502
vt -0.1955067 -0.1513809
vt 0.1904239 -0.1513809
vt -0.002541415 -0.4564908
vt -0.2891326 -0.2694896
vt -0.07997798 0.02475861
vt 0.04745571 -0.2694896
vt -0.05240454 0.1616109
vt 0.284179 0.161611
vt 0.07502426 -0.1326365
vt -0.2891326 0.1614233
vt 0.04745569 0.1614233
vt -0.079978 -0.1328244
vt -0.002541415 0.3522719
vt 0.1904239 0.04716255
vt -0.1955067 0.04716255
vt -0.332658 -0.5536125
vt 0.4773251 -0.3476736
vt -0.1227567 -0.9543449
vt -0.8555434 -0.3716383
vt 0.24695 -0.5925939
vt 0.5012689 0.08176568
vt 0.8190358 -0.2144051
vt -0.2865986 -0.2357115
vt -0.8677809 -0.001764668
vt 0.001090321 -0.5604713
vt 0.07630639 0.2229105
vt -1.01377 0.1735748
vt 0.6489584 0.08712869
vt 1.015619 0.40832
vt 0.6248892 -0.5117714
vt 1.056777 -0.1832314
vt -1.013947 -0.1644504
vt -0.5464721 -0.4970587
vt 0.9761814 -0.4773495
vt -1.011643 -0.08210098
vt 0.8341694 -0.2367451
vt 0.8184764 0.2738446
vt 0.001090172 1.178735
vt 0.5140755 0.59336
vt 0.6197163 0.01456316
vt 0.06107213 0.003529463
vt 0.1094823 -0.1045857
vt 0.5941679 0.08982416
vt 0.4234447 -0.34559
vt 0.08371358 -0.02855194
vt 0.03594434 -0.136429
vt -0.2779075 0.3711948
vt 0.5845383 0.5444898
vt -0.001344206 -0.05240135
vt 0.1414198 -0.05279813
vt -0.4656706 -0.1211404
vt -0.2247024 0.4065418
vt 0.008356269 -0.1211405
vt 0.05763608 -0.01322723
vt -0.2500472 -0.6698035
vt -0.4972018 -0.1396377
vt 0.02599989 -0.248059
vt -0.02382494 -0.1432336
vt 0.4409627 -0.3505892
vt -0.3700791 -0.5585073
vt 0.05350817 -0.1409746
vt -0.08747543 -0.1417391
vt -0.2894185 -0.1396124
vt -0.2570976 -0.2537576
vt -0.5428706 -0.1396127
vt -0.5105497 -0.2537579
vt -0.2570982 0.1506951
vt -0.2894191 0.03654993
vt -0.5105503 0.1506948
vt -0.5428712 0.03654959
vt 0.008447319 -0.6054857
vt 0.15123 -0.6054857
vt -0.1809283 -0.7739341
vt -0.03814558 -0.7739341
vt 0.4386032 0.05398521
vt 0.3961041 0.1647444
vt 0.6920553 0.05398488
vt 0.6495562 0.164744
vt 0.3961038 -0.2709576
vt 0.4386029 -0.1601985
vt 0.6495559 -0.270958
vt 0.692055 -0.1601988
vt -0.15123 -0.6054862
vt -0.008447319 -0.6054862
vt 0.03814558 -0.7739345
vt 0.1809283 -0.7739345
vt -0.06340414 -0.7371213
vt 0.05495893 -0.7451183
vt -0.02005131 -1.076293
vt 0.09831177 -1.08429
vt 0.04529735 -0.7579327
vt 0.1636604 -0.7499356
vt 0.001945404 -1.097105
vt 0.1203085 -1.089108
vt -0.07393521 -1.098695
vt 0.0688475 -1.098695
vt -0.1509137 -0.6974961
vt -0.03254982 -0.6895108
vt -0.1038176 -1.036168
vt 0.01454632 -1.028183
vt -0.06591625 -0.6758184
vt 0.05244762 -0.6838037
vt -0.1130132 -1.014491
vt 0.005350631 -1.022476
vt -0.0688475 -1.098695
vt 0.07393521 -1.098695
vt -0.6073961 0.2062627
vt -0.6546163 0.09743243
vt -0.7655839 0.3915924
vt -0.8932188 0.09743141
vt -0.6546109 -0.2055283
vt -0.6073906 -0.3143585
vt -0.8932133 -0.2055291
vt -0.7655782 -0.4996893
vt 0.07393521 0.5964076
vt -0.0688475 0.5964076
vt 0.1955067 0.8075703
vt -0.1904239 0.8075703
vt 0.6590406 0.09700963
vt 0.6118208 0.20584
vt 0.8976347 0.09700882
vt 0.7700047 0.3911698
vt 0.6118153 -0.3139357
vt 0.6590353 -0.2051054
vt 0.7699991 -0.4992666
vt 0.8976293 -0.2051064
vt -0.0688475 -0.6912787
vt 0.07393521 -0.6912787
vt -0.1904239 -0.9024422
vt 0.1955067 -0.9024422

vn 0.820314 1.201681 -0.007924025
vn 1.14523 0.9124987 0.3157422
vn 0.5429406 1.214954 0.5514793
vn 1.409974 -0.1535132 0.6188101
vn 0.6193051 0.5593418 1.226606
vn 0.006212984 0.9172598 1.125681
vn 0.3030066 1.384094 0.05031228
vn -0.2937247 1.218386 0.6943134
vn -0.7789104 1.223766 -0.02329854
vn 0.6387145 1.003921 -0.8472582
vn -0.3686588 1.10186 -0.8573499
vn 0.07033543 0.5489302 -1.362731
vn 1.076399 0.8872663 -0.5356365
vn 0.564669 0.45341 -1.296408
vn 1.211221 0.1781579 -0.9173272
vn 1.553706 0.03261258 -0.1593377
vn -1.183139 0.852653 0.369762
vn -0.758306 0.4525017 1.204852
vn -1.32691 0.02688295 0.7823637
vn -0.1702993 0.1190269 1.466781
vn 0.7778727 -0.5484347 1.148488
vn -0.06909461 -0.7452418 1.25603
vn 1.261372 -0.8085043 0.2139924
vn 1.236898 -0.7763987 -0.395806
vn 1.059356 -1.036374 -0.06272849
vn 0.669812 -0.6017676 -1.179796
vn 0.01934888 -0.09267221 -1.477592
vn -0.02828922 -0.8208003 -1.20456
vn -0.7285823 0.268772 -1.279516
vn -1.211831 0.7048725 -0.5730117
vn -1.248732 -0.1216869 -0.8816512
vn -0.8682533 -1.173594 -0.02878325
vn -1.123399 -0.9211881 0.3558221
vn -0.5003908 -1.180651 0.6590908
vn -0.7903326 -0.5084357 1.161037
vn -0.3448165 -1.376927 -2.799162E-07
vn -0.1713442 -1.360736 0.3593586
vn -1.710922E-06 -1.4117 -3.610413E-07
vn 0.672657 -1.13283 0.6121982
vn 0.1713417 -1.360736 0.3593601
vn 0.3448116 -1.376928 -2.799163E-07
vn -0.1713442 -1.360735 -0.3593593
vn 0.1713417 -1.360735 -0.3593609
vn -0.5657293 -1.031432 -0.8573925
vn 0.6357228 -1.132225 -0.6478156
vn -1.125705 -0.8338133 -0.5391645
vn -0.7544957 -0.5098543 -1.181568
vn -1.548615 0.001847036 -0.2018152
vn 0.2278617 -1.392218 0.1162495
vn 0.2262379 -1.387907 0.1595804
vn 0.2246141 -1.383595 0.2029114
vn 0.2905756 -1.385888 -0.06071001
vn 0.2311449 -1.389246 -0.1204533
vn 0.1717142 -1.392603 -0.1801965
vn 0.02490014 -1.390515 0.2545046
vn 0.01245007 -1.388633 0.2658455
vn 0 -1.386751 0.2771864
vn -0.1263149 -1.398732 0.1605821
vn -0.04484679 -1.396214 0.2145821
vn -0.08558091 -1.397473 0.02699985
vn -0.126315 -1.398732 -0.1605824
vn 0.24723 -1.393114 -0.05011061
vn 0.123615 -1.396765 0.06837924
vn 0 -1.400416 0.1868691
vn 0.9764135 -0.9913328 0.505944
vn 0.9764145 -0.9913318 -0.5059444
vn 0 -2.747379E-06 1.4809
vn -1.006265 1.021638 0.3684171
vn -1.006264 1.021639 -0.3684168
vn 0 2.747379E-06 -1.4809
vn 1.368406 0.4071311 0.5745486
vn 1.368406 0.4071327 -0.5745483
vn -1.345953 -0.4004526 0.6250907
vn -1.345954 -0.4004509 -0.6250907
vn 0.7681527 1.206311 0.2493102
vn 0.7681451 1.206316 -0.2493065
vn 0 1.221314 0.7427245
vn -0.7681725 1.206299 0.2493199
vn -0.7681649 1.206304 -0.2493162
vn 0 1.221315 -0.7427215

usemtl GymFloor
f 3/3/3 2/2/2 1/1/1
f 5/6/5 4/5/4 2/4/2
f 3/9/3 5/8/5 2/7/2
f 6/10/6 5/8/5 3/9/3
f 7/11/7 3/3/3 1/1/1
f 8/13/8 6/12/6 3/3/3
f 7/11/7 8/13/8 3/3/3
f 9/14/9 8/13/8 7/11/7
f 10/15/10 7/11/7 1/1/1
f 11/16/11 9/14/9 7/11/7
f 10/15/10 11/16/11 7/11/7
f 12/17/12 11/16/11 10/15/10
f 13/18/13 10/15/10 1/1/1
f 14/21/14 12/20/12 10/19/10
f 13/22/13 14/21/14 10/19/10
f 15/25/15 14/24/14 13/23/13
f 2/4/2 13/23/13 1/26/1
f 16/27/16 15/25/15 13/23/13
f 2/4/2 16/27/16 13/23/13
f 4/5/4 16/27/16 2/4/2
f 17/28/17 8/13/8 9/14/9
f 18/30/18 6/10/6 8/29/8
f 17/31/17 18/30/18 8/29/8
f 19/34/19 18/33/18 17/32/17
f 20/35/20 5/8/5 6/10/6
f 21/37/21 4/36/4 5/8/5
f 20/35/20 21/37/21 5/8/5
f 22/38/22 21/37/21 20/35/20
f 23/39/23 16/27/16 4/5/4
f 24/40/24 15/25/15 16/27/16
f 23/39/23 24/40/24 16/27/16
f 25/41/25 24/40/24 23/39/23
f 26/43/26 14/21/14 15/42/15
f 27/44/27 12/20/12 14/21/14
f 26/43/26 27/44/27 14/21/14
f 28/45/28 27/44/27 26/43/26
f 29/47/29 11/46/11 12/20/12
f 30/48/30 9/14/9 11/16/11
f 29/47/29 30/49/30 11/46/11
f 31/52/31 30/51/30 29/50/29
f 34/55/34 33/54/33 32/53/32
f 35/57/35 19/34/19 33/56/33
f 34/60/34 35/59/35 33/58/33
f 22/38/22 35/59/35 34/60/34
f 39/65/39 22/64/22 34/55/34
f 28/83/28 45/82/45 44/81/44
f 46/84/46 44/81/44 32/53/32
f 47/86/47 28/45/28 44/85/44
f 46/87/46 47/86/47 44/85/44
f 31/52/31 47/89/47 46/88/46
f 33/56/33 46/88/46 32/90/32
f 48/91/48 31/52/31 46/88/46
f 33/56/33 48/91/48 46/88/46
f 19/34/19 48/91/48 33/56/33
f 20/35/20 35/59/35 22/38/22
f 18/30/18 19/92/19 35/59/35
f 20/35/20 18/30/18 35/59/35
f 6/10/6 18/30/18 20/35/20
f 23/94/23 39/65/39 25/93/25
f 21/37/21 22/38/22 39/95/39
f 23/96/23 21/37/21 39/95/39
f 4/5/4 21/97/21 23/39/23
f 26/43/26 45/98/45 28/45/28
f 24/99/24 25/93/25 45/82/45
f 26/43/26 24/100/24 45/98/45
f 15/25/15 24/40/24 26/101/26
f 29/47/29 47/86/47 31/102/31
f 27/44/27 28/45/28 47/86/47
f 29/47/29 27/44/27 47/86/47
f 12/20/12 27/44/27 29/47/29
f 17/32/17 48/91/48 19/34/19
f 30/51/30 31/52/31 48/91/48
f 17/32/17 30/51/30 48/91/48
f 9/103/9 30/51/30 17/32/17
f 50/107/51 25/105/50 39/104/49
f 39/104/49 49/106/50 50/107/51
f 51/111/54 45/109/53 25/108/52
f 25/108/52 50/110/53 51/111/54
f 49/115/57 39/113/56 34/112/55
f 34/112/55 52/114/56 49/115/57
f 52/119/58 34/117/58 32/116/58
f 32/116/58 53/118/58 52/119/58
f 53/123/61 32/121/60 44/120/59
f 44/120/59 54/122/60 53/123/61
f 54/127/64 44/125/63 45/124/62
f 45/124/62 51/126/63 54/127/64

usemtl GymWalls
f 38/63/38 37/62/37 36/61/36
f 38/68/38 40/67/40 37/66/37
f 41/71/41 40/70/40 38/69/38
f 42/74/42 38/73/38 36/72/36
f 43/77/43 41/76/41 38/75/38
f 42/80/42 43/79/43 38/78/38
f 56/131/65 50/129/65 49/128/65
f 49/128/65 55/130/65 56/131/65
f 57/135/66 51/133/66 50/132/66
f 50/132/66 56/134/66 57/135/66
f 55/139/67 49/137/67 52/136/67
f 52/136/67 58/138/67 55/139/67
f 58/143/68 52/141/68 53/140/68
f 53/140/68 59/142/68 58/143/68
f 59/147/69 53/145/69 54/144/69
f 54/144/69 60/146/69 59/147/69
f 60/151/70 54/149/70 51/148/70
f 51/148/70 57/150/70 60/151/70
f 62/155/71 56/153/71 55/152/71
f 55/152/71 61/154/71 62/155/71
f 63/159/72 57/157/72 56/156/72
f 56/156/72 62/158/72 63/159/72
f 61/161/67 55/139/67 58/138/67
f 58/138/67 64/160/67 61/161/67
f 64/165/73 58/163/73 59/162/73
f 59/162/73 65/164/73 64/165/73
f 65/169/74 59/167/74 60/166/74
f 60/166/74 66/168/74 65/169/74
f 66/171/70 60/151/70 57/150/70
f 57/150/70 63/170/70 66/171/70
f 41/175/75 62/173/75 61/172/75
f 61/172/75 40/174/75 41/175/75
f 43/179/76 63/177/76 62/176/76
f 62/176/76 41/178/76 43/179/76
f 40/183/77 61/181/77 64/180/77
f 64/180/77 37/182/77 40/183/77
f 37/187/78 64/185/78 65/184/78
f 65/184/78 36/186/78 37/187/78
f 36/191/79 65/189/79 66/188/79
f 66/188/79 42/190/79 36/191/79
f 42/195/80 66/193/80 63/192/80
f 63/192/80 43/194/80 42/195/80

