# ProBuilder 5.0.6
# https://unity3d.com/unity/features/worldbuilding/probuilder
# 5/13/2024 7:28:33 AM

mtllib ./WaterTesseract_Node_Empty.mtl
o WaterTesseract_Node_Empty

g WaterTesseract_Node_Empty
v 0.2375299 2.501089 0.6435646
v 0.1794473 2.343986 0.6435646
v -0.066594 2.234136 0.6735023
v 0.6168126 2.501089 0.715
v 0.4862936 2.207837 0.7150001
v -0.06659377 2.501089 0.715
v 0.1445904 2.026596 0.7150001
v -0.2777779 2.026596 0.7150001
v -0.6194812 2.207837 0.7150001
v -0.3126343 2.343986 0.6435646
v -0.3707169 2.501089 0.6435646
v -0.7500001 2.50109 0.715
v -0.3126343 2.631591 0.6435646
v -0.6194812 2.794342 0.715
v -0.1605728 2.712246 0.6435646
v -0.277778 2.975583 0.715
v 0.02738589 2.712246 0.6435646
v 0.1445904 2.975583 0.715
v 0.1794473 2.631591 0.6435646
v 0.4862936 2.794342 0.715
v -0.1900467 2.778467 0.346545
v -0.3897976 2.672518 0.346545
v -0.4660958 2.501089 0.346545
v 0.05685925 2.778467 0.346545
v 0.2566102 2.672518 0.346545
v 0.3329082 2.501089 0.346545
v 0.2566102 2.329661 0.346545
v 0.05685925 2.223712 0.3465451
v -0.1900467 2.223712 0.3465451
v -0.3897976 2.329661 0.346545
v -0.1605729 2.712246 0.3907995
v -0.3126346 2.631591 0.3907995
v -0.370717 2.501089 0.3907995
v 0.02738547 2.712246 0.3907995
v 0.1794472 2.631591 0.3907995
v 0.2375293 2.501089 0.3907995
v 0.1794473 2.343986 0.390795
v 0.02738547 2.289932 0.3907995
v -0.1605729 2.289932 0.3907995
v -0.3126343 2.343986 0.390795
v -0.066594 2.233509 0.4018348
v 1.753083 -0.01835251 0.03737742
v 1.418522 -0.01835275 -0.5650916
v 0.001297832 -0.01835251 0.03737742
v 0.5426292 -0.01835275 -0.9374381
v -0.5400335 -0.01835275 -0.9374381
v -1.415926 -0.01835275 -0.5650916
v -1.750487 -0.01835275 0.03737766
v -1.415926 -0.01835275 0.6398464
v -0.5400337 -0.01835275 1.012193
v 0.5426295 -0.01835275 1.012193
v 1.418522 -0.01835275 0.6398467
v -0.3151506 1.067153 0.6072316
v -0.827175 1.067153 0.3895669
v -1.022751 1.067153 0.03737754
v 0.3177466 1.067153 0.6072316
v 0.8297709 1.067153 0.3895669
v 1.025347 1.067153 0.03737754
v 0.8297709 1.067153 -0.3148118
v 0.3177466 1.067153 -0.5324768
v -0.3151506 1.067153 -0.5324768
v -0.827175 1.067153 -0.3148118
v -0.2396002 0.9367752 0.4711863
v -0.629382 0.9367752 0.3054841
v -0.7782654 0.9367754 0.03737742
v 0.2421961 0.9367752 0.4711863
v 0.631978 0.9367752 0.3054841
v 0.7808608 0.9367754 0.03737742
v 0.631978 0.9367752 -0.2307292
v 0.2421961 0.9367752 -0.3964311
v -0.2396002 0.9367752 -0.3964311
v -0.629382 0.9367752 -0.2307292
v -0.2395997 0.2709489 -0.3964367
v 0.2421966 0.2709489 -0.3964367
v 0.6319778 0.2709489 -0.2307338
v -0.6293815 0.2709489 -0.2307338
v -0.7782654 0.2709489 0.03737122
v -0.6293815 0.2709489 0.3054758
v -0.2395997 0.2709489 0.4711789
v 0.2421966 0.2709489 0.4711789
v 0.6319778 0.2709489 0.3054758
v 0.7808613 0.2709489 0.03737122

vt 0 0
vt 1.545116 0
vt 0.772558 2.811316
vt 2.50005 -2.000038
vt 2.261316 -3.175633
vt 1.250025 -2.000038
vt 1.636304 -3.902191
vt 0.8637459 -3.902191
vt 0.2387332 -3.175633
vt -2.384186E-07 -2.000038
vt 0.2387332 -0.8244432
vt 0.8637457 -0.09788513
vt 1.636304 -0.09788513
vt 2.261316 -0.8244429
vt 0.4890791 0.424593
vt -0.4693191 0.424593
vt -0.00531837 1.502693
vt -0.5655743 1.502694
vt -0.760441 0.2010039
vt -1.960031 0.2010039
vt -1.155433 1.208748
vt -1.856686 1.208748
vt 1.636304 0.06582031
vt 0.8637457 0.06582031
vt 1.475834 1.240971
vt 1.024216 1.240971
vt 2.099708 -0.6951956
vt 1.14131 -0.6951956
vt 2.195964 0.3829051
vt 1.635708 0.3829046
vt 2.457572 -1.036252
vt 1.257982 -1.036252
vt 2.354227 -0.02850851
vt 1.652974 -0.02850884
vt 1.19959 0
vt 0.8045981 1.007744
vt 0.1033456 1.007744
vt 1.891132 -2.236448
vt 0.9327341 -2.236448
vt 1.396735 -1.158347
vt 0.8364786 -1.158347
vt -0.8637459 -2.623927
vt -1.636304 -2.623927
vt -1.024216 -1.448776
vt -1.475834 -1.448776
vt -2.563123 -1.116661
vt -3.521521 -1.116661
vt -2.466868 -0.03856057
vt -3.027124 -0.03856107
vt -1.960031 -0.2010041
vt -3.159622 -0.2010041
vt -2.063377 0.8067397
vt -2.764629 0.8067396
vt -0.6586334 -0.5158682
vt -0.315982 -0.9591253
vt -0.7454538 -0.7929139
vt -0.4846083 -1.130352
vt -0.1183799 -1.193166
vt 0.001351568 -1.884121
vt -0.2931412 -1.358127
vt -0.2019951 -1.884121
vt -1.475834 -0.5078687
vt -1.024216 -0.5078687
vt -1.421923 -0.7931505
vt -1.078127 -0.7931505
vt -2.028637 -1.207392
vt -1.685985 -0.764136
vt -1.860011 -1.37862
vt -1.599165 -1.041182
vt -2.146232 -2.017403
vt -2.026501 -1.326447
vt -1.942885 -2.017403
vt -1.851739 -1.491408
vt 0.1152086 0
vt 0 0.6917238
vt 0.2906765 0.05780268
vt 0.2029796 0.6903331
vt -1.685987 -3.068732
vt -2.028638 -2.625475
vt -1.599167 -2.791686
vt -1.860016 -2.556436
vt -1.024216 -3.214343
vt -1.475834 -3.214343
vt -1.078127 -2.929061
vt -1.421923 -2.929061
vt -0.1595854 -2.895807
vt -0.4799643 -3.35542
vt -0.3335639 -2.833663
vt -0.577459 -3.085
vt 0.001350678 -2.094361
vt -0.1183808 -2.785316
vt -0.201996 -2.094361
vt -0.2931372 -2.726424
vt -1.421923 0.7653351
vt -1.078127 0.7653351
vt -1.421924 0.1686361
vt -1.078127 0.1686361
vt -2.319505 0.7653339
vt -1.785672 0.7653339
vt -2.319506 0.1686349
vt -1.785673 0.1686348
vt -2.228298 0.7653359
vt -1.801795 0.7653359
vt -2.228298 0.1686369
vt -1.801795 0.1686369
vt 0 0.6413243
vt 0.6314085 0.6673857
vt 0.001764536 0
vt 0.6314083 0.07067853
vt 2.384186E-07 0.5967095
vt 0.6386966 0.596699
vt 0.6386962 0
vt 0.1714263 0.765335
vt 0.5979297 0.765335
vt 0.1714265 0.1686359
vt 0.5979298 0.1686359
vt 1.288134 0.7653346
vt 1.821968 0.7653346
vt 1.288135 0.1686356
vt 1.821968 0.1686357
vt 2.087572 0.7653358
vt 2.726269 0.7653463
vt 2.087573 0.1686368
vt 2.726269 0.1686368
vt 2.41481 0.765346
vt 3.046218 0.7392847
vt 2.41481 0.1686365
vt 3.044453 0.09796289
vt 2.335077 -1.798267
vt 2.383987 -3.174943
vt 1.137341 -2.048523
vt 2.228468 -3.015523
vt 1.999137 -3.883329
vt 1.025935 -2.201147
vt 0.5009122 -3.883329
vt 0.2715814 -3.015523
vt 1.474114 -2.201147
vt 0.116063 -3.174943
vt 0.1649719 -1.798268
vt 1.362709 -2.048523
vt 0.1649716 -2.201808
vt 0.1160632 -0.8251336
vt 1.362709 -1.951554
vt 0.2715814 -0.9845531
vt 0.5009118 -0.1167473
vt 1.474115 -1.798929
vt 1.999138 -0.1167473
vt 2.228468 -0.9845525
vt 1.025935 -1.79893
vt 2.383987 -0.8251328
vt 2.335077 -2.201809
vt 1.137341 -1.951553
vt -0.5655745 0.4245932
vt 0.4318194 1.502693
vt -0.1847045 1.502694
vt -0.8199538 0.1336449
vt -2.022135 0.2312193
vt -1.19573 1.236425
vt -1.898497 1.293465
vt 2.196336 -0.6950936
vt 1.81496 0.3830354
vt 1.198219 0.3828223
vt 2.519675 -1.006037
vt 1.317494 -1.103611
vt 2.396039 0.0562073
vt 1.693273 -0.0008314848
vt 1.140077 -0.06735843
vt -0.06210339 0.03021562
vt 0.7642995 1.035421
vt 0.06153309 1.09246
vt 0.8364785 -2.236448
vt 1.833872 -1.158347
vt 1.217347 -1.158347
vt -2.466868 -1.116662
vt -2.847737 -0.03856063
vt -3.464261 -0.03856063
vt -1.897928 -0.1707885
vt -3.100109 -0.2683629
vt -2.021564 0.8914567
vt -2.724331 0.8344172
vt -0.6177304 -0.5158682
vt -0.2553011 -0.9847102
vt -0.7948259 -0.6761367
vt -0.5189244 -1.033049
vt -0.03702021 -1.199102
vt -0.007361889 -1.900084
vt -0.2990706 -1.342635
vt -0.2764928 -1.876262
vt -2.089318 -1.232978
vt -1.726888 -0.764136
vt -1.825695 -1.281316
vt -1.549793 -0.9244047
vt -2.137518 -2.033365
vt -2.10786 -1.332384
vt -1.868387 -2.009543
vt -1.84581 -1.475916
vt 0.03837216 0.005936384
vt 0.008713841 0.7069184
vt 0.3004221 0.1494687
vt 0.2778449 0.6830957
vt -1.72689 -3.068732
vt -2.089319 -2.59989
vt -1.549794 -2.908463
vt -1.825696 -2.551552
vt -1.475764 -3.21455
vt -1.078196 -2.928881
vt -0.2553077 -2.848156
vt -0.6177378 -3.316998
vt -0.5189309 -2.799818
vt -0.7948331 -3.156728
vt -0.007363081 -2.078398
vt -0.0370214 -2.77938
vt -0.276494 -2.10222
vt -0.2990716 -2.635847
vt 1.078127 0.765281
vt 1.421923 0.765281
vt 1.078127 0.2317598
vt 1.421923 0.2317598
vt -1.230682 0.7652975
vt -0.8041741 0.7652975
vt -1.230685 0.2317765
vt -0.804177 0.2317765
vt 2.434542 0.7653254
vt 2.86105 0.7653254
vt 2.434545 0.2318044
vt 2.861053 0.2318044
vt 2.098096 0.7653377
vt 2.631929 0.7653371
vt 2.098108 0.2318161
vt 2.631938 0.2318156
vt 1.288149 0.2318073
vt 1.82198 0.2318061
vt 0.1714303 0.2317863
vt 0.5979418 0.2317863
vt -1.421923 0.2317836
vt -1.078127 0.2317836
vt -2.22831 0.2318211
vt -1.801799 0.2318211
vt -2.319518 0.2318187
vt -1.785686 0.2318201
vt 8.583069E-06 0.5335211
vt 0.533842 0.5335214
vt 0.533831 -1.192093E-07

vn -0.1074593 0.01093202 -0.9941494
vn -0.144005 0.05323995 -0.9881437
vn 1.240783E-07 -0.01895224 -0.9998204
vn 0 2.032535E-07 1
vn 0.1440057 0.0532402 -0.9881436
vn 0.1074597 0.01093211 -0.9941493
vn 0.05030896 -0.04401197 -0.9977635
vn 0.01500942 -0.05954833 -0.9981126
vn -0.01500941 -0.0595483 -0.9981126
vn -0.05030887 -0.0440119 -0.9977635
vn -0.4045922 0.7628018 -0.5044192
vn -0.7470594 0.3324961 -0.5756289
vn 0 0.8817495 -0.471718
vn 0.4045922 0.7628016 -0.5044194
vn 0.7470592 0.3324961 -0.5756292
vn 0.7470595 -0.3324966 -0.5756285
vn 0.4045923 -0.762802 -0.5044187
vn 0 -0.8817497 -0.4717175
vn -0.4045921 -0.7628018 -0.5044191
vn -0.7470595 -0.332496 -0.5756289
vn 0.2445955 -0.4611495 -0.8529444
vn 0.4136927 -0.1841234 -0.8916035
vn 0 -0.5556351 -0.8314263
vn -0.2445924 -0.4611435 -0.8529486
vn -0.413692 -0.1841226 -0.8916041
vn -0.4582447 0.2039516 -0.8651102
vn -0.437063 0.1788654 -0.8807165
vn -0.4158814 0.1537791 -0.8963228
vn -0.2445955 0.4611488 -0.8529449
vn -0.2474593 0.5826477 -0.7587059
vn -0.2503231 0.7041465 -0.6644668
vn 0 0.5556346 -0.8314266
vn 0.3147113 0.5933424 -0.7408789
vn 0.2448247 0.5427005 -0.7968416
vn 0.1749381 0.4920585 -0.8528042
vn 0.4136918 0.1841228 -0.8916041
vn 0.4397346 0.1781749 -0.8797921
vn 0.4657774 0.1722269 -0.8679801
vn 0 -1 0
vn -0.9135997 -0.4066148 1.938927E-06
vn -0.4685788 -0.8834217 -6.122886E-07
vn -0.409698 0.9122187 -0.00210711
vn -0.4086896 0.9126715 -0.001053555
vn -0.4076813 0.9131243 0
vn -0.9379517 0.3467659 0
vn 0.4685788 -0.8834217 -2.209915E-07
vn 0.9135993 -0.4066159 -1.460718E-06
vn 0.9379506 0.3467691 -2.211785E-07
vn 0.4096217 0.9122555 0
vn 0.4087587 0.9126408 -0.001054488
vn 0.4078957 0.9130262 -0.002108975
vn -0.360135 0.3906547 0.8471669
vn -0.7542439 0.5056537 0.4188443
vn 0 0.3495311 0.9369248
vn 0.3601348 0.390655 0.8471668
vn 0.7542437 0.505654 0.4188442
vn 0.7542439 0.5056535 -0.4188445
vn 0.3601351 0.3906546 -0.8471668
vn 0 0.3495312 -0.9369247
vn -0.3601349 0.3906552 -0.8471667
vn -0.7542439 0.5056539 -0.4188439
vn 0.2520628 0.764778 -0.5929409
vn 0.4552627 0.85371 -0.2528144
vn 0 0.7219847 -0.691909
vn -0.2520599 0.7647844 -0.5929339
vn -0.4552616 0.853711 -0.2528132
vn -0.4552632 0.8537099 0.2528141
vn -0.2520628 0.7647787 0.5929401
vn 0 0.7219856 0.6919082
vn 0.2520601 0.7647845 0.5929338
vn 0.4552616 0.8537107 0.2528138
vn -0.3912299 -8.024322E-06 0.920293
vn 0.39123 -6.145805E-06 0.920293
vn 0.874247 -4.519861E-06 0.4854816
vn 0.874247 6.710527E-06 -0.4854814
vn 0.3912303 1.049585E-05 -0.9202929
vn 0 1.110046E-05 -1
vn -0.3912302 1.167391E-05 -0.9202929
vn -0.8742478 3.893745E-06 -0.4854798
vn -0.8742477 -3.076836E-06 0.48548

usemtl GymWalls
f 6/6/4 5/5/4 4/4/4
f 6/6/4 7/7/4 5/5/4
f 6/6/4 8/8/4 7/7/4
f 6/6/4 9/9/4 8/8/4
f 6/6/4 12/10/4 9/9/4
f 6/6/4 14/11/4 12/10/4
f 6/6/4 16/12/4 14/11/4
f 6/6/4 18/13/4 16/12/4
f 6/6/4 20/14/4 18/13/4
f 6/6/4 4/4/4 20/14/4
f 22/18/11 14/16/11 16/15/11
f 16/15/11 21/17/11 22/18/11
f 23/22/12 12/20/12 14/19/12
f 14/19/12 22/21/12 23/22/12
f 21/26/13 16/24/13 18/23/13
f 18/23/13 24/25/13 21/26/13
f 24/30/14 18/28/14 20/27/14
f 20/27/14 25/29/14 24/30/14
f 25/34/15 20/32/15 4/31/15
f 4/31/15 26/33/15 25/34/15
f 26/37/16 4/1/16 5/35/16
f 5/35/16 27/36/16 26/37/16
f 27/41/17 5/39/17 7/38/17
f 7/38/17 28/40/17 27/41/17
f 28/45/18 7/43/18 8/42/18
f 8/42/18 29/44/18 28/45/18
f 29/49/19 8/47/19 9/46/19
f 9/46/19 30/48/19 29/49/19
f 30/53/20 9/51/20 12/50/20
f 12/50/20 23/52/20 30/53/20
f 32/57/21 22/55/21 21/54/21
f 21/54/21 31/56/21 32/57/21
f 33/61/22 23/59/22 22/58/22
f 22/58/22 32/60/22 33/61/22
f 31/65/23 21/63/23 24/62/23
f 24/62/23 34/64/23 31/65/23
f 34/69/24 24/67/24 25/66/24
f 25/66/24 35/68/24 34/69/24
f 35/73/25 25/71/25 26/70/25
f 26/70/25 36/72/25 35/73/25
f 36/77/28 26/75/27 27/74/26
f 27/74/26 37/76/27 36/77/28
f 37/81/31 27/79/30 28/78/29
f 28/78/29 38/80/30 37/81/31
f 38/85/32 28/83/32 29/82/32
f 29/82/32 39/84/32 38/85/32
f 39/89/35 29/87/34 30/86/33
f 30/86/33 40/88/34 39/89/35
f 40/93/38 30/91/37 23/90/36
f 23/90/36 33/92/37 40/93/38
f 74/218/4 70/216/4 71/215/4
f 71/215/4 73/217/4 74/218/4
f 75/222/72 69/220/72 70/219/72
f 70/219/72 74/221/72 75/222/72
f 73/226/73 71/224/73 72/223/73
f 72/223/73 76/225/73 73/226/73
f 76/230/74 72/228/74 65/227/74
f 65/227/74 77/229/74 76/230/74
f 77/232/75 65/118/75 64/117/75
f 64/117/75 78/231/75 77/232/75
f 78/234/76 64/114/76 63/113/76
f 63/113/76 79/233/76 78/234/76
f 79/236/77 63/95/77 66/94/77
f 66/94/77 80/235/77 79/236/77
f 80/238/78 66/103/78 67/102/78
f 67/102/78 81/237/78 80/238/78
f 81/240/79 67/99/79 68/98/79
f 68/98/79 82/239/79 81/240/79
f 82/243/80 68/242/80 69/241/80
f 69/241/80 75/1/80 82/243/80

usemtl Spell_Trees_Rocks_Mat
f 1/1/1 2/2/2 3/3/3
f 10/1/5 11/2/6 3/3/3
f 11/1/6 13/2/7 3/3/3
f 13/1/7 15/2/8 3/3/3
f 15/1/8 17/2/9 3/3/3
f 17/1/9 19/2/10 3/3/3
f 19/1/10 1/2/1 3/3/3
f 15/97/39 31/95/39 34/94/39
f 34/94/39 17/96/39 15/97/39
f 19/101/40 35/99/40 36/98/40
f 36/98/40 1/100/40 19/101/40
f 17/105/41 34/103/41 35/102/41
f 35/102/41 19/104/41 17/105/41
f 2/109/44 37/107/43 41/106/42
f 41/106/42 3/108/43 2/109/44
f 1/112/45 36/111/45 37/110/45
f 37/110/45 2/1/45 1/112/45
f 13/116/46 32/114/46 31/113/46
f 31/113/46 15/115/46 13/116/46
f 11/120/47 33/118/47 32/117/47
f 32/117/47 13/119/47 11/120/47
f 10/124/48 40/122/48 33/121/48
f 33/121/48 11/123/48 10/124/48
f 3/128/51 41/126/50 40/125/49
f 40/125/49 10/127/50 3/128/51

usemtl GymWalls_1
f 44/131/39 43/130/39 42/129/39
f 44/134/39 45/133/39 43/132/39
f 44/6/39 46/8/39 45/7/39
f 44/137/39 47/136/39 46/135/39
f 44/140/39 48/139/39 47/138/39
f 44/143/39 49/142/39 48/141/39
f 44/146/39 50/145/39 49/144/39
f 44/6/39 51/13/39 50/12/39
f 44/149/39 52/148/39 51/147/39
f 44/152/39 42/151/39 52/150/39
f 54/155/52 49/153/52 50/15/52
f 50/15/52 53/154/52 54/155/52
f 55/159/53 48/157/53 49/156/53
f 49/156/53 54/158/53 55/159/53
f 53/26/54 50/24/54 51/23/54
f 51/23/54 56/25/54 53/26/54
f 56/162/55 51/28/55 52/160/55
f 52/160/55 57/161/55 56/162/55
f 57/166/56 52/164/56 42/163/56
f 42/163/56 58/165/56 57/166/56
f 58/170/57 42/168/57 43/167/57
f 43/167/57 59/169/57 58/170/57
f 59/173/58 43/171/58 45/38/58
f 45/38/58 60/172/58 59/173/58
f 60/45/59 45/43/59 46/42/59
f 46/42/59 61/44/59 60/45/59
f 61/176/60 46/47/60 47/174/60
f 47/174/60 62/175/60 61/176/60
f 62/180/61 47/178/61 48/177/61
f 48/177/61 55/179/61 62/180/61
f 64/184/62 54/182/62 53/181/62
f 53/181/62 63/183/62 64/184/62
f 65/188/63 55/186/63 54/185/63
f 54/185/63 64/187/63 65/188/63
f 63/65/64 53/63/64 56/62/64
f 56/62/64 66/64/64 63/65/64
f 66/192/65 56/190/65 57/189/65
f 57/189/65 67/191/65 66/192/65
f 67/196/66 57/194/66 58/193/66
f 58/193/66 68/195/66 67/196/66
f 68/200/67 58/198/67 59/197/67
f 59/197/67 69/199/67 68/200/67
f 69/204/68 59/202/68 60/201/68
f 60/201/68 70/203/68 69/204/68
f 70/85/69 60/205/69 61/82/69
f 61/82/69 71/206/69 70/85/69
f 71/210/70 61/208/70 62/207/70
f 62/207/70 72/209/70 71/210/70
f 72/214/71 62/212/71 55/211/71
f 55/211/71 65/213/71 72/214/71

