# ProBuilder 5.0.6
# https://unity3d.com/unity/features/worldbuilding/probuilder
# 4/26/2024 2:20:52 PM

mtllib ./WaterTesseract_Group_mesh.mtl
o WaterTesseract_Group mesh

g WaterTesseract_Group
v 1.462892 0.9081357 -0.6833276
v 1.314009 0.9081357 -0.9514341
v 0.6833293 1.047809 -0.6833276
v 0.9242275 0.9081357 -1.117136
v 0.4424311 0.9081357 -1.117136
v 0.05264921 0.9081357 -0.9514341
v -0.09623406 0.9081357 -0.6833276
v 0.05264921 0.9081357 -0.415221
v 0.4424311 0.9081357 -0.2495189
v 0.9242275 0.9081357 -0.2495189
v 1.314009 0.9081357 -0.415221
v 0.9875293 2.46109 -0.3242005
v 0.9294471 2.330588 -0.3242005
v 0.6834062 2.46109 -0.3716102
v 0.9294461 0.9672092 -0.5507777
v 0.7773847 0.9722882 -0.5093043
v 0.6834058 0.96078 -0.6585353
v 0.5894269 0.9722882 -0.5093043
v 0.4373655 0.9672092 -0.5507777
v 0.4373654 2.330588 -0.3242005
v 0.379283 2.46109 -0.3242005
v 0.4373654 2.591591 -0.3242005
v 0.5894271 2.672247 -0.3242005
v 0.7773854 2.672247 -0.3242005
v 0.9294471 2.591591 -0.3242005
v 0.6834058 2.46109 -0.4646571
v 0.4373655 2.330588 -0.417248
v 0.7773854 2.249933 -0.3242005
v 0.7773847 2.249933 -0.417248
v 0.9294461 2.330588 -0.417248
v 0.5894271 2.249933 -0.3242005
v 0.5894269 2.249933 -0.417248
v 0.6834058 2.357172 -0.6585353
v 0.4373655 2.269613 -0.5507777
v 0.7773847 2.200433 -0.5093042
v 0.9294461 2.269613 -0.5507777
v 0.5894269 2.200433 -0.5093042
v 0.6834058 1.822915 -0.6585353
v 0.4373655 1.829345 -0.5507777
v 0.7773847 1.834424 -0.5093043
v 0.9294461 1.829345 -0.5507777
v 0.5894269 1.834424 -0.5093043

vt 0 0
vt 1.545116 0
vt 0.772558 2.811316
vt -0.7322345 0.7619658
vt -1.446514 0.780324
vt -0.6456394 1.081913
vt -1.359919 1.100274
vt 1.230676 0.7653247
vt 0.8041735 0.7653247
vt 1.23068 0.9849806
vt 0.8041768 0.9849806
vt 3.076899 0.7803302
vt 2.36262 0.7619717
vt 2.990301 1.10028
vt 2.276025 1.081919
vt -1.078127 0.765339
vt -1.421923 0.765339
vt -1.078126 0.9849949
vt -1.421922 0.9849949
vt -2.434466 0.7653348
vt -2.861045 0.7651875
vt -2.434543 0.9851381
vt -2.861121 0.9849907
vt -0.9470029 1.867253
vt -1.75771 1.929967
vt -0.9895144 2.468196
vt -1.768683 2.337305
vt 1.301235 2.347581
vt 0.8041778 2.347581
vt 1.381116 2.591805
vt 0.9025788 2.699978
vt 3.218493 1.013319
vt 2.406309 0.9467993
vt 3.226575 1.420157
vt 2.44428 1.546665
vt -1.078127 2.646783
vt -1.421922 2.646783
vt -1.078127 2.941066
vt -1.421922 2.941066
vt -2.434543 1.347859
vt -2.931599 1.347859
vt -2.532944 1.701095
vt -3.01148 1.592476
vt -1.819395 -2.335687
vt -0.7990656 -3.05424
vt -2.502283 -4.231433
vt -1.361816 -4.616479
vt 1.265541 -3.283543
vt 2.013034 -2.719659
vt 1.755952 -4.562802
vt 2.602943 -4.258464
vt -1.377353 -3.054238
vt -0.3570242 -2.335686
vt -0.8146024 -4.616478
vt 0.3258626 -4.231433
vt 1.078127 -3.044963
vt 1.421922 -3.044963
vt 1.078127 -4.512226
vt 1.421922 -4.512226
vt 0.3451818 -2.719657
vt 1.092677 -3.283543
vt -0.2447281 -4.258466
vt 0.6022647 -4.562804
vt -1.959812 -4.577585
vt -1.336238 -4.532585
vt -1.853193 -8.014494
vt -1.229619 -7.969497
vt 0.1890761 -4.549194
vt 0.6177534 -4.512223
vt 0.3228877 -7.988722
vt 0.751565 -7.951751
vt 1.078127 -7.968361
vt 1.421922 -7.968361
vt 1.740459 -4.512223
vt 2.169136 -4.549194
vt 1.606647 -7.951751
vt 2.035325 -7.988722
vt -0.8401805 -4.532585
vt -0.216607 -4.577585
vt -0.9467999 -7.969497
vt -0.3232262 -8.014494

vn 0.2764151 1.223468 0
vn 0.2243544 1.228526 -0.03734874
vn 3.392672E-08 1.247985 0
vn 0.08615001 1.236807 -0.06075354
vn -0.08614999 1.236807 -0.06075354
vn -0.2243544 1.228526 -0.03734876
vn -0.2764149 1.223468 0
vn -0.2243544 1.228526 0.03734876
vn -0.08614999 1.236807 0.06075354
vn 0.08615001 1.236807 0.06075354
vn 0.2243544 1.228526 0.03734874
vn 0.5495504 0 -0.4714323
vn 0.5430305 -0.1916667 -0.4658393
vn 6.507773E-09 0.2462399 -0.5024052
vn -0.01659982 -1.24716 0.01761631
vn -0.008300065 -1.247283 0.01691893
vn 0 -1.247286 0.017152
vn 0.008300065 -1.247283 0.01691893
vn 0.01659982 -1.24716 0.01761631
vn -0.5430304 -0.1916673 -0.4658393
vn -0.5495504 0 -0.4714323
vn -0.4401449 0.3447558 -0.4654951
vn -0.1654289 0.5490537 -0.4562244
vn 0.1654288 0.5490536 -0.4562244
vn 0.4401448 0.3447555 -0.4654952
vn -0.7171221 1.07221 3.443683E-07
vn 0.717132 -1.072205 -6.887411E-07
vn 0.7171233 1.07221 -1.033099E-06
vn 0 -1.247985 0
vn -0.717132 -1.072205 -1.721853E-07
vn -0.7997454 1.000857 -0.09046196
vn -0.7662947 1.02319 -0.08548554
vn -0.7328439 1.045523 -0.08050912
vn 0.7045669 -1.053416 0.09551754
vn 0.7298237 -1.043373 0.08754387
vn 0.7550804 -1.03333 0.07957021
vn 0.7900143 1.013124 -0.07801426
vn 0.7759384 1.018046 -0.08523733
vn 0.7618625 1.022968 -0.09246039
vn 0 -1.21863 0.1104982
vn -0.7080038 -1.058555 0.08151259
vn -0.7398421 -1.037895 0.08687472
vn -0.7716805 -1.017235 0.09223685
vn -1.075717 0 -0.3284625
vn 0.837835 -4.066271E-07 0.4108059
vn 1.075717 0 -0.3284625
vn 0 -5.07267E-07 0.51248
vn -0.8378348 0 0.4108059

usemtl GymWalls

usemtl Spell_Trees_Rocks_Mat
f 1/1/1 2/2/2 3/3/3
f 2/1/2 4/2/4 3/3/3
f 4/1/4 5/2/5 3/3/3
f 5/1/5 6/2/6 3/3/3
f 6/1/6 7/2/7 3/3/3
f 7/1/7 8/2/8 3/3/3
f 8/1/8 9/2/9 3/3/3
f 9/1/9 10/2/10 3/3/3
f 10/1/10 11/2/11 3/3/3
f 11/1/11 1/2/1 3/3/3
f 12/1/12 13/2/13 14/3/14
f 15/1/15 16/2/16 17/3/17
f 16/1/16 18/2/18 17/3/17
f 18/1/18 19/2/19 17/3/17
f 20/1/20 21/2/21 14/3/14
f 21/1/21 22/2/22 14/3/14
f 22/1/22 23/2/23 14/3/14
f 23/1/23 24/2/24 14/3/14
f 24/1/24 25/2/25 14/3/14
f 25/1/25 12/2/12 14/3/14
f 27/7/26 20/5/26 14/4/26
f 14/4/26 26/6/26 27/7/26
f 30/11/27 13/9/27 28/8/27
f 28/8/27 29/10/27 30/11/27
f 26/15/28 14/13/28 13/12/28
f 13/12/28 30/14/28 26/15/28
f 29/19/29 28/17/29 31/16/29
f 31/16/29 32/18/29 29/19/29
f 32/23/30 31/21/30 20/20/30
f 20/20/30 27/22/30 32/23/30
f 34/27/33 27/25/32 26/24/31
f 26/24/31 33/26/32 34/27/33
f 36/31/36 30/29/35 29/28/34
f 29/28/34 35/30/35 36/31/36
f 33/35/39 26/33/38 30/32/37
f 30/32/37 36/34/38 33/35/39
f 35/39/40 29/37/40 32/36/40
f 32/36/40 37/38/40 35/39/40
f 37/43/43 32/41/42 27/40/41
f 27/40/41 34/42/42 37/43/43
f 39/47/44 34/45/44 33/44/44
f 33/44/44 38/46/44 39/47/44
f 41/51/45 36/49/45 35/48/45
f 35/48/45 40/50/45 41/51/45
f 38/55/46 33/53/46 36/52/46
f 36/52/46 41/54/46 38/55/46
f 40/59/47 35/57/47 37/56/47
f 37/56/47 42/58/47 40/59/47
f 42/63/48 37/61/48 34/60/48
f 34/60/48 39/62/48 42/63/48
f 19/67/44 39/65/44 38/64/44
f 38/64/44 17/66/44 19/67/44
f 18/71/48 42/69/48 39/68/48
f 39/68/48 19/70/48 18/71/48
f 16/73/47 40/59/47 42/58/47
f 42/58/47 18/72/47 16/73/47
f 15/77/45 41/75/45 40/74/45
f 40/74/45 16/76/45 15/77/45
f 17/81/46 38/79/46 41/78/46
f 41/78/46 15/80/46 17/81/46

