# ProBuilder 5.0.6
# https://unity3d.com/unity/features/worldbuilding/probuilder
# 5/13/2024 7:29:08 AM

mtllib ./WaterTesseract_Node_Full.mtl
o WaterTesseract_Node_Full

g WaterTesseract_Node_Full
v 0.7313478 0.9461275 0.03702056
v 0.5824649 0.9461275 -0.231086
v -0.04821503 1.085801 0.03702056
v 0.1926831 0.9461275 -0.396788
v -0.2891133 0.9461275 -0.396788
v -0.6788951 0.9461275 -0.231086
v -0.8277785 0.9461275 0.03702056
v -0.6788951 0.9461275 0.3051271
v -0.2891133 0.9461275 0.4708292
v 0.1926831 0.9461275 0.4708292
v 0.5824649 0.9461275 0.3051271
v 0.255985 2.499081 0.3961476
v 0.1979028 2.36858 0.3961476
v -0.04813826 2.499081 0.3487379
v 0.1979017 1.005201 0.1695704
v 0.04584026 1.01028 0.2110438
v -0.04813862 0.9987718 0.06181288
v -0.1421174 1.01028 0.2110438
v -0.2941788 1.005201 0.1695704
v -0.2941791 2.36858 0.3961476
v -0.3522614 2.499081 0.3961476
v -0.2941791 2.629583 0.3961476
v -0.1421173 2.710238 0.3961476
v 0.04584098 2.710238 0.3961476
v 0.1979028 2.629583 0.3961476
v -0.04813862 2.499081 0.2556911
v -0.2941788 2.36858 0.3031001
v 0.04584098 2.287924 0.3961476
v 0.04584026 2.287924 0.3031001
v 0.1979017 2.36858 0.3031001
v -0.1421173 2.287924 0.3961476
v -0.1421174 2.287924 0.3031001
v -0.04813862 2.395164 0.06181288
v -0.2941788 2.307605 0.1695704
v 0.04584026 2.238425 0.2110439
v 0.1979017 2.307605 0.1695704
v -0.1421174 2.238425 0.2110439
v -0.04813862 1.860907 0.06181288
v -0.2941788 1.867336 0.1695704
v 0.04584026 1.872416 0.2110438
v 0.1979017 1.867336 0.1695704
v -0.1421174 1.872416 0.2110438
v 0.2375299 2.501089 0.6435646
v 0.1794473 2.343986 0.6435646
v -0.066594 2.234136 0.6735023
v 0.6168126 2.501089 0.715
v 0.4862936 2.207837 0.7150001
v -0.06659377 2.501089 0.715
v 0.1445904 2.026596 0.7150001
v -0.2777779 2.026596 0.7150001
v -0.6194812 2.207837 0.7150001
v -0.3126343 2.343986 0.6435646
v -0.3707169 2.501089 0.6435646
v -0.7500001 2.50109 0.715
v -0.3126343 2.631591 0.6435646
v -0.6194812 2.794342 0.715
v -0.1605728 2.712246 0.6435646
v -0.277778 2.975583 0.715
v 0.02738589 2.712246 0.6435646
v 0.1445904 2.975583 0.715
v 0.1794473 2.631591 0.6435646
v 0.4862936 2.794342 0.715
v -0.1900467 2.778467 0.346545
v -0.3897976 2.672518 0.346545
v -0.4660958 2.501089 0.346545
v 0.05685925 2.778467 0.346545
v 0.2566102 2.672518 0.346545
v 0.3329082 2.501089 0.346545
v 0.2566102 2.329661 0.346545
v 0.05685925 2.223712 0.3465451
v -0.1900467 2.223712 0.3465451
v -0.3897976 2.329661 0.346545
v -0.1605729 2.712246 0.3907995
v -0.3126346 2.631591 0.3907995
v -0.370717 2.501089 0.3907995
v 0.02738547 2.712246 0.3907995
v 0.1794472 2.631591 0.3907995
v 0.2375293 2.501089 0.3907995
v 0.1794473 2.343986 0.390795
v 0.02738547 2.289932 0.3907995
v -0.1605729 2.289932 0.3907995
v -0.3126343 2.343986 0.390795
v -0.066594 2.233509 0.4018348
v 1.753083 -0.01835251 0.03737742
v 1.418522 -0.01835275 -0.5650916
v 0.001297832 -0.01835251 0.03737742
v 0.5426292 -0.01835275 -0.9374381
v -0.5400335 -0.01835275 -0.9374381
v -1.415926 -0.01835275 -0.5650916
v -1.750487 -0.01835275 0.03737766
v -1.415926 -0.01835275 0.6398464
v -0.5400337 -0.01835275 1.012193
v 0.5426295 -0.01835275 1.012193
v 1.418522 -0.01835275 0.6398467
v -0.3151506 1.067153 0.6072316
v -0.827175 1.067153 0.3895669
v -1.022751 1.067153 0.03737754
v 0.3177466 1.067153 0.6072316
v 0.8297709 1.067153 0.3895669
v 1.025347 1.067153 0.03737754
v 0.8297709 1.067153 -0.3148118
v 0.3177466 1.067153 -0.5324768
v -0.3151506 1.067153 -0.5324768
v -0.827175 1.067153 -0.3148118
v -0.2396002 0.9367752 0.4711863
v -0.629382 0.9367752 0.3054841
v -0.7782654 0.9367754 0.03737742
v 0.2421961 0.9367752 0.4711863
v 0.631978 0.9367752 0.3054841
v 0.7808608 0.9367754 0.03737742
v 0.631978 0.9367752 -0.2307292
v 0.2421961 0.9367752 -0.3964311
v -0.2396002 0.9367752 -0.3964311
v -0.629382 0.9367752 -0.2307292
v -0.2395997 0.2709489 -0.3964367
v 0.2421966 0.2709489 -0.3964367
v 0.6319778 0.2709489 -0.2307338
v -0.6293815 0.2709489 -0.2307338
v -0.7782654 0.2709489 0.03737122
v -0.6293815 0.2709489 0.3054758
v -0.2395997 0.2709489 0.4711789
v 0.2421966 0.2709489 0.4711789
v 0.6319778 0.2709489 0.3054758
v 0.7808613 0.2709489 0.03737122

vt 0 0
vt 1.545116 0
vt 0.772558 2.811316
vt -0.7322345 0.7619658
vt -1.446514 0.780324
vt -0.6456394 1.081913
vt -1.359919 1.100274
vt 1.230676 0.7653247
vt 0.8041735 0.7653247
vt 1.23068 0.9849806
vt 0.8041768 0.9849806
vt 3.076899 0.7803302
vt 2.36262 0.7619717
vt 2.990301 1.10028
vt 2.276025 1.081919
vt -1.078127 0.765339
vt -1.421923 0.765339
vt -1.078126 0.9849949
vt -1.421922 0.9849949
vt -2.434466 0.7653348
vt -2.861045 0.7651875
vt -2.434543 0.9851381
vt -2.861121 0.9849907
vt -0.9470029 1.867253
vt -1.75771 1.929967
vt -0.9895144 2.468196
vt -1.768683 2.337305
vt 1.301235 2.347581
vt 0.8041778 2.347581
vt 1.381116 2.591805
vt 0.9025788 2.699978
vt 3.218493 1.013319
vt 2.406309 0.9467993
vt 3.226575 1.420157
vt 2.44428 1.546665
vt -1.078127 2.646783
vt -1.421922 2.646783
vt -1.078127 2.941066
vt -1.421922 2.941066
vt -2.434543 1.347859
vt -2.931599 1.347859
vt -2.532944 1.701095
vt -3.01148 1.592476
vt -1.819395 -2.335687
vt -0.7990656 -3.05424
vt -2.502283 -4.231433
vt -1.361816 -4.616479
vt 1.265541 -3.283543
vt 2.013034 -2.719659
vt 1.755952 -4.562802
vt 2.602943 -4.258464
vt -1.377353 -3.054238
vt -0.3570242 -2.335686
vt -0.8146024 -4.616478
vt 0.3258626 -4.231433
vt 1.078127 -3.044963
vt 1.421922 -3.044963
vt 1.078127 -4.512226
vt 1.421922 -4.512226
vt 0.3451818 -2.719657
vt 1.092677 -3.283543
vt -0.2447281 -4.258466
vt 0.6022647 -4.562804
vt -1.959812 -4.577585
vt -1.336238 -4.532585
vt -1.853193 -8.014494
vt -1.229619 -7.969497
vt 0.1890761 -4.549194
vt 0.6177534 -4.512223
vt 0.3228877 -7.988722
vt 0.751565 -7.951751
vt 1.078127 -7.968361
vt 1.421922 -7.968361
vt 1.740459 -4.512223
vt 2.169136 -4.549194
vt 1.606647 -7.951751
vt 2.035325 -7.988722
vt -0.8401805 -4.532585
vt -0.216607 -4.577585
vt -0.9467999 -7.969497
vt -0.3232262 -8.014494
vt 2.50005 -2.000038
vt 2.261316 -3.175633
vt 1.250025 -2.000038
vt 1.636304 -3.902191
vt 0.8637459 -3.902191
vt 0.2387332 -3.175633
vt -2.384186E-07 -2.000038
vt 0.2387332 -0.8244432
vt 0.8637457 -0.09788513
vt 1.636304 -0.09788513
vt 2.261316 -0.8244429
vt 0.4890791 0.424593
vt -0.4693191 0.424593
vt -0.00531837 1.502693
vt -0.5655743 1.502694
vt -0.760441 0.2010039
vt -1.960031 0.2010039
vt -1.155433 1.208748
vt -1.856686 1.208748
vt 1.636304 0.06582031
vt 0.8637457 0.06582031
vt 1.475834 1.240971
vt 1.024216 1.240971
vt 2.099708 -0.6951956
vt 1.14131 -0.6951956
vt 2.195964 0.3829051
vt 1.635708 0.3829046
vt 2.457572 -1.036252
vt 1.257982 -1.036252
vt 2.354227 -0.02850851
vt 1.652974 -0.02850884
vt 1.19959 0
vt 0.8045981 1.007744
vt 0.1033456 1.007744
vt 1.891132 -2.236448
vt 0.9327341 -2.236448
vt 1.396735 -1.158347
vt 0.8364786 -1.158347
vt -0.8637459 -2.623927
vt -1.636304 -2.623927
vt -1.024216 -1.448776
vt -1.475834 -1.448776
vt -2.563123 -1.116661
vt -3.521521 -1.116661
vt -2.466868 -0.03856057
vt -3.027124 -0.03856107
vt -1.960031 -0.2010041
vt -3.159622 -0.2010041
vt -2.063377 0.8067397
vt -2.764629 0.8067396
vt -0.6586334 -0.5158682
vt -0.315982 -0.9591253
vt -0.7454538 -0.7929139
vt -0.4846083 -1.130352
vt -0.1183799 -1.193166
vt 0.001351568 -1.884121
vt -0.2931412 -1.358127
vt -0.2019951 -1.884121
vt -1.475834 -0.5078687
vt -1.024216 -0.5078687
vt -1.421923 -0.7931505
vt -1.078127 -0.7931505
vt -2.028637 -1.207392
vt -1.685985 -0.764136
vt -1.860011 -1.37862
vt -1.599165 -1.041182
vt -2.146232 -2.017403
vt -2.026501 -1.326447
vt -1.942885 -2.017403
vt -1.851739 -1.491408
vt 0.1152086 0
vt 0 0.6917238
vt 0.2906765 0.05780268
vt 0.2029796 0.6903331
vt -1.685987 -3.068732
vt -2.028638 -2.625475
vt -1.599167 -2.791686
vt -1.860016 -2.556436
vt -1.024216 -3.214343
vt -1.475834 -3.214343
vt -1.078127 -2.929061
vt -1.421923 -2.929061
vt -0.1595854 -2.895807
vt -0.4799643 -3.35542
vt -0.3335639 -2.833663
vt -0.577459 -3.085
vt 0.001350678 -2.094361
vt -0.1183808 -2.785316
vt -0.201996 -2.094361
vt -0.2931372 -2.726424
vt -1.421924 0.1686361
vt -1.078127 0.1686361
vt -2.319505 0.7653339
vt -1.785672 0.7653339
vt -2.319506 0.1686349
vt -1.785673 0.1686348
vt -2.228298 0.7653359
vt -1.801795 0.7653359
vt -2.228298 0.1686369
vt -1.801795 0.1686369
vt 0 0.6413243
vt 0.6314085 0.6673857
vt 0.001764536 0
vt 0.6314083 0.07067853
vt 2.384186E-07 0.5967095
vt 0.6386966 0.596699
vt 0.6386962 0
vt 0.1714263 0.765335
vt 0.5979297 0.765335
vt 0.1714265 0.1686359
vt 0.5979298 0.1686359
vt 1.288134 0.7653346
vt 1.821968 0.7653346
vt 1.288135 0.1686356
vt 1.821968 0.1686357
vt 2.087572 0.7653358
vt 2.726269 0.7653463
vt 2.087573 0.1686368
vt 2.726269 0.1686368
vt 2.41481 0.765346
vt 3.046218 0.7392847
vt 2.41481 0.1686365
vt 3.044453 0.09796289
vt 2.335077 -1.798267
vt 2.383987 -3.174943
vt 1.137341 -2.048523
vt 2.228468 -3.015523
vt 1.999137 -3.883329
vt 1.025935 -2.201147
vt 0.5009122 -3.883329
vt 0.2715814 -3.015523
vt 1.474114 -2.201147
vt 0.116063 -3.174943
vt 0.1649719 -1.798268
vt 1.362709 -2.048523
vt 0.1649716 -2.201808
vt 0.1160632 -0.8251336
vt 1.362709 -1.951554
vt 0.2715814 -0.9845531
vt 0.5009118 -0.1167473
vt 1.474115 -1.798929
vt 1.999138 -0.1167473
vt 2.228468 -0.9845525
vt 1.025935 -1.79893
vt 2.383987 -0.8251328
vt 2.335077 -2.201809
vt 1.137341 -1.951553
vt -0.5655745 0.4245932
vt 0.4318194 1.502693
vt -0.1847045 1.502694
vt -0.8199538 0.1336449
vt -2.022135 0.2312193
vt -1.19573 1.236425
vt -1.898497 1.293465
vt 2.196336 -0.6950936
vt 1.81496 0.3830354
vt 1.198219 0.3828223
vt 2.519675 -1.006037
vt 1.317494 -1.103611
vt 2.396039 0.0562073
vt 1.693273 -0.0008314848
vt 1.140077 -0.06735843
vt -0.06210339 0.03021562
vt 0.7642995 1.035421
vt 0.06153309 1.09246
vt 0.8364785 -2.236448
vt 1.833872 -1.158347
vt 1.217347 -1.158347
vt -2.466868 -1.116662
vt -2.847737 -0.03856063
vt -3.464261 -0.03856063
vt -1.897928 -0.1707885
vt -3.100109 -0.2683629
vt -2.021564 0.8914567
vt -2.724331 0.8344172
vt -0.6177304 -0.5158682
vt -0.2553011 -0.9847102
vt -0.7948259 -0.6761367
vt -0.5189244 -1.033049
vt -0.03702021 -1.199102
vt -0.007361889 -1.900084
vt -0.2990706 -1.342635
vt -0.2764928 -1.876262
vt -2.089318 -1.232978
vt -1.726888 -0.764136
vt -1.825695 -1.281316
vt -1.549793 -0.9244047
vt -2.137518 -2.033365
vt -2.10786 -1.332384
vt -1.868387 -2.009543
vt -1.84581 -1.475916
vt 0.03837216 0.005936384
vt 0.008713841 0.7069184
vt 0.3004221 0.1494687
vt 0.2778449 0.6830957
vt -1.72689 -3.068732
vt -2.089319 -2.59989
vt -1.549794 -2.908463
vt -1.825696 -2.551552
vt -1.475764 -3.21455
vt -1.078196 -2.928881
vt -0.2553077 -2.848156
vt -0.6177378 -3.316998
vt -0.5189309 -2.799818
vt -0.7948331 -3.156728
vt -0.007363081 -2.078398
vt -0.0370214 -2.77938
vt -0.276494 -2.10222
vt -0.2990716 -2.635847
vt 1.078127 0.765281
vt 1.421923 0.765281
vt 1.078127 0.2317598
vt 1.421923 0.2317598
vt -1.230682 0.7652975
vt -0.8041741 0.7652975
vt -1.230685 0.2317765
vt -0.804177 0.2317765
vt 2.434542 0.7653254
vt 2.86105 0.7653254
vt 2.434545 0.2318044
vt 2.861053 0.2318044
vt 2.098096 0.7653377
vt 2.631929 0.7653371
vt 2.098108 0.2318161
vt 2.631938 0.2318156
vt 1.288149 0.2318073
vt 1.82198 0.2318061
vt 0.1714303 0.2317863
vt 0.5979418 0.2317863
vt -1.421923 0.2317836
vt -1.078127 0.2317836
vt -2.22831 0.2318211
vt -1.801799 0.2318211
vt -2.319518 0.2318187
vt -1.785686 0.2318201
vt 8.583069E-06 0.5335211
vt 0.533842 0.5335214
vt 0.533831 -1.192093E-07

vn 0.1763609 0.9843256 0
vn 0.1415401 0.9743998 -0.1746751
vn 3.081581E-08 1 -2.542304E-08
vn 0.05337133 0.9587882 -0.2790642
vn -0.05337133 0.9587882 -0.2790642
vn -0.14154 0.9743998 -0.1746752
vn -0.1763608 0.9843256 0
vn -0.14154 0.9743998 0.1746752
vn -0.05337133 0.9587882 0.2790641
vn 0.05337134 0.9587882 0.2790641
vn 0.1415401 0.9743998 0.1746751
vn 0.1540294 -5.974454E-08 -0.9880663
vn 0.1536688 -0.06839339 -0.9857526
vn -2.590859E-08 0.08329967 -0.9965245
vn -0.01051842 -0.996455 0.08346792
vn -0.005259312 -0.9967665 0.08018
vn 6.209076E-10 -0.9966915 0.08127834
vn 0.005259313 -0.9967665 0.08018
vn 0.01051842 -0.996455 0.08346792
vn -0.1536688 -0.06839356 -0.9857526
vn -0.1540295 -6.347857E-08 -0.9880663
vn -0.124262 0.1233974 -0.9845467
vn -0.04724855 0.1987592 -0.9789087
vn 0.04724853 0.1987592 -0.9789088
vn 0.124262 0.1233972 -0.9845467
vn -0.4685726 0.883425 1.800971E-06
vn 0.4685796 -0.8834213 -3.601969E-06
vn 0.4685733 0.8834246 -5.402882E-06
vn 0 -1 0
vn -0.4685796 -0.8834213 -1.200656E-06
vn -0.4876171 0.7694938 -0.4124424
vn -0.4694279 0.7906327 -0.3915659
vn -0.4512387 0.8117716 -0.3706894
vn 0.4232542 -0.7979668 0.4290744
vn 0.4447836 -0.801329 0.3982653
vn 0.466313 -0.8046913 0.3674562
vn 0.4902754 0.7928184 -0.3620345
vn 0.4760097 0.7873062 -0.3905349
vn 0.4617441 0.781794 -0.4190352
vn 0 -0.8807474 0.4735864
vn -0.4345535 -0.8192695 0.3741132
vn -0.4513755 -0.7987595 0.3962927
vn -0.4681974 -0.7782494 0.4184722
vn -0.4011781 0 -0.9160001
vn 0.2631301 -1.571113E-07 0.9647604
vn 0.4011779 0 -0.9160001
vn 0 -1.628501E-07 1
vn -0.2631301 0 0.9647604
vn -0.1074593 0.01093202 -0.9941494
vn -0.144005 0.05323995 -0.9881437
vn 1.240783E-07 -0.01895224 -0.9998204
vn 0.1440057 0.0532402 -0.9881436
vn 0.1074597 0.01093211 -0.9941493
vn 0.05030896 -0.04401197 -0.9977635
vn 0.01500942 -0.05954833 -0.9981126
vn -0.01500941 -0.0595483 -0.9981126
vn -0.05030887 -0.0440119 -0.9977635
vn -0.4045922 0.7628018 -0.5044192
vn -0.7470594 0.3324961 -0.5756289
vn 0 0.8817495 -0.471718
vn 0.4045922 0.7628016 -0.5044194
vn 0.7470592 0.3324961 -0.5756292
vn 0.7470595 -0.3324966 -0.5756285
vn 0.4045923 -0.762802 -0.5044187
vn 0 -0.8817497 -0.4717175
vn -0.4045921 -0.7628018 -0.5044191
vn -0.7470595 -0.332496 -0.5756289
vn 0.2445955 -0.4611495 -0.8529444
vn 0.4136927 -0.1841234 -0.8916035
vn 0 -0.5556351 -0.8314263
vn -0.2445924 -0.4611435 -0.8529486
vn -0.413692 -0.1841226 -0.8916041
vn -0.4582447 0.2039516 -0.8651102
vn -0.437063 0.1788654 -0.8807165
vn -0.4158814 0.1537791 -0.8963228
vn -0.2445955 0.4611488 -0.8529449
vn -0.2474593 0.5826477 -0.7587059
vn -0.2503231 0.7041465 -0.6644668
vn 0 0.5556346 -0.8314266
vn 0.3147113 0.5933424 -0.7408789
vn 0.2448247 0.5427005 -0.7968416
vn 0.1749381 0.4920585 -0.8528042
vn 0.4136918 0.1841228 -0.8916041
vn 0.4397346 0.1781749 -0.8797921
vn 0.4657774 0.1722269 -0.8679801
vn -0.9135997 -0.4066148 1.938927E-06
vn -0.409698 0.9122187 -0.00210711
vn -0.4086896 0.9126715 -0.001053555
vn -0.4076813 0.9131243 0
vn -0.9379517 0.3467659 0
vn 0.9135993 -0.4066159 -1.460718E-06
vn 0.9379506 0.3467691 -2.211785E-07
vn 0.4096217 0.9122555 0
vn 0.4087587 0.9126408 -0.001054488
vn 0.4078957 0.9130262 -0.002108975
vn -0.360135 0.3906547 0.8471669
vn -0.7542439 0.5056537 0.4188443
vn 0 0.3495311 0.9369248
vn 0.3601348 0.390655 0.8471668
vn 0.7542437 0.505654 0.4188442
vn 0.7542439 0.5056535 -0.4188445
vn 0.3601351 0.3906546 -0.8471668
vn 0 0.3495312 -0.9369247
vn -0.3601349 0.3906552 -0.8471667
vn -0.7542439 0.5056539 -0.4188439
vn 0.2520628 0.764778 -0.5929409
vn 0.4552627 0.85371 -0.2528144
vn 0 0.7219847 -0.691909
vn -0.2520599 0.7647844 -0.5929339
vn -0.4552616 0.853711 -0.2528132
vn -0.4552632 0.8537099 0.2528141
vn -0.2520628 0.7647787 0.5929401
vn 0 0.7219856 0.6919082
vn 0.2520601 0.7647845 0.5929338
vn 0.4552616 0.8537107 0.2528138
vn -0.3912299 -8.024322E-06 0.920293
vn 0.39123 -6.145805E-06 0.920293
vn 0.874247 -4.519861E-06 0.4854816
vn 0.874247 6.710527E-06 -0.4854814
vn 0.3912303 1.049585E-05 -0.9202929
vn 0 1.110046E-05 -1
vn -0.3912302 1.167391E-05 -0.9202929
vn -0.8742478 3.893745E-06 -0.4854798
vn -0.8742477 -3.076836E-06 0.48548

usemtl GymWalls
f 48/84/47 47/83/47 46/82/47
f 48/84/47 49/85/47 47/83/47
f 48/84/47 50/86/47 49/85/47
f 48/84/47 51/87/47 50/86/47
f 48/84/47 54/88/47 51/87/47
f 48/84/47 56/89/47 54/88/47
f 48/84/47 58/90/47 56/89/47
f 48/84/47 60/91/47 58/90/47
f 48/84/47 62/92/47 60/91/47
f 48/84/47 46/82/47 62/92/47
f 64/96/58 56/94/58 58/93/58
f 58/93/58 63/95/58 64/96/58
f 65/100/59 54/98/59 56/97/59
f 56/97/59 64/99/59 65/100/59
f 63/104/60 58/102/60 60/101/60
f 60/101/60 66/103/60 63/104/60
f 66/108/61 60/106/61 62/105/61
f 62/105/61 67/107/61 66/108/61
f 67/112/62 62/110/62 46/109/62
f 46/109/62 68/111/62 67/112/62
f 68/115/63 46/1/63 47/113/63
f 47/113/63 69/114/63 68/115/63
f 69/119/64 47/117/64 49/116/64
f 49/116/64 70/118/64 69/119/64
f 70/123/65 49/121/65 50/120/65
f 50/120/65 71/122/65 70/123/65
f 71/127/66 50/125/66 51/124/66
f 51/124/66 72/126/66 71/127/66
f 72/131/67 51/129/67 54/128/67
f 54/128/67 65/130/67 72/131/67
f 74/135/68 64/133/68 63/132/68
f 63/132/68 73/134/68 74/135/68
f 75/139/69 65/137/69 64/136/69
f 64/136/69 74/138/69 75/139/69
f 73/143/70 63/141/70 66/140/70
f 66/140/70 76/142/70 73/143/70
f 76/147/71 66/145/71 67/144/71
f 67/144/71 77/146/71 76/147/71
f 77/151/72 67/149/72 68/148/72
f 68/148/72 78/150/72 77/151/72
f 78/155/75 68/153/74 69/152/73
f 69/152/73 79/154/74 78/155/75
f 79/159/78 69/157/77 70/156/76
f 70/156/76 80/158/77 79/159/78
f 80/163/79 70/161/79 71/160/79
f 71/160/79 81/162/79 80/163/79
f 81/167/82 71/165/81 72/164/80
f 72/164/80 82/166/81 81/167/82
f 82/171/85 72/169/84 65/168/83
f 65/168/83 75/170/84 82/171/85
f 116/294/47 112/292/47 113/291/47
f 113/291/47 115/293/47 116/294/47
f 117/298/116 111/296/116 112/295/116
f 112/295/116 116/297/116 117/298/116
f 115/302/117 113/300/117 114/299/117
f 114/299/117 118/301/117 115/302/117
f 118/306/118 114/304/118 107/303/118
f 107/303/118 119/305/118 118/306/118
f 119/308/119 107/194/119 106/193/119
f 106/193/119 120/307/119 119/308/119
f 120/310/120 106/190/120 105/189/120
f 105/189/120 121/309/120 120/310/120
f 121/312/121 105/16/121 108/17/121
f 108/17/121 122/311/121 121/312/121
f 122/314/122 108/179/122 109/178/122
f 109/178/122 123/313/122 122/314/122
f 123/316/123 109/175/123 110/174/123
f 110/174/123 124/315/123 123/316/123
f 124/319/124 110/318/124 111/317/124
f 111/317/124 117/1/124 124/319/124

usemtl Spell_Trees_Rocks_Mat
f 1/1/1 2/2/2 3/3/3
f 2/1/2 4/2/4 3/3/3
f 4/1/4 5/2/5 3/3/3
f 5/1/5 6/2/6 3/3/3
f 6/1/6 7/2/7 3/3/3
f 7/1/7 8/2/8 3/3/3
f 8/1/8 9/2/9 3/3/3
f 9/1/9 10/2/10 3/3/3
f 10/1/10 11/2/11 3/3/3
f 11/1/11 1/2/1 3/3/3
f 12/1/12 13/2/13 14/3/14
f 15/1/15 16/2/16 17/3/17
f 16/1/16 18/2/18 17/3/17
f 18/1/18 19/2/19 17/3/17
f 20/1/20 21/2/21 14/3/14
f 21/1/21 22/2/22 14/3/14
f 22/1/22 23/2/23 14/3/14
f 23/1/23 24/2/24 14/3/14
f 24/1/24 25/2/25 14/3/14
f 25/1/25 12/2/12 14/3/14
f 43/1/49 44/2/50 45/3/51
f 52/1/52 53/2/53 45/3/51
f 53/1/53 55/2/54 45/3/51
f 55/1/54 57/2/55 45/3/51
f 57/1/55 59/2/56 45/3/51
f 59/1/56 61/2/57 45/3/51
f 61/1/57 43/2/49 45/3/51
f 27/7/26 20/5/26 14/4/26
f 14/4/26 26/6/26 27/7/26
f 30/11/27 13/9/27 28/8/27
f 28/8/27 29/10/27 30/11/27
f 26/15/28 14/13/28 13/12/28
f 13/12/28 30/14/28 26/15/28
f 29/19/29 28/17/29 31/16/29
f 31/16/29 32/18/29 29/19/29
f 32/23/30 31/21/30 20/20/30
f 20/20/30 27/22/30 32/23/30
f 34/27/33 27/25/32 26/24/31
f 26/24/31 33/26/32 34/27/33
f 36/31/36 30/29/35 29/28/34
f 29/28/34 35/30/35 36/31/36
f 33/35/39 26/33/38 30/32/37
f 30/32/37 36/34/38 33/35/39
f 35/39/40 29/37/40 32/36/40
f 32/36/40 37/38/40 35/39/40
f 37/43/43 32/41/42 27/40/41
f 27/40/41 34/42/42 37/43/43
f 39/47/44 34/45/44 33/44/44
f 33/44/44 38/46/44 39/47/44
f 41/51/45 36/49/45 35/48/45
f 35/48/45 40/50/45 41/51/45
f 38/55/46 33/53/46 36/52/46
f 36/52/46 41/54/46 38/55/46
f 40/59/47 35/57/47 37/56/47
f 37/56/47 42/58/47 40/59/47
f 42/63/48 37/61/48 34/60/48
f 34/60/48 39/62/48 42/63/48
f 19/67/44 39/65/44 38/64/44
f 38/64/44 17/66/44 19/67/44
f 18/71/48 42/69/48 39/68/48
f 39/68/48 19/70/48 18/71/48
f 16/73/47 40/59/47 42/58/47
f 42/58/47 18/72/47 16/73/47
f 15/77/45 41/75/45 40/74/45
f 40/74/45 16/76/45 15/77/45
f 17/81/46 38/79/46 41/78/46
f 41/78/46 15/80/46 17/81/46
f 57/173/29 73/16/29 76/17/29
f 76/17/29 59/172/29 57/173/29
f 61/177/86 77/175/86 78/174/86
f 78/174/86 43/176/86 61/177/86
f 59/181/30 76/179/30 77/178/30
f 77/178/30 61/180/30 59/181/30
f 44/185/89 79/183/88 83/182/87
f 83/182/87 45/184/88 44/185/89
f 43/188/90 78/187/90 79/186/90
f 79/186/90 44/1/90 43/188/90
f 55/192/27 74/190/27 73/189/27
f 73/189/27 57/191/27 55/192/27
f 53/196/91 75/194/91 74/193/91
f 74/193/91 55/195/91 53/196/91
f 52/200/92 82/198/92 75/197/92
f 75/197/92 53/199/92 52/200/92
f 45/204/95 83/202/94 82/201/93
f 82/201/93 52/203/94 45/204/95

usemtl GymWalls_1
f 86/207/29 85/206/29 84/205/29
f 86/210/29 87/209/29 85/208/29
f 86/84/29 88/86/29 87/85/29
f 86/213/29 89/212/29 88/211/29
f 86/216/29 90/215/29 89/214/29
f 86/219/29 91/218/29 90/217/29
f 86/222/29 92/221/29 91/220/29
f 86/84/29 93/91/29 92/90/29
f 86/225/29 94/224/29 93/223/29
f 86/228/29 84/227/29 94/226/29
f 96/231/96 91/229/96 92/93/96
f 92/93/96 95/230/96 96/231/96
f 97/235/97 90/233/97 91/232/97
f 91/232/97 96/234/97 97/235/97
f 95/104/98 92/102/98 93/101/98
f 93/101/98 98/103/98 95/104/98
f 98/238/99 93/106/99 94/236/99
f 94/236/99 99/237/99 98/238/99
f 99/242/100 94/240/100 84/239/100
f 84/239/100 100/241/100 99/242/100
f 100/246/101 84/244/101 85/243/101
f 85/243/101 101/245/101 100/246/101
f 101/249/102 85/247/102 87/116/102
f 87/116/102 102/248/102 101/249/102
f 102/123/103 87/121/103 88/120/103
f 88/120/103 103/122/103 102/123/103
f 103/252/104 88/125/104 89/250/104
f 89/250/104 104/251/104 103/252/104
f 104/256/105 89/254/105 90/253/105
f 90/253/105 97/255/105 104/256/105
f 106/260/106 96/258/106 95/257/106
f 95/257/106 105/259/106 106/260/106
f 107/264/107 97/262/107 96/261/107
f 96/261/107 106/263/107 107/264/107
f 105/143/108 95/141/108 98/140/108
f 98/140/108 108/142/108 105/143/108
f 108/268/109 98/266/109 99/265/109
f 99/265/109 109/267/109 108/268/109
f 109/272/110 99/270/110 100/269/110
f 100/269/110 110/271/110 109/272/110
f 110/276/111 100/274/111 101/273/111
f 101/273/111 111/275/111 110/276/111
f 111/280/112 101/278/112 102/277/112
f 102/277/112 112/279/112 111/280/112
f 112/163/113 102/281/113 103/160/113
f 103/160/113 113/282/113 112/163/113
f 113/286/114 103/284/114 104/283/114
f 104/283/114 114/285/114 113/286/114
f 114/290/115 104/288/115 97/287/115
f 97/287/115 107/289/115 114/290/115

