# ProBuilder 5.0.6
# https://unity3d.com/unity/features/worldbuilding/probuilder
# 11/9/2023 9:26:32 AM

mtllib ./Arrow.mtl
o Arrow

g Arrow
v 0.001999894 -0.001772281 0.2258997
v 0.001999894 -0.001774027 0.02589965
v 0.07249419 -0.001773383 0.07459778
v 0.07249419 -0.001775163 -0.125403
v 0.001999933 -0.01523643 0.02589983
v 0.07249422 -0.01523762 -0.1254029
v 0.001999933 -0.01523468 0.2258998
v 0.07249422 -0.01523584 0.0745979
v -0.002000015 -0.01523472 0.2259002
v -0.002000015 -0.01523647 0.02589947
v -0.07249419 -0.01523628 0.0745979
v -0.07249419 -0.01523806 -0.1254029
v -0.002000058 -0.001774399 0.02589929
v -0.07249422 -0.00177599 -0.1254031
v -0.002000058 -0.001772652 0.2259001
v -0.07249422 -0.00177421 0.07459772
v 0.004601035 -0.0007752415 -0.007101655
v -0.005399194 -0.0007752739 -0.007101655
v 0.004600796 -0.0007639378 1.272138
v -0.005399194 -0.0007639695 1.272138
v -0.005399225 0.009224959 -0.007101715
v -0.005399225 0.009236263 1.272138
v 0.004601003 0.009224989 -0.007101715
v 0.004600765 0.009236291 1.272138
v 0.06049989 0.01523683 1.255698
v -0.06127525 0.01523644 1.255698
v -0.0003876863 0.01523806 1.415403
v -0.06127519 -0.008090433 1.255699
v -0.0003876132 -0.00808882 1.415403
v 0.06049996 -0.008090045 1.255699

vt -3.799796E-07 5.633316E-07
vt -0.2000004 5.633316E-07
vt -0.1513023 0.1375504
vt -0.3513031 0.1375504
vt -0.1479874 0.2000004
vt -0.1479874 3.799796E-07
vt -0.3524683 0.2000008
vt -0.3524683 0
vt 0.2000004 -1.049689E-12
vt 0.3513031 0.1375498
vt 0.1513023 0.1375498
vt 2.811597E-07 0.2000004
vt 0.2044807 0
vt 0.2044807 0.2000008
vt 0.1513023 0.2000008
vt 0.3513031 0.2000008
vt 0.1513023 0
vt 0.3513031 0
vt -0.2000004 0.2000004
vt -0.009999216 0
vt 6.556511E-07 2
vt -0.009999156 2
vt 0.01000011 0
vt 0.01000017 2
vt 0.009999156 0
vt 0.009999216 2
vt -0.01000017 0
vt -0.01000011 2
vt -8.40053E-07 0.01000012
vt 0.009999173 0.01000011
vt -0.009999158 0.01000011
vt 0.01308489 -0.02454594
vt 0.4601994 -0.1364792
vt 0.3881469 0.5246688
vt -0.2517571 -0.5589496
vt 0.862205 -0.4490819
vt -0.3622046 0.560883
vt 0.7517581 0.6707509
vt -0.4869151 -0.02454616
vt -0.03980017 -0.1364794
vt -0.1118531 0.5246686
vt -0.7517548 -0.3353406
vt 0.362205 -0.2254707
vt -0.8622041 0.7844881
vt 0.2517562 0.8943578
vt -0.5 -3.278255E-07
vt 5.960464E-08 0.5000003
vt -0.5000008 0.5000001

vn -3.115669E-06 1 -8.733477E-06
vn -0.9064438 -8.274601E-06 -0.4223264
vn 1.892127E-06 -1 8.735808E-06
vn 0.9064429 6.404768E-06 0.4223282
vn 1 2.213735E-06 -1.970979E-11
vn -1 -2.94013E-06 2.568441E-11
vn 0.9064438 -2.756422E-06 -0.4223264
vn -0.9064438 8.865306E-07 0.4223266
vn 0 0 1
vn 1.776275E-11 -5.960328E-06 -1
vn -0.9343945 9.550431E-07 0.3562399
vn 0.9343947 6.476266E-06 0.3562395

usemtl ProBuilderDefault
f 25/32/1 26/33/1 27/34/1
f 28/39/3 30/40/3 29/41/3
f 4/4/1 2/2/1 1/1/1
f 1/1/1 3/3/1 4/4/1
f 6/8/2 5/6/2 2/5/2
f 2/5/2 4/7/2 6/8/2
f 8/11/3 7/1/3 5/9/3
f 5/9/3 6/10/3 8/11/3
f 3/14/4 1/12/4 7/1/4
f 7/1/4 8/13/4 3/14/4
f 6/18/5 4/16/5 3/15/5
f 3/15/5 8/17/5 6/18/5
f 2/19/6 5/2/6 7/1/6
f 7/1/6 1/12/6 2/19/6
f 12/4/3 10/2/3 9/1/3
f 9/1/3 11/3/3 12/4/3
f 14/8/7 13/6/7 10/5/7
f 10/5/7 12/7/7 14/8/7
f 16/11/1 15/1/1 13/9/1
f 13/9/1 14/10/1 16/11/1
f 11/14/8 9/12/8 15/1/8
f 15/1/8 16/13/8 11/14/8
f 14/18/6 12/16/6 11/15/6
f 11/15/6 16/17/6 14/18/6
f 10/19/5 13/2/5 15/1/5
f 15/1/5 9/12/5 10/19/5
f 20/22/3 18/20/3 17/1/3
f 17/1/3 19/21/3 20/22/3
f 22/21/6 21/1/6 18/23/6
f 18/23/6 20/24/6 22/21/6
f 24/21/1 23/1/1 21/25/1
f 21/25/1 22/26/1 24/21/1
f 19/28/5 17/27/5 23/1/5
f 23/1/5 24/21/5 19/28/5
f 22/25/9 20/30/9 19/29/9
f 19/29/9 24/1/9 22/25/9
f 18/31/10 21/20/10 23/1/10
f 23/1/10 17/29/10 18/31/10
f 27/37/11 26/35/11 28/36/11
f 28/36/11 29/38/11 27/37/11
f 29/44/12 30/42/12 25/43/12
f 25/43/12 27/45/12 29/44/12
f 28/48/10 26/46/10 25/1/10
f 25/1/10 30/47/10 28/48/10

