# ProBuilder 5.0.6
# https://unity3d.com/unity/features/worldbuilding/probuilder
# 12/26/2022 10:49:51 PM

mtllib ./Stone.mtl
o Stone

g Sphere
v 0.2628655 0.4626627 0
v 0.4045085 0.375 0.1545085
v 0.1545085 0.4522542 0.25
v 0.4253254 0.25 0.2628655
v 0.25 0.3272542 0.4045085
v 0 0.3814328 0.4253254
v 0 0.5 0
v -0.1545085 0.4522542 0.25
v -0.2628655 0.4626627 0
v 0.1545085 0.4522542 -0.25
v -0.1545085 0.4522542 -0.25
v 0 0.3814328 -0.4253254
v 0.4045085 0.375 -0.1545085
v 0.25 0.3272542 -0.4045085
v 0.4253254 0.25 -0.2628655
v 0.5 0.25 0
v -0.4045085 0.375 0.1545085
v -0.25 0.3272542 0.4045085
v -0.4253254 0.25 0.2628655
v 0 0.25 0.5
v 0.25 0.1727458 0.4045085
v 0 0.1185672 0.4253254
v 0.4045085 0.125 0.1545085
v 0.4045085 0.125 -0.1545085
v 0.2628655 0.0373373 0
v 0.25 0.1727458 -0.4045085
v 0 0.25 -0.5
v 0 0.1185672 -0.4253254
v -0.25 0.3272542 -0.4045085
v -0.4045085 0.375 -0.1545085
v -0.4253254 0.25 -0.2628655
v -0.2628655 0.0373373 0
v -0.4045085 0.125 0.1545085
v -0.1545085 0.04774575 0.25
v -0.25 0.1727458 0.4045085
v 0 0 0
v 0.1545085 0.04774575 0.25
v -0.1545085 0.04774575 -0.25
v 0.1545085 0.04774575 -0.25
v -0.4045085 0.125 -0.1545085
v -0.25 0.1727458 -0.4045085
v -0.5 0.25 0

vt -0.2628655 -1.110304E-09
vt -0.4045085 0.1545085
vt -0.1545085 0.25
vt -0.1545085 0.125
vt -0.4045085 0.07725424
vt 0.4045085 0.125
vt 0.25 0.07725424
vt 0.1545085 0.2022543
vt 1.197225E-09 0.1314328
vt -6.526204E-10 -1.305241E-09
vt -3.431028E-10 0.4253254
vt 0.1545085 0.25
vt 0.2628655 -1.110304E-09
vt -0.1545085 -0.25
vt 0.1545085 -0.25
vt -3.431028E-10 -0.4253254
vt -0.4045085 -0.1545085
vt -0.1545085 0.2022543
vt -0.25 0.07725424
vt -0.4045085 0.125
vt 0.1545085 0.125
vt 0.4045085 0.07725424
vt 0 0.2126627
vt 0.4045085 0.1545085
vt 0.1545085 0.125
vt 0.4253254 0
vt 0.25 -0.07725424
vt 1.197225E-09 -0.1314328
vt -0.1545085 -0.125
vt 0.1545085 -0.125
vt 0 -0.2126627
vt -0.4253254 0
vt -0.25 -0.07725424
vt 0.4045085 -0.1545085
vt -0.1545085 0.125
vt 0.4045085 -0.07725425
vt -0.4045085 -0.125
vt -0.1545085 -0.2022543
vt 0.1545085 -0.2022543
vt 0.4045085 -0.125
vt -0.4045085 -0.07725425

vn 0.3560677 0.9144384 0.1924014
vn 0.6572697 0.5531683 0.5118608
vn 0.4082483 0.8164966 0.4082483
vn 0.2216928 0.8205521 0.5268269
vn 0.1398997 0.9849349 0.1016431
vn 0 0.9272106 0.3745402
vn 0 0.9822469 0.1875925
vn -0.1398997 0.9849349 0.1016431
vn 0.1398997 0.9849349 -0.1016431
vn -0.1398997 0.9849349 -0.1016431
vn 0 0.9822469 -0.1875925
vn 0 0.9272106 -0.3745402
vn 0.3560677 0.9144384 -0.1924014
vn 0.2216928 0.8205521 -0.5268269
vn 0.4082482 0.8164966 -0.4082483
vn 0.6572697 0.5531683 -0.5118608
vn 0.5262633 0.8503217 0
vn 0.8940349 0.3690495 -0.2539766
vn 0.7946545 0.607062 0
vn 0.8940349 0.3690495 0.2539766
vn -0.3560677 0.9144384 0.1924014
vn -0.2216928 0.8205521 0.5268269
vn -0.4082482 0.8164966 0.4082483
vn -0.6572697 0.5531683 0.5118608
vn 0.1766322 0.4862268 0.8557947
vn 0.6284284 0 0.7778675
vn 0.3568221 0 0.9341724
vn 0.1766322 -0.4862268 0.8557947
vn 0.8940349 -0.3690495 0.2539766
vn 0.8940349 -0.3690495 -0.2539766
vn 0.7946545 -0.607062 0
vn 0.5262633 -0.8503217 0
vn 0.6284284 0 -0.7778675
vn 0.1766322 0.4862268 -0.8557947
vn 0.3568221 0 -0.9341724
vn 0.1766322 -0.4862268 -0.8557947
vn -0.2216928 0.8205521 -0.5268269
vn -0.3560677 0.9144384 -0.1924014
vn -0.4082482 0.8164966 -0.4082483
vn -0.6572697 0.5531682 -0.5118608
vn -0.3560678 -0.9144384 0.1924013
vn -0.6572697 -0.5531683 0.5118608
vn -0.4082483 -0.8164965 0.4082484
vn -0.2216928 -0.8205521 0.5268269
vn -0.1398997 -0.9849349 0.101643
vn 0 -0.9272106 0.3745403
vn 0 -0.982247 0.1875925
vn 0.1398997 -0.9849349 0.101643
vn -0.1398997 -0.9849349 -0.101643
vn 0.1398997 -0.9849349 -0.101643
vn 0 -0.982247 -0.1875925
vn 0 -0.9272106 -0.3745403
vn -0.3560678 -0.9144384 -0.1924013
vn -0.2216928 -0.8205521 -0.5268269
vn -0.4082483 -0.8164965 -0.4082483
vn -0.6572697 -0.5531683 -0.5118608
vn -0.5262633 -0.8503217 0
vn -0.8940349 -0.3690495 -0.2539766
vn -0.7946545 -0.607062 0
vn -0.8940349 -0.3690495 0.2539766
vn -0.1766322 -0.4862268 0.8557947
vn -0.6284284 0 0.7778675
vn -0.3568221 0 0.9341724
vn -0.1766322 0.4862268 0.8557947
vn 0.3560678 -0.9144384 0.1924013
vn 0.2216928 -0.8205521 0.5268269
vn 0.4082483 -0.8164965 0.4082483
vn 0.6572697 -0.5531683 0.5118608
vn 0.2216928 -0.8205521 -0.5268269
vn 0.3560678 -0.9144384 -0.1924013
vn 0.4082483 -0.8164965 -0.4082483
vn 0.6572697 -0.5531682 -0.5118608
vn -0.6284284 0 -0.7778675
vn -0.1766322 -0.4862268 -0.8557947
vn -0.3568221 0 -0.9341724
vn -0.1766322 0.4862268 -0.8557947
vn -0.8940349 0.3690495 0.2539766
vn -0.8940349 0.3690495 -0.2539766
vn -0.7946545 0.607062 0
vn -0.5262633 0.8503217 0

usemtl StoneMaterial
f 3/3/1 2/2/1 1/1/1
f 5/5/2 4/1/2 2/4/2
f 3/8/3 5/7/3 2/6/3
f 6/9/4 5/7/4 3/8/4
f 7/10/5 3/3/5 1/1/5
f 8/12/6 6/11/6 3/3/6
f 7/10/7 8/12/7 3/3/7
f 9/13/8 8/12/8 7/10/8
f 10/14/9 7/10/9 1/1/9
f 11/15/10 9/13/10 7/10/10
f 10/14/11 11/15/11 7/10/11
f 12/16/12 11/15/12 10/14/12
f 13/17/13 10/14/13 1/1/13
f 14/19/14 12/9/14 10/18/14
f 13/20/15 14/19/15 10/18/15
f 15/13/16 14/22/16 13/21/16
f 2/4/17 13/21/17 1/23/17
f 16/10/18 15/13/18 13/21/18
f 2/4/19 16/10/19 13/21/19
f 4/1/20 16/10/20 2/4/20
f 17/24/21 8/12/21 9/13/21
f 18/19/22 6/9/22 8/18/22
f 17/20/23 18/19/23 8/18/23
f 19/13/24 18/22/24 17/25/24
f 20/10/25 5/7/25 6/9/25
f 21/27/26 4/26/26 5/7/26
f 20/10/27 21/27/27 5/7/27
f 22/28/28 21/27/28 20/10/28
f 23/29/29 16/10/29 4/1/29
f 24/30/30 15/13/30 16/10/30
f 23/29/31 24/30/31 16/10/31
f 25/31/32 24/30/32 23/29/32
f 26/33/33 14/19/33 15/32/33
f 27/10/34 12/9/34 14/19/34
f 26/33/35 27/10/35 14/19/35
f 28/28/36 27/10/36 26/33/36
f 29/7/37 11/8/37 12/9/37
f 30/34/38 9/13/38 11/15/38
f 29/7/39 30/6/39 11/8/39
f 31/1/40 30/35/40 29/5/40
f 34/3/41 33/2/41 32/1/41
f 35/36/42 19/13/42 33/30/42
f 34/38/43 35/33/43 33/37/43
f 22/28/44 35/33/44 34/38/44
f 36/10/45 34/3/45 32/1/45
f 37/12/46 22/11/46 34/3/46
f 36/10/47 37/12/47 34/3/47
f 25/13/48 37/12/48 36/10/48
f 38/14/49 36/10/49 32/1/49
f 39/15/50 25/13/50 36/10/50
f 38/14/51 39/15/51 36/10/51
f 28/16/52 39/15/52 38/14/52
f 40/17/53 38/14/53 32/1/53
f 41/27/54 28/28/54 38/39/54
f 40/40/55 41/27/55 38/39/55
f 31/1/56 41/41/56 40/29/56
f 33/30/57 40/29/57 32/31/57
f 42/10/58 31/1/58 40/29/58
f 33/30/59 42/10/59 40/29/59
f 19/13/60 42/10/60 33/30/60
f 20/10/61 35/33/61 22/28/61
f 18/19/62 19/32/62 35/33/62
f 20/10/63 18/19/63 35/33/63
f 6/9/64 18/19/64 20/10/64
f 23/24/65 37/12/65 25/13/65
f 21/27/66 22/28/66 37/39/66
f 23/40/67 21/27/67 37/39/67
f 4/1/68 21/41/68 23/29/68
f 26/33/69 39/38/69 28/28/69
f 24/34/70 25/13/70 39/15/70
f 26/33/71 24/37/71 39/38/71
f 15/13/72 24/30/72 26/36/72
f 29/7/73 41/27/73 31/26/73
f 27/10/74 28/28/74 41/27/74
f 29/7/75 27/10/75 41/27/75
f 12/9/76 27/10/76 29/7/76
f 17/25/77 42/10/77 19/13/77
f 30/35/78 31/1/78 42/10/78
f 17/25/79 30/35/79 42/10/79
f 9/23/80 30/35/80 17/25/80

