# ProBuilder 5.0.6
# https://unity3d.com/unity/features/worldbuilding/probuilder
# 12/26/2022 10:54:05 PM

mtllib ./Stick.mtl
o Stick

g Stick
v -0.05 0 0
v 0 0 0
v -0.01545085 0 0.04755283
v -0.03541592 2 -0.01162836
v 0 2 -0.01162836
v -0.01094412 2 0.02205418
v 0.04045085 0 0.02938926
v 0.02865208 2 0.009188592
v 0.04045085 0 -0.02938926
v 0.02865208 2 -0.03244531
v -0.01545086 0 -0.04755282
v -0.01094413 2 -0.0453109
v -0.04062125 0.7032179 -0.03289082
v -0.01528419 0.7032179 0.001982655
v 0.02571204 0.7032179 -0.01133783
v 0.02571204 0.7032179 -0.0544438
v -0.0152842 0.7032179 -0.06776429
v -0.01311416 1.629792 0.03045576
v -0.03801859 1.629792 -0.003822252
v 0.02718206 1.629792 0.01736272
v 0.02718206 1.629792 -0.02500722
v -0.01311416 1.629792 -0.03810026

vt -0.05 0
vt 0 0
vt -0.01545085 0.04755283
vt 0.05 0
vt 0.01545085 0.04755283
vt 0.04045085 0.02938926
vt -0.04045085 0.02938926
vt 0.04045085 -0.02938926
vt -0.04045085 -0.02938926
vt -0.01545086 -0.04755282
vt 0.01545086 -0.04755282
vt -0.02938926 -1
vt -0.02938926 0
vt 0.02938927 0
vt 0.02938927 -1
vt 0.02938927 1
vt 0.02938927 0.5
vt -0.02938926 0.5
vt -0.02938926 1

vn 0 -1 0
vn 0 1 0
vn -0.9999112 0.01332564 -0.0002152805
vn -0.9999675 0.008066437 -9.239561E-05
vn -0.3092295 0.0165723 0.950843
vn -0.3088301 0.06157851 0.9491217
vn 0.8091429 0.01572887 0.5874013
vn 0.8083242 0.05091096 0.5865323
vn 0.8090625 0.006701486 -0.5876845
vn 0.8090439 -0.00398323 -0.5877348
vn -0.3090964 0.001954076 -0.9510287
vn -0.3089838 -0.02725056 -0.9506769
vn -0.3089435 0.02338844 0.9507928
vn -0.3090763 -0.002551319 0.9510338
vn -0.9999879 0.004918609 -1.037106E-05
vn -0.9999753 0.007029041 -5.113422E-05
vn 0.8090185 0.009763922 0.5877021
vn 0.8090752 -0.004859941 0.587685
vn 0.8089682 -0.01501934 -0.5876606
vn 0.8090847 0.001181419 -0.587691
vn -0.3090375 -0.01670954 -0.9509031
vn -0.30908 0.007226767 -0.9510086

usemtl StickMaterial
f 1/1/1 2/2/1 3/3/1
f 3/3/1 2/2/1 7/6/1
f 7/6/1 2/2/1 9/8/1
f 9/8/1 2/2/1 11/10/1
f 11/10/1 2/2/1 1/1/1
f 6/5/2 5/2/2 4/4/2
f 8/7/2 5/2/2 6/5/2
f 10/9/2 5/2/2 8/7/2
f 12/11/2 5/2/2 10/9/2
f 4/4/2 5/2/2 12/11/2
f 1/12/3 3/15/6 14/14/5
f 14/14/5 13/13/4 1/12/3
f 3/12/6 7/15/8 15/14/7
f 15/14/7 14/13/5 3/12/6
f 9/15/10 16/14/9 15/13/7
f 15/13/7 7/12/8 9/15/10
f 11/15/12 17/14/11 16/13/9
f 16/13/9 9/12/10 11/15/12
f 1/15/3 13/14/4 17/13/11
f 17/13/11 11/12/12 1/15/3
f 19/18/15 18/17/14 6/16/13
f 6/16/13 4/19/16 19/18/15
f 13/13/4 14/14/5 18/17/14
f 18/17/14 19/18/15 13/13/4
f 6/19/13 18/18/14 20/17/18
f 20/17/18 8/16/17 6/19/13
f 18/18/14 14/13/5 15/14/7
f 15/14/7 20/17/18 18/18/14
f 20/18/18 21/17/20 10/16/19
f 10/16/19 8/19/17 20/18/18
f 15/13/7 16/14/9 21/17/20
f 21/17/20 20/18/18 15/13/7
f 21/18/20 22/17/22 12/16/21
f 12/16/21 10/19/19 21/18/20
f 16/13/9 17/14/11 22/17/22
f 22/17/22 21/18/20 16/13/9
f 22/18/22 19/17/15 4/16/16
f 4/16/16 12/19/21 22/18/22
f 17/13/11 13/14/4 19/17/15
f 19/17/15 22/18/22 17/13/11

