# ProBuilder 5.0.6
# https://unity3d.com/unity/features/worldbuilding/probuilder
# 1/1/2024 8:36:10 AM

mtllib ./PrototypeStructure_00.mtl
o PrototypeStructure_00

g Cube (528)
v 26.84848 15.00029 72.42079
v 26.84848 15.00029 75.42084
v 26.84848 18.00035 72.42078
v 26.84848 18.00035 75.42084
v 22.84841 15.00029 75.42084
v 22.84841 15.00029 72.42078
v 62.84921 18.00035 80.42096
v 44.84884 18.00035 80.42096
v 62.84921 27.00053 80.42096
v 44.84884 27.00053 80.42096
v 44.84884 18.00035 64.42065
v 44.84884 27.00053 64.42065
v 62.84921 18.00035 64.42065
v 62.84921 27.00053 64.42065
v 62.84921 0 96.42126
v 44.84884 0 96.42127
v 62.84921 9.000183 96.42126
v 44.84884 9.000183 96.42127
v 44.84884 0 80.42094
v 44.84884 9.000183 80.42094
v 62.84921 0 80.42096
v 62.84921 9.000183 80.42096
v 26.84846 18.00035 96.42127
v 8.848111 18.00035 96.42127
v 26.84846 27.00053 96.42127
v 8.848111 27.00053 96.42127
v 8.848111 18.00035 80.42094
v 8.848111 27.00053 80.42094
v 26.84847 18.00035 80.42096
v 26.84847 27.00053 80.42096
v 26.84846 9.000168 96.42127
v 8.848111 9.000168 96.42127
v 8.848111 9.000168 80.42094
v 26.84847 9.000168 80.42096
v 26.84846 0 96.42127
v 8.848111 0 96.42127
v 8.848111 0 80.42094
v 26.84847 0 80.42096
v 26.84848 0 64.42065
v 26.84848 9.000183 64.42065
v 44.84884 0 64.42065
v 44.84884 9.000183 64.42065
v 8.848118 9.000168 77.4209
v 8.848118 15.00029 77.4209
v 8.848119 15.00029 80.42094
v 0.8479553 9.000168 80.42094
v -3.152122 9.000168 80.42094
v 0.847955 9.000168 77.4209
v -3.152122 9.000168 77.4209
v 13.84822 3.000061 29.41991
v 13.84822 3.000061 26.41985
v 13.84821 6.000122 29.41991
v 13.84822 6.000122 26.41985
v 17.8483 3.000061 26.41985
v 17.8483 3.000061 29.41991
v 26.84849 18.00035 64.42065
v -9.15226 0 80.42097
v -9.15226 9.000183 80.42097
v -9.152269 0 64.42065
v -9.152269 9.000183 64.42065
v 8.848111 0 64.42065
v 8.848111 9.000183 64.42065
v 20.84837 6.000122 48.42031
v 15.84827 6.000122 48.42031
v 20.84837 9.000183 48.42031
v 15.84827 9.000183 48.42031
v 15.84827 6.000122 42.42019
v 15.84827 9.000183 42.42019
v 20.84837 6.000122 42.42019
v 20.84837 9.000183 42.42019
v 23.84842 6.000107 48.42028
v 23.84842 9.000168 48.42028
v 20.84838 6.000107 44.42022
v 23.84842 6.000107 44.42022
v 18.84832 0 20.41973
v 18.84832 0 23.41979
v 18.84833 3.000061 20.41973
v 18.84833 3.000061 23.41979
v 14.84824 0 23.41979
v 14.84824 0 20.41973
v 23.84842 0 26.41985
v 18.84833 0 26.41985
v 23.84842 3.000061 26.41985
v 18.84833 3.000061 26.41985
v 23.84842 0 20.41973
v 23.84842 3.000061 20.41973
v 14.84824 0 26.41985
v 13.84822 0 32.41998
v 8.848126 0 32.41997
v 13.84822 3.000061 32.41998
v 8.848126 3.000061 32.41997
v 8.848129 0 26.41985
v 8.848129 3.000061 26.41985
v 13.84822 0 26.41985
v 18.84833 0 32.41998
v 18.84833 3.000061 32.41998
v 13.84821 6.000122 32.41998
v 8.848119 6.000122 32.41997
v 8.848122 6.000122 26.41985
v 17.8483 3.000061 32.41998
v 23.84842 0 32.41998
v 23.84842 3.000061 32.41998
v 26.84849 15.00029 69.42075
v 26.84849 18.00035 69.42075
v 22.8484 15.00029 69.42075
v 8.848112 0 45.42025
v 8.848113 0 48.42031
v 8.848112 6.000122 45.42025
v 8.848113 6.000122 48.42031
v 0.8479325 0 48.42031
v -3.152144 0 48.42031
v 0.8479245 0 45.42025
v -3.152145 0 45.42025
v 26.8485 9.000168 80.42102
v 8.848119 9.000168 80.42102
v 26.8485 12.00023 80.42102
v 8.848119 12.00023 80.42102
v 8.848119 12.00023 64.42065
v 26.8485 12.00023 64.42065
v 26.84848 0 48.42031
v 26.84848 3.000061 48.42031
v 8.848105 3.000061 48.42031
v 26.84848 0 32.41998
v 26.84848 3.000061 32.41998
v 8.848113 9.000183 48.42031
v 26.84849 9.000183 48.42031
v -9.152298 0 48.42031
v -9.152298 9.000183 48.42031
v 26.84848 6.000107 48.42028
v 26.84849 6.000107 44.42022
v 8.848112 0 42.42019
v 8.848112 6.000122 42.42019
v 0.847947 0 42.42019
v -3.15213 0 42.42019
v 8.848118 9.000168 74.42084
v 8.848118 15.00029 74.42084
v 0.8479546 9.000168 74.42084
v -3.152122 9.000168 74.42084
v 26.84848 12.00023 80.42096
v 8.848119 12.00023 80.42096
v 26.84848 15.00029 80.42096
v 8.848119 15.00029 64.42065
v 26.84848 15.00029 64.42065
v -9.152254 0 96.42127
v -9.152254 9.000183 96.42127
v -9.152254 18.00035 96.42127
v -9.152252 18.00035 80.42094
v 44.84883 18.00035 96.42127
v -9.152254 27.00053 96.42127
v -9.152252 27.00053 80.42094
v 44.84883 27.00053 96.42127
v 62.84921 18.00035 96.42126
v 62.84921 27.00053 96.42126
v 62.84921 0 64.42065
v 62.84921 9.000183 64.42065
v 44.84884 0 48.42031
v 44.84884 9.000183 48.42031
v 62.84921 0 48.42031
v 62.84921 9.000183 48.42031
v 44.84884 18.00035 48.42031
v 62.84921 18.00035 48.42031
v 44.84884 27.00053 48.42031
v 62.84921 27.00053 48.42031
v 8.848104 3.000061 32.42
v 8.848104 6.000122 32.42
v 26.84846 3.000061 32.42001
v 26.84846 6.000122 32.42001
v 26.84848 18.00035 48.42031
v 44.84884 9.000168 32.42001
v 44.84884 18.00035 32.42001
v 62.84921 9.000168 32.42
v 62.84921 18.00035 32.42
v 26.84848 0 32.42001
v 26.84848 9.000183 32.42001
v 44.84884 0 32.42001
v 62.84921 0 32.42

vt 3.000049 1.000023
vt 0 1.000023
vt 3.00005 4.000082
vt 0 4.000082
vt 2.000038 1.00002
vt -2.000036 1.00002
vt 2.000042 4.00008
vt -2.000041 4.000081
vt -3.00005 4.000082
vt -3.00005 -1.000017
vt 0 -1.000017
vt 3.00005 -2.000036
vt 0 -2.000036
vt 3.000049 2.000038
vt 0 2.000038
vt 3.000046 -5.000101
vt -15.00031 -5.000101
vt -15.00031 4.00008
vt 5.000092 -5.000101
vt -11.00022 -5.000101
vt 5.000092 4.00008
vt -11.00022 4.00008
vt 15.00031 -5.000101
vt -3.000053 -5.000101
vt 15.00031 4.00008
vt 11.00022 -5.000101
vt -5.000091 -5.000101
vt 11.00022 4.00008
vt -5.000091 4.00008
vt -3.000053 5.000092
vt 15.00031 5.000092
vt -3.000053 -11.00022
vt 15.00031 -11.00022
vt 3.000053 -11.00022
vt -15.00031 -11.00022
vt 3.000053 5.000092
vt -15.00031 5.000092
vt 3.00005 7.00014
vt 4.768372E-07 7.00014
vt 6.000122 1.00002
vt 6.000122 7.00014
vt -6.000114 1.00002
vt 0 -6.000114
vt 3.000054 -6.000114
vt -3.00005 -6.000114
vt -3.00005 6.000122
vt -3.000048 8.497229
vt 3.814697E-06 8.497229
vt -3.00005 -4.919443
vt 1.907349E-06 -4.919443
vt 3.000051 6.000126
vt 0 6.000126
vt -3.000078 -2.823578
vt -2.058859 -2.588282
vt -3.941242 0.9412155
vt 5.000092 1.000019
vt -1.000023 1.000019
vt -1.000023 4.00008
vt -3.000046 1.000019
vt 1.000023 1.000019
vt -5.000092 1.000019
vt 1.000023 4.00008
vt 2.000053 5.000092
vt 2.000053 -1.000023
vt 3.000046 -1.000023
vt -2.000053 -1.000023
vt -2.000053 5.000092
vt -3.000052 -3.294185
vt -2.058853 -3.058885
vt -3.941246 0.4705958
vt -3.000117 -3.411824
vt -2.058853 -3.176528
vt -3.94124 0.3529778
vt -3.000131 -3.647117
vt -2.05886 -3.41182
vt -3.941243 0.1176844
vt -3.00012 -4.117705
vt -2.058859 -3.88241
vt -3.94124 -0.3529072
vt -3.000053 -4.353031
vt -2.058853 -4.117731
vt -3.941247 -0.5882502
vt -15.0003 1.000019
vt -11.00023 1.000019
vt 15.00031 1.000019
vt 11.00021 1.000019
vt -3.000053 -2.000034
vt -3.000053 2.000042
vt 0 0

vn 1 -1.27154E-06 -1.192093E-07
vn 1.192093E-07 0 1
vn 1.192049E-07 -3.178854E-07 -1
vn -0.6000003 0.7999999 7.15256E-08
vn 0 -1 0
vn -1 0 2.273737E-12
vn 0 1 0
vn -0.4472139 0.8944271 5.331204E-08
vn 0.6000002 0.7999999 6.913976E-07
vn -7.15258E-08 0.7999985 -0.600002
vn -0.5999998 0.8000002 7.152555E-08

usemtl PrototypeStructure
f 4/7/2 5/6/2 2/5/2
f 6/5/3 3/8/3 1/6/3
f 49/45/3 44/46/3 43/45/3
f 53/7/3 54/6/3 51/5/3
f 55/54/2 52/55/2 50/53/2
f 65/7/6 73/6/6 63/5/6
f 74/69/1 72/70/1 71/68/1
f 78/7/2 79/6/2 76/5/2
f 80/72/3 77/73/3 75/71/3
f 84/7/2 87/6/2 82/5/2
f 79/75/3 78/76/3 76/74/3
f 52/7/3 55/6/3 50/5/3
f 100/78/2 97/79/2 90/77/2
f 3/7/2 6/6/2 1/5/2
f 105/81/3 104/82/3 103/80/3
f 113/45/3 108/46/3 106/45/3
f 72/7/6 74/6/6 71/5/6
f 130/88/1 126/87/1 129/87/1
f 134/89/3 132/89/3 131/89/3
f 138/89/3 136/89/3 135/89/3
f 4/4/1 2/2/1 1/1/1
f 1/1/1 3/3/1 4/4/1
f 5/11/4 4/4/4 3/9/4
f 3/9/4 6/10/4 5/11/4
f 2/15/5 5/13/5 6/12/5
f 6/12/5 1/14/5 2/15/5
f 10/18/2 8/17/2 7/16/2
f 7/16/2 9/3/2 10/18/2
f 12/22/6 11/20/6 8/19/6
f 8/19/6 10/21/6 12/22/6
f 14/9/3 13/24/3 11/23/3
f 11/23/3 12/25/3 14/9/3
f 9/29/1 7/27/1 13/26/1
f 13/26/1 14/28/1 9/29/1
f 12/33/7 10/31/7 9/30/7
f 9/30/7 14/32/7 12/33/7
f 8/37/5 11/35/5 13/34/5
f 13/34/5 7/36/5 8/37/5
f 18/18/2 16/17/2 15/16/2
f 15/16/2 17/3/2 18/18/2
f 20/22/6 19/20/6 16/19/6
f 16/19/6 18/21/6 20/22/6
f 22/9/3 21/24/3 19/23/3
f 19/23/3 20/25/3 22/9/3
f 17/29/1 15/27/1 21/26/1
f 21/26/1 22/28/1 17/29/1
f 20/33/7 18/31/7 17/30/7
f 17/30/7 22/32/7 20/33/7
f 16/37/5 19/35/5 21/34/5
f 21/34/5 15/36/5 16/37/5
f 26/18/2 24/17/2 23/16/2
f 23/16/2 25/3/2 26/18/2
f 28/22/6 27/20/6 24/19/6
f 24/19/6 26/21/6 28/22/6
f 30/9/3 29/24/3 27/23/3
f 27/23/3 28/25/3 30/9/3
f 25/29/1 23/27/1 29/26/1
f 29/26/1 30/28/1 25/29/1
f 28/33/7 26/31/7 25/30/7
f 25/30/7 30/32/7 28/33/7
f 24/37/5 27/35/5 29/34/5
f 29/34/5 23/36/5 24/37/5
f 24/18/2 32/17/2 31/16/2
f 31/16/2 23/3/2 24/18/2
f 27/22/6 33/20/6 32/19/6
f 32/19/6 24/21/6 27/22/6
f 29/9/3 34/24/3 33/23/3
f 33/23/3 27/25/3 29/9/3
f 23/29/1 31/27/1 34/26/1
f 34/26/1 29/28/1 23/29/1
f 27/33/7 24/31/7 23/30/7
f 23/30/7 29/32/7 27/33/7
f 32/37/5 33/35/5 34/34/5
f 34/34/5 31/36/5 32/37/5
f 32/18/2 36/17/2 35/16/2
f 35/16/2 31/3/2 32/18/2
f 33/22/6 37/20/6 36/19/6
f 36/19/6 32/21/6 33/22/6
f 34/9/3 38/24/3 37/23/3
f 37/23/3 33/25/3 34/9/3
f 31/29/1 35/27/1 38/26/1
f 38/26/1 34/28/1 31/29/1
f 33/33/7 32/31/7 31/30/7
f 31/30/7 34/32/7 33/33/7
f 36/37/5 37/35/5 38/34/5
f 38/34/5 35/36/5 36/37/5
f 34/18/2 38/17/2 19/16/2
f 19/16/2 20/3/2 34/18/2
f 40/22/6 39/20/6 38/19/6
f 38/19/6 34/21/6 40/22/6
f 42/9/3 41/24/3 39/23/3
f 39/23/3 40/25/3 42/9/3
f 20/29/1 19/27/1 41/26/1
f 41/26/1 42/28/1 20/29/1
f 40/33/7 34/31/7 20/30/7
f 20/30/7 42/32/7 40/33/7
f 38/37/5 39/35/5 41/34/5
f 41/34/5 19/36/5 38/37/5
f 45/39/1 33/2/1 43/1/1
f 43/1/1 44/38/1 45/39/1
f 47/42/2 46/6/2 33/40/2
f 33/40/2 45/41/2 47/42/2
f 49/44/5 48/12/5 46/13/5
f 46/13/5 47/43/5 49/44/5
f 47/50/8 45/48/8 44/47/8
f 44/47/8 49/49/8 47/50/8
f 33/52/5 46/13/5 48/12/5
f 48/12/5 43/51/5 33/52/5
f 53/4/6 51/2/6 50/1/6
f 50/1/6 52/3/6 53/4/6
f 54/11/9 53/4/9 52/9/9
f 52/9/9 55/10/9 54/11/9
f 51/15/5 54/13/5 55/12/5
f 55/12/5 50/14/5 51/15/5
f 29/18/2 34/17/2 20/16/2
f 20/16/2 8/3/2 29/18/2
f 56/22/6 40/20/6 34/19/6
f 34/19/6 29/21/6 56/22/6
f 11/9/3 42/24/3 40/23/3
f 40/23/3 56/25/3 11/9/3
f 8/29/1 20/27/1 42/26/1
f 42/26/1 11/28/1 8/29/1
f 56/33/7 29/31/7 8/30/7
f 8/30/7 11/32/7 56/33/7
f 34/37/5 40/35/5 42/34/5
f 42/34/5 20/36/5 34/37/5
f 58/18/2 57/17/2 37/16/2
f 37/16/2 33/3/2 58/18/2
f 60/22/6 59/20/6 57/19/6
f 57/19/6 58/21/6 60/22/6
f 62/9/3 61/24/3 59/23/3
f 59/23/3 60/25/3 62/9/3
f 33/29/1 37/27/1 61/26/1
f 61/26/1 62/28/1 33/29/1
f 60/33/7 58/31/7 33/30/7
f 33/30/7 62/32/7 60/33/7
f 57/37/5 59/35/5 61/34/5
f 61/34/5 37/36/5 57/37/5
f 66/8/2 64/6/2 63/1/2
f 63/1/2 65/3/2 66/8/2
f 68/58/6 67/57/6 64/56/6
f 64/56/6 66/21/6 68/58/6
f 70/9/3 69/59/3 67/5/3
f 67/5/3 68/7/3 70/9/3
f 65/29/1 63/61/1 69/60/1
f 69/60/1 70/62/1 65/29/1
f 68/64/7 66/63/7 65/30/7
f 65/30/7 70/10/7 68/64/7
f 64/67/5 67/66/5 69/65/5
f 69/65/5 63/36/5 64/67/5
f 65/4/2 63/2/2 71/1/2
f 71/1/2 72/3/2 65/4/2
f 73/11/10 65/4/10 72/9/10
f 72/9/10 74/10/10 73/11/10
f 63/15/5 73/13/5 74/12/5
f 74/12/5 71/14/5 63/15/5
f 78/4/1 76/2/1 75/1/1
f 75/1/1 77/3/1 78/4/1
f 79/11/11 78/4/11 77/9/11
f 77/9/11 80/10/11 79/11/11
f 76/15/5 79/13/5 80/12/5
f 80/12/5 75/14/5 76/15/5
f 84/8/2 82/6/2 81/1/2
f 81/1/2 83/3/2 84/8/2
f 77/58/6 75/57/6 82/56/6
f 82/56/6 84/21/6 77/58/6
f 86/9/3 85/59/3 75/5/3
f 75/5/3 77/7/3 86/9/3
f 83/29/1 81/61/1 85/60/1
f 85/60/1 86/62/1 83/29/1
f 77/64/7 84/63/7 83/30/7
f 83/30/7 86/10/7 77/64/7
f 82/67/5 75/66/5 85/65/5
f 85/65/5 81/36/5 82/67/5
f 84/4/1 82/2/1 76/1/1
f 76/1/1 78/3/1 84/4/1
f 87/11/11 84/4/11 78/9/11
f 78/9/11 79/10/11 87/11/11
f 82/15/5 87/13/5 79/12/5
f 79/12/5 76/14/5 82/15/5
f 91/8/2 89/6/2 88/1/2
f 88/1/2 90/3/2 91/8/2
f 93/58/6 92/57/6 89/56/6
f 89/56/6 91/21/6 93/58/6
f 51/9/3 94/59/3 92/5/3
f 92/5/3 93/7/3 51/9/3
f 90/29/1 88/61/1 94/60/1
f 94/60/1 51/62/1 90/29/1
f 93/64/7 91/63/7 90/30/7
f 90/30/7 51/10/7 93/64/7
f 89/67/5 92/66/5 94/65/5
f 94/65/5 88/36/5 89/67/5
f 90/8/2 88/6/2 95/1/2
f 95/1/2 96/3/2 90/8/2
f 51/58/6 94/57/6 88/56/6
f 88/56/6 90/21/6 51/58/6
f 84/9/3 82/59/3 94/5/3
f 94/5/3 51/7/3 84/9/3
f 96/29/1 95/61/1 82/60/1
f 82/60/1 84/62/1 96/29/1
f 51/64/7 90/63/7 96/30/7
f 96/30/7 84/10/7 51/64/7
f 88/67/5 94/66/5 82/65/5
f 82/65/5 95/36/5 88/67/5
f 98/8/2 91/6/2 90/1/2
f 90/1/2 97/3/2 98/8/2
f 99/58/6 93/57/6 91/56/6
f 91/56/6 98/21/6 99/58/6
f 53/9/3 51/59/3 93/5/3
f 93/5/3 99/7/3 53/9/3
f 97/29/1 90/61/1 51/60/1
f 51/60/1 53/62/1 97/29/1
f 99/64/7 98/63/7 97/30/7
f 97/30/7 53/10/7 99/64/7
f 91/67/5 93/66/5 51/65/5
f 51/65/5 90/36/5 91/67/5
f 52/4/6 50/2/6 90/1/6
f 90/1/6 97/3/6 52/4/6
f 55/11/9 52/4/9 97/9/9
f 97/9/9 100/10/9 55/11/9
f 50/15/5 55/13/5 100/12/5
f 100/12/5 90/14/5 50/15/5
f 96/8/2 95/6/2 101/1/2
f 101/1/2 102/3/2 96/8/2
f 84/58/6 82/57/6 95/56/6
f 95/56/6 96/21/6 84/58/6
f 83/9/3 81/59/3 82/5/3
f 82/5/3 84/7/3 83/9/3
f 102/29/1 101/61/1 81/60/1
f 81/60/1 83/62/1 102/29/1
f 84/64/7 96/63/7 102/30/7
f 102/30/7 83/10/7 84/64/7
f 95/67/5 82/66/5 81/65/5
f 81/65/5 101/36/5 95/67/5
f 3/4/1 1/2/1 103/1/1
f 103/1/1 104/3/1 3/4/1
f 6/11/11 3/4/11 104/9/11
f 104/9/11 105/10/11 6/11/11
f 1/15/5 6/13/5 105/12/5
f 105/12/5 103/14/5 1/15/5
f 109/39/1 107/2/1 106/1/1
f 106/1/1 108/38/1 109/39/1
f 111/42/2 110/6/2 107/40/2
f 107/40/2 109/41/2 111/42/2
f 113/44/5 112/12/5 110/13/5
f 110/13/5 111/43/5 113/44/5
f 111/50/8 109/48/8 108/47/8
f 108/47/8 113/49/8 111/50/8
f 107/52/5 110/13/5 112/12/5
f 112/12/5 106/51/5 107/52/5
f 117/18/2 115/83/2 114/1/2
f 114/1/2 116/3/2 117/18/2
f 118/22/6 62/84/6 115/56/6
f 115/56/6 117/21/6 118/22/6
f 119/9/3 40/59/3 62/85/3
f 62/85/3 118/25/3 119/9/3
f 116/29/1 114/61/1 40/86/1
f 40/86/1 119/28/1 116/29/1
f 118/33/7 117/31/7 116/30/7
f 116/30/7 119/32/7 118/33/7
f 115/37/5 62/35/5 40/34/5
f 40/34/5 114/36/5 115/37/5
f 122/18/2 107/83/2 120/1/2
f 120/1/2 121/3/2 122/18/2
f 91/22/6 89/84/6 107/56/6
f 107/56/6 122/21/6 91/22/6
f 124/9/3 123/59/3 89/85/3
f 89/85/3 91/25/3 124/9/3
f 121/29/1 120/61/1 123/86/1
f 123/86/1 124/28/1 121/29/1
f 91/33/7 122/31/7 121/30/7
f 121/30/7 124/32/7 91/33/7
f 107/37/5 89/35/5 123/34/5
f 123/34/5 120/36/5 107/37/5
f 62/18/2 61/17/2 39/16/2
f 39/16/2 40/3/2 62/18/2
f 125/22/6 107/20/6 61/19/6
f 61/19/6 62/21/6 125/22/6
f 126/9/3 120/24/3 107/23/3
f 107/23/3 125/25/3 126/9/3
f 40/29/1 39/27/1 120/26/1
f 120/26/1 126/28/1 40/29/1
f 125/33/7 62/31/7 40/30/7
f 40/30/7 126/32/7 125/33/7
f 61/37/5 107/35/5 120/34/5
f 120/34/5 39/36/5 61/37/5
f 60/18/2 59/17/2 61/16/2
f 61/16/2 62/3/2 60/18/2
f 128/22/6 127/20/6 59/19/6
f 59/19/6 60/21/6 128/22/6
f 125/9/3 107/24/3 127/23/3
f 127/23/3 128/25/3 125/9/3
f 62/29/1 61/27/1 107/26/1
f 107/26/1 125/28/1 62/29/1
f 128/33/7 60/31/7 62/30/7
f 62/30/7 125/32/7 128/33/7
f 59/37/5 127/35/5 107/34/5
f 107/34/5 61/36/5 59/37/5
f 33/18/2 37/17/2 38/16/2
f 38/16/2 34/3/2 33/18/2
f 62/22/6 61/20/6 37/19/6
f 37/19/6 33/21/6 62/22/6
f 40/9/3 39/24/3 61/23/3
f 61/23/3 62/25/3 40/9/3
f 34/29/1 38/27/1 39/26/1
f 39/26/1 40/28/1 34/29/1
f 62/33/7 33/31/7 34/30/7
f 34/30/7 40/32/7 62/33/7
f 37/37/5 61/35/5 39/34/5
f 39/34/5 38/36/5 37/37/5
f 72/4/2 71/2/2 129/1/2
f 129/1/2 126/3/2 72/4/2
f 74/11/10 72/4/10 126/9/10
f 126/9/10 130/10/10 74/11/10
f 71/15/5 74/13/5 130/12/5
f 130/12/5 129/14/5 71/15/5
f 108/39/1 106/2/1 131/1/1
f 131/1/1 132/38/1 108/39/1
f 113/42/2 112/6/2 106/40/2
f 106/40/2 108/41/2 113/42/2
f 134/44/5 133/12/5 112/13/5
f 112/13/5 113/43/5 134/44/5
f 113/50/8 108/48/8 132/47/8
f 132/47/8 134/49/8 113/50/8
f 106/52/5 112/13/5 133/12/5
f 133/12/5 131/51/5 106/52/5
f 44/39/1 43/2/1 135/1/1
f 135/1/1 136/38/1 44/39/1
f 49/42/2 48/6/2 43/40/2
f 43/40/2 44/41/2 49/42/2
f 138/44/5 137/12/5 48/13/5
f 48/13/5 49/43/5 138/44/5
f 49/50/8 44/48/8 136/47/8
f 136/47/8 138/49/8 49/50/8
f 43/52/5 48/13/5 137/12/5
f 137/12/5 135/51/5 43/52/5
f 45/18/2 140/83/2 139/1/2
f 139/1/2 141/3/2 45/18/2
f 142/22/6 118/84/6 140/56/6
f 140/56/6 45/21/6 142/22/6
f 143/9/3 119/59/3 118/85/3
f 118/85/3 142/25/3 143/9/3
f 141/29/1 139/61/1 119/86/1
f 119/86/1 143/28/1 141/29/1
f 142/33/7 45/31/7 141/30/7
f 141/30/7 143/32/7 142/33/7
f 140/37/5 118/35/5 119/34/5
f 119/34/5 139/36/5 140/37/5
f 145/18/2 144/17/2 36/16/2
f 36/16/2 32/3/2 145/18/2
f 58/22/6 57/20/6 144/19/6
f 144/19/6 145/21/6 58/22/6
f 33/9/3 37/24/3 57/23/3
f 57/23/3 58/25/3 33/9/3
f 32/29/1 36/27/1 37/26/1
f 37/26/1 33/28/1 32/29/1
f 58/33/7 145/31/7 32/30/7
f 32/30/7 33/32/7 58/33/7
f 144/37/5 57/35/5 37/34/5
f 37/34/5 36/36/5 144/37/5
f 31/18/2 35/17/2 16/16/2
f 16/16/2 18/3/2 31/18/2
f 34/22/6 38/20/6 35/19/6
f 35/19/6 31/21/6 34/22/6
f 20/9/3 19/24/3 38/23/3
f 38/23/3 34/25/3 20/9/3
f 18/29/1 16/27/1 19/26/1
f 19/26/1 20/28/1 18/29/1
f 34/33/7 31/31/7 18/30/7
f 18/30/7 20/32/7 34/33/7
f 35/37/5 38/35/5 19/34/5
f 19/34/5 16/36/5 35/37/5
f 146/18/2 145/17/2 32/16/2
f 32/16/2 24/3/2 146/18/2
f 147/22/6 58/20/6 145/19/6
f 145/19/6 146/21/6 147/22/6
f 27/9/3 33/24/3 58/23/3
f 58/23/3 147/25/3 27/9/3
f 24/29/1 32/27/1 33/26/1
f 33/26/1 27/28/1 24/29/1
f 147/33/7 146/31/7 24/30/7
f 24/30/7 27/32/7 147/33/7
f 145/37/5 58/35/5 33/34/5
f 33/34/5 32/36/5 145/37/5
f 23/18/2 31/17/2 18/16/2
f 18/16/2 148/3/2 23/18/2
f 29/22/6 34/20/6 31/19/6
f 31/19/6 23/21/6 29/22/6
f 8/9/3 20/24/3 34/23/3
f 34/23/3 29/25/3 8/9/3
f 148/29/1 18/27/1 20/26/1
f 20/26/1 8/28/1 148/29/1
f 29/33/7 23/31/7 148/30/7
f 148/30/7 8/32/7 29/33/7
f 31/37/5 34/35/5 20/34/5
f 20/34/5 18/36/5 31/37/5
f 149/18/2 146/17/2 24/16/2
f 24/16/2 26/3/2 149/18/2
f 150/22/6 147/20/6 146/19/6
f 146/19/6 149/21/6 150/22/6
f 28/9/3 27/24/3 147/23/3
f 147/23/3 150/25/3 28/9/3
f 26/29/1 24/27/1 27/26/1
f 27/26/1 28/28/1 26/29/1
f 150/33/7 149/31/7 26/30/7
f 26/30/7 28/32/7 150/33/7
f 146/37/5 147/35/5 27/34/5
f 27/34/5 24/36/5 146/37/5
f 25/18/2 23/17/2 148/16/2
f 148/16/2 151/3/2 25/18/2
f 30/22/6 29/20/6 23/19/6
f 23/19/6 25/21/6 30/22/6
f 10/9/3 8/24/3 29/23/3
f 29/23/3 30/25/3 10/9/3
f 151/29/1 148/27/1 8/26/1
f 8/26/1 10/28/1 151/29/1
f 30/33/7 25/31/7 151/30/7
f 151/30/7 10/32/7 30/33/7
f 23/37/5 29/35/5 8/34/5
f 8/34/5 148/36/5 23/37/5
f 148/18/2 18/17/2 17/16/2
f 17/16/2 152/3/2 148/18/2
f 8/22/6 20/20/6 18/19/6
f 18/19/6 148/21/6 8/22/6
f 7/9/3 22/24/3 20/23/3
f 20/23/3 8/25/3 7/9/3
f 152/29/1 17/27/1 22/26/1
f 22/26/1 7/28/1 152/29/1
f 8/33/7 148/31/7 152/30/7
f 152/30/7 7/32/7 8/33/7
f 18/37/5 20/35/5 22/34/5
f 22/34/5 17/36/5 18/37/5
f 151/18/2 148/17/2 152/16/2
f 152/16/2 153/3/2 151/18/2
f 10/22/6 8/20/6 148/19/6
f 148/19/6 151/21/6 10/22/6
f 9/9/3 7/24/3 8/23/3
f 8/23/3 10/25/3 9/9/3
f 153/29/1 152/27/1 7/26/1
f 7/26/1 9/28/1 153/29/1
f 10/33/7 151/31/7 153/30/7
f 153/30/7 9/32/7 10/33/7
f 148/37/5 8/35/5 7/34/5
f 7/34/5 152/36/5 148/37/5
f 20/18/2 19/17/2 21/16/2
f 21/16/2 22/3/2 20/18/2
f 42/22/6 41/20/6 19/19/6
f 19/19/6 20/21/6 42/22/6
f 155/9/3 154/24/3 41/23/3
f 41/23/3 42/25/3 155/9/3
f 22/29/1 21/27/1 154/26/1
f 154/26/1 155/28/1 22/29/1
f 42/33/7 20/31/7 22/30/7
f 22/30/7 155/32/7 42/33/7
f 19/37/5 41/35/5 154/34/5
f 154/34/5 21/36/5 19/37/5
f 8/18/2 20/17/2 22/16/2
f 22/16/2 7/3/2 8/18/2
f 11/22/6 42/20/6 20/19/6
f 20/19/6 8/21/6 11/22/6
f 13/9/3 155/24/3 42/23/3
f 42/23/3 11/25/3 13/9/3
f 7/29/1 22/27/1 155/26/1
f 155/26/1 13/28/1 7/29/1
f 11/33/7 8/31/7 7/30/7
f 7/30/7 13/32/7 11/33/7
f 20/37/5 42/35/5 155/34/5
f 155/34/5 22/36/5 20/37/5
f 42/18/2 41/17/2 154/16/2
f 154/16/2 155/3/2 42/18/2
f 157/22/6 156/20/6 41/19/6
f 41/19/6 42/21/6 157/22/6
f 159/9/3 158/24/3 156/23/3
f 156/23/3 157/25/3 159/9/3
f 155/29/1 154/27/1 158/26/1
f 158/26/1 159/28/1 155/29/1
f 157/33/7 42/31/7 155/30/7
f 155/30/7 159/32/7 157/33/7
f 41/37/5 156/35/5 158/34/5
f 158/34/5 154/36/5 41/37/5
f 11/18/2 42/17/2 155/16/2
f 155/16/2 13/3/2 11/18/2
f 160/22/6 157/20/6 42/19/6
f 42/19/6 11/21/6 160/22/6
f 161/9/3 159/24/3 157/23/3
f 157/23/3 160/25/3 161/9/3
f 13/29/1 155/27/1 159/26/1
f 159/26/1 161/28/1 13/29/1
f 160/33/7 11/31/7 13/30/7
f 13/30/7 161/32/7 160/33/7
f 42/37/5 157/35/5 159/34/5
f 159/34/5 155/36/5 42/37/5
f 12/18/2 11/17/2 13/16/2
f 13/16/2 14/3/2 12/18/2
f 162/22/6 160/20/6 11/19/6
f 11/19/6 12/21/6 162/22/6
f 163/9/3 161/24/3 160/23/3
f 160/23/3 162/25/3 163/9/3
f 14/29/1 13/27/1 161/26/1
f 161/26/1 163/28/1 14/29/1
f 162/33/7 12/31/7 14/30/7
f 14/30/7 163/32/7 162/33/7
f 11/37/5 160/35/5 161/34/5
f 161/34/5 13/36/5 11/37/5
f 109/18/2 122/83/2 121/1/2
f 121/1/2 129/3/2 109/18/2
f 165/22/6 164/84/6 122/56/6
f 122/56/6 109/21/6 165/22/6
f 167/9/3 166/59/3 164/85/3
f 164/85/3 165/25/3 167/9/3
f 129/29/1 121/61/1 166/86/1
f 166/86/1 167/28/1 129/29/1
f 165/33/7 109/31/7 129/30/7
f 129/30/7 167/32/7 165/33/7
f 122/37/5 164/35/5 166/34/5
f 166/34/5 121/36/5 122/37/5
f 56/18/2 40/17/2 42/16/2
f 42/16/2 11/3/2 56/18/2
f 168/22/6 126/20/6 40/19/6
f 40/19/6 56/21/6 168/22/6
f 160/9/3 157/24/3 126/23/3
f 126/23/3 168/25/3 160/9/3
f 11/29/1 42/27/1 157/26/1
f 157/26/1 160/28/1 11/29/1
f 168/33/7 56/31/7 11/30/7
f 11/30/7 160/32/7 168/33/7
f 40/37/5 126/35/5 157/34/5
f 157/34/5 42/36/5 40/37/5
f 40/18/2 39/17/2 41/16/2
f 41/16/2 42/3/2 40/18/2
f 126/22/6 120/20/6 39/19/6
f 39/19/6 40/21/6 126/22/6
f 157/9/3 156/24/3 120/23/3
f 120/23/3 126/25/3 157/9/3
f 42/29/1 41/27/1 156/26/1
f 156/26/1 157/28/1 42/29/1
f 126/33/7 40/31/7 42/30/7
f 42/30/7 157/32/7 126/33/7
f 39/37/5 120/35/5 156/34/5
f 156/34/5 41/36/5 39/37/5
f 160/18/2 157/17/2 159/16/2
f 159/16/2 161/3/2 160/18/2
f 170/22/6 169/20/6 157/19/6
f 157/19/6 160/21/6 170/22/6
f 172/9/3 171/24/3 169/23/3
f 169/23/3 170/25/3 172/9/3
f 161/29/1 159/27/1 171/26/1
f 171/26/1 172/28/1 161/29/1
f 170/33/7 160/31/7 161/30/7
f 161/30/7 172/32/7 170/33/7
f 157/37/5 169/35/5 171/34/5
f 171/34/5 159/36/5 157/37/5
f 126/18/2 120/17/2 156/16/2
f 156/16/2 157/3/2 126/18/2
f 174/22/6 173/20/6 120/19/6
f 120/19/6 126/21/6 174/22/6
f 169/9/3 175/24/3 173/23/3
f 173/23/3 174/25/3 169/9/3
f 157/29/1 156/27/1 175/26/1
f 175/26/1 169/28/1 157/29/1
f 174/33/7 126/31/7 157/30/7
f 157/30/7 169/32/7 174/33/7
f 120/37/5 173/35/5 175/34/5
f 175/34/5 156/36/5 120/37/5
f 157/18/2 156/17/2 158/16/2
f 158/16/2 159/3/2 157/18/2
f 169/22/6 175/20/6 156/19/6
f 156/19/6 157/21/6 169/22/6
f 171/9/3 176/24/3 175/23/3
f 175/23/3 169/25/3 171/9/3
f 159/29/1 158/27/1 176/26/1
f 176/26/1 171/28/1 159/29/1
f 169/33/7 157/31/7 159/30/7
f 159/30/7 171/32/7 169/33/7
f 156/37/5 175/35/5 176/34/5
f 176/34/5 158/36/5 156/37/5

