# ProBuilder 5.0.6
# https://unity3d.com/unity/features/worldbuilding/probuilder
# 5/3/2024 9:45:56 PM

mtllib ./ApothTent2.mtl
o ApothTent2

g ApothTent2
v -3.974612 4.341287 -0.5377609
v -3.974612 4.924205 -0.5377609
v -2.810477 4.341287 2.058786
v -2.810477 4.924205 2.058786
v -6.304075E-06 4.341287 3.134312
v -6.304075E-06 4.924205 3.134312
v 2.810464 4.341287 2.058786
v 2.810464 4.924205 2.058786
v 3.9746 4.341287 -0.5377612
v 3.9746 4.924205 -0.5377612
v 2.810467 4.341287 -1.857235
v 2.810467 4.924205 -1.857235
v -6.945322E-06 4.341287 -2.932762
v -6.945322E-06 4.924205 -2.932762
v -2.810477 4.341287 -3.134309
v -2.810477 4.924205 -3.134309
v -0.7968758 6.784604 -0.5377649
v -3.352867E-06 6.784604 -0.5377649
v -0.5634806 6.784604 -0.0171833
v -0.2711006 8.134572 -0.5377619
v -3.352867E-06 8.134572 -0.5377619
v -0.191696 8.134572 -0.3606592
v -3.352867E-06 6.784604 0.1984498
v -3.352867E-06 8.134572 -0.2872998
v 0.5634738 6.784604 -0.0171833
v 0.1916892 8.134572 -0.3606592
v 0.7968691 6.784604 -0.5377649
v 0.2710939 8.134572 -0.5377619
v 0.5634697 6.784604 0.2187229
v 0.1916892 8.134572 -0.7148646
v -6.945322E-06 6.784604 0.003093317
v -3.352867E-06 8.134572 -0.788224
v -0.5634806 6.784604 -1.058348
v -0.191696 8.134572 -0.7148646
v 3.8538 0.3654277 2.82306
v 5.450096 0.3654277 -0.7374012
v 3.274729 0.3654282 2.288066
v 4.631167 0.3654282 -0.7374027
v -3.352867E-06 0.3654277 4.297852
v -3.352867E-06 0.3654282 3.541257
v 3.37738 4.341287 -0.5377619
v 2.388171 4.341287 -1.467083
v -6.945322E-06 4.341287 -2.381001
v -2.388174 4.341287 -2.744155
v -3.853806 0.3654277 -4.297855
v -5.450102 0.3654277 -0.7374012
v -3.274736 0.3654282 -3.762867
v -4.631174 0.3654282 -0.7374027
v -3.853806 0.3654277 2.82306
v -3.274736 0.3654282 2.288066
v 2.388167 4.341287 1.668629
v -3.352867E-06 4.341287 2.582548
v -3.377386 4.341287 -0.5377619
v -2.388174 4.341287 1.668629
v 3.8538 1.085621 2.823065
v 5.450096 1.085621 -0.7373968
v 3.274729 1.085622 2.288071
v -3.352867E-06 1.085622 3.541262
v 4.631167 1.085622 -0.7373982
v -3.352867E-06 1.085621 4.297856
v -3.274736 1.085622 2.288071
v -3.853806 1.085621 2.823065
v -4.631174 1.085622 -0.7373982
v -5.450102 1.085621 -0.7373968
v -3.274736 1.085622 -3.762867
v -3.853806 1.085621 -4.297855

vt -0.299724 0.09516755
vt -0.299724 0.7028677
vt 0.2175559 0.09516755
vt 0.2175559 0.7028677
vt -0.2195809 0.09516755
vt -0.2195809 0.7028677
vt 0.2511959 0.09516755
vt 0.2511959 0.7028677
vt -0.2511976 0.09516755
vt -0.2511976 0.7028677
vt 0.2195791 0.09516755
vt 0.2195791 0.7028677
vt -0.2175565 0.09516755
vt -0.2175565 0.7028677
vt 0.2997234 0.09516755
vt 0.2997234 0.7028677
vt -0.2673916 0.09516755
vt -0.2673916 0.7028677
vt 0.03615244 0.09516749
vt 0.03615244 0.7028676
vt -0.2357326 0.09516749
vt -0.2357326 0.7028676
vt 0.2350448 0.09516749
vt 0.2350448 0.7028676
vt 0.04854276 0.09516749
vt 0.04854276 0.7028676
vt 0.475715 0.09516755
vt 0.475715 0.7028677
vt -0.4069456 0.09516755
vt -0.4069456 0.7028677
vt 0.1103345 0.09516755
vt 0.1103345 0.7028677
vt -0.1206458 -0.1007223
vt -5.07619E-07 -0.1007223
vt -0.08531012 -0.003218397
vt 0.04104423 -0.1007217
vt 0.02902248 -0.06755073
vt -5.07619E-07 0.03716924
vt 5.07619E-07 -0.05381067
vt 0.0853091 -0.003218397
vt -0.02902146 -0.06755073
vt 0.1206448 -0.1007223
vt -0.04104321 -0.1007217
vt -0.08530847 0.04096191
vt -0.02902146 -0.1338927
vt -1.892627E-06 0.0005731531
vt 5.07619E-07 -0.1476328
vt 0.08530301 -0.1982327
vt 0.02902248 -0.1338927
vt -0.08531012 -0.1982265
vt 0.2997234 0.611624
vt -0.2175565 0.611624
vt 0.1086793 3.999737
vt 0.07339703 3.999737
vt 0.03615239 0.6240757
vt -0.2673916 0.6240758
vt 0.09215987 4.00065
vt 0.05817299 4.001904
vt 0.2195791 0.6020896
vt -0.2511976 0.6020896
vt 0.05513512 3.998694
vt 0.02302494 3.998694
vt 0.2511958 0.6020895
vt -0.2195809 0.6020895
vt -0.02302585 3.998694
vt -0.05513604 3.998694
vt 0.2175559 0.6116235
vt -0.299724 0.6116235
vt -0.07339737 3.999737
vt -0.1086796 3.999737
vt 0.1103344 0.6009445
vt -0.4069456 0.6009445
vt -0.08071032 3.989057
vt -0.1159926 3.989058
vt 0.475715 0.6299467
vt 0.04854279 0.6299466
vt 0.04074105 4.002595
vt 0.01304683 4.000589
vt 0.2350448 0.6452296
vt -0.2357326 0.6452296
vt 0.06317203 4.011714
vt 0.03106184 4.011714
vt 0.5834752 0.5287592
vt 0.8251519 -0.1381081
vt 0.4958047 0.4285558
vt 0.7011674 -0.1381084
vt 5.943739E-06 0.8049927
vt 5.943739E-06 0.663284
vt 0.6017483 -0.1007215
vt 0.4255004 -0.3478563
vt 0.5113301 -0.1007216
vt 0.3615654 -0.2747816
vt -1.051511E-06 -0.5493005
vt -1.051511E-06 -0.4459567
vt -0.425502 -0.5870497
vt -0.361566 -0.5139747
vt -0.5834761 -0.8049853
vt -0.8251529 -0.1381194
vt -0.4958057 -0.7047831
vt -0.7011684 -0.1381197
vt -0.5834761 0.5287592
vt -0.4958057 0.4285558
vt 0.1706376 0.03047858
vt -0.268916 0.03047858
vt -0.03209244 2.604017
vt -0.1358017 2.604017
vt 0.2069767 0.02557816
vt -0.1930614 0.02557816
vt 0.01590506 2.604545
vt -0.07848185 2.604545
vt 0.2571511 0.04218101
vt 0.02752886 0.0421808
vt 0.002336918 2.606531
vt 0.08669372 2.620296
vt 0.2092153 0.03091749
vt -0.1908238 0.03091749
vt 0.09463352 2.609885
vt 0.0002469603 2.609885
vt -0.08244872 0.01937567
vt -0.4503559 0.01937588
vt 0.0001060799 2.604093
vt -0.1204873 2.573599
vt 0.3600276 0.02068246
vt -0.07952624 0.02068246
vt 0.1572985 2.594221
vt 0.05358897 2.594221
vt 0.2689163 0.03047842
vt -0.1706373 0.03047842
vt 0.1358021 2.604017
vt 0.03209278 2.604017
vt 0.1930623 0.02557814
vt -0.2069758 0.02557814
vt 0.07848278 2.604545
vt -0.01590414 2.604545
vt -0.2175565 0.06417007
vt 0.2997234 0.06417007
vt -0.2983187 -3.335634
vt 0.4109905 -3.335634
vt -0.1930614 0.07417776
vt 0.2069768 0.07417776
vt -0.2647322 -3.323775
vt 0.2838122 -3.323775
vt -0.6017483 0.09405221
vt -0.5113301 0.09405236
vt -0.8251362 -3.300229
vt -0.7011517 -3.300229
vt -0.268916 0.07328309
vt 0.1706376 0.07328309
vt -0.3687465 -3.324835
vt 0.2339825 -3.324835
vt -0.2511976 0.06426716
vt 0.2195791 0.06426716
vt -0.3444485 -3.335519
vt 0.3010949 -3.335519
vt -0.2069758 0.07417778
vt 0.1930623 0.07417778
vt -0.2838112 -3.323775
vt 0.2647331 -3.323775
vt -0.2195809 0.06426714
vt 0.2511958 0.06426714
vt -0.3010958 -3.335519
vt 0.3444476 -3.335519
vt -0.1706373 0.07328308
vt 0.2689163 0.07328308
vt -0.2339823 -3.324835
vt 0.3687467 -3.324835
vt -0.299724 0.06417012
vt 0.2175559 0.06417012
vt -0.4109908 -3.335634
vt 0.2983185 -3.335634
vt -0.07952625 0.06604769
vt 0.3600276 0.06604768
vt -0.1090483 -3.333409
vt 0.4936807 -3.333409
vt -0.4069456 0.05566442
vt 0.1103345 0.05566442
vt -0.5580156 -3.345713
vt 0.1512931 -3.345713
vt 0.6249006 0.09468405
vt 0.7219974 0.0946839
vt 0.8568824 -3.29948
vt 0.9900237 -3.299481
vt -0.2983189 -3.298908
vt 0.4109904 -3.298908
vt -0.2983181 -4.049719
vt 0.4109912 -4.049719
vt -0.2647325 -3.298907
vt 0.2838119 -3.298907
vt -0.2647329 -4.049718
vt 0.2838115 -4.049718
vt -0.8251361 -3.298908
vt -0.7011515 -3.298908
vt -0.8251361 -4.049719
vt -0.7011515 -4.049719
vt -0.3687467 -3.298907
vt 0.2339823 -3.298907
vt -0.3687475 -4.049719
vt 0.2339815 -4.049719
vt -0.3444482 -3.298907
vt 0.3010952 -3.298907
vt -0.3444479 -4.049718
vt 0.3010955 -4.049718
vt -0.2838109 -3.298907
vt 0.2647334 -3.298907
vt -0.2838106 -4.049718
vt 0.2647338 -4.049718
vt -0.301096 -3.298907
vt 0.3444473 -3.298907
vt -0.3010963 -4.049718
vt 0.344447 -4.049718
vt -0.233982 -3.298907
vt 0.3687469 -3.298907
vt -0.2339812 -4.049718
vt 0.3687477 -4.049718
vt -0.4109907 -3.298908
vt 0.2983185 -3.298908
vt -0.4109915 -4.049719
vt 0.2983178 -4.049719
vt -0.1090487 -3.298908
vt 0.4936802 -3.298908
vt -0.1090479 -4.049719
vt 0.4936802 -4.049719
vt -0.5580156 -3.298908
vt 0.1512932 -3.298908
vt -0.5580156 -4.049719
vt 0.1512924 -4.049719
vt 0.8568825 -3.298907
vt 0.9900238 -3.298908
vt 0.8568825 -4.049719
vt 0.9900238 -4.049719

vn -1 0 0
vn -0.68704 0 0.7266195
vn 4.786505E-08 0 1
vn 0.6870401 0 0.7266195
vn 0.9886617 0 -0.15016
vn 0.570141 0 -0.8215469
vn 0.2168053 0 -0.9762148
vn -0.5131639 0 -0.8582907
vn 0 -1 0
vn 0 1 0
vn 0.6284686 0.7250065 0.2817674
vn 0.5721712 0.6463649 -0.5048094
vn 0.6003191 0.6856848 -0.3932924
vn 0.6284671 0.7250047 -0.2817753
vn 0.2533073 0.7054758 0.661921
vn -0.2533072 0.7054759 0.6619208
vn -0.6284678 0.7250073 0.281767
vn -0.628468 0.725007 -0.2817672
vn 0.05878175 0.5697923 -0.8196837
vn -0.122229 0.5495539 -0.8060334
vn -0.3032397 0.5293154 -0.792383
vn 0.303234 0.5293159 -0.7923849
vn -0.6570334 -0.6939259 -0.294574
vn -0.2641686 -0.6735711 -0.6903021
vn -0.5548294 -0.5859825 0.5905834
vn 0.1481704 -0.06575537 0.4265976
vn 0.8511701 0.4544718 0.2626117
vn -0.264168 -0.67357 0.6903033
vn -0.1081974 -0.6942794 0.7115261
vn -0.4727151 -0.187841 0.5779886
vn -0.8372329 0.3185974 0.4444511
vn 0.6570339 -0.6939255 0.294574
vn 0.6570333 -0.6939262 -0.2945738
vn 0.2641687 -0.6735708 -0.6903023
vn 0.8505654 0.3621003 0.3813423
vn -0.3446129 -0.2651793 -0.900512
vn 1.09578E-06 0.06120497 -0.9981252
vn -0.8674693 -0.3102222 -0.3889207
vn 0.3390212 0.3166132 0.8859011
vn 0.3446129 -0.2651789 -0.9005122
vn -0.3390211 0.316613 0.8859012
vn 0.8674694 -0.3102219 -0.3889207
vn -0.850566 0.3620986 0.3813425
vn 0.8539688 -0.3523489 0.3828676
vn -0.8356346 0.4016884 -0.3746482
vn 0.6779085 0.04499566 -0.733768
vn 0.9124877 -2.573229E-06 0.4091043
vn -0.357408 6.492814E-06 -0.9339483
vn 1.746813E-06 6.207148E-06 -1
vn -0.9124875 2.573231E-06 -0.4091046
vn 0.3574077 -5.56527E-06 0.9339485
vn 0.357408 5.874451E-06 -0.9339483
vn -0.3574078 -5.874451E-06 0.9339485
vn 0.9124875 2.844096E-06 -0.4091044
vn -0.9124877 -2.539371E-06 0.4091043
vn 0.6785961 0 -0.7345116

usemtl SpellGyser
f 17/33/9 18/34/9 19/35/9
f 19/35/9 18/34/9 23/38/9
f 23/38/9 18/34/9 25/40/9
f 25/40/9 18/34/9 27/42/9
f 27/33/10 18/34/10 29/44/10
f 29/44/10 18/34/10 31/46/10
f 31/46/10 18/34/10 33/48/10
f 33/50/9 18/34/9 17/33/9
f 22/37/10 21/34/10 20/36/10
f 24/39/10 21/34/10 22/37/10
f 26/41/10 21/34/10 24/39/10
f 28/43/10 21/34/10 26/41/10
f 30/45/10 21/34/10 28/43/10
f 32/47/10 21/34/10 30/45/10
f 34/49/10 21/34/10 32/47/10
f 20/36/10 21/34/10 34/49/10
f 4/4/2 2/2/1 1/1/1
f 1/1/1 3/3/2 4/4/2
f 6/8/3 4/6/2 3/5/2
f 3/5/2 5/7/3 6/8/3
f 8/12/4 6/10/3 5/9/3
f 5/9/3 7/11/4 8/12/4
f 10/16/5 8/14/4 7/13/4
f 7/13/4 9/15/5 10/16/5
f 14/24/7 12/22/6 11/21/6
f 11/21/6 13/23/7 14/24/7
f 2/32/1 16/30/8 15/29/8
f 15/29/8 1/31/1 2/32/1
f 28/58/14 10/56/13 12/55/12
f 12/55/12 30/57/13 28/58/14
f 24/62/15 6/60/15 8/59/15
f 8/59/15 26/61/15 24/62/15
f 20/70/17 2/68/17 4/67/17
f 4/67/17 22/69/17 20/70/17
f 32/78/21 14/76/20 16/75/19
f 16/75/19 34/77/20 32/78/21
f 38/86/9 36/84/9 35/83/9
f 35/83/9 37/85/9 38/86/9
f 37/85/9 35/83/9 39/87/9
f 39/87/9 40/88/9 37/85/9
f 42/92/9 11/90/9 9/89/9
f 9/89/9 41/91/9 42/92/9
f 43/94/9 13/93/9 11/90/9
f 11/90/9 42/92/9 43/94/9
f 44/96/9 15/95/9 13/93/9
f 13/93/9 43/94/9 44/96/9
f 48/100/9 46/98/9 45/97/9
f 45/97/9 47/99/9 48/100/9
f 50/102/9 49/101/9 46/98/9
f 46/98/9 48/100/9 50/102/9
f 40/88/9 39/87/9 49/101/9
f 49/101/9 50/102/9 40/88/9
f 27/106/23 41/104/23 51/103/23
f 51/103/23 25/105/23 27/106/23
f 25/110/24 51/108/24 52/107/24
f 52/107/24 23/109/24 25/110/24
f 29/114/27 42/112/26 41/111/25
f 41/111/25 27/113/26 29/114/27
f 31/118/28 43/116/28 42/115/28
f 42/115/28 29/117/28 31/118/28
f 33/122/31 44/120/30 43/119/29
f 43/119/29 31/121/30 33/122/31
f 17/126/32 53/124/32 44/123/32
f 44/123/32 33/125/32 17/126/32
f 19/130/33 54/128/33 53/127/33
f 53/127/33 17/129/33 19/130/33
f 23/134/34 52/132/34 54/131/34
f 54/131/34 19/133/34 23/134/34
f 56/138/35 9/136/35 7/135/35
f 7/135/35 55/137/35 56/138/35
f 58/142/36 52/140/36 51/139/36
f 51/139/36 57/141/36 58/142/36
f 59/146/37 41/144/37 9/143/37
f 9/143/37 56/145/37 59/146/37
f 57/150/38 51/148/38 41/147/38
f 41/147/38 59/149/38 57/150/38
f 61/158/40 54/156/40 52/155/40
f 52/155/40 58/157/40 61/158/40
f 60/162/41 5/160/41 3/159/41
f 3/159/41 62/161/41 60/162/41
f 63/166/42 53/164/42 54/163/42
f 54/163/42 61/165/42 63/166/42
f 65/174/44 44/172/44 53/171/44
f 53/171/44 63/173/44 65/174/44
f 64/178/45 1/176/45 15/175/45
f 15/175/45 66/177/45 64/178/45
f 66/182/46 15/180/46 44/179/46
f 44/179/46 65/181/46 66/182/46
f 40/190/48 58/188/48 57/187/48
f 57/187/48 37/189/48 40/190/48
f 38/194/49 59/192/49 56/191/49
f 56/191/49 36/193/49 38/194/49
f 37/198/50 57/196/50 59/195/50
f 59/195/50 38/197/50 37/198/50
f 35/202/51 55/200/51 60/199/51
f 60/199/51 39/201/51 35/202/51
f 50/206/52 61/204/52 58/203/52
f 58/203/52 40/205/52 50/206/52
f 48/214/54 63/212/54 61/211/54
f 61/211/54 50/213/54 48/214/54
f 49/218/55 62/216/55 64/215/55
f 64/215/55 46/217/55 49/218/55
f 47/222/47 65/220/47 63/219/47
f 63/219/47 48/221/47 47/222/47
f 45/230/56 66/228/56 65/227/56
f 65/227/56 47/229/56 45/230/56

usemtl SpellTeal
f 11/19/6 12/20/6 10/18/5 9/17/5
f 15/27/8 16/28/8 14/26/7 13/25/7
f 28/53/11 26/54/11 8/52/11 10/51/11
f 24/65/16 22/66/16 4/64/16 6/63/16
f 20/73/18 34/74/18 16/72/18 2/71/18
f 32/81/22 30/82/22 12/80/22 14/79/22
f 60/153/39 55/154/39 7/152/39 5/151/39
f 64/169/43 62/170/43 3/168/43 1/167/43
f 35/185/47 36/186/47 56/184/47 55/183/47
f 49/209/53 39/210/53 60/208/53 62/207/53
f 45/225/50 46/226/50 64/224/50 66/223/50

