# ProBuilder 5.0.6
# https://unity3d.com/unity/features/worldbuilding/probuilder
# 6/14/2023 12:38:55 PM

mtllib ./BigBuildingStone.mtl
o BigBuildingStone

g BigBuildingStone
v -0.05 0.0499997 0.5
v -1.95 0.0499997 0.5
v -0.05 0.9499997 0.5
v -1.95 0.9499997 0.5
v -2 0.0499997 0.45
v -2 0.0499997 -0.45
v -2 0.9499997 0.45
v -2 0.9499997 -0.45
v -1.95 0.0499997 -0.5
v -0.05 0.0499997 -0.5
v -1.95 0.9499997 -0.5
v -0.05 0.9499997 -0.5
v 0 0.0499997 -0.45
v 0 0.0499997 0.45
v 0 0.9499997 -0.45
v 0 0.9499997 0.45
v -0.05 0.9999997 0.45
v -1.95 0.9999997 0.45
v -0.05 0.9999997 -0.45
v -1.95 0.9999997 -0.45
v -0.05 -2.980232E-07 -0.45
v -1.95 -2.980232E-07 -0.45
v -0.05 -2.980232E-07 0.45
v -1.95 -2.980232E-07 0.45

vt -0.05 0.0499997
vt -1.95 0.0499997
vt -0.05 0.9499997
vt -1.95 0.9499997
vt 0.95 0.0499997
vt 0.04999997 0.0499997
vt 0.95 0.9499997
vt 0.04999997 0.9499997
vt 1.95 0.0499997
vt 0.05 0.0499997
vt 1.95 0.9499997
vt 0.05 0.9499997
vt -0.04999997 0.0499997
vt -0.95 0.0499997
vt -0.04999997 0.9499997
vt -0.95 0.9499997
vt -0.05 0.742462
vt -1.95 0.742462
vt -0.05 0.6717513
vt -1.95 0.6717513
vt -0.7424622 0.9499997
vt -0.7424622 0.0499997
vt -0.6717516 0.9499997
vt -0.6717516 0.0499997
vt -1.95 -0.03535556
vt -0.05 -0.03535556
vt -1.95 0.03535514
vt -0.05 0.03535514
vt 0.6717513 0.95
vt 0.6717513 0.04999997
vt 0.742462 0.95
vt 0.742462 0.04999997
vt 0.05 0.6717513
vt 1.95 0.6717513
vt 0.05 0.7424619
vt 1.95 0.7424619
vt 0.03535513 0.04999997
vt 0.03535513 0.95
vt -0.03535555 0.04999997
vt -0.03535555 0.95
vt 1.95 0.03535515
vt 0.05 0.03535515
vt 1.95 -0.03535553
vt 0.05 -0.03535553
vt 1.449568 0.0499997
vt 1.449568 0.9499997
vt 1.378858 0.0499997
vt 1.378858 0.9499997
vt -1.449568 0.95
vt -1.449568 0.04999997
vt -1.378857 0.95
vt -1.378857 0.04999997
vt -0.7424622 0.4286605
vt -0.7071069 0.3674232
vt -0.6717516 0.4286605
vt -0.6717502 1.245157
vt -0.7071056 1.18392
vt -0.7424609 1.245157
vt -0.7424622 0.3878357
vt -0.6717515 0.3878357
vt -0.7071068 0.4490729
vt -0.6717502 -0.4286606
vt -0.7424609 -0.4286606
vt -0.7071056 -0.3674234
vt -0.03535532 0.796084
vt 2.107342E-08 0.8573213
vt 0.03535536 0.796084
vt 1.449568 -0.02041247
vt 1.414213 0.04082477
vt 1.378858 -0.02041247
vt -0.03535532 0.02041218
vt 2.107342E-08 -0.04082506
vt 0.03535536 0.02041218
vt 1.378857 0.8369089
vt 1.414213 0.7756717
vt 1.449568 0.8369089

vn 0 0 1
vn -1 0 0
vn 0 0 -1
vn 1 0 0
vn 0 1 0
vn 0 -1 0
vn 0 -0.7071068 0.7071067
vn 0.7071069 0 0.7071067
vn -0.7071072 0 0.7071064
vn 0 0.7071068 0.7071068
vn 0.7071069 0.7071067 0
vn -0.7071072 0.7071064 0
vn 0 0.7071066 -0.707107
vn 0.7071068 -0.7071068 0
vn 0.7071066 0 -0.7071069
vn 0 -0.7071066 -0.7071069
vn -0.707107 0 -0.7071066
vn -0.7071071 -0.7071065 0
vn 0.5773503 -0.5773503 0.5773502
vn -0.5773507 -0.5773501 0.57735
vn 0.5773503 0.5773503 0.5773503
vn -0.5773507 0.5773501 0.5773501
vn 0.5773503 0.5773501 -0.5773505
vn -0.5773506 0.57735 -0.5773503
vn 0.5773502 -0.5773502 -0.5773504
vn -0.5773506 -0.57735 -0.5773502

usemtl ProBuilderDefault
f 1/53/19 23/54/19 14/55/19
f 5/58/20 24/57/20 2/56/20
f 3/59/21 16/60/21 17/61/21
f 18/64/22 7/63/22 4/62/22
f 12/67/23 19/66/23 15/65/23
f 8/68/24 20/69/24 11/70/24
f 13/71/25 21/72/25 10/73/25
f 9/74/26 22/75/26 6/76/26
f 4/4/1 2/2/1 1/1/1
f 1/1/1 3/3/1 4/4/1
f 8/8/2 6/6/2 5/5/2
f 5/5/2 7/7/2 8/8/2
f 12/12/3 10/10/3 9/9/3
f 9/9/3 11/11/3 12/12/3
f 16/16/4 14/14/4 13/13/4
f 13/13/4 15/15/4 16/16/4
f 20/9/5 18/11/5 17/12/5
f 17/12/5 19/10/5 20/9/5
f 24/4/6 22/2/6 21/1/6
f 21/1/6 23/3/6 24/4/6
f 23/19/7 1/17/7 2/18/7
f 2/18/7 24/20/7 23/19/7
f 16/23/8 3/21/8 1/22/8
f 1/22/8 14/24/8 16/23/8
f 5/22/9 2/24/9 4/23/9
f 4/23/9 7/21/9 5/22/9
f 18/27/10 4/25/10 3/26/10
f 3/26/10 17/28/10 18/27/10
f 17/31/11 16/29/11 15/30/11
f 15/30/11 19/32/11 17/31/11
f 20/30/12 8/32/12 7/31/12
f 7/31/12 18/29/12 20/30/12
f 19/35/13 12/33/13 11/34/13
f 11/34/13 20/36/13 19/35/13
f 21/39/14 13/37/14 14/38/14
f 14/38/14 23/40/14 21/39/14
f 13/39/15 10/37/15 12/38/15
f 12/38/15 15/40/15 13/39/15
f 22/43/16 9/41/16 10/42/16
f 10/42/16 21/44/16 22/43/16
f 9/47/17 6/45/17 8/46/17
f 8/46/17 11/48/17 9/47/17
f 24/51/18 5/49/18 6/50/18
f 6/50/18 22/52/18 24/51/18

