# ProBuilder 5.0.6
# https://unity3d.com/unity/features/worldbuilding/probuilder
# 10/12/2024 5:08:36 PM

mtllib ./BuilderCursor.mtl
o BuilderCursor

g BuilderCursor
v -0.45 0.45 0.5
v -0.5 0.45 0.45
v -0.45 0.5 0.45
v 0.5 0.45 0.45
v 0.45 0.45 0.5
v 0.45 0.5 0.45
v 0.45 -0.45 0.5
v 0.5 -0.45 0.45
v 0.45 -0.5 0.45
v -0.5 -0.45 0.45
v -0.45 -0.45 0.5
v -0.45 -0.5 0.45
v -0.45 -0.45 -0.5
v -0.5 -0.45 -0.45
v -0.45 -0.5 -0.45
v 0.5 -0.45 -0.45
v 0.45 -0.45 -0.5
v 0.45 -0.5 -0.45
v 0.45 0.45 -0.5
v 0.5 0.45 -0.45
v 0.45 0.5 -0.45
v -0.5 0.45 -0.45
v -0.45 0.45 -0.5
v -0.45 0.5 -0.45

vt 0.03535535 -0.02041242
vt -0.03535535 -0.02041242
vt 0 0.04082484
vt -0.6717515 0.3878359
vt -0.7424622 0.3878359
vt -0.7071068 0.4490731
vt -0.7424622 0.4286607
vt -0.6717516 0.4286607
vt -0.7071069 0.3674234
vt -0.03535535 0.836909
vt 0.03535535 0.836909
vt 0 0.7756718
vt 0.6717516 0.4286607
vt 0.7424622 0.4286607
vt 0.7071069 0.3674234
vt -0.03535534 0.02041241
vt 0.03535534 0.02041241
vt 0 -0.04082483
vt 0.03535534 0.7960842
vt -0.03535534 0.7960842
vt 0 0.8573215
vt 0.7424622 0.3878359
vt 0.6717515 0.3878359
vt 0.7071068 0.4490731
vt -0.95 0.95
vt -0.05 0.05
vt -0.95 0.05
vt -0.05 0.95
vt 0.05 0.95
vt 0.95 0.05
vt 0.05 0.05
vt 0.95 0.95
vt -0.95 0.03535535
vt -0.05 -0.03535535
vt -0.95 -0.03535535
vt -0.05 0.03535535
vt -0.05 0.6717515
vt -0.95 0.7424622
vt -0.05 0.7424622
vt -0.95 0.6717515
vt 0.95 -0.03535534
vt 0.05 0.03535534
vt 0.95 0.03535534
vt 0.05 -0.03535534
vt 0.05 0.7424623
vt 0.95 0.6717516
vt 0.05 0.6717516
vt 0.95 0.7424623
vt -0.03535534 0.05
vt 0.03535534 0.95
vt 0.03535534 0.05
vt -0.03535534 0.95
vt 0.6717516 0.05
vt 0.7424622 0.95
vt 0.7424622 0.05
vt 0.6717516 0.95
vt -0.6717516 0.95
vt -0.7424622 0.05
vt -0.7424622 0.95
vt -0.6717516 0.05

vn -0.5773507 0.5773501 0.5773501
vn 0.5773507 0.5773501 0.5773501
vn 0.5773507 -0.5773501 0.5773501
vn -0.5773507 -0.5773501 0.5773501
vn -0.5773507 -0.5773501 -0.5773501
vn 0.5773507 -0.5773501 -0.5773501
vn 0.5773507 0.5773501 -0.5773501
vn -0.5773507 0.5773501 -0.5773501
vn 0 0 1
vn -1 0 0
vn 0 0 -1
vn 1 0 0
vn 0 1 0
vn 0 -1 0
vn 0 0.7071068 0.7071068
vn 0 -0.7071068 0.7071068
vn 0 -0.7071068 -0.7071068
vn 0 0.7071068 -0.7071068
vn 0.7071072 0 -0.7071064
vn -0.7071072 0 -0.7071064
vn -0.7071072 0 0.7071064
vn 0.7071072 0 0.7071064
vn 0.7071072 0.7071064 0
vn 0.7071072 -0.7071064 0
vn -0.7071072 -0.7071064 0
vn -0.7071072 0.7071064 0

usemtl BuildersCursor_CellShaded
f 3/3/1 2/2/1 1/1/1
f 6/6/2 5/5/2 4/4/2
f 9/9/3 8/8/3 7/7/3
f 12/12/4 11/11/4 10/10/4
f 15/15/5 14/14/5 13/13/5
f 18/18/6 17/17/6 16/16/6
f 21/21/7 20/20/7 19/19/7
f 24/24/8 23/23/8 22/22/8
f 1/25/9 11/27/9 7/26/9
f 7/26/9 5/28/9 1/25/9
f 22/29/10 14/31/10 10/30/10
f 10/30/10 2/32/10 22/29/10
f 19/29/11 17/31/11 13/30/11
f 13/30/11 23/32/11 19/29/11
f 4/25/12 8/27/12 16/26/12
f 16/26/12 20/28/12 4/25/12
f 24/30/13 3/32/13 6/29/13
f 6/29/13 21/31/13 24/30/13
f 12/25/14 15/27/14 18/26/14
f 18/26/14 9/28/14 12/25/14
f 3/33/15 1/35/15 5/34/15
f 5/34/15 6/36/15 3/33/15
f 9/37/16 7/39/16 11/38/16
f 11/38/16 12/40/16 9/37/16
f 15/41/17 13/43/17 17/42/17
f 17/42/17 18/44/17 15/41/17
f 21/45/18 19/47/18 23/46/18
f 23/46/18 24/48/18 21/45/18
f 16/49/19 17/51/19 19/50/19
f 19/50/19 20/52/19 16/49/19
f 13/53/20 14/55/20 22/54/20
f 22/54/20 23/56/20 13/53/20
f 10/49/21 11/51/21 1/50/21
f 1/50/21 2/52/21 10/49/21
f 4/57/22 5/59/22 7/58/22
f 7/58/22 8/60/22 4/57/22
f 6/54/23 4/56/23 20/53/23
f 20/53/23 21/55/23 6/54/23
f 18/49/24 16/51/24 8/50/24
f 8/50/24 9/52/24 18/49/24
f 12/57/25 10/59/25 14/58/25
f 14/58/25 15/60/25 12/57/25
f 24/49/26 22/51/26 2/50/26
f 2/50/26 3/52/26 24/49/26

