# ProBuilder 5.0.6
# https://unity3d.com/unity/features/worldbuilding/probuilder
# 8/18/2023 11:06:26 AM

mtllib ./PackedCraftingBench.mtl
o PackedCraftingBench

g PackedCraftingBench
v 0.4160312 0.08396885 0.4462304
v -0.4160311 0.08396885 0.4462304
v 0.4160312 0.9160311 0.4462304
v -0.4160311 0.9160311 0.4462304
v -0.4612151 0.07071054 0.4292895
v -0.4612151 0.07071054 -0.4292895
v -0.4612151 0.9292895 0.4292895
v -0.4612151 0.9292895 -0.4292895
v -0.4204506 0.0795494 -0.4364061
v 0.4204506 0.0795494 -0.4364061
v -0.4204506 0.9204506 -0.4364061
v 0.4204506 0.9204506 -0.4364061
v 0.4177629 0.08396894 -0.4160311
v 0.4177629 0.08396894 0.4160311
v 0.4177629 0.9160311 -0.4160311
v 0.4177629 0.9160311 0.4160311
v 0.4337087 0.9584233 0.4337087
v -0.4337087 0.9584233 0.4337087
v 0.4337087 0.9584233 -0.4337087
v -0.4337087 0.9584233 -0.4337087
v 0.4292892 0.08246487 -0.4292892
v -0.4292892 0.08246487 -0.4292892
v 0.4292892 0.08246487 0.4292892
v -0.4292892 0.08246487 0.4292892
v 0.5 0 0.5
v -0.5 0 0.5
v 0.4160312 0.08396885 0.5
v -0.4160311 0.08396885 0.5
v 0.5 1 0.5
v 0.4160312 0.9160311 0.5
v -0.5 1 0.5
v -0.4160311 0.9160311 0.5
v 0.5 0 -0.5
v 0.5 0.08396894 -0.4160311
v 0.5 0.08396894 0.4160311
v 0.5 1 -0.5
v 0.5 0.9160311 -0.4160311
v 0.5 0.9160311 0.4160311
v -0.5 0 -0.5
v -0.4204506 0.0795494 -0.5
v 0.4204506 0.0795494 -0.5
v -0.5 1 -0.5
v -0.4204506 0.9204506 -0.5
v 0.4204506 0.9204506 -0.5
v -0.5 0.07071054 0.4292895
v -0.5 0.07071054 -0.4292895
v -0.5 0.9292895 0.4292895
v -0.5 0.9292895 -0.4292895
v 0.4337087 1 0.4337087
v -0.4337087 1 0.4337087
v 0.4337087 1 -0.4337087
v -0.4337087 1 -0.4337087
v 0.4292892 0 -0.4292892
v -0.4292892 0 -0.4292892
v 0.4292892 0 0.4292892
v -0.4292892 0 0.4292892

vt -0.08396885 0.08396885
vt -0.9160311 0.08396885
vt -0.08396885 0.9160311
vt -0.9160311 0.9160311
vt 0.9292895 0.07071054
vt 0.07071054 0.07071054
vt 0.9292895 0.9292895
vt 0.07071054 0.9292895
vt 0.9204506 0.0795494
vt 0.0795494 0.0795494
vt 0.9204506 0.9204506
vt 0.0795494 0.9204506
vt 0.0662913 0.9337087
vt 0.9337087 0.9337087
vt 0.0662913 0.0662913
vt 0.9337087 0.0662913
vt -0.07071084 0.07071084
vt -0.9292892 0.07071084
vt -0.07071084 0.9292892
vt -0.9292892 0.9292892
vt 0 0
vt -1 0
vt 0 1
vt -1 1
vt 1 0
vt 1 1
vt 1 0.9292895
vt 1 0.07071054
vt 0.9612151 0.9292895
vt 0.9612151 0.07071054
vt -1 0.07071054
vt -1 0.9292895
vt -0.9612151 0.07071054
vt -0.9612151 0.9292895
vt 0.08396885 1
vt 0.9160311 1
vt 0.08396885 0.9462304
vt 0.9160311 0.9462304
vt 1 0.9160311
vt 1 0.08396885
vt 0.9462304 0.9160311
vt 0.9462304 0.08396885
vt -1 0.08396885
vt -1 0.9160311
vt -0.9462304 0.08396885
vt -0.9462304 0.9160311
vt -0.9160311 1
vt -0.08396885 1
vt -0.9160311 0.9462304
vt -0.08396885 0.9462304
vt 0.0662913 1
vt 0.9337087 1
vt 0.0662913 0.9584233
vt 0.9337087 0.9584233
vt -0.9337087 1
vt -0.0662913 1
vt -0.9337087 0.9584233
vt -0.0662913 0.9584233
vt 0.9204506 0
vt 0.0795494 0
vt 0.9204506 0.06359391
vt 0.0795494 0.06359391
vt 0 0.9204506
vt 0 0.0795494
vt -0.06359391 0.9204506
vt -0.06359391 0.0795494
vt 0.06359391 0.0795494
vt 0.06359391 0.9204506
vt -0.0795494 0
vt -0.9204506 0
vt -0.0795494 0.06359391
vt -0.9204506 0.06359391
vt 0 0.08396894
vt 0 0.9160311
vt 0.08223708 0.08396894
vt 0.08223708 0.9160311
vt -0.08223708 0.9160311
vt -0.08223708 0.08396894
vt -0.07071084 0
vt -0.9292892 0
vt -0.07071084 0.08246487
vt -0.9292892 0.08246487
vt 0.9292892 0
vt 0.07071084 0
vt 0.9292892 0.08246487
vt 0.07071084 0.08246487

vn 0 0 1
vn -1 0 0
vn 0 0 -1
vn 1 0 0
vn 0 1 0
vn 0 -1 0

usemtl ProBuilderDefault
f 3/3/1 4/4/1 2/2/1 1/1/1
f 7/7/2 8/8/2 6/6/2 5/5/2
f 11/11/3 12/12/3 10/10/3 9/9/3
f 15/3/4 16/4/4 14/2/4 13/1/4
f 19/15/5 20/16/5 18/14/5 17/13/5
f 23/19/6 24/20/6 22/18/6 21/17/6
f 27/1/1 28/2/1 26/22/1 25/21/1
f 30/3/1 27/1/1 25/21/1 29/23/1
f 28/2/1 32/4/1 31/24/1 26/22/1
f 32/4/1 30/3/1 29/23/1 31/24/1
f 34/1/4 35/2/4 25/22/4 33/21/4
f 37/3/4 34/1/4 33/21/4 36/23/4
f 35/2/4 38/4/4 29/24/4 25/22/4
f 38/4/4 37/3/4 36/23/4 29/24/4
f 40/9/3 41/10/3 33/21/3 39/25/3
f 43/11/3 40/9/3 39/25/3 42/26/3
f 41/10/3 44/12/3 36/23/3 33/21/3
f 44/12/3 43/11/3 42/26/3 36/23/3
f 45/5/2 46/6/2 39/21/2 26/25/2
f 47/7/2 45/5/2 26/25/2 31/26/2
f 46/6/2 48/8/2 42/23/2 39/21/2
f 48/8/2 47/7/2 31/26/2 42/23/2
f 49/13/5 50/14/5 31/26/5 29/23/5
f 51/15/5 49/13/5 29/23/5 36/21/5
f 50/14/5 52/16/5 42/25/5 31/26/5
f 52/16/5 51/15/5 36/21/5 42/25/5
f 53/17/6 54/18/6 39/22/6 33/21/6
f 55/19/6 53/17/6 33/21/6 25/23/6
f 54/18/6 56/20/6 26/24/6 39/22/6
f 56/20/6 55/19/6 25/23/6 26/24/6
f 5/29/5 6/30/5 46/28/5 45/27/5
f 7/29/3 5/30/3 45/28/3 47/27/3
f 6/33/1 8/34/1 48/32/1 46/31/1
f 8/33/6 7/34/6 47/32/6 48/31/6
f 1/37/5 2/38/5 28/36/5 27/35/5
f 3/41/2 1/42/2 27/40/2 30/39/2
f 2/45/4 4/46/4 32/44/4 28/43/4
f 4/49/6 3/50/6 30/48/6 32/47/6
f 17/53/3 18/54/3 50/52/3 49/51/3
f 19/53/2 17/54/2 49/52/2 51/51/2
f 18/57/4 20/58/4 52/56/4 50/55/4
f 20/57/1 19/58/1 51/56/1 52/55/1
f 9/61/5 10/62/5 41/60/5 40/59/5
f 11/65/4 9/66/4 40/64/4 43/63/4
f 10/67/2 12/68/2 44/63/2 41/64/2
f 12/71/6 11/72/6 43/70/6 44/69/6
f 13/75/5 14/76/5 35/74/5 34/73/5
f 15/77/1 13/78/1 34/73/1 37/74/1
f 14/75/3 16/76/3 38/74/3 35/73/3
f 16/77/6 15/78/6 37/73/6 38/74/6
f 21/81/1 22/82/1 54/80/1 53/79/1
f 23/85/2 21/86/2 53/84/2 55/83/2
f 22/81/4 24/82/4 56/80/4 54/79/4
f 24/85/3 23/86/3 55/84/3 56/83/3

