# ProBuilder 5.0.6
# https://unity3d.com/unity/features/worldbuilding/probuilder
# 10/16/2024 8:51:37 PM

mtllib ./WoodWedge.mtl
o WoodWedge

g WoodWedge
v 1.996004 -2 0.25
v -1.99442 -2 0.25
v -1.99442 2.000504 0.25
v -1.99442 2.000504 -0.25
v -1.99442 -2 -0.25
v 1.996004 -2 -0.25

vt -0.5 0.5
vt 4 0.5
vt 4 2.25
vt 4 -0.5
vt -0.5 -0.5
vt 0.5 2.25
vt 0.5 -0.5
vt -0.5 2.25
vt -0.6873659 -0.5
vt -0.6873659 0.5
vt 4.58639 0.5
vt 4.58639 -0.5
vt 0.5 0.5
vt -4 -0.5
vt -4 0.5

vn 0 0 1
vn 0 0 -1
vn -1 0 0
vn 0.7079983 0.7062142 0
vn 0 -1 0

usemtl Tourch_Wood_mat
f 3/2/1 2/2/1 1/1/1
f 6/5/2 5/4/2 4/3/2
f 5/5/3 2/7/3 3/6/3
f 3/6/3 4/8/3 5/5/3
f 3/11/4 1/10/4 6/9/4
f 6/9/4 4/12/4 3/11/4
f 5/14/5 6/7/5 1/13/5
f 1/13/5 2/15/5 5/14/5

