# ProBuilder 5.0.6
# https://unity3d.com/unity/features/worldbuilding/probuilder
# 10/11/2024 10:22:52 PM

mtllib ./WoodWedge.mtl
o WoodWedge

g WoodWedge
v 2.25 0 0.25
v -2.25 0 0.25
v -2.25 2.75 0.25
v -2.25 0 -0.25
v -2.25 2.75 -0.25
v 2.25 0 -0.25

vt -0.5 0.5
vt 4 0.5
vt 0.5 -0.5
vt -0.5 -0.5
vt 0.5 2.25
vt -0.5 2.25
vt 4 -0.5
vt 4 2.25
vt -0.6873659 0.5
vt 4.58639 0.5
vt -0.6873659 -0.5
vt 4.58639 -0.5
vt -4 -0.5
vt 0.5 0.5
vt -4 0.5

vn 0 0 0
vn 0 0 0.5
vn 0 0 1
vn -1 0 0
vn 0 0 -1
vn 0 0 -0.5
vn 0.52145 0.8532819 0
vn 0 -1 0

usemtl Lit
f 1/1/2 3/2/3 2/2/2 1/1/1
f 3/5/4 5/6/4 4/4/4 2/3/4
f 5/8/6 6/4/1 6/4/6 4/7/5
f 6/4/1 1/1/1 1/1/1 6/4/1
f 6/11/7 5/12/7 3/10/7 1/9/7
f 1/14/8 2/15/8 4/13/8 6/3/8

